<svg version="1.1" id="Layer_1" xmlns="http://www.w3.org/2000/svg" xmlns:xlink="http://www.w3.org/1999/xlink" x="0px" y="0px"
	 width="100%" viewBox="0 0 735 665" enable-background="new 0 0 735 665" xml:space="preserve">
<path fill="#FFFEFE" opacity="1.000000" stroke="none" 
	d="
M1.000000,251.000000 
	C1.000000,167.333328 1.000000,84.166664 1.000000,1.000000 
	C246.000000,1.000000 491.000000,1.000000 736.000000,1.000000 
	C736.000000,222.666672 736.000000,444.333344 736.000000,666.000000 
	C491.000000,666.000000 246.000000,666.000000 1.000000,666.000000 
	C1.000000,527.833313 1.000000,389.666656 1.000000,251.000000 
M124.314026,330.999054 
	C115.820351,332.948456 108.890663,329.316010 101.936333,325.118011 
	C97.124802,322.213501 91.926239,319.927246 86.817017,317.543915 
	C78.256721,313.550812 69.197525,319.364197 66.768761,326.423676 
	C62.151745,339.843567 63.029514,353.559906 75.930557,364.390686 
	C79.820770,367.656616 83.057281,372.164368 85.403435,376.716492 
	C91.572823,388.686615 99.698631,397.521271 114.150124,398.141571 
	C122.508636,398.500366 130.419296,400.215729 138.100769,403.894836 
	C150.801193,409.977905 157.524048,407.414368 164.423447,395.497498 
	C192.763428,423.567963 226.657043,442.401917 263.028198,454.432312 
	C261.838226,458.136627 259.863159,461.262939 260.035309,464.266235 
	C260.829346,478.119507 258.632233,491.400085 254.508331,504.584015 
	C249.320740,521.168579 239.685806,535.434021 231.661957,550.556091 
	C229.514679,554.602905 227.796051,559.058777 226.870743,563.531677 
	C225.326370,570.997131 228.868484,576.811462 235.862747,580.032837 
	C244.507736,584.014648 253.716476,584.166382 262.821869,583.247742 
	C271.476440,582.374573 280.016113,580.361877 288.527039,578.864136 
	C283.062775,589.229248 284.271210,599.429016 292.095581,608.516602 
	C302.440430,620.531372 316.202240,625.287170 331.644684,625.455200 
	C337.034332,625.513977 341.323517,622.531921 343.282043,617.410950 
	C344.880646,613.231201 345.680054,608.745728 346.897919,604.154114 
	C360.464874,608.328430 374.591827,608.235291 388.763611,604.808289 
	C389.575104,621.592102 394.390564,627.469604 408.879303,629.852539 
	C426.670227,632.778625 449.601501,616.608093 452.848663,598.846680 
	C454.655762,588.962219 448.605774,580.447632 438.670410,578.957886 
	C436.177734,578.584167 433.662048,578.363708 430.479797,577.994202 
	C434.034363,573.621643 436.921906,570.069580 439.677307,566.680115 
	C452.777344,574.977234 466.962250,577.455811 481.468170,578.599304 
	C484.386047,578.829346 487.503662,578.313721 490.339539,577.489502 
	C503.414673,573.689148 507.432312,559.446899 497.805725,547.343140 
	C485.270233,531.581909 481.293793,512.971802 478.282990,494.069061 
	C475.840149,478.731995 474.898987,463.155731 473.247833,447.262390 
	C473.972900,446.955658 475.504211,446.334503 477.014069,445.664948 
	C499.507629,435.690125 520.624695,423.503113 539.551208,407.033081 
	C539.551208,407.033081 540.012268,406.886749 540.637146,407.250641 
	C545.727539,408.478912 550.771667,409.974640 555.920654,410.863739 
	C561.606201,411.845459 567.394348,412.219147 573.125854,412.951660 
	C580.485107,413.892242 587.829895,415.709686 595.185425,415.733063 
	C605.670837,415.766357 615.180054,411.944366 620.121033,402.109528 
	C623.525452,395.333130 628.601624,391.182037 634.920837,388.036957 
	C645.025574,383.007996 653.818237,376.357300 661.419434,368.013336 
	C669.950623,358.648651 671.571411,341.328613 664.701965,330.721893 
	C660.341309,323.988831 652.823547,321.316742 645.693604,324.812531 
	C641.299683,326.966858 637.502441,330.348694 633.466370,333.220276 
	C626.002686,338.530457 618.303772,342.192719 608.926575,337.938599 
	C606.555786,336.863037 603.836792,336.420898 601.226379,336.039490 
	C597.389832,335.478882 593.507202,335.234497 589.900330,334.123688 
	C591.674011,326.452423 593.447632,318.781128 595.635559,311.153381 
	C595.635559,311.153381 595.986572,310.929047 596.868896,311.057892 
	C599.828186,310.695312 602.795959,310.391052 605.744995,309.958405 
	C612.631592,308.948151 619.481628,307.254852 626.395630,306.949036 
	C645.088013,306.122284 659.870117,298.849670 669.105286,282.174164 
	C674.510071,272.415009 681.773254,264.301727 689.648926,256.591980 
	C691.172241,255.100739 692.478271,253.333099 693.638977,251.534515 
	C702.889832,237.199814 704.276611,221.131332 702.564880,204.870621 
	C701.822693,197.820145 699.292053,190.504150 695.808105,184.300278 
	C690.303467,174.498138 676.227417,169.094299 667.181946,180.943329 
	C661.418213,188.493393 657.703430,197.607635 652.520935,206.402771 
	C648.683594,209.957581 644.846191,213.512405 640.186584,216.971893 
	C633.305542,218.089218 626.424500,219.206543 619.543457,220.323868 
	C619.267212,219.638443 618.990906,218.953018 618.714661,218.267593 
	C623.844482,214.821396 628.670166,210.756882 634.165649,208.054199 
	C646.649597,201.914612 654.068176,191.816818 656.914917,178.779831 
	C661.243958,158.954483 669.585571,141.071960 680.197510,123.975021 
	C690.596741,107.220871 692.848633,89.789383 684.337158,71.232193 
	C679.579163,60.858398 676.322205,49.805771 672.035278,39.202003 
	C669.995728,34.157295 667.700256,29.033661 664.533875,24.660315 
	C653.998596,10.109057 633.467773,8.015284 622.340759,20.103264 
	C616.045898,26.941679 616.853149,35.419037 617.505005,43.753254 
	C617.906189,48.882267 618.943298,54.003197 618.884216,59.118389 
	C618.735291,72.009148 612.511902,80.395630 600.417603,84.032051 
	C591.848755,86.608475 585.898682,91.892715 582.142822,99.826912 
	C578.442627,107.643555 574.966614,115.568405 571.159668,123.331741 
	C568.405762,128.947601 563.946899,131.673553 557.384338,130.992172 
	C548.704346,130.090958 541.190613,132.954025 534.123291,138.132736 
	C530.382324,140.874023 528.449463,143.755829 528.055603,148.245148 
	C527.584595,153.613022 526.653687,158.940567 525.319763,163.936432 
	C520.956177,160.897247 516.733032,157.628799 512.205994,154.856628 
	C485.600708,138.564728 457.151306,126.849770 426.564056,120.366173 
	C350.206512,104.180611 277.388184,112.390343 208.993988,151.593597 
	C207.718811,152.324524 206.296371,152.798508 204.829178,152.481583 
	C204.574448,150.034714 204.957138,147.278198 203.946793,145.198425 
	C200.776428,138.672302 196.551544,133.214844 188.042084,133.941971 
	C186.979462,134.032776 185.777588,133.469788 184.761002,132.966019 
	C177.762238,129.497787 170.819931,125.915230 163.811249,122.467453 
	C157.693115,119.457748 154.297119,114.959785 154.842194,107.818619 
	C155.414230,100.323692 153.235138,93.492516 148.069626,88.089432 
	C144.068390,83.904198 139.615112,80.008667 134.852203,76.724907 
	C125.974312,70.604088 123.835495,62.067314 125.229073,52.223038 
	C126.136620,45.812107 124.790604,39.967400 121.951042,34.424545 
	C116.627602,24.033125 107.714203,20.144188 98.505676,23.904081 
	C84.954903,29.436935 71.671349,52.872150 74.496529,67.299583 
	C76.513901,77.601753 76.864899,87.542038 73.492874,97.665947 
	C67.087753,116.896172 70.492043,134.127594 83.834419,149.787323 
	C87.615524,154.225128 90.358948,160.569946 91.112206,166.360947 
	C92.922112,180.275360 99.814156,190.173264 110.701492,198.477020 
	C117.209679,203.440796 122.280205,210.248306 128.421875,215.752975 
	C131.088455,218.142960 134.824371,219.339890 137.968857,221.765778 
	C135.618423,226.492004 133.267990,231.218231 130.261993,235.827667 
	C128.362259,234.003311 126.614937,231.979446 124.535263,230.390610 
	C117.236511,224.814484 112.291664,217.602676 107.806320,209.618973 
	C105.193146,204.967682 99.906364,201.789581 95.719398,198.064575 
	C93.869308,196.418610 91.774132,195.045563 89.771423,193.574203 
	C83.851830,189.225204 83.236794,182.267990 81.102852,176.046463 
	C77.712479,166.161774 67.942802,159.833862 59.619431,162.512192 
	C51.160194,165.234222 44.860104,170.750641 43.304707,179.733383 
	C42.073849,186.841843 41.549732,194.242371 41.997665,201.433090 
	C42.716412,212.971222 39.762531,223.817474 37.684437,234.914551 
	C34.940487,249.567322 36.784565,263.539673 50.805054,271.755066 
	C60.268330,277.300110 66.914062,284.280975 70.808624,294.280975 
	C71.405045,295.812347 72.440750,297.174927 73.292229,298.604309 
	C77.064362,304.936584 82.505852,309.108948 89.723061,310.601013 
	C94.754189,311.641174 99.871910,312.318237 104.979019,312.918793 
	C109.744995,313.479218 113.969978,314.685303 117.231812,318.656067 
	C118.731834,320.482117 121.192497,321.519012 123.481293,323.627197 
	C124.051926,326.066803 124.622566,328.506439 124.314026,330.999054 
z"/>
<path fill="#813239" opacity="1.000000" stroke="none" 
	d="
M539.068481,407.023956 
	C520.624695,423.503113 499.507629,435.690125 477.014069,445.664948 
	C475.504211,446.334503 473.972900,446.955658 473.247833,447.262390 
	C474.898987,463.155731 475.840149,478.731995 478.282990,494.069061 
	C481.293793,512.971802 485.270233,531.581909 497.805725,547.343140 
	C507.432312,559.446899 503.414673,573.689148 490.339539,577.489502 
	C487.503662,578.313721 484.386047,578.829346 481.468170,578.599304 
	C466.962250,577.455811 452.777344,574.977234 439.677307,566.680115 
	C436.921906,570.069580 434.034363,573.621643 430.479797,577.994202 
	C433.662048,578.363708 436.177734,578.584167 438.670410,578.957886 
	C448.605774,580.447632 454.655762,588.962219 452.848663,598.846680 
	C449.601501,616.608093 426.670227,632.778625 408.879303,629.852539 
	C394.390564,627.469604 389.575104,621.592102 388.763611,604.808289 
	C374.591827,608.235291 360.464874,608.328430 346.897919,604.154114 
	C345.680054,608.745728 344.880646,613.231201 343.282043,617.410950 
	C341.323517,622.531921 337.034332,625.513977 331.644684,625.455200 
	C316.202240,625.287170 302.440430,620.531372 292.095581,608.516602 
	C284.271210,599.429016 283.062775,589.229248 288.527039,578.864136 
	C280.016113,580.361877 271.476440,582.374573 262.821869,583.247742 
	C253.716476,584.166382 244.507736,584.014648 235.862747,580.032837 
	C228.868484,576.811462 225.326370,570.997131 226.870743,563.531677 
	C227.796051,559.058777 229.514679,554.602905 231.661957,550.556091 
	C239.685806,535.434021 249.320740,521.168579 254.508331,504.584015 
	C258.632233,491.400085 260.829346,478.119507 260.035309,464.266235 
	C259.863159,461.262939 261.838226,458.136627 263.028198,454.432312 
	C226.657043,442.401917 192.763428,423.567963 164.103912,395.011292 
	C163.498932,394.031158 163.213486,393.537231 163.231232,392.761780 
	C163.002426,387.357727 162.470413,382.235260 162.051422,377.001740 
	C162.164444,376.890717 162.301437,376.605011 162.683746,376.490601 
	C168.792511,373.950623 173.242233,375.289825 176.691238,380.589569 
	C177.935745,382.501892 179.853561,383.999939 181.559265,385.584656 
	C205.196777,407.545410 232.275620,423.900726 262.943909,433.796082 
	C271.435181,436.535828 278.048737,441.067902 283.925903,447.174561 
	C285.247803,448.548065 285.838470,451.081085 285.908875,453.110046 
	C286.063629,457.569550 285.054962,462.127594 285.619995,466.503510 
	C287.152740,478.373444 288.766907,490.273132 291.236816,501.973572 
	C296.693359,527.822693 306.771606,551.327576 326.279755,570.165833 
	C350.484985,593.540039 384.682129,594.241333 409.517639,571.610413 
	C426.594513,556.049377 436.889771,536.574768 442.940063,514.695312 
	C449.753082,490.057648 452.132385,465.008759 448.092194,439.590027 
	C447.564819,436.272156 448.664734,434.927704 451.894653,434.021149 
	C458.449463,432.181427 465.104218,430.348053 471.268463,427.529388 
	C493.487427,417.369293 514.137695,404.681122 532.406494,388.280945 
	C532.256226,395.617218 534.234741,401.815643 539.068481,407.023956 
M241.318054,565.419312 
	C243.306946,566.366089 245.222733,567.911072 247.296356,568.164551 
	C263.389618,570.131042 278.699585,567.624084 293.369659,559.269714 
	C292.567688,557.344238 291.791870,555.393372 290.948456,553.472229 
	C287.748474,546.183411 283.200531,539.177917 281.627899,531.556519 
	C279.344269,520.489258 273.083191,510.556824 272.878235,499.003052 
	C272.869507,498.511505 272.179413,498.032043 271.366974,496.974548 
	C267.254028,515.986938 259.281830,532.710022 249.529953,548.708923 
	C246.431931,553.791504 244.086670,559.332947 241.318054,565.419312 
M468.003174,515.432007 
	C467.080872,511.155304 466.158569,506.878601 465.236267,502.601898 
	C463.353058,503.819702 462.409180,505.044525 462.205963,506.381866 
	C459.811951,522.136047 452.683868,535.619873 442.955200,548.011414 
	C441.284698,550.139160 441.035217,553.382568 440.129272,556.110596 
	C448.114044,553.729553 453.258911,558.710999 459.141510,559.821838 
	C467.271118,561.356873 475.408234,563.053528 483.622711,563.859253 
	C488.287109,564.316711 489.477325,561.665222 487.402557,557.459961 
	C486.888428,556.417847 486.412628,555.298950 485.661896,554.440308 
	C476.042328,543.437683 471.588287,530.080322 468.003174,515.432007 
M405.274994,599.769775 
	C402.483154,603.639099 399.740234,608.108704 402.124329,612.571960 
	C404.535828,617.086487 409.926605,616.981750 414.613190,617.040100 
	C416.084229,617.058472 417.588043,616.778259 419.029846,616.436340 
	C429.185059,614.027832 434.504944,606.032410 439.577026,598.037964 
	C441.657806,594.758362 439.557617,591.907166 435.438324,591.816956 
	C424.911896,591.586426 415.089081,594.291199 405.274994,599.769775 
M322.380005,590.335388 
	C317.399750,586.312988 311.839722,584.224426 305.329559,584.973206 
	C300.278839,585.554138 298.013550,588.642822 299.442444,593.512268 
	C299.903198,595.082397 300.644867,596.642273 301.570892,597.992126 
	C308.077301,607.475952 318.028259,610.457520 328.644623,611.671326 
	C332.712494,612.136414 332.777344,608.585083 331.636078,606.108032 
	C330.204559,603.000854 327.762482,600.374207 325.934601,597.429626 
	C324.674805,595.400146 323.717163,593.183105 322.380005,590.335388 
z"/>
<path fill="#FD8B94" opacity="1.000000" stroke="none" 
	d="
M525.922058,164.285568 
	C526.653687,158.940567 527.584595,153.613022 528.055603,148.245148 
	C528.449463,143.755829 530.382324,140.874023 534.123291,138.132736 
	C541.190613,132.954025 548.704346,130.090958 557.384338,130.992172 
	C563.946899,131.673553 568.405762,128.947601 571.159668,123.331741 
	C574.966614,115.568405 578.442627,107.643555 582.142822,99.826912 
	C585.898682,91.892715 591.848755,86.608475 600.417603,84.032051 
	C612.511902,80.395630 618.735291,72.009148 618.884216,59.118389 
	C618.943298,54.003197 617.906189,48.882267 617.505005,43.753254 
	C616.853149,35.419037 616.045898,26.941679 622.340759,20.103264 
	C633.467773,8.015284 653.998596,10.109057 664.533875,24.660315 
	C667.700256,29.033661 669.995728,34.157295 672.035278,39.202003 
	C676.322205,49.805771 679.579163,60.858398 684.337158,71.232193 
	C692.848633,89.789383 690.596741,107.220871 680.197510,123.975021 
	C669.585571,141.071960 661.243958,158.954483 656.914917,178.779831 
	C654.068176,191.816818 646.649597,201.914612 634.165649,208.054199 
	C628.670166,210.756882 623.844482,214.821396 618.714661,218.267593 
	C618.990906,218.953018 619.267212,219.638443 619.543457,220.323868 
	C626.424500,219.206543 633.305542,218.089218 640.575439,217.359970 
	C639.928345,219.027420 639.069580,220.519302 637.829163,221.553284 
	C625.602966,231.744415 612.197815,239.879227 597.043884,245.042114 
	C592.000916,246.760239 588.318115,246.571121 587.125854,240.410919 
	C587.020325,239.866028 586.300964,239.439926 585.873169,238.581696 
	C584.973999,236.359116 584.068359,234.513474 583.140442,232.308411 
	C581.837708,228.919357 580.557190,225.889725 579.080261,222.395309 
	C580.837158,221.819443 582.348999,221.293945 583.878784,220.827377 
	C593.543579,217.879807 603.692505,215.962250 611.426880,208.717407 
	C616.988586,203.507751 622.414612,198.148209 627.785339,192.740555 
	C643.620361,176.796478 655.769775,158.616776 661.670776,136.648804 
	C666.631836,118.179909 669.700806,99.638794 663.956055,80.758713 
	C661.133972,71.484108 657.808472,62.455761 650.290649,55.702946 
	C641.405518,47.722027 630.468628,49.468143 625.965027,60.543415 
	C622.435791,69.222519 619.995056,78.466339 618.115601,87.672577 
	C611.019409,122.432922 592.061401,147.553101 559.044922,161.277649 
	C554.397583,163.209488 549.316711,165.274734 543.670166,162.616638 
	C540.608215,161.175262 537.505432,163.035843 536.302246,166.629089 
	C535.864563,167.936401 535.710999,169.338867 535.413269,170.767731 
	C532.714539,169.327026 530.412415,168.098038 527.954163,166.626801 
	C527.172729,165.684875 526.547363,164.985229 525.922058,164.285568 
M606.353638,223.833038 
	C601.515564,226.236664 596.677490,228.640289 591.839417,231.043915 
	C592.089844,231.518906 592.340210,231.993896 592.590637,232.468887 
	C601.455994,232.231873 608.044250,227.210312 614.283508,221.173248 
	C611.870972,221.946243 609.458435,222.719254 606.353638,223.833038 
z"/>
<path fill="#803239" opacity="1.000000" stroke="none" 
	d="
M525.620911,164.110992 
	C526.547363,164.985229 527.172729,165.684875 527.899292,167.053101 
	C528.390991,170.188797 528.781372,172.655930 529.100708,175.344040 
	C529.029663,175.565018 528.928345,176.018082 528.557739,176.026001 
	C526.494995,176.692474 524.732056,177.212555 523.123657,178.035065 
	C517.889893,180.711655 513.861938,179.343491 509.138824,175.873047 
	C493.893005,164.670731 476.957703,156.264999 459.268707,149.792191 
	C417.703735,134.582642 374.799927,128.656357 330.590057,132.819580 
	C290.024353,136.639618 251.862366,147.863983 216.894318,169.118332 
	C209.829956,173.412201 202.386200,172.391769 194.940613,170.802780 
	C195.903564,168.908859 196.875839,167.417892 197.667404,165.836456 
	C199.239883,162.694901 200.712814,159.503479 202.453827,156.139343 
	C203.434723,155.094818 204.188675,154.243607 204.942627,153.392395 
	C206.296371,152.798508 207.718811,152.324524 208.993988,151.593597 
	C277.388184,112.390343 350.206512,104.180611 426.564056,120.366173 
	C457.151306,126.849770 485.600708,138.564728 512.205994,154.856628 
	C516.733032,157.628799 520.956177,160.897247 525.620911,164.110992 
z"/>
<path fill="#FC8B95" opacity="1.000000" stroke="none" 
	d="
M204.885895,152.936981 
	C204.188675,154.243607 203.434723,155.094818 202.111938,156.150238 
	C200.503586,156.764725 199.291290,157.748001 198.451706,157.494904 
	C191.544098,155.412567 184.635239,153.291870 177.868256,150.798721 
	C172.281067,148.740250 165.687469,147.411835 161.653320,143.551361 
	C152.943344,135.216370 144.874817,125.975334 137.854126,116.167099 
	C127.837646,102.173645 123.004555,85.866661 119.901024,69.012489 
	C118.711349,62.551773 117.434074,55.915840 114.840111,49.949574 
	C110.874611,40.828735 100.049065,38.818882 93.543266,46.292843 
	C89.006912,51.504284 85.313545,58.098148 83.264946,64.701576 
	C77.713432,82.596207 77.767105,101.161636 80.242538,119.531898 
	C83.468712,143.473358 94.839172,164.239044 107.727669,184.168243 
	C116.257530,197.357788 128.178635,206.703705 142.858063,212.744812 
	C141.513428,215.632309 140.275726,218.290192 138.801407,221.011963 
	C138.564789,221.075882 138.074585,221.078690 138.074585,221.078690 
	C134.824371,219.339890 131.088455,218.142960 128.421875,215.752975 
	C122.280205,210.248306 117.209679,203.440796 110.701492,198.477020 
	C99.814156,190.173264 92.922112,180.275360 91.112206,166.360947 
	C90.358948,160.569946 87.615524,154.225128 83.834419,149.787323 
	C70.492043,134.127594 67.087753,116.896172 73.492874,97.665947 
	C76.864899,87.542038 76.513901,77.601753 74.496529,67.299583 
	C71.671349,52.872150 84.954903,29.436935 98.505676,23.904081 
	C107.714203,20.144188 116.627602,24.033125 121.951042,34.424545 
	C124.790604,39.967400 126.136620,45.812107 125.229073,52.223038 
	C123.835495,62.067314 125.974312,70.604088 134.852203,76.724907 
	C139.615112,80.008667 144.068390,83.904198 148.069626,88.089432 
	C153.235138,93.492516 155.414230,100.323692 154.842194,107.818619 
	C154.297119,114.959785 157.693115,119.457748 163.811249,122.467453 
	C170.819931,125.915230 177.762238,129.497787 184.761002,132.966019 
	C185.777588,133.469788 186.979462,134.032776 188.042084,133.941971 
	C196.551544,133.214844 200.776428,138.672302 203.946793,145.198425 
	C204.957138,147.278198 204.574448,150.034714 204.885895,152.936981 
z"/>
<path fill="#FD8B94" opacity="1.000000" stroke="none" 
	d="
M653.070007,206.020538 
	C657.703430,197.607635 661.418213,188.493393 667.181946,180.943329 
	C676.227417,169.094299 690.303467,174.498138 695.808105,184.300278 
	C699.292053,190.504150 701.822693,197.820145 702.564880,204.870621 
	C704.276611,221.131332 702.889832,237.199814 693.638977,251.534515 
	C692.478271,253.333099 691.172241,255.100739 689.648926,256.591980 
	C681.773254,264.301727 674.510071,272.415009 669.105286,282.174164 
	C659.870117,298.849670 645.088013,306.122284 626.395630,306.949036 
	C619.481628,307.254852 612.631592,308.948151 605.744995,309.958405 
	C602.795959,310.391052 599.828186,310.695312 596.388794,310.533142 
	C595.908691,304.564545 595.908691,299.120667 595.908691,295.245209 
	C602.905396,293.272705 608.895142,291.826721 614.724121,289.895386 
	C632.401245,284.038452 648.597839,276.046234 661.247559,261.508545 
	C672.135803,248.995270 678.026489,235.652985 675.050110,218.831406 
	C672.736816,205.756927 665.826965,201.360138 653.565857,205.990952 
	C653.417969,206.046814 653.236023,206.012680 653.070007,206.020538 
z"/>
<path fill="#FD8B95" opacity="1.000000" stroke="none" 
	d="
M123.217552,322.913757 
	C121.192497,321.519012 118.731834,320.482117 117.231812,318.656067 
	C113.969978,314.685303 109.744995,313.479218 104.979019,312.918793 
	C99.871910,312.318237 94.754189,311.641174 89.723061,310.601013 
	C82.505852,309.108948 77.064362,304.936584 73.292229,298.604309 
	C72.440750,297.174927 71.405045,295.812347 70.808624,294.280975 
	C66.914062,284.280975 60.268330,277.300110 50.805054,271.755066 
	C36.784565,263.539673 34.940487,249.567322 37.684437,234.914551 
	C39.762531,223.817474 42.716412,212.971222 41.997665,201.433090 
	C41.549732,194.242371 42.073849,186.841843 43.304707,179.733383 
	C44.860104,170.750641 51.160194,165.234222 59.619431,162.512192 
	C67.942802,159.833862 77.712479,166.161774 81.102852,176.046463 
	C83.236794,182.267990 83.851830,189.225204 89.771423,193.574203 
	C91.774132,195.045563 93.869308,196.418610 95.719398,198.064575 
	C99.906364,201.789581 105.193146,204.967682 107.806320,209.618973 
	C112.291664,217.602676 117.236511,224.814484 124.535263,230.390610 
	C126.614937,231.979446 128.362259,234.003311 130.697021,236.148926 
	C131.157928,236.657669 131.183807,236.845139 130.903839,237.225021 
	C129.751877,239.399033 128.665039,241.315979 128.111816,243.376236 
	C127.087738,247.189972 125.059982,247.598007 121.836563,245.911087 
	C114.235512,241.933258 107.149223,237.388794 102.806259,229.631393 
	C97.944740,220.947769 93.268806,212.155609 88.216705,203.584808 
	C84.294563,196.930969 78.845573,192.059326 70.440918,193.209061 
	C62.284611,194.324799 58.198261,200.087891 56.377186,207.543533 
	C55.519524,211.054871 54.932701,214.778809 55.094250,218.367203 
	C55.782494,233.654587 57.303543,248.927139 62.995144,263.252686 
	C72.406120,286.939728 88.270752,302.862335 115.363174,304.082184 
	C119.042366,304.247803 120.543938,306.031647 121.006134,309.629425 
	C121.550964,313.870300 122.725357,318.030273 123.557632,322.417145 
	C123.488503,322.608948 123.217560,322.913727 123.217552,322.913757 
z"/>
<path fill="#D54653" opacity="1.000000" stroke="none" 
	d="
M652.795471,206.211655 
	C653.236023,206.012680 653.417969,206.046814 653.565857,205.990952 
	C665.826965,201.360138 672.736816,205.756927 675.050110,218.831406 
	C678.026489,235.652985 672.135803,248.995270 661.247559,261.508545 
	C648.597839,276.046234 632.401245,284.038452 614.724121,289.895386 
	C608.895142,291.826721 602.905396,293.272705 595.908691,295.245209 
	C595.908691,299.120667 595.908691,304.564545 595.947632,310.468750 
	C595.986572,310.929047 595.635559,311.153381 595.041504,311.069885 
	C587.060059,309.990784 582.279907,304.872070 577.130676,299.778748 
	C576.895203,298.707825 576.795715,297.980225 576.814819,296.782776 
	C576.966614,295.316193 577.009338,294.319702 577.031372,293.322754 
	C577.213684,285.072510 575.623962,286.170227 584.710144,283.591370 
	C596.638000,280.206024 608.516418,276.612244 620.289978,272.726044 
	C634.972595,267.879669 646.340881,258.346863 655.448425,246.119217 
	C658.051819,242.623978 660.537048,238.565445 661.451660,234.407761 
	C662.599731,229.188828 663.059021,223.509079 660.306274,216.963882 
	C637.143066,243.502518 610.038696,260.570496 574.038818,260.878723 
	C573.480530,258.655731 572.683533,255.482178 572.182068,252.104584 
	C575.828918,246.436417 579.044495,240.831909 585.866760,238.958649 
	C586.300964,239.439926 587.020325,239.866028 587.125854,240.410919 
	C588.318115,246.571121 592.000916,246.760239 597.043884,245.042114 
	C612.197815,239.879227 625.602966,231.744415 637.829163,221.553284 
	C639.069580,220.519302 639.928345,219.027420 640.986511,217.407639 
	C644.846191,213.512405 648.683594,209.957581 652.795471,206.211655 
z"/>
<path fill="#FD8B95" opacity="1.000000" stroke="none" 
	d="
M589.644165,334.855377 
	C593.507202,335.234497 597.389832,335.478882 601.226379,336.039490 
	C603.836792,336.420898 606.555786,336.863037 608.926575,337.938599 
	C618.303772,342.192719 626.002686,338.530457 633.466370,333.220276 
	C637.502441,330.348694 641.299683,326.966858 645.693604,324.812531 
	C652.823547,321.316742 660.341309,323.988831 664.701965,330.721893 
	C671.571411,341.328613 669.950623,358.648651 661.419434,368.013336 
	C653.818237,376.357300 645.025574,383.007996 634.920837,388.036957 
	C628.601624,391.182037 623.525452,395.333130 620.121033,402.109528 
	C615.180054,411.944366 605.670837,415.766357 595.185425,415.733063 
	C587.829895,415.709686 580.485107,413.892242 573.125854,412.951660 
	C567.394348,412.219147 561.606201,411.845459 555.920654,410.863739 
	C550.771667,409.974640 545.727539,408.478912 540.455322,406.771790 
	C543.176758,402.905334 546.080017,399.517792 548.983276,396.130249 
	C552.962280,399.025604 555.793518,401.302917 558.876892,401.721008 
	C581.045837,404.727203 602.549500,403.265472 620.738464,388.420990 
	C629.358398,381.386078 637.125977,373.258301 640.227661,361.882233 
	C642.303894,354.267273 640.378052,347.404083 634.607056,343.118805 
	C630.024109,339.715729 623.509583,340.522430 616.890198,344.274994 
	C609.133545,348.672302 601.157166,352.770447 592.966064,356.273407 
	C589.244934,357.864716 584.777771,357.711304 580.177673,358.422211 
	C583.132263,350.325104 585.669373,343.372284 588.416260,336.242676 
	C588.965332,335.662415 589.304749,335.258881 589.644165,334.855377 
z"/>
<path fill="#D54653" opacity="1.000000" stroke="none" 
	d="
M588.206421,336.419434 
	C585.669373,343.372284 583.132263,350.325104 580.177673,358.422211 
	C584.777771,357.711304 589.244934,357.864716 592.966064,356.273407 
	C601.157166,352.770447 609.133545,348.672302 616.890198,344.274994 
	C623.509583,340.522430 630.024109,339.715729 634.607056,343.118805 
	C640.378052,347.404083 642.303894,354.267273 640.227661,361.882233 
	C637.125977,373.258301 629.358398,381.386078 620.738464,388.420990 
	C602.549500,403.265472 581.045837,404.727203 558.876892,401.721008 
	C555.793518,401.302917 552.962280,399.025604 548.983276,396.130249 
	C546.080017,399.517792 543.176758,402.905334 540.142944,406.589844 
	C540.012268,406.886749 539.551208,407.033081 539.309814,407.028503 
	C534.234741,401.815643 532.256226,395.617218 532.478882,388.013031 
	C532.624512,386.994202 532.966187,386.549744 533.495361,385.991333 
	C533.918274,385.676331 534.052307,385.421875 534.072632,385.071289 
	C534.060242,385.028473 534.123779,385.091003 534.464233,385.034027 
	C538.568542,380.337585 542.749695,381.408691 547.391113,383.650635 
	C550.625244,385.212830 554.228882,386.040436 557.706848,387.061859 
	C571.061035,390.983826 584.290466,389.113129 597.378235,385.782013 
	C609.347351,382.735596 616.925293,373.675385 624.379089,364.751556 
	C626.738831,361.926453 628.249207,358.295135 626.200378,354.037628 
	C624.503357,355.091125 623.042297,355.851227 621.743835,356.827515 
	C611.856750,364.261261 600.750183,368.810974 588.562988,370.613525 
	C573.462463,372.847046 564.843445,365.690826 565.070312,351.828857 
	C565.117676,348.936157 566.397583,346.063660 567.321289,343.087524 
	C567.533142,342.993225 567.986206,342.894043 568.347778,342.861420 
	C575.208435,340.692352 581.707397,338.555878 588.206421,336.419434 
z"/>
<path fill="#FC8B95" opacity="1.000000" stroke="none" 
	d="
M162.928024,393.043304 
	C163.213486,393.537231 163.498932,394.031158 163.843658,394.804626 
	C157.524048,407.414368 150.801193,409.977905 138.100769,403.894836 
	C130.419296,400.215729 122.508636,398.500366 114.150124,398.141571 
	C99.698631,397.521271 91.572823,388.686615 85.403435,376.716492 
	C83.057281,372.164368 79.820770,367.656616 75.930557,364.390686 
	C63.029514,353.559906 62.151745,339.843567 66.768761,326.423676 
	C69.197525,319.364197 78.256721,313.550812 86.817017,317.543915 
	C91.926239,319.927246 97.124802,322.213501 101.936333,325.118011 
	C108.890663,329.316010 115.820351,332.948456 124.979988,331.050629 
	C125.858963,331.343018 126.032646,331.609436 126.152039,332.284546 
	C127.344475,336.539215 128.551880,340.410889 130.076874,345.300995 
	C124.899765,343.357819 120.634178,342.037415 116.614632,340.183563 
	C110.270645,337.257721 104.165909,333.812286 97.816849,330.898560 
	C93.651421,328.986908 89.214165,328.004395 85.137886,331.329681 
	C81.213493,334.531036 80.779602,338.622162 81.505135,343.466370 
	C83.714485,358.217651 91.363403,369.786621 102.131813,379.476410 
	C115.370377,391.388947 130.911621,395.614624 147.880600,389.916809 
	C154.379257,387.734711 158.790878,387.640594 162.928024,393.043304 
z"/>
<path fill="#823239" opacity="1.000000" stroke="none" 
	d="
M588.416199,336.242676 
	C581.707397,338.555878 575.208435,340.692352 568.372192,342.444183 
	C568.477783,339.479584 568.804871,336.873352 569.383240,334.324127 
	C571.971924,322.914581 574.632202,311.521271 577.266602,300.122101 
	C582.279907,304.872070 587.060059,309.990784 594.834351,311.048126 
	C593.447632,318.781128 591.674011,326.452423 589.772217,334.489502 
	C589.304749,335.258881 588.965332,335.662415 588.416199,336.242676 
z"/>
<path fill="#833239" opacity="1.000000" stroke="none" 
	d="
M131.209686,237.032623 
	C131.183807,236.845139 131.157928,236.657669 131.024811,236.207336 
	C133.267990,231.218231 135.618423,226.492004 138.021729,221.422241 
	C138.074585,221.078690 138.564789,221.075882 139.220184,221.041351 
	C148.573135,220.624283 155.568787,216.468567 162.300507,211.056702 
	C163.030319,211.095428 163.446838,211.110611 164.165512,211.308075 
	C164.512787,212.913254 165.095673,214.617889 164.520462,215.715775 
	C158.263306,227.658447 151.868927,239.530289 145.393890,251.356812 
	C144.257187,253.432968 142.574905,255.210434 140.855621,256.849426 
	C139.418167,251.998428 138.718506,247.239136 136.942230,242.922897 
	C135.974503,240.571350 133.180191,238.971497 131.209686,237.032623 
z"/>
<path fill="#843239" opacity="1.000000" stroke="none" 
	d="
M126.167000,331.901520 
	C126.032646,331.609436 125.858963,331.343018 125.419579,331.024109 
	C124.622566,328.506439 124.051926,326.066803 123.349426,323.270447 
	C123.217560,322.913727 123.488503,322.608948 123.898972,322.365356 
	C128.966248,322.217072 131.741623,319.367157 134.132858,315.881683 
	C135.927917,313.265167 137.768646,310.679932 139.701431,308.476807 
	C142.528702,318.380402 145.386581,327.850708 147.875092,337.417114 
	C148.666382,340.459045 148.474915,343.756622 148.419861,346.862457 
	C147.432648,345.891541 146.679626,345.043762 146.097336,344.091553 
	C141.528900,336.621033 135.538467,331.505951 126.167000,331.901520 
z"/>
<path fill="#FFCCCB" opacity="1.000000" stroke="none" 
	d="
M148.733139,346.937195 
	C148.474915,343.756622 148.666382,340.459045 147.875092,337.417114 
	C145.386581,327.850708 142.528702,318.380402 139.791229,308.105591 
	C139.742966,306.572479 139.717285,305.806610 139.858612,304.658813 
	C140.693314,299.721710 141.931244,295.164581 141.915039,290.611847 
	C141.876282,279.720093 141.247116,268.830414 140.947327,257.743103 
	C141.038345,257.546326 141.144577,257.125854 141.144592,257.125854 
	C142.574905,255.210434 144.257187,253.432968 145.393890,251.356812 
	C151.868927,239.530289 158.263306,227.658447 164.520462,215.715775 
	C165.095673,214.617889 164.512787,212.913254 164.225998,210.953278 
	C173.968948,197.280045 183.953552,184.143890 194.169250,171.055450 
	C194.400345,171.103134 194.868225,171.164825 194.868225,171.164825 
	C202.386200,172.391769 209.829956,173.412201 216.894318,169.118332 
	C251.862366,147.863983 290.024353,136.639618 330.590057,132.819580 
	C374.799927,128.656357 417.703735,134.582642 459.268707,149.792191 
	C476.957703,156.264999 493.893005,164.670731 509.138824,175.873047 
	C513.861938,179.343491 517.889893,180.711655 523.123657,178.035065 
	C524.732056,177.212555 526.494995,176.692474 528.589966,176.432419 
	C531.401062,184.343613 532.988770,192.256927 536.414124,199.273071 
	C541.289551,209.259277 548.288330,217.904663 557.964478,224.298660 
	C558.335022,225.051193 558.665161,225.504578 559.101624,226.294067 
	C563.179626,235.092957 567.151245,243.555756 571.073120,252.453308 
	C570.349487,260.070404 568.831421,267.299377 569.225220,274.422699 
	C569.670044,282.469757 570.569092,290.848053 576.696167,297.252655 
	C576.795715,297.980225 576.895203,298.707825 577.130676,299.778748 
	C574.632202,311.521271 571.971924,322.914581 569.383240,334.324127 
	C568.804871,336.873352 568.477783,339.479584 568.010620,342.476807 
	C567.986206,342.894043 567.533142,342.993225 566.955322,343.057831 
	C547.820435,351.112976 539.616333,367.060059 534.123779,385.091003 
	C534.123779,385.091003 534.060242,385.028473 533.841248,385.137390 
	C533.336914,385.466522 533.232117,385.752838 533.307800,386.105286 
	C532.966187,386.549744 532.624512,386.994202 532.210449,387.706543 
	C514.137695,404.681122 493.487427,417.369293 471.268463,427.529388 
	C465.104218,430.348053 458.449463,432.181427 451.894653,434.021149 
	C448.664734,434.927704 447.564819,436.272156 448.092194,439.590027 
	C452.132385,465.008759 449.753082,490.057648 442.940063,514.695312 
	C436.889771,536.574768 426.594513,556.049377 409.517639,571.610413 
	C384.682129,594.241333 350.484985,593.540039 326.279755,570.165833 
	C306.771606,551.327576 296.693359,527.822693 291.236816,501.973572 
	C288.766907,490.273132 287.152740,478.373444 285.619995,466.503510 
	C285.054962,462.127594 286.063629,457.569550 285.908875,453.110046 
	C285.838470,451.081085 285.247803,448.548065 283.925903,447.174561 
	C278.048737,441.067902 271.435181,436.535828 262.943909,433.796082 
	C232.275620,423.900726 205.196777,407.545410 181.559265,385.584656 
	C179.853561,383.999939 177.935745,382.501892 176.691238,380.589569 
	C173.242233,375.289825 168.792511,373.950623 162.393051,376.206909 
	C160.871643,374.079803 160.105759,372.081116 159.159882,370.171600 
	C155.821548,363.432129 152.421539,356.723236 149.031006,349.615936 
	C148.922455,348.465149 148.827789,347.701172 148.733139,346.937195 
M436.331238,346.945312 
	C437.946716,348.929108 439.230194,352.141571 441.235291,352.683289 
	C449.762665,354.987152 458.498688,355.765900 467.187439,352.992279 
	C472.764465,351.212006 473.081543,350.513733 471.239441,344.859436 
	C470.867554,343.717926 471.227142,342.338104 471.712402,340.479950 
	C484.680298,325.304230 485.582764,295.916351 473.563782,280.190399 
	C459.429932,261.697296 436.414124,263.464813 425.566132,284.127686 
	C418.954407,296.721405 417.872803,310.256653 421.480316,323.904999 
	C423.859192,332.905182 428.524902,340.771362 436.331238,346.945312 
M257.562927,342.655396 
	C254.265884,347.197937 256.819366,351.909424 263.871918,352.533844 
	C271.556213,353.214233 279.375580,353.129700 287.079376,352.581757 
	C292.940979,352.164886 295.430298,349.000000 295.793335,343.675873 
	C312.761078,329.051666 311.639404,296.169647 302.564911,282.024567 
	C289.927307,262.325287 267.210266,261.504547 253.577972,280.422333 
	C247.888077,288.318298 245.873764,297.422852 245.468445,306.758667 
	C244.895340,319.958771 248.199219,332.140228 257.562927,342.655396 
M351.286102,354.856995 
	C348.567444,360.127960 345.577240,365.336609 347.467010,371.694977 
	C348.719116,370.119965 349.140381,368.319672 349.720459,366.572113 
	C350.654968,363.756836 351.351471,360.790833 352.746979,358.212433 
	C359.845917,345.096161 375.754517,342.905151 384.432678,354.144470 
	C387.466125,358.073090 388.869598,363.261810 391.005493,367.880585 
	C391.456360,368.855469 391.855347,369.854309 392.278259,370.842102 
	C393.557434,369.468140 393.951416,368.350555 393.762115,367.342560 
	C392.152527,358.772430 387.911407,351.726013 380.484100,347.119110 
	C370.576538,340.973785 360.444183,343.672821 351.286102,354.856995 
z"/>
<path fill="#D54653" opacity="1.000000" stroke="none" 
	d="
M148.419861,346.862457 
	C148.827789,347.701172 148.922455,348.465149 148.754395,349.844788 
	C146.676376,357.321320 144.028793,360.687805 140.104477,359.903900 
	C131.696152,358.224304 123.223930,356.528900 115.102348,353.854614 
	C108.486244,351.676056 102.341965,348.064606 95.988472,345.088531 
	C95.595863,345.378143 95.203255,345.667755 94.810646,345.957336 
	C97.884079,351.315948 100.364517,357.143188 104.152832,361.936859 
	C112.362915,372.325714 122.608292,379.627380 136.735001,378.890045 
	C145.144165,378.451202 153.537796,377.715179 161.938416,377.112762 
	C162.470413,382.235260 163.002426,387.357727 163.231232,392.761780 
	C158.790878,387.640594 154.379257,387.734711 147.880600,389.916809 
	C130.911621,395.614624 115.370377,391.388947 102.131813,379.476410 
	C91.363403,369.786621 83.714485,358.217651 81.505135,343.466370 
	C80.779602,338.622162 81.213493,334.531036 85.137886,331.329681 
	C89.214165,328.004395 93.651421,328.986908 97.816849,330.898560 
	C104.165909,333.812286 110.270645,337.257721 116.614632,340.183563 
	C120.634178,342.037415 124.899765,343.357819 130.076874,345.300995 
	C128.551880,340.410889 127.344475,336.539215 126.152039,332.284546 
	C135.538467,331.505951 141.528900,336.621033 146.097336,344.091553 
	C146.679626,345.043762 147.432648,345.891541 148.419861,346.862457 
z"/>
<path fill="#FCC8C8" opacity="1.000000" stroke="none" 
	d="
M241.357513,565.041870 
	C244.086670,559.332947 246.431931,553.791504 249.529953,548.708923 
	C259.281830,532.710022 267.254028,515.986938 271.366974,496.974548 
	C272.179413,498.032043 272.869507,498.511505 272.878235,499.003052 
	C273.083191,510.556824 279.344269,520.489258 281.627899,531.556519 
	C283.200531,539.177917 287.748474,546.183411 290.948456,553.472229 
	C291.791870,555.393372 292.567688,557.344238 293.369659,559.269714 
	C278.699585,567.624084 263.389618,570.131042 247.296356,568.164551 
	C245.222733,567.911072 243.306946,566.366089 241.357513,565.041870 
z"/>
<path fill="#FCC7C7" opacity="1.000000" stroke="none" 
	d="
M468.073608,515.843018 
	C471.588287,530.080322 476.042328,543.437683 485.661896,554.440308 
	C486.412628,555.298950 486.888428,556.417847 487.402557,557.459961 
	C489.477325,561.665222 488.287109,564.316711 483.622711,563.859253 
	C475.408234,563.053528 467.271118,561.356873 459.141510,559.821838 
	C453.258911,558.710999 448.114044,553.729553 440.129272,556.110596 
	C441.035217,553.382568 441.284698,550.139160 442.955200,548.011414 
	C452.683868,535.619873 459.811951,522.136047 462.205963,506.381866 
	C462.409180,505.044525 463.353058,503.819702 465.236267,502.601898 
	C466.158569,506.878601 467.080872,511.155304 468.073608,515.843018 
z"/>
<path fill="#FD7881" opacity="1.000000" stroke="none" 
	d="
M162.051422,377.001740 
	C153.537796,377.715179 145.144165,378.451202 136.735001,378.890045 
	C122.608292,379.627380 112.362915,372.325714 104.152832,361.936859 
	C100.364517,357.143188 97.884079,351.315948 94.810646,345.957336 
	C95.203255,345.667755 95.595863,345.378143 95.988472,345.088531 
	C102.341965,348.064606 108.486244,351.676056 115.102348,353.854614 
	C123.223930,356.528900 131.696152,358.224304 140.104477,359.903900 
	C144.028793,360.687805 146.676376,357.321320 148.768295,350.231567 
	C152.421539,356.723236 155.821548,363.432129 159.159882,370.171600 
	C160.105759,372.081116 160.871643,374.079803 162.010742,376.321289 
	C162.301437,376.605011 162.164444,376.890717 162.051422,377.001740 
z"/>
<path fill="#FBC7C7" opacity="1.000000" stroke="none" 
	d="
M405.580811,599.557739 
	C415.089081,594.291199 424.911896,591.586426 435.438324,591.816956 
	C439.557617,591.907166 441.657806,594.758362 439.577026,598.037964 
	C434.504944,606.032410 429.185059,614.027832 419.029846,616.436340 
	C417.588043,616.778259 416.084229,617.058472 414.613190,617.040100 
	C409.926605,616.981750 404.535828,617.086487 402.124329,612.571960 
	C399.740234,608.108704 402.483154,603.639099 405.580811,599.557739 
z"/>
<path fill="#FAC5C5" opacity="1.000000" stroke="none" 
	d="
M322.502258,590.692627 
	C323.717163,593.183105 324.674805,595.400146 325.934601,597.429626 
	C327.762482,600.374207 330.204559,603.000854 331.636078,606.108032 
	C332.777344,608.585083 332.712494,612.136414 328.644623,611.671326 
	C318.028259,610.457520 308.077301,607.475952 301.570892,597.992126 
	C300.644867,596.642273 299.903198,595.082397 299.442444,593.512268 
	C298.013550,588.642822 300.278839,585.554138 305.329559,584.973206 
	C311.839722,584.224426 317.399750,586.312988 322.502258,590.692627 
z"/>
<path fill="#D54653" opacity="1.000000" stroke="none" 
	d="
M558.995300,225.957962 
	C558.665161,225.504578 558.335022,225.051193 558.250977,224.120590 
	C561.298035,221.121048 564.974792,219.089340 566.719360,215.975220 
	C570.455566,209.306168 576.603455,207.482513 583.130249,205.999832 
	C593.256104,203.699585 602.138428,199.343155 609.159729,191.457306 
	C612.254272,187.981766 615.671021,184.787918 619.007568,181.533966 
	C635.519714,165.430557 645.972961,146.040466 650.691589,123.492722 
	C654.013489,107.619514 654.870728,91.869972 647.979248,76.651550 
	C646.069458,72.434319 643.361755,68.578407 641.020142,64.556725 
	C640.277344,64.647789 639.534546,64.738853 638.791748,64.829918 
	C637.191589,69.048126 634.998901,73.144127 634.099121,77.506790 
	C631.050232,92.290474 628.471069,107.189377 621.541626,120.815926 
	C609.085693,145.310104 590.373962,163.218460 564.770142,173.451645 
	C557.552673,176.336273 549.678040,178.729858 541.973694,176.214111 
	C537.554138,174.770996 533.597961,173.790375 529.171753,175.123062 
	C528.781372,172.655930 528.390991,170.188797 528.055420,167.295364 
	C530.412415,168.098038 532.714539,169.327026 535.413269,170.767731 
	C535.710999,169.338867 535.864563,167.936401 536.302246,166.629089 
	C537.505432,163.035843 540.608215,161.175262 543.670166,162.616638 
	C549.316711,165.274734 554.397583,163.209488 559.044922,161.277649 
	C592.061401,147.553101 611.019409,122.432922 618.115601,87.672577 
	C619.995056,78.466339 622.435791,69.222519 625.965027,60.543415 
	C630.468628,49.468143 641.405518,47.722027 650.290649,55.702946 
	C657.808472,62.455761 661.133972,71.484108 663.956055,80.758713 
	C669.700806,99.638794 666.631836,118.179909 661.670776,136.648804 
	C655.769775,158.616776 643.620361,176.796478 627.785339,192.740555 
	C622.414612,198.148209 616.988586,203.507751 611.426880,208.717407 
	C603.692505,215.962250 593.543579,217.879807 583.878784,220.827377 
	C582.348999,221.293945 580.837158,221.819443 579.080261,222.395309 
	C580.557190,225.889725 581.837708,228.919357 582.728760,232.415131 
	C575.523254,230.718521 568.712463,228.539230 561.885254,226.412521 
	C560.964172,226.125595 559.960632,226.102982 558.995300,225.957962 
z"/>
<path fill="#853138" opacity="1.000000" stroke="none" 
	d="
M559.101624,226.294067 
	C559.960632,226.102982 560.964172,226.125595 561.885254,226.412521 
	C568.712463,228.539230 575.523254,230.718521 582.750977,232.774567 
	C584.068359,234.513474 584.973999,236.359116 585.873169,238.581696 
	C579.044495,240.831909 575.828918,246.436417 572.002441,252.000916 
	C571.527222,252.101257 571.122864,252.018555 571.122864,252.018555 
	C567.151245,243.555756 563.179626,235.092957 559.101624,226.294067 
z"/>
<path fill="#FB6C79" opacity="1.000000" stroke="none" 
	d="
M606.699829,223.662643 
	C609.458435,222.719254 611.870972,221.946243 614.283508,221.173248 
	C608.044250,227.210312 601.455994,232.231873 592.590637,232.468887 
	C592.340210,231.993896 592.089844,231.518906 591.839417,231.043915 
	C596.677490,228.640289 601.515564,226.236664 606.699829,223.662643 
z"/>
<path fill="#FE7982" opacity="1.000000" stroke="none" 
	d="
M529.100708,175.344040 
	C533.597961,173.790375 537.554138,174.770996 541.973694,176.214111 
	C549.678040,178.729858 557.552673,176.336273 564.770142,173.451645 
	C590.373962,163.218460 609.085693,145.310104 621.541626,120.815926 
	C628.471069,107.189377 631.050232,92.290474 634.099121,77.506790 
	C634.998901,73.144127 637.191589,69.048126 638.791748,64.829918 
	C639.534546,64.738853 640.277344,64.647789 641.020142,64.556725 
	C643.361755,68.578407 646.069458,72.434319 647.979248,76.651550 
	C654.870728,91.869972 654.013489,107.619514 650.691589,123.492722 
	C645.972961,146.040466 635.519714,165.430557 619.007568,181.533966 
	C615.671021,184.787918 612.254272,187.981766 609.159729,191.457306 
	C602.138428,199.343155 593.256104,203.699585 583.130249,205.999832 
	C576.603455,207.482513 570.455566,209.306168 566.719360,215.975220 
	C564.974792,219.089340 561.298035,221.121048 558.210571,223.821442 
	C548.288330,217.904663 541.289551,209.259277 536.414124,199.273071 
	C532.988770,192.256927 531.401062,184.343613 528.960571,176.424500 
	C528.928345,176.018082 529.029663,175.565018 529.100708,175.344040 
z"/>
<path fill="#D54653" opacity="1.000000" stroke="none" 
	d="
M194.940613,170.802780 
	C194.868225,171.164825 194.400345,171.103134 193.964813,170.776154 
	C189.177094,168.851227 184.819199,167.268692 180.474014,165.651978 
	C172.422836,162.656357 163.584930,160.863708 156.551376,156.296112 
	C149.237320,151.546387 143.378845,144.371887 137.393982,137.793610 
	C120.492416,119.216194 110.684822,97.231651 106.835983,72.474907 
	C106.021606,67.236603 104.722527,62.073647 103.564026,56.476120 
	C102.089279,57.304031 101.517349,57.437920 101.279747,57.794548 
	C100.636963,58.759300 100.045586,59.780209 99.592728,60.846336 
	C91.720100,79.380219 91.904137,98.689255 94.596474,118.089668 
	C97.255760,137.251907 106.263382,153.985764 115.948929,170.337280 
	C121.053406,178.954849 126.923042,186.961487 135.444992,192.691528 
	C144.368820,198.691772 153.145981,204.910141 161.987228,211.033173 
	C155.568787,216.468567 148.573135,220.624283 139.456787,220.977448 
	C140.275726,218.290192 141.513428,215.632309 142.858063,212.744812 
	C128.178635,206.703705 116.257530,197.357788 107.727669,184.168243 
	C94.839172,164.239044 83.468712,143.473358 80.242538,119.531898 
	C77.767105,101.161636 77.713432,82.596207 83.264946,64.701576 
	C85.313545,58.098148 89.006912,51.504284 93.543266,46.292843 
	C100.049065,38.818882 110.874611,40.828735 114.840111,49.949574 
	C117.434074,55.915840 118.711349,62.551773 119.901024,69.012489 
	C123.004555,85.866661 127.837646,102.173645 137.854126,116.167099 
	C144.874817,125.975334 152.943344,135.216370 161.653320,143.551361 
	C165.687469,147.411835 172.281067,148.740250 177.868256,150.798721 
	C184.635239,153.291870 191.544098,155.412567 198.451706,157.494904 
	C199.291290,157.748001 200.503586,156.764725 201.885010,156.343567 
	C200.712814,159.503479 199.239883,162.694901 197.667404,165.836456 
	C196.875839,167.417892 195.903564,168.908859 194.940613,170.802780 
z"/>
<path fill="#D54653" opacity="1.000000" stroke="none" 
	d="
M140.855606,256.849426 
	C141.144577,257.125854 141.038345,257.546326 140.574249,257.751038 
	C135.166122,258.930573 129.979935,261.372314 125.323723,260.603668 
	C111.652336,258.346619 100.523788,250.919327 92.872513,239.390533 
	C87.030045,230.587158 82.478653,220.934250 77.131577,211.788681 
	C76.056297,209.949554 73.984131,208.693268 72.371597,207.168259 
	C71.288193,209.288239 69.832726,211.308838 69.231918,213.557739 
	C68.691895,215.579147 68.971001,217.858475 69.101456,220.011139 
	C69.321533,223.642731 69.530731,227.290421 70.059120,230.885117 
	C72.041977,244.374908 74.338799,257.847656 81.891907,269.572144 
	C86.402885,276.574432 91.851540,282.996552 99.976151,285.974304 
	C109.768799,289.563416 119.714264,292.751099 129.663788,295.890015 
	C134.532486,297.425995 138.145432,300.018982 139.691620,305.040741 
	C139.717285,305.806610 139.742966,306.572479 139.678833,307.709564 
	C137.768646,310.679932 135.927917,313.265167 134.132858,315.881683 
	C131.741623,319.367157 128.966248,322.217072 123.968109,322.173584 
	C122.725357,318.030273 121.550964,313.870300 121.006134,309.629425 
	C120.543938,306.031647 119.042366,304.247803 115.363174,304.082184 
	C88.270752,302.862335 72.406120,286.939728 62.995144,263.252686 
	C57.303543,248.927139 55.782494,233.654587 55.094250,218.367203 
	C54.932701,214.778809 55.519524,211.054871 56.377186,207.543533 
	C58.198261,200.087891 62.284611,194.324799 70.440918,193.209061 
	C78.845573,192.059326 84.294563,196.930969 88.216705,203.584808 
	C93.268806,212.155609 97.944740,220.947769 102.806259,229.631393 
	C107.149223,237.388794 114.235512,241.933258 121.836563,245.911087 
	C125.059982,247.598007 127.087738,247.189972 128.111816,243.376236 
	C128.665039,241.315979 129.751877,239.399033 130.903839,237.225021 
	C133.180191,238.971497 135.974503,240.571350 136.942230,242.922897 
	C138.718506,247.239136 139.418167,251.998428 140.855606,256.849426 
z"/>
<path fill="#FD7881" opacity="1.000000" stroke="none" 
	d="
M571.073120,252.453308 
	C571.122864,252.018555 571.527222,252.101257 571.706909,252.204926 
	C572.683533,255.482178 573.480530,258.655731 574.038818,260.878723 
	C610.038696,260.570496 637.143066,243.502518 660.306274,216.963882 
	C663.059021,223.509079 662.599731,229.188828 661.451660,234.407761 
	C660.537048,238.565445 658.051819,242.623978 655.448425,246.119217 
	C646.340881,258.346863 634.972595,267.879669 620.289978,272.726044 
	C608.516418,276.612244 596.638000,280.206024 584.710144,283.591370 
	C575.623962,286.170227 577.213684,285.072510 577.031372,293.322754 
	C577.009338,294.319702 576.966614,295.316193 576.814819,296.782776 
	C570.569092,290.848053 569.670044,282.469757 569.225220,274.422699 
	C568.831421,267.299377 570.349487,260.070404 571.073120,252.453308 
z"/>
<path fill="#FD7982" opacity="1.000000" stroke="none" 
	d="
M534.464233,385.034027 
	C539.616333,367.060059 547.820435,351.112976 566.743530,343.152161 
	C566.397583,346.063660 565.117676,348.936157 565.070312,351.828857 
	C564.843445,365.690826 573.462463,372.847046 588.562988,370.613525 
	C600.750183,368.810974 611.856750,364.261261 621.743835,356.827515 
	C623.042297,355.851227 624.503357,355.091125 626.200378,354.037628 
	C628.249207,358.295135 626.738831,361.926453 624.379089,364.751556 
	C616.925293,373.675385 609.347351,382.735596 597.378235,385.782013 
	C584.290466,389.113129 571.061035,390.983826 557.706848,387.061859 
	C554.228882,386.040436 550.625244,385.212830 547.391113,383.650635 
	C542.749695,381.408691 538.568542,380.337585 534.464233,385.034027 
z"/>
<path fill="#FD7982" opacity="1.000000" stroke="none" 
	d="
M533.495361,385.991333 
	C533.232117,385.752838 533.336914,385.466522 533.853638,385.180206 
	C534.052307,385.421875 533.918274,385.676331 533.495361,385.991333 
z"/>
<path fill="#FE7882" opacity="1.000000" stroke="none" 
	d="
M162.300507,211.056702 
	C153.145981,204.910141 144.368820,198.691772 135.444992,192.691528 
	C126.923042,186.961487 121.053406,178.954849 115.948929,170.337280 
	C106.263382,153.985764 97.255760,137.251907 94.596474,118.089668 
	C91.904137,98.689255 91.720100,79.380219 99.592728,60.846336 
	C100.045586,59.780209 100.636963,58.759300 101.279747,57.794548 
	C101.517349,57.437920 102.089279,57.304031 103.564026,56.476120 
	C104.722527,62.073647 106.021606,67.236603 106.835983,72.474907 
	C110.684822,97.231651 120.492416,119.216194 137.393982,137.793610 
	C143.378845,144.371887 149.237320,151.546387 156.551376,156.296112 
	C163.584930,160.863708 172.422836,162.656357 180.474014,165.651978 
	C184.819199,167.268692 189.177094,168.851227 193.733704,170.728455 
	C183.953552,184.143890 173.968948,197.280045 163.923859,210.770996 
	C163.446838,211.110611 163.030319,211.095428 162.300507,211.056702 
M144.994354,185.667908 
	C142.765015,179.611969 137.522766,176.863205 132.186874,174.393265 
	C131.651215,174.145294 129.401596,175.919250 129.146606,177.030106 
	C127.890160,182.504105 135.367050,190.652634 140.980240,189.821243 
	C142.449448,189.603622 143.659225,187.634445 144.994354,185.667908 
z"/>
<path fill="#934A50" opacity="1.000000" stroke="none" 
	d="
M257.647675,342.036804 
	C248.199219,332.140228 244.895340,319.958771 245.468445,306.758667 
	C245.873764,297.422852 247.888077,288.318298 253.577972,280.422333 
	C267.210266,261.504547 289.927307,262.325287 302.564911,282.024567 
	C311.639404,296.169647 312.761078,329.051666 295.253967,343.847778 
	C290.692688,342.662598 286.679260,340.208405 282.647186,340.177399 
	C274.319275,340.113373 265.981445,341.340668 257.647675,342.036804 
M275.891907,284.675873 
	C270.611145,277.875153 262.316132,278.225403 257.759613,286.721069 
	C254.155243,293.441437 254.069626,300.445404 257.812195,307.170105 
	C262.643616,315.851257 272.111633,315.938629 277.173157,307.361176 
	C281.577240,299.897797 280.629944,292.494232 275.891907,284.675873 
M298.569611,334.211365 
	C301.941284,331.374817 302.987030,327.708588 302.253235,323.491211 
	C301.311554,318.079224 296.979492,314.494324 292.782013,315.547913 
	C287.426331,316.892181 284.813110,323.203003 287.041077,329.411987 
	C289.131378,335.237305 292.759399,336.991913 298.569611,334.211365 
z"/>
<path fill="#944A50" opacity="1.000000" stroke="none" 
	d="
M436.462433,346.240021 
	C428.524902,340.771362 423.859192,332.905182 421.480316,323.904999 
	C417.872803,310.256653 418.954407,296.721405 425.566132,284.127686 
	C436.414124,263.464813 459.429932,261.697296 473.563782,280.190399 
	C485.582764,295.916351 484.680298,325.304230 471.152039,340.817993 
	C467.380981,344.941101 463.296631,342.944092 459.580658,342.656403 
	C451.560944,342.035553 443.684418,341.902466 436.462433,346.240021 
M453.317688,291.223328 
	C453.950012,296.264771 454.167145,301.405609 455.342987,306.316956 
	C456.325256,310.419678 459.398132,313.375580 463.880157,313.577667 
	C468.322479,313.777893 471.923859,311.227966 473.076874,307.227051 
	C474.549286,302.117981 475.713623,296.570984 475.299042,291.348572 
	C474.670013,283.424286 469.753174,278.468536 464.448120,278.414764 
	C459.630554,278.365936 455.635498,282.799103 453.317688,291.223328 
M429.877686,328.481995 
	C434.032959,335.582245 440.434143,336.239258 444.015289,329.769623 
	C446.492981,325.293365 446.637543,320.574402 443.884827,316.044006 
	C440.353790,310.232605 432.628632,310.173828 430.090363,316.416229 
	C428.740662,319.735535 429.639587,323.969177 429.877686,328.481995 
z"/>
<path fill="#FE7882" opacity="1.000000" stroke="none" 
	d="
M139.858612,304.658813 
	C138.145432,300.018982 134.532486,297.425995 129.663788,295.890015 
	C119.714264,292.751099 109.768799,289.563416 99.976151,285.974304 
	C91.851540,282.996552 86.402885,276.574432 81.891907,269.572144 
	C74.338799,257.847656 72.041977,244.374908 70.059120,230.885117 
	C69.530731,227.290421 69.321533,223.642731 69.101456,220.011139 
	C68.971001,217.858475 68.691895,215.579147 69.231918,213.557739 
	C69.832726,211.308838 71.288193,209.288239 72.371597,207.168259 
	C73.984131,208.693268 76.056297,209.949554 77.131577,211.788681 
	C82.478653,220.934250 87.030045,230.587158 92.872513,239.390533 
	C100.523788,250.919327 111.652336,258.346619 125.323723,260.603668 
	C129.979935,261.372314 135.166122,258.930573 140.483215,257.947845 
	C141.247116,268.830414 141.876282,279.720093 141.915039,290.611847 
	C141.931244,295.164581 140.693314,299.721710 139.858612,304.658813 
z"/>
<path fill="#49D5F4" opacity="1.000000" stroke="none" 
	d="
M257.605286,342.346100 
	C265.981445,341.340668 274.319275,340.113373 282.647186,340.177399 
	C286.679260,340.208405 290.692688,342.662598 295.007660,344.130676 
	C295.430298,349.000000 292.940979,352.164886 287.079376,352.581757 
	C279.375580,353.129700 271.556213,353.214233 263.871918,352.533844 
	C256.819366,351.909424 254.265884,347.197937 257.605286,342.346100 
z"/>
<path fill="#4CD3F2" opacity="1.000000" stroke="none" 
	d="
M436.396851,346.592651 
	C443.684418,341.902466 451.560944,342.035553 459.580658,342.656403 
	C463.296631,342.944092 467.380981,344.941101 470.920593,341.112091 
	C471.227142,342.338104 470.867554,343.717926 471.239441,344.859436 
	C473.081543,350.513733 472.764465,351.212006 467.187439,352.992279 
	C458.498688,355.765900 449.762665,354.987152 441.235291,352.683289 
	C439.230194,352.141571 437.946716,348.929108 436.396851,346.592651 
z"/>
<path fill="#A5686B" opacity="1.000000" stroke="none" 
	d="
M351.505219,354.564636 
	C360.444183,343.672821 370.576538,340.973785 380.484100,347.119110 
	C387.911407,351.726013 392.152527,358.772430 393.762115,367.342560 
	C393.951416,368.350555 393.557434,369.468140 392.278259,370.842102 
	C391.855347,369.854309 391.456360,368.855469 391.005493,367.880585 
	C388.869598,363.261810 387.466125,358.073090 384.432678,354.144470 
	C375.754517,342.905151 359.845917,345.096161 352.746979,358.212433 
	C351.351471,360.790833 350.654968,363.756836 349.720459,366.572113 
	C349.140381,368.319672 348.719116,370.119965 347.467010,371.694977 
	C345.577240,365.336609 348.567444,360.127960 351.505219,354.564636 
z"/>
<path fill="#F47888" opacity="1.000000" stroke="none" 
	d="
M144.991257,186.068787 
	C143.659225,187.634445 142.449448,189.603622 140.980240,189.821243 
	C135.367050,190.652634 127.890160,182.504105 129.146606,177.030106 
	C129.401596,175.919250 131.651215,174.145294 132.186874,174.393265 
	C137.522766,176.863205 142.765015,179.611969 144.991257,186.068787 
z"/>
<path fill="#FAF6F6" opacity="1.000000" stroke="none" 
	d="
M276.102051,284.985596 
	C280.629944,292.494232 281.577240,299.897797 277.173157,307.361176 
	C272.111633,315.938629 262.643616,315.851257 257.812195,307.170105 
	C254.069626,300.445404 254.155243,293.441437 257.759613,286.721069 
	C262.316132,278.225403 270.611145,277.875153 276.102051,284.985596 
z"/>
<path fill="#FAF2F2" opacity="1.000000" stroke="none" 
	d="
M298.283356,334.460999 
	C292.759399,336.991913 289.131378,335.237305 287.041077,329.411987 
	C284.813110,323.203003 287.426331,316.892181 292.782013,315.547913 
	C296.979492,314.494324 301.311554,318.079224 302.253235,323.491211 
	C302.987030,327.708588 301.941284,331.374817 298.283356,334.460999 
z"/>
<path fill="#FAF6F6" opacity="1.000000" stroke="none" 
	d="
M453.466858,290.828979 
	C455.635498,282.799103 459.630554,278.365936 464.448120,278.414764 
	C469.753174,278.468536 474.670013,283.424286 475.299042,291.348572 
	C475.713623,296.570984 474.549286,302.117981 473.076874,307.227051 
	C471.923859,311.227966 468.322479,313.777893 463.880157,313.577667 
	C459.398132,313.375580 456.325256,310.419678 455.342987,306.316956 
	C454.167145,301.405609 453.950012,296.264771 453.466858,290.828979 
z"/>
<path fill="#FAF3F4" opacity="1.000000" stroke="none" 
	d="
M429.700623,328.136047 
	C429.639587,323.969177 428.740662,319.735535 430.090363,316.416229 
	C432.628632,310.173828 440.353790,310.232605 443.884827,316.044006 
	C446.637543,320.574402 446.492981,325.293365 444.015289,329.769623 
	C440.434143,336.239258 434.032959,335.582245 429.700623,328.136047 
z"/>
</svg>