<svg version="1.1" id="Layer_1" xmlns="http://www.w3.org/2000/svg" xmlns:xlink="http://www.w3.org/1999/xlink" x="0px" y="0px"
	 width="100%" viewBox="0 0 681 628" enable-background="new 0 0 681 628" xml:space="preserve">
<path fill="#FFFEFE" opacity="1.000000" stroke="none" 
	d="
M682.000000,236.000000 
	C682.000000,367.333313 682.000000,498.166626 682.000000,629.000000 
	C455.000031,629.000000 228.000092,629.000000 1.000096,629.000000 
	C1.000064,419.666748 1.000064,210.333466 1.000032,1.000152 
	C227.999893,1.000102 454.999786,1.000102 681.999878,1.000051 
	C682.000000,79.166664 682.000000,157.333328 682.000000,236.000000 
M556.885742,360.660736 
	C557.246216,361.120270 557.606689,361.579834 557.988831,361.994781 
	C557.988831,361.994781 557.953552,362.033081 558.072083,362.712891 
	C563.352478,369.325592 570.712646,371.111603 577.387573,366.418793 
	C583.795715,361.913574 590.457886,360.113678 598.272217,359.686371 
	C610.935181,358.993866 624.382812,353.745209 626.233765,334.206543 
	C626.536621,331.009644 628.150452,327.884094 629.447510,324.849152 
	C630.742371,321.819550 632.400269,318.945129 634.081909,315.655579 
	C634.081909,315.655579 634.096313,315.263489 634.722351,314.965546 
	C636.688599,310.313812 638.654907,305.662109 640.860596,300.176605 
	C640.808899,298.452087 640.757141,296.727539 640.778198,294.265930 
	C638.901794,290.786591 637.025330,287.307251 635.080322,283.884033 
	C635.080322,283.884033 635.160034,283.922852 635.155273,283.318085 
	C634.765381,282.892822 634.375488,282.467560 634.001343,281.998383 
	C634.001343,281.998383 633.957886,282.015320 633.620605,281.400818 
	C631.324402,280.462891 629.028259,279.524994 628.020996,279.113556 
	C633.197754,274.205719 638.580505,269.102570 644.131958,263.697601 
	C644.131958,263.697601 644.125061,263.351898 644.702698,262.912720 
	C646.691406,257.280273 648.680115,251.647858 651.083374,245.485947 
	C651.391541,244.663574 651.699707,243.841202 652.565918,242.723495 
	C653.053223,241.820343 653.540466,240.917175 654.000000,239.998169 
	C654.000000,239.998169 654.015686,240.025391 654.601074,239.700989 
	C656.719482,236.467789 658.837952,233.234604 661.135437,229.730972 
	C661.135437,229.730972 661.135376,229.406693 661.754150,229.115677 
	C662.830994,227.742599 663.907837,226.369507 665.000000,225.001236 
	C665.000000,225.001236 664.996094,224.985504 665.610779,224.720444 
	C668.132812,220.859329 670.654846,216.998230 673.116821,213.020660 
	C673.116821,213.020660 673.124268,213.151474 673.792297,212.943558 
	C678.546631,204.896500 680.054016,196.124603 678.541199,187.056824 
	C677.294312,179.583069 675.696289,171.995865 668.997559,166.996384 
	C668.997559,166.996384 669.033325,166.971603 668.740234,166.408356 
	C667.821228,165.960495 666.902222,165.512619 665.571777,164.541367 
	C664.716858,164.356613 663.862000,164.171844 662.559814,163.508240 
	C661.709778,163.420929 660.859741,163.333618 659.262512,163.075256 
	C658.505981,163.145264 657.749451,163.215271 656.225037,163.161804 
	C649.009155,164.421997 642.818298,167.308578 638.853455,174.274338 
	C638.853455,174.274338 638.866394,174.597290 638.238159,174.925552 
	C636.765564,177.976318 635.292969,181.027084 633.706543,184.296722 
	C633.706543,184.296722 633.853943,184.494537 633.221436,184.885468 
	C632.102051,187.905106 630.982727,190.924759 629.964783,193.968430 
	C629.964783,193.968430 629.895569,193.890564 629.293091,194.183502 
	C628.664429,194.955399 627.999512,195.700806 627.412781,196.503296 
	C621.941406,203.986115 615.533569,209.886856 605.585144,210.508484 
	C593.010925,211.294174 581.857483,216.465393 570.495361,222.033691 
	C570.495361,222.033691 570.050720,221.964264 569.959412,221.218933 
	C569.775391,220.232468 569.591370,219.246002 569.954834,217.727417 
	C579.334900,211.803207 588.632629,205.743484 598.113953,199.986038 
	C612.928894,190.989807 619.107544,177.049957 620.980530,160.640762 
	C622.114075,150.710052 623.587158,140.977219 627.892639,131.738495 
	C631.323914,124.375488 633.903748,116.606461 636.700806,108.958900 
	C643.327393,90.840851 641.727539,73.356003 632.184692,56.650208 
	C627.931213,49.203884 623.016052,42.037430 614.456848,39.165997 
	C601.313110,34.756512 585.844788,42.514717 581.055908,55.605640 
	C579.116333,60.907677 577.681458,66.392822 575.956055,71.775116 
	C572.343567,83.043701 565.130066,91.386597 555.210999,97.668289 
	C549.597595,101.223198 544.170593,105.086502 538.786377,108.985878 
	C531.088135,114.561104 524.764587,121.073845 522.689453,130.964783 
	C521.865723,134.891022 519.599121,138.514572 517.427124,141.860123 
	C496.162750,122.974327 472.131897,108.541832 445.723480,98.191200 
	C401.400269,80.818939 355.530609,75.760719 308.362244,81.788277 
	C256.098145,88.466995 209.550385,107.937897 169.498978,142.899277 
	C167.610962,140.090027 166.218918,135.499847 163.740738,134.809692 
	C156.663208,132.838638 152.828537,127.394852 148.328339,122.715279 
	C146.432541,120.743912 145.438583,117.482414 144.975830,114.653427 
	C144.255356,110.249031 144.072128,105.709595 144.134262,101.233963 
	C144.272339,91.288750 139.971817,83.399529 131.634399,78.858498 
	C122.992157,74.151451 122.276016,67.767303 123.436798,59.224468 
	C124.452965,51.745975 124.361526,44.002937 123.769333,36.454430 
	C123.254036,29.886208 119.895317,23.918039 113.486763,21.604801 
	C106.866829,19.215260 100.332520,21.136555 94.850388,25.763865 
	C88.707558,30.948858 84.921394,37.660175 81.883560,45.017498 
	C77.316292,56.079010 72.539230,67.065910 67.449829,77.895844 
	C63.713394,85.846748 61.887184,93.900887 63.922153,102.546310 
	C65.825157,110.631088 68.581779,118.574623 69.769516,126.753593 
	C71.412788,138.069519 72.009766,149.542038 72.921104,160.958176 
	C73.696510,170.671585 76.737518,179.045197 85.224091,184.846634 
	C94.160652,190.955643 102.438614,197.410477 106.220940,208.554550 
	C108.111572,214.125015 113.381638,218.070374 119.809151,219.804977 
	C118.487762,224.841385 117.166374,229.877777 115.057076,235.035278 
	C108.919861,232.359192 101.348602,231.099579 96.979874,226.676666 
	C90.344460,219.958939 83.460808,214.505142 74.645912,211.442047 
	C69.104691,209.516541 66.555122,205.617935 64.712631,200.068512 
	C62.434238,193.206238 59.052433,186.576065 55.258549,180.390793 
	C51.805454,174.761108 45.826878,174.213425 39.678799,175.369278 
	C33.767975,176.480545 31.872631,180.538208 30.919935,185.951920 
	C29.425474,194.444260 27.937536,203.011139 25.430555,211.236710 
	C20.093599,228.747635 24.101364,243.124725 37.695274,255.376129 
	C44.304180,261.332336 49.124580,268.914001 51.376629,277.640839 
	C54.038834,287.957123 61.312977,292.745087 70.740051,295.740540 
	C78.794006,298.299683 86.788681,301.124603 94.603172,304.334442 
	C101.548775,307.187408 108.228775,310.592499 116.064720,307.794891 
	C117.801384,313.823761 119.538048,319.852631 120.863144,326.483398 
	C118.983292,327.537109 116.982368,329.666290 115.243187,329.470520 
	C103.687675,328.169678 92.196716,326.497742 82.194092,319.669098 
	C70.169830,311.460327 51.701164,324.730682 52.631901,337.659912 
	C53.273296,346.569824 57.440289,352.860901 63.783051,357.869446 
	C70.534142,363.200378 76.340202,369.099426 80.798920,376.466949 
	C84.503380,382.588165 89.860092,386.237885 97.271324,387.194183 
	C102.994904,387.932648 108.715408,389.367523 114.184334,391.233917 
	C120.776276,393.483551 127.028107,396.710022 133.557571,399.167084 
	C144.109192,403.137634 150.686172,399.428192 152.751816,388.430359 
	C153.205017,386.017395 152.866165,383.455627 153.148178,380.698456 
	C153.148178,380.698456 153.151230,380.330688 153.677078,380.668152 
	C154.909897,381.777008 156.261063,382.780334 157.357544,384.010681 
	C171.446457,399.819611 187.915634,412.720062 205.961700,423.653442 
	C212.474045,427.599030 219.214874,431.167480 225.617844,434.776398 
	C223.674622,436.438873 221.147675,437.595642 220.279831,439.506104 
	C214.569702,452.076019 208.786942,464.644409 203.873428,477.535583 
	C199.299118,489.536835 197.957092,502.074707 200.924576,514.855591 
	C203.179474,524.567261 209.958374,531.975464 219.872818,532.928284 
	C227.725372,533.682983 235.754868,532.543152 243.708282,532.344910 
	C245.396606,532.302795 247.927979,532.050781 248.656906,532.991333 
	C254.002884,539.889404 258.988953,547.066284 264.340759,554.505981 
	C262.521942,554.710571 261.085876,554.839539 259.659363,555.037476 
	C247.878525,556.672119 240.747421,562.655090 238.692535,572.610229 
	C236.828186,581.642395 241.344955,592.167725 250.538086,596.935486 
	C256.774475,600.169861 263.763458,602.696899 270.684845,603.719238 
	C287.548492,606.210144 304.228058,603.352539 320.747711,599.871277 
	C329.317200,598.065308 330.723297,595.882568 329.503235,588.251038 
	C343.873566,586.318787 358.272644,584.382690 372.676605,582.445923 
	C374.304382,583.773438 376.365448,586.617371 379.030396,587.396851 
	C385.498138,589.288696 392.198669,590.949646 398.891937,591.390503 
	C413.827301,592.374329 428.894562,593.448669 443.539795,588.965576 
	C453.709442,585.852600 458.612000,576.135010 455.416687,566.014099 
	C452.144592,555.649963 443.238953,552.987732 434.151825,551.116516 
	C428.730347,550.000183 423.077332,550.008484 418.251862,549.576111 
	C424.109344,539.942444 430.078857,530.026367 436.215637,520.215027 
	C436.714325,519.417786 438.343658,519.021057 439.470642,518.972534 
	C447.906555,518.609070 456.464264,519.167480 464.763977,517.944885 
	C482.025635,515.402405 491.234924,502.108398 489.406342,484.680206 
	C488.506927,476.107971 484.867920,469.033203 479.404907,462.817169 
	C472.127899,454.537231 464.489807,446.574677 456.873566,438.331512 
	C460.870544,436.366577 464.618469,434.562439 468.332916,432.691833 
	C493.159119,420.189056 515.124146,403.860199 533.321228,382.814911 
	C540.810608,374.153290 547.300171,364.627228 554.519226,355.895966 
	C554.906189,356.620911 555.293213,357.345825 555.801575,358.686859 
	C556.170288,359.157623 556.538940,359.628387 556.963745,360.016510 
	C556.963745,360.016510 556.870117,360.051361 556.885742,360.660736 
z"/>
<path fill="#81333A" opacity="1.000000" stroke="none" 
	d="
M554.244507,355.494385 
	C547.300171,364.627228 540.810608,374.153290 533.321228,382.814911 
	C515.124146,403.860199 493.159119,420.189056 468.332916,432.691833 
	C464.618469,434.562439 460.870544,436.366577 456.873566,438.331512 
	C464.489807,446.574677 472.127899,454.537231 479.404907,462.817169 
	C484.867920,469.033203 488.506927,476.107971 489.406342,484.680206 
	C491.234924,502.108398 482.025635,515.402405 464.763977,517.944885 
	C456.464264,519.167480 447.906555,518.609070 439.470642,518.972534 
	C438.343658,519.021057 436.714325,519.417786 436.215637,520.215027 
	C430.078857,530.026367 424.109344,539.942444 418.251862,549.576111 
	C423.077332,550.008484 428.730347,550.000183 434.151825,551.116516 
	C443.238953,552.987732 452.144592,555.649963 455.416687,566.014099 
	C458.612000,576.135010 453.709442,585.852600 443.539795,588.965576 
	C428.894562,593.448669 413.827301,592.374329 398.891937,591.390503 
	C392.198669,590.949646 385.498138,589.288696 379.030396,587.396851 
	C376.365448,586.617371 374.304382,583.773438 372.676605,582.445923 
	C358.272644,584.382690 343.873566,586.318787 329.503235,588.251038 
	C330.723297,595.882568 329.317200,598.065308 320.747711,599.871277 
	C304.228058,603.352539 287.548492,606.210144 270.684845,603.719238 
	C263.763458,602.696899 256.774475,600.169861 250.538086,596.935486 
	C241.344955,592.167725 236.828186,581.642395 238.692535,572.610229 
	C240.747421,562.655090 247.878525,556.672119 259.659363,555.037476 
	C261.085876,554.839539 262.521942,554.710571 264.340759,554.505981 
	C258.988953,547.066284 254.002884,539.889404 248.656906,532.991333 
	C247.927979,532.050781 245.396606,532.302795 243.708282,532.344910 
	C235.754868,532.543152 227.725372,533.682983 219.872818,532.928284 
	C209.958374,531.975464 203.179474,524.567261 200.924576,514.855591 
	C197.957092,502.074707 199.299118,489.536835 203.873428,477.535583 
	C208.786942,464.644409 214.569702,452.076019 220.279831,439.506104 
	C221.147675,437.595642 223.674622,436.438873 225.617844,434.776398 
	C219.214874,431.167480 212.474045,427.599030 205.961700,423.653442 
	C187.915634,412.720062 171.446457,399.819611 157.357544,384.010681 
	C156.261063,382.780334 154.909897,381.777008 153.319641,380.091614 
	C151.901749,375.625458 150.841309,371.735779 149.861572,367.623962 
	C149.942307,367.401794 150.075302,366.947174 150.444702,366.898743 
	C154.120880,366.530945 157.224518,363.568451 160.608032,367.815735 
	C183.152054,396.114624 213.044769,414.567688 244.979034,430.260345 
	C246.235291,430.877655 247.492096,433.108887 247.417542,434.517731 
	C247.190079,438.815765 245.994568,443.060181 245.735031,447.359253 
	C243.367172,486.582001 255.035858,520.405029 283.977539,547.838318 
	C310.662354,573.132385 354.100983,576.636841 384.018829,555.292664 
	C413.271851,534.422852 428.356049,505.541901 431.574097,470.099792 
	C432.402405,460.976837 432.852448,451.809113 434.040314,442.735779 
	C434.389099,440.071655 436.048950,436.677124 438.189301,435.308929 
	C446.545685,429.967194 455.218384,425.082916 463.985016,420.426941 
	C498.767822,401.953674 527.214905,376.895264 546.413757,342.043274 
	C547.035950,340.913788 548.658020,340.335114 549.951294,339.734833 
	C550.509766,340.573517 550.930969,341.177032 551.263672,342.187378 
	C552.161438,346.410645 553.147766,350.227081 554.124695,354.409058 
	C554.158386,355.014496 554.201477,355.254425 554.244507,355.494385 
M444.173798,494.746674 
	C443.691528,498.138062 443.209290,501.529419 442.526398,506.331512 
	C449.827881,505.534454 456.802887,504.732880 463.787262,504.023193 
	C469.433289,503.449493 472.803650,500.033813 474.747223,495.096161 
	C477.163147,488.958649 476.672729,482.495789 472.938690,477.429993 
	C465.713745,467.628326 457.585236,458.492737 449.831238,449.081055 
	C449.254242,449.280640 448.677277,449.480255 448.100311,449.679840 
	C447.701782,452.177368 447.127258,454.661438 446.934631,457.174744 
	C445.997467,469.404480 445.162445,481.642059 444.173798,494.746674 
M213.862259,502.418915 
	C214.336884,505.867004 214.530151,509.384949 215.364227,512.743774 
	C216.220078,516.190308 218.484024,518.775696 222.333405,518.887329 
	C228.234940,519.058533 234.145096,518.932312 240.275391,518.932312 
	C237.151321,507.271240 233.573563,497.080383 231.846634,486.584991 
	C230.103897,475.993713 230.197327,465.100342 229.486313,454.339355 
	C226.540787,458.149109 224.581207,461.980896 223.037872,465.973602 
	C218.605560,477.439972 213.698608,488.805847 213.862259,502.418915 
M274.082703,589.634033 
	C284.629425,590.247131 295.106171,589.961182 305.682281,587.609741 
	C293.769531,570.780151 277.280853,567.282349 260.692841,569.503479 
	C257.229187,569.967285 253.551605,571.257874 253.097870,575.531006 
	C252.649719,579.751404 254.788635,583.187134 258.576965,584.766785 
	C263.289764,586.731995 268.319214,587.937744 274.082703,589.634033 
M435.520172,577.261353 
	C436.170135,577.122375 436.983185,577.183350 437.441589,576.809509 
	C439.322174,575.276062 442.476440,573.660461 442.537720,571.979431 
	C442.605652,570.114502 440.184662,567.216980 438.187775,566.418518 
	C434.259155,564.847351 429.904449,563.843750 425.672699,563.622131 
	C413.041595,562.960510 401.789612,566.215942 392.777313,577.489624 
	C407.277679,577.489624 420.982544,577.489624 435.520172,577.261353 
z"/>
<path fill="#FD8B94" opacity="1.000000" stroke="none" 
	d="
M517.989441,142.275940 
	C519.599121,138.514572 521.865723,134.891022 522.689453,130.964783 
	C524.764587,121.073845 531.088135,114.561104 538.786377,108.985878 
	C544.170593,105.086502 549.597595,101.223198 555.210999,97.668289 
	C565.130066,91.386597 572.343567,83.043701 575.956055,71.775116 
	C577.681458,66.392822 579.116333,60.907677 581.055908,55.605640 
	C585.844788,42.514717 601.313110,34.756512 614.456848,39.165997 
	C623.016052,42.037430 627.931213,49.203884 632.184692,56.650208 
	C641.727539,73.356003 643.327393,90.840851 636.700806,108.958900 
	C633.903748,116.606461 631.323914,124.375488 627.892639,131.738495 
	C623.587158,140.977219 622.114075,150.710052 620.980530,160.640762 
	C619.107544,177.049957 612.928894,190.989807 598.113953,199.986038 
	C588.632629,205.743484 579.334900,211.803207 569.476379,217.904739 
	C568.794678,217.857315 568.557068,217.678192 568.242065,217.167603 
	C565.383911,210.364441 568.878906,207.220596 573.894958,203.808563 
	C579.046143,200.304581 583.822266,195.900009 587.808777,191.097839 
	C600.163208,176.215820 606.747437,158.378799 612.075806,140.127396 
	C617.679260,120.933578 621.716980,101.467529 619.091797,81.218285 
	C618.120544,73.726364 614.297913,68.643791 607.400574,66.677368 
	C601.971130,65.129448 596.399902,67.443695 592.235901,73.692863 
	C589.405396,77.940804 587.298950,82.666840 584.797485,87.139175 
	C577.593079,100.019691 570.803833,113.162224 562.986816,125.661057 
	C556.435364,136.136475 547.560791,144.257050 534.965454,147.571457 
	C529.338867,149.052063 524.310608,149.962128 519.871826,144.755325 
	C519.145508,143.762436 518.567505,143.019180 517.989441,142.275940 
z"/>
<path fill="#81343B" opacity="1.000000" stroke="none" 
	d="
M517.708252,142.068024 
	C518.567505,143.019180 519.145508,143.762436 519.835815,145.217468 
	C520.242981,151.374817 520.537964,156.820389 520.491943,162.209824 
	C519.514038,161.628418 518.827576,161.152542 518.247253,160.570786 
	C492.841492,135.101578 462.717865,117.320877 428.765564,105.866257 
	C384.380463,90.891899 339.165497,89.057228 293.238312,97.160805 
	C249.143112,104.941147 211.473404,125.938553 176.486084,152.751251 
	C174.020935,154.640442 170.863281,155.625992 168.019623,156.596481 
	C168.223663,152.684357 168.435730,149.207489 168.780502,145.481201 
	C169.307541,144.607986 169.701859,143.984207 170.096176,143.360428 
	C209.550385,107.937897 256.098145,88.466995 308.362244,81.788277 
	C355.530609,75.760719 401.400269,80.818939 445.723480,98.191200 
	C472.131897,108.541832 496.162750,122.974327 517.708252,142.068024 
z"/>
<path fill="#FC8B95" opacity="1.000000" stroke="none" 
	d="
M169.797577,143.129852 
	C169.701859,143.984207 169.307541,144.607986 168.451477,145.605164 
	C166.886444,146.229660 165.664764,146.923157 164.697937,146.664398 
	C153.210617,143.589859 143.077103,138.679825 138.781372,126.396530 
	C132.481827,108.383469 126.457664,90.268745 119.812019,72.384674 
	C117.075119,65.019402 113.499420,57.852146 109.391670,51.155193 
	C107.145401,47.493038 102.300026,46.708153 98.803467,49.730877 
	C95.133072,52.903881 91.405396,56.643921 89.337685,60.925678 
	C81.255127,77.662758 78.765251,95.815262 78.165329,114.134026 
	C77.445656,136.109680 82.940750,156.953293 92.000221,176.819962 
	C97.974312,189.920654 105.449150,202.126175 117.846855,210.271805 
	C121.373985,212.589203 122.552635,214.990906 120.626366,218.875809 
	C120.210266,219.000458 120.041092,219.040863 119.871918,219.081284 
	C113.381638,218.070374 108.111572,214.125015 106.220940,208.554550 
	C102.438614,197.410477 94.160652,190.955643 85.224091,184.846634 
	C76.737518,179.045197 73.696510,170.671585 72.921104,160.958176 
	C72.009766,149.542038 71.412788,138.069519 69.769516,126.753593 
	C68.581779,118.574623 65.825157,110.631088 63.922153,102.546310 
	C61.887184,93.900887 63.713394,85.846748 67.449829,77.895844 
	C72.539230,67.065910 77.316292,56.079010 81.883560,45.017498 
	C84.921394,37.660175 88.707558,30.948858 94.850388,25.763865 
	C100.332520,21.136555 106.866829,19.215260 113.486763,21.604801 
	C119.895317,23.918039 123.254036,29.886208 123.769333,36.454430 
	C124.361526,44.002937 124.452965,51.745975 123.436798,59.224468 
	C122.276016,67.767303 122.992157,74.151451 131.634399,78.858498 
	C139.971817,83.399529 144.272339,91.288750 144.134262,101.233963 
	C144.072128,105.709595 144.255356,110.249031 144.975830,114.653427 
	C145.438583,117.482414 146.432541,120.743912 148.328339,122.715279 
	C152.828537,127.394852 156.663208,132.838638 163.740738,134.809692 
	C166.218918,135.499847 167.610962,140.090027 169.797577,143.129852 
z"/>
<path fill="#FC8C95" opacity="1.000000" stroke="none" 
	d="
M554.381836,355.695160 
	C554.201477,355.254425 554.158386,355.014496 554.389893,354.208466 
	C556.096313,350.515350 557.785156,349.948212 561.259827,351.532440 
	C569.568542,355.320679 578.746399,355.698608 587.109924,352.899750 
	C605.469543,346.755646 618.083008,333.910583 625.100342,315.872559 
	C627.769653,309.011017 628.970886,301.777527 626.899109,294.416656 
	C624.943848,287.469940 618.068848,284.259216 611.549500,287.133362 
	C610.053101,287.793060 608.472107,288.261047 606.889893,288.502716 
	C604.633484,288.501984 602.156433,288.284973 600.246887,289.223114 
	C592.634521,292.963135 584.945801,295.855072 576.161316,293.801392 
	C575.993896,292.980255 575.920898,292.506409 576.161438,291.786224 
	C577.772034,289.108673 575.522156,284.809082 580.569885,284.331482 
	C592.942505,283.160858 603.709351,277.460327 614.402405,271.775024 
	C632.139465,262.344513 645.511719,248.533539 652.882629,229.810867 
	C655.798462,222.404388 657.048645,214.111404 657.722107,206.109695 
	C658.617615,195.469437 651.025940,188.059113 641.890320,190.186295 
	C638.046021,191.081406 634.682495,194.041458 630.830444,195.879822 
	C630.338806,195.094711 630.117188,194.492630 629.895569,193.890564 
	C629.895569,193.890564 629.964783,193.968430 630.261230,193.826813 
	C631.656494,190.621658 632.755249,187.558105 633.853943,184.494537 
	C633.853943,184.494537 633.706543,184.296722 634.065979,183.996521 
	C635.905762,180.663300 637.386047,177.630280 638.866333,174.597275 
	C638.866394,174.597290 638.853455,174.274338 639.286621,174.100739 
	C645.156250,171.181656 648.987549,165.429688 655.871765,165.305817 
	C656.257507,165.298889 656.619751,163.988800 656.992920,163.285278 
	C657.749451,163.215271 658.505981,163.145264 659.694519,163.461365 
	C661.086731,163.894012 662.046875,163.940552 663.007080,163.987076 
	C663.862000,164.171844 664.716858,164.356613 665.841431,165.142273 
	C667.085144,166.152664 668.059204,166.562134 669.033325,166.971619 
	C669.033325,166.971603 668.997559,166.996384 669.039856,167.347565 
	C669.082153,169.955261 669.082153,172.211746 669.082153,173.832611 
	C670.634888,174.765823 673.268616,175.445236 673.542114,176.657257 
	C675.574341,185.662628 678.797119,194.640518 675.218201,204.069763 
	C674.125916,206.947372 673.800720,210.116074 673.124268,213.151474 
	C673.124268,213.151474 673.116821,213.020660 672.759094,213.034729 
	C671.480469,213.836441 670.362122,214.485474 669.687744,215.446182 
	C668.809204,216.697678 668.588562,219.057617 667.547729,219.426956 
	C664.453979,220.524734 665.054443,222.794357 664.996094,224.985504 
	C664.996094,224.985504 665.000000,225.001236 664.639893,225.037674 
	C663.231628,226.518311 662.183533,227.962509 661.135376,229.406708 
	C661.135376,229.406693 661.135437,229.730972 660.701294,229.903625 
	C656.825928,232.539795 653.858582,235.300964 654.015686,240.025391 
	C654.015686,240.025391 654.000000,239.998169 653.665039,240.053467 
	C652.889343,241.078781 652.448608,242.048813 652.007874,243.018845 
	C651.699707,243.841202 651.391541,244.663574 650.555542,245.830627 
	C648.060181,251.900833 646.092590,257.626373 644.125061,263.351898 
	C644.125061,263.351898 644.131958,263.697601 643.703003,263.885254 
	C636.586975,269.015076 629.899902,273.957245 623.212830,278.899384 
	C623.228149,279.398010 623.243469,279.896606 623.258789,280.395203 
	C626.825134,280.935242 630.391541,281.475281 633.957886,282.015320 
	C633.957886,282.015320 634.001343,281.998383 634.024536,282.320557 
	C634.418579,283.069427 634.789307,283.496124 635.160034,283.922852 
	C635.160034,283.922852 635.080322,283.884033 635.098022,284.249146 
	C635.776855,286.978455 636.158020,289.476532 637.201355,291.657867 
	C637.852844,293.019989 639.503296,293.904297 640.705444,295.002991 
	C640.757141,296.727539 640.808899,298.452087 640.405884,300.661499 
	C637.999573,305.852081 636.047974,310.557800 634.096313,315.263489 
	C634.096313,315.263489 634.081909,315.655579 633.648804,315.869690 
	C628.639587,319.667297 626.180237,324.614746 624.547607,329.992279 
	C623.348938,333.940399 622.544678,338.006775 621.489563,342.000580 
	C620.972168,343.958984 620.826538,346.385345 619.572815,347.711029 
	C615.620605,351.890015 611.533386,355.949860 605.052917,356.230103 
	C598.646729,356.507111 592.243408,357.219818 585.890076,358.108093 
	C584.136597,358.353210 581.998047,359.513702 581.015198,360.932434 
	C577.683777,365.741455 570.911560,368.062378 565.380432,365.678284 
	C562.850952,364.588013 560.425964,363.255615 557.953552,362.033081 
	C557.953552,362.033081 557.988831,361.994781 557.965881,361.707123 
	C557.585327,360.963409 557.227722,360.507385 556.870117,360.051361 
	C556.870117,360.051361 556.963745,360.016510 556.937561,359.725037 
	C556.500977,358.979279 556.090576,358.525024 555.680176,358.070770 
	C555.293213,357.345825 554.906189,356.620911 554.381836,355.695160 
z"/>
<path fill="#FC8B95" opacity="1.000000" stroke="none" 
	d="
M115.897736,306.996307 
	C108.228775,310.592499 101.548775,307.187408 94.603172,304.334442 
	C86.788681,301.124603 78.794006,298.299683 70.740051,295.740540 
	C61.312977,292.745087 54.038834,287.957123 51.376629,277.640839 
	C49.124580,268.914001 44.304180,261.332336 37.695274,255.376129 
	C24.101364,243.124725 20.093599,228.747635 25.430555,211.236710 
	C27.937536,203.011139 29.425474,194.444260 30.919935,185.951920 
	C31.872631,180.538208 33.767975,176.480545 39.678799,175.369278 
	C45.826878,174.213425 51.805454,174.761108 55.258549,180.390793 
	C59.052433,186.576065 62.434238,193.206238 64.712631,200.068512 
	C66.555122,205.617935 69.104691,209.516541 74.645912,211.442047 
	C83.460808,214.505142 90.344460,219.958939 96.979874,226.676666 
	C101.348602,231.099579 108.919861,232.359192 115.518341,235.317719 
	C116.012871,236.065140 116.046127,236.530121 115.790894,237.220795 
	C114.899361,240.405136 113.426315,242.130066 110.068420,241.772583 
	C90.687630,239.709259 74.787720,232.053070 64.596107,214.504761 
	C62.311676,210.571350 59.218037,206.815369 55.703316,203.951797 
	C49.027012,198.512314 41.189369,201.623764 40.058697,210.157639 
	C39.422131,214.962234 39.545589,220.111588 40.549416,224.846405 
	C44.506687,243.511963 52.770847,260.423340 64.930016,274.934387 
	C74.257805,286.066345 87.253441,291.935028 101.725677,293.940094 
	C105.157463,294.415527 109.473450,293.002380 111.938614,294.636505 
	C114.186714,296.126740 114.473892,300.571991 115.638985,303.709747 
	C115.690231,303.847748 115.877449,303.935211 115.983215,304.416870 
	C115.942650,305.523773 115.920189,306.260040 115.897736,306.996307 
z"/>
<path fill="#D54653" opacity="1.000000" stroke="none" 
	d="
M631.100464,196.062851 
	C634.682495,194.041458 638.046021,191.081406 641.890320,190.186295 
	C651.025940,188.059113 658.617615,195.469437 657.722107,206.109695 
	C657.048645,214.111404 655.798462,222.404388 652.882629,229.810867 
	C645.511719,248.533539 632.139465,262.344513 614.402405,271.775024 
	C603.709351,277.460327 592.942505,283.160858 580.569885,284.331482 
	C575.522156,284.809082 577.772034,289.108673 575.820801,291.762512 
	C571.738770,288.729309 568.310913,285.473541 564.678711,281.873688 
	C564.376099,281.006927 564.277649,280.484222 564.427734,279.702087 
	C565.087341,278.395996 565.218567,276.739563 565.954895,276.401611 
	C570.728394,274.210846 575.633484,272.306976 580.495605,270.309509 
	C589.842896,266.469482 599.671082,263.493195 608.438477,258.611633 
	C627.214722,248.157303 641.071228,233.579315 643.086243,210.724319 
	C643.242615,208.949997 643.503418,207.184875 643.715759,205.415482 
	C643.140747,205.094543 642.565674,204.773605 641.990662,204.452667 
	C640.434631,206.377640 639.116577,208.575623 637.278870,210.177444 
	C631.284729,215.402328 625.579163,221.178818 618.889404,225.338913 
	C605.404297,233.724747 590.626282,239.110443 574.816833,241.624908 
	C565.576416,243.094604 563.616272,242.232376 560.568237,233.411835 
	C560.375244,232.853363 559.686462,232.466217 559.214233,231.618164 
	C559.222839,230.477615 559.245483,229.718246 559.532471,228.768860 
	C562.294556,224.947418 565.058228,221.728348 570.050720,221.964264 
	C570.050720,221.964264 570.495361,222.033691 570.710449,222.500916 
	C571.247253,226.029770 571.942993,228.791580 576.015991,227.792343 
	C589.919067,224.381607 603.540283,220.070648 615.021240,211.203171 
	C620.819824,206.724564 625.767883,201.144775 631.100464,196.062851 
z"/>
<path fill="#FC8C95" opacity="1.000000" stroke="none" 
	d="
M152.892059,380.962402 
	C152.866165,383.455627 153.205017,386.017395 152.751816,388.430359 
	C150.686172,399.428192 144.109192,403.137634 133.557571,399.167084 
	C127.028107,396.710022 120.776276,393.483551 114.184334,391.233917 
	C108.715408,389.367523 102.994904,387.932648 97.271324,387.194183 
	C89.860092,386.237885 84.503380,382.588165 80.798920,376.466949 
	C76.340202,369.099426 70.534142,363.200378 63.783051,357.869446 
	C57.440289,352.860901 53.273296,346.569824 52.631901,337.659912 
	C51.701164,324.730682 70.169830,311.460327 82.194092,319.669098 
	C92.196716,326.497742 103.687675,328.169678 115.243187,329.470520 
	C116.982368,329.666290 118.983292,327.537109 121.287651,326.203247 
	C121.712158,325.923126 122.087746,326.152924 122.067841,326.523071 
	C123.420624,330.694366 124.793320,334.495544 126.489258,339.191772 
	C123.030838,338.924561 120.493965,339.115265 118.185020,338.478943 
	C110.686195,336.412476 103.267365,334.054504 95.824257,331.787384 
	C86.897675,329.068451 79.131142,336.162384 80.535995,345.327393 
	C82.077522,355.383972 86.639900,363.573944 94.452713,369.907928 
	C107.383057,380.390747 121.448540,387.604279 138.864197,384.122345 
	C143.562927,383.182892 148.217316,382.021759 152.892059,380.962402 
z"/>
<path fill="#D54653" opacity="1.000000" stroke="none" 
	d="
M153.020111,380.830444 
	C148.217316,382.021759 143.562927,383.182892 138.864197,384.122345 
	C121.448540,387.604279 107.383057,380.390747 94.452713,369.907928 
	C86.639900,363.573944 82.077522,355.383972 80.535995,345.327393 
	C79.131142,336.162384 86.897675,329.068451 95.824257,331.787384 
	C103.267365,334.054504 110.686195,336.412476 118.185020,338.478943 
	C120.493965,339.115265 123.030838,338.924561 126.489258,339.191772 
	C124.793320,334.495544 123.420624,330.694366 122.430435,326.491028 
	C125.645340,327.879211 128.668884,329.432922 131.258057,331.524384 
	C134.017609,333.753387 136.366364,336.490967 138.956818,339.379944 
	C139.128952,340.759674 139.238724,341.765961 139.130600,343.090759 
	C136.913879,347.285309 135.873596,352.504333 130.003235,351.936249 
	C121.005135,351.065491 112.039062,349.809906 103.092857,348.490784 
	C100.493492,348.107513 98.008308,346.950012 95.470779,346.147400 
	C95.043236,346.673065 94.615685,347.198730 94.188133,347.724396 
	C97.078712,351.588287 99.426445,356.065063 102.964066,359.198456 
	C112.665306,367.791229 123.746933,373.317261 137.293564,370.884949 
	C141.502197,370.129272 145.620956,368.873138 149.780853,367.846130 
	C150.841309,371.735779 151.901749,375.625458 153.056717,379.922913 
	C153.151230,380.330688 153.148178,380.698456 153.020111,380.830444 
z"/>
<path fill="#84343B" opacity="1.000000" stroke="none" 
	d="
M138.894470,339.006500 
	C136.366364,336.490967 134.017609,333.753387 131.258057,331.524384 
	C128.668884,329.432922 125.645340,327.879211 122.450340,326.120911 
	C122.087746,326.152924 121.712158,325.923126 121.493439,325.902313 
	C119.538048,319.852631 117.801384,313.823761 115.981224,307.395599 
	C115.920189,306.260040 115.942650,305.523773 116.294601,304.263672 
	C123.124504,296.596161 123.193199,287.781525 123.459320,278.891083 
	C130.703857,280.222961 132.213409,284.471924 127.999153,289.762543 
	C126.978630,291.043701 126.304764,293.420135 126.745781,294.917633 
	C130.495453,307.649719 134.595245,320.278290 138.435104,332.984711 
	C139.003738,334.866394 138.761536,336.993134 138.894470,339.006500 
z"/>
<path fill="#FA8B95" opacity="1.000000" stroke="none" 
	d="
M630.830444,195.879822 
	C625.767883,201.144775 620.819824,206.724564 615.021240,211.203171 
	C603.540283,220.070648 589.919067,224.381607 576.015991,227.792343 
	C571.942993,228.791580 571.247253,226.029770 570.921387,222.579163 
	C581.857483,216.465393 593.010925,211.294174 605.585144,210.508484 
	C615.533569,209.886856 621.941406,203.986115 627.412781,196.503296 
	C627.999512,195.700806 628.664429,194.955399 629.594360,194.037033 
	C630.117188,194.492630 630.338806,195.094711 630.830444,195.879822 
z"/>
<path fill="#84333A" opacity="1.000000" stroke="none" 
	d="
M116.079391,236.995117 
	C116.046127,236.530121 116.012871,236.065140 115.912300,235.257172 
	C117.166374,229.877777 118.487762,224.841385 119.840530,219.443130 
	C120.041092,219.040863 120.210266,219.000458 121.055969,218.955246 
	C126.216850,217.989288 130.701202,217.028122 135.095581,216.432785 
	C131.979996,227.835052 128.820587,238.837860 126.031723,249.933792 
	C125.407616,252.416885 124.860764,253.990707 121.959030,253.536102 
	C121.626831,253.148621 121.367020,253.007309 121.084656,252.483826 
	C119.947342,246.859146 121.621803,240.727203 116.079391,236.995117 
z"/>
<path fill="#FA8B95" opacity="1.000000" stroke="none" 
	d="
M558.012817,362.372986 
	C560.425964,363.255615 562.850952,364.588013 565.380432,365.678284 
	C570.911560,368.062378 577.683777,365.741455 581.015198,360.932434 
	C581.998047,359.513702 584.136597,358.353210 585.890076,358.108093 
	C592.243408,357.219818 598.646729,356.507111 605.052917,356.230103 
	C611.533386,355.949860 615.620605,351.890015 619.572815,347.711029 
	C620.826538,346.385345 620.972168,343.958984 621.489563,342.000580 
	C622.544678,338.006775 623.348938,333.940399 624.547607,329.992279 
	C626.180237,324.614746 628.639587,319.667297 633.557373,316.043274 
	C632.400269,318.945129 630.742371,321.819550 629.447510,324.849152 
	C628.150452,327.884094 626.536621,331.009644 626.233765,334.206543 
	C624.382812,353.745209 610.935181,358.993866 598.272217,359.686371 
	C590.457886,360.113678 583.795715,361.913574 577.387573,366.418793 
	C570.712646,371.111603 563.352478,369.325592 558.012817,362.372986 
z"/>
<path fill="#FA8B95" opacity="1.000000" stroke="none" 
	d="
M673.458252,213.047516 
	C673.800720,210.116074 674.125916,206.947372 675.218201,204.069763 
	C678.797119,194.640518 675.574341,185.662628 673.542114,176.657257 
	C673.268616,175.445236 670.634888,174.765823 669.082153,173.832611 
	C669.082153,172.211746 669.082153,169.955261 669.054688,167.330536 
	C675.696289,171.995865 677.294312,179.583069 678.541199,187.056824 
	C680.054016,196.124603 678.546631,204.896500 673.458252,213.047516 
z"/>
<path fill="#8A333A" opacity="1.000000" stroke="none" 
	d="
M570.005066,221.591599 
	C565.058228,221.728348 562.294556,224.947418 559.396423,228.413727 
	C557.973633,224.844315 556.951233,221.440033 556.333984,218.037125 
	C560.587769,217.873917 564.436401,217.709320 568.285095,217.544708 
	C568.557068,217.678192 568.794678,217.857315 569.202637,218.170807 
	C569.591370,219.246002 569.775391,220.232468 570.005066,221.591599 
z"/>
<path fill="#FA8B95" opacity="1.000000" stroke="none" 
	d="
M633.789246,281.708069 
	C630.391541,281.475281 626.825134,280.935242 623.258789,280.395203 
	C623.243469,279.896606 623.228149,279.398010 623.212830,278.899384 
	C629.899902,273.957245 636.586975,269.015076 643.618652,264.036163 
	C638.580505,269.102570 633.197754,274.205719 628.020996,279.113556 
	C629.028259,279.524994 631.324402,280.462891 633.789246,281.708069 
z"/>
<path fill="#FA8B95" opacity="1.000000" stroke="none" 
	d="
M656.609009,163.223541 
	C656.619751,163.988800 656.257507,165.298889 655.871765,165.305817 
	C648.987549,165.429688 645.156250,171.181656 639.372803,173.964005 
	C642.818298,167.308578 649.009155,164.421997 656.609009,163.223541 
z"/>
<path fill="#FA8B95" opacity="1.000000" stroke="none" 
	d="
M665.303467,224.852966 
	C665.054443,222.794357 664.453979,220.524734 667.547729,219.426956 
	C668.588562,219.057617 668.809204,216.697678 669.687744,215.446182 
	C670.362122,214.485474 671.480469,213.836441 672.789124,213.092957 
	C670.654846,216.998230 668.132812,220.859329 665.303467,224.852966 
z"/>
<path fill="#FA8B95" opacity="1.000000" stroke="none" 
	d="
M644.413879,263.132324 
	C646.092590,257.626373 648.060181,251.900833 650.348267,246.095367 
	C648.680115,251.647858 646.691406,257.280273 644.413879,263.132324 
z"/>
<path fill="#FA8B95" opacity="1.000000" stroke="none" 
	d="
M634.409302,315.114502 
	C636.047974,310.557800 637.999573,305.852081 640.286255,301.078400 
	C638.654907,305.662109 636.688599,310.313812 634.409302,315.114502 
z"/>
<path fill="#FA8B95" opacity="1.000000" stroke="none" 
	d="
M640.741821,294.634460 
	C639.503296,293.904297 637.852844,293.019989 637.201355,291.657867 
	C636.158020,289.476532 635.776855,286.978455 635.132324,284.221069 
	C637.025330,287.307251 638.901794,290.786591 640.741821,294.634460 
z"/>
<path fill="#FA8B95" opacity="1.000000" stroke="none" 
	d="
M654.308350,239.863190 
	C653.858582,235.300964 656.825928,232.539795 660.611755,230.038849 
	C658.837952,233.234604 656.719482,236.467789 654.308350,239.863190 
z"/>
<path fill="#FA8B95" opacity="1.000000" stroke="none" 
	d="
M638.552246,174.761414 
	C637.386047,177.630280 635.905762,180.663300 634.122925,183.887085 
	C635.292969,181.027084 636.765564,177.976318 638.552246,174.761414 
z"/>
<path fill="#FA8B95" opacity="1.000000" stroke="none" 
	d="
M633.537720,184.690002 
	C632.755249,187.558105 631.656494,190.621658 630.210571,193.814819 
	C630.982727,190.924759 632.102051,187.905106 633.537720,184.690002 
z"/>
<path fill="#FA8B95" opacity="1.000000" stroke="none" 
	d="
M661.444763,229.261200 
	C662.183533,227.962509 663.231628,226.518311 664.632202,225.035278 
	C663.907837,226.369507 662.830994,227.742599 661.444763,229.261200 
z"/>
<path fill="#FA8B95" opacity="1.000000" stroke="none" 
	d="
M662.783447,163.747650 
	C662.046875,163.940552 661.086731,163.894012 660.068115,163.546906 
	C660.859741,163.333618 661.709778,163.420929 662.783447,163.747650 
z"/>
<path fill="#FA8B95" opacity="1.000000" stroke="none" 
	d="
M668.886780,166.689987 
	C668.059204,166.562134 667.085144,166.152664 666.047119,165.403961 
	C666.902222,165.512619 667.821228,165.960495 668.886780,166.689987 
z"/>
<path fill="#FA8B95" opacity="1.000000" stroke="none" 
	d="
M652.286865,242.871170 
	C652.448608,242.048813 652.889343,241.078781 653.678894,240.061371 
	C653.540466,240.917175 653.053223,241.820343 652.286865,242.871170 
z"/>
<path fill="#FA8B95" opacity="1.000000" stroke="none" 
	d="
M555.740845,358.378815 
	C556.090576,358.525024 556.500977,358.979279 556.909546,359.766357 
	C556.538940,359.628387 556.170288,359.157623 555.740845,358.378815 
z"/>
<path fill="#FA8B95" opacity="1.000000" stroke="none" 
	d="
M556.877930,360.356049 
	C557.227722,360.507385 557.585327,360.963409 557.955078,361.729431 
	C557.606689,361.579834 557.246216,361.120270 556.877930,360.356049 
z"/>
<path fill="#FA8B95" opacity="1.000000" stroke="none" 
	d="
M635.157654,283.620483 
	C634.789307,283.496124 634.418579,283.069427 634.016724,282.342529 
	C634.375488,282.467560 634.765381,282.892822 635.157654,283.620483 
z"/>
<path fill="#FFCCCB" opacity="1.000000" stroke="none" 
	d="
M555.928894,218.035736 
	C556.951233,221.440033 557.973633,224.844315 559.132080,228.603745 
	C559.245483,229.718246 559.222839,230.477615 558.884155,231.814667 
	C557.448608,238.342117 555.761475,244.251343 555.333374,250.250427 
	C554.556824,261.130829 556.076355,271.598022 564.179260,279.961548 
	C564.277649,280.484222 564.376099,281.006927 564.519775,282.286652 
	C563.295654,291.470886 562.026184,299.898071 560.514282,308.560852 
	C559.403503,311.426300 558.535278,314.056091 557.355835,316.827789 
	C555.366455,321.014404 553.450806,324.980988 552.084778,329.128540 
	C550.983521,332.472168 550.545959,336.034393 549.813965,339.499634 
	C548.658020,340.335114 547.035950,340.913788 546.413757,342.043274 
	C527.214905,376.895264 498.767822,401.953674 463.985016,420.426941 
	C455.218384,425.082916 446.545685,429.967194 438.189301,435.308929 
	C436.048950,436.677124 434.389099,440.071655 434.040314,442.735779 
	C432.852448,451.809113 432.402405,460.976837 431.574097,470.099792 
	C428.356049,505.541901 413.271851,534.422852 384.018829,555.292664 
	C354.100983,576.636841 310.662354,573.132385 283.977539,547.838318 
	C255.035858,520.405029 243.367172,486.582001 245.735031,447.359253 
	C245.994568,443.060181 247.190079,438.815765 247.417542,434.517731 
	C247.492096,433.108887 246.235291,430.877655 244.979034,430.260345 
	C213.044769,414.567688 183.152054,396.114624 160.608032,367.815735 
	C157.224518,363.568451 154.120880,366.530945 150.368622,366.527069 
	C149.222504,363.841492 148.815018,361.338715 147.763641,359.144440 
	C145.113266,353.612915 142.172745,348.220428 139.348511,342.772217 
	C139.238724,341.765961 139.128952,340.759674 138.956818,339.379944 
	C138.761536,336.993134 139.003738,334.866394 138.435104,332.984711 
	C134.595245,320.278290 130.495453,307.649719 126.745781,294.917633 
	C126.304764,293.420135 126.978630,291.043701 127.999153,289.762543 
	C132.213409,284.471924 130.703857,280.222961 123.545174,278.836792 
	C123.244560,278.809143 123.174217,278.617798 123.141327,278.181946 
	C122.757858,269.742676 122.407265,261.739227 122.056671,253.735794 
	C124.860764,253.990707 125.407616,252.416885 126.031723,249.933792 
	C128.820587,238.837860 131.979996,227.835052 135.055573,216.409851 
	C135.105576,216.021103 135.039703,216.085220 135.367401,216.021790 
	C137.040207,214.658585 138.385315,213.358795 139.881958,211.732590 
	C140.180939,210.702225 140.328369,209.998276 140.772095,209.177704 
	C145.928955,202.224838 151.317551,195.695862 155.518814,188.475983 
	C160.992462,179.069443 166.404266,169.446991 167.336731,158.004761 
	C167.818832,157.656570 167.979904,157.376785 168.027634,157.031738 
	C170.863281,155.625992 174.020935,154.640442 176.486084,152.751251 
	C211.473404,125.938553 249.143112,104.941147 293.238312,97.160805 
	C339.165497,89.057228 384.380463,90.891899 428.765564,105.866257 
	C462.717865,117.320877 492.841492,135.101578 518.247253,160.570786 
	C518.827576,161.152542 519.514038,161.628418 520.409790,162.285278 
	C520.668579,162.416855 520.786255,162.608353 520.860535,162.959503 
	C521.285645,164.757996 521.552124,166.232086 522.000854,167.648407 
	C525.046692,177.261307 527.231323,187.279816 531.445251,196.354141 
	C536.045044,206.259506 543.319641,214.391541 554.953308,217.348145 
	C555.310791,217.816132 555.590149,217.977386 555.928894,218.035736 
M249.925659,331.184998 
	C259.694305,346.391937 280.129425,348.246826 292.479584,334.599060 
	C293.591125,333.380707 294.868774,332.275543 295.787964,330.926147 
	C303.193024,320.055420 307.117249,308.173889 305.923553,294.040070 
	C305.966125,290.991699 306.399628,287.917664 301.658569,287.948761 
	C282.503723,288.074402 263.347565,287.989166 244.192490,288.092499 
	C240.563278,288.112061 238.650085,291.596344 239.903473,294.948090 
	C240.510620,296.571686 240.584030,298.394928 240.377716,299.600067 
	C239.946335,298.746124 239.514954,297.892151 239.083572,297.038208 
	C238.691986,297.204071 238.300400,297.369934 237.908813,297.535797 
	C238.870773,309.558777 241.851227,320.900543 249.925659,331.184998 
M434.241852,328.432129 
	C441.934509,316.365173 443.048462,302.834839 442.819977,289.058319 
	C442.803589,288.070526 441.246552,287.108307 439.422516,286.087646 
	C420.823334,286.779205 402.224152,287.470795 383.010162,288.556244 
	C382.647614,289.585876 381.845551,290.682343 381.990326,291.634857 
	C383.478210,301.422882 384.388123,311.388794 386.999390,320.881378 
	C388.502869,326.346771 392.828278,331.035858 396.157867,336.695679 
	C408.607483,349.127655 426.138947,345.513092 434.241852,328.432129 
M338.005341,360.468719 
	C345.471893,359.964569 352.936890,359.434998 360.405823,358.968994 
	C363.317963,358.787354 365.908051,358.113434 365.834808,354.565186 
	C365.763275,351.098145 363.081421,350.891083 360.448456,350.899475 
	C353.456146,350.921814 346.442444,350.658630 339.484314,351.161011 
	C337.344330,351.315491 335.356232,353.574249 333.298584,354.869507 
	C334.608490,356.713470 335.918396,358.557465 338.005341,360.468719 
z"/>
<path fill="#D54753" opacity="1.000000" stroke="none" 
	d="
M557.667053,316.685913 
	C558.535278,314.056091 559.403503,311.426300 560.833801,308.346924 
	C563.673157,302.957428 566.863647,299.693298 572.923462,301.433044 
	C573.474426,301.591248 574.197388,301.150146 574.852783,301.373901 
	C574.299316,304.600128 573.733582,307.439789 573.013611,311.053894 
	C580.097534,308.531555 586.615784,306.874176 591.547424,301.336212 
	C596.907898,297.107635 601.918945,292.962463 606.930054,288.817291 
	C608.472107,288.261047 610.053101,287.793060 611.549500,287.133362 
	C618.068848,284.259216 624.943848,287.469940 626.899109,294.416656 
	C628.970886,301.777527 627.769653,309.011017 625.100342,315.872559 
	C618.083008,333.910583 605.469543,346.755646 587.109924,352.899750 
	C578.746399,355.698608 569.568542,355.320679 561.259827,351.532440 
	C557.785156,349.948212 556.096313,350.515350 554.399292,353.842957 
	C553.147766,350.227081 552.161438,346.410645 551.637024,342.241333 
	C553.513550,341.628143 554.928162,341.367889 556.342773,341.107452 
	C559.989746,340.436035 563.922852,338.537415 567.233337,339.309204 
	C580.351929,342.367584 590.673767,337.659332 599.815125,329.006012 
	C607.405029,321.821320 613.176636,313.581116 613.778564,301.246674 
	C610.845825,303.970825 608.809692,306.010712 606.620605,307.870392 
	C595.381104,317.418488 582.892761,324.235657 567.786194,324.898346 
	C561.193420,325.187561 558.776306,323.043579 557.667053,316.685913 
z"/>
<path fill="#FCC9C8" opacity="1.000000" stroke="none" 
	d="
M444.232544,494.311768 
	C445.162445,481.642059 445.997467,469.404480 446.934631,457.174744 
	C447.127258,454.661438 447.701782,452.177368 448.100311,449.679840 
	C448.677277,449.480255 449.254242,449.280640 449.831238,449.081055 
	C457.585236,458.492737 465.713745,467.628326 472.938690,477.429993 
	C476.672729,482.495789 477.163147,488.958649 474.747223,495.096161 
	C472.803650,500.033813 469.433289,503.449493 463.787262,504.023193 
	C456.802887,504.732880 449.827881,505.534454 442.526398,506.331512 
	C443.209290,501.529419 443.691528,498.138062 444.232544,494.311768 
z"/>
<path fill="#FD7881" opacity="1.000000" stroke="none" 
	d="
M557.355835,316.827789 
	C558.776306,323.043579 561.193420,325.187561 567.786194,324.898346 
	C582.892761,324.235657 595.381104,317.418488 606.620605,307.870392 
	C608.809692,306.010712 610.845825,303.970825 613.778564,301.246674 
	C613.176636,313.581116 607.405029,321.821320 599.815125,329.006012 
	C590.673767,337.659332 580.351929,342.367584 567.233337,339.309204 
	C563.922852,338.537415 559.989746,340.436035 556.342773,341.107452 
	C554.928162,341.367889 553.513550,341.628143 551.725586,341.834534 
	C550.930969,341.177032 550.509766,340.573517 549.951294,339.734802 
	C550.545959,336.034393 550.983521,332.472168 552.084778,329.128540 
	C553.450806,324.980988 555.366455,321.014404 557.355835,316.827789 
z"/>
<path fill="#FBC6C6" opacity="1.000000" stroke="none" 
	d="
M213.860626,501.943420 
	C213.698608,488.805847 218.605560,477.439972 223.037872,465.973602 
	C224.581207,461.980896 226.540787,458.149109 229.486313,454.339355 
	C230.197327,465.100342 230.103897,475.993713 231.846634,486.584991 
	C233.573563,497.080383 237.151321,507.271240 240.275391,518.932312 
	C234.145096,518.932312 228.234940,519.058533 222.333405,518.887329 
	C218.484024,518.775696 216.220078,516.190308 215.364227,512.743774 
	C214.530151,509.384949 214.336884,505.867004 213.860626,501.943420 
z"/>
<path fill="#FD7882" opacity="1.000000" stroke="none" 
	d="
M139.130600,343.090759 
	C142.172745,348.220428 145.113266,353.612915 147.763641,359.144440 
	C148.815018,361.338715 149.222504,363.841492 149.999222,366.575500 
	C150.075302,366.947174 149.942307,367.401794 149.861572,367.623962 
	C145.620956,368.873138 141.502197,370.129272 137.293564,370.884949 
	C123.746933,373.317261 112.665306,367.791229 102.964066,359.198456 
	C99.426445,356.065063 97.078712,351.588287 94.188133,347.724396 
	C94.615685,347.198730 95.043236,346.673065 95.470779,346.147400 
	C98.008308,346.950012 100.493492,348.107513 103.092857,348.490784 
	C112.039062,349.809906 121.005135,351.065491 130.003235,351.936249 
	C135.873596,352.504333 136.913879,347.285309 139.130600,343.090759 
z"/>
<path fill="#FBC7C6" opacity="1.000000" stroke="none" 
	d="
M273.647308,589.552734 
	C268.319214,587.937744 263.289764,586.731995 258.576965,584.766785 
	C254.788635,583.187134 252.649719,579.751404 253.097870,575.531006 
	C253.551605,571.257874 257.229187,569.967285 260.692841,569.503479 
	C277.280853,567.282349 293.769531,570.780151 305.682281,587.609741 
	C295.106171,589.961182 284.629425,590.247131 273.647308,589.552734 
z"/>
<path fill="#FAC4C4" opacity="1.000000" stroke="none" 
	d="
M435.103760,577.375488 
	C420.982544,577.489624 407.277679,577.489624 392.777313,577.489624 
	C401.789612,566.215942 413.041595,562.960510 425.672699,563.622131 
	C429.904449,563.843750 434.259155,564.847351 438.187775,566.418518 
	C440.184662,567.216980 442.605652,570.114502 442.537720,571.979431 
	C442.476440,573.660461 439.322174,575.276062 437.441589,576.809509 
	C436.983185,577.183350 436.170135,577.122375 435.103760,577.375488 
z"/>
<path fill="#D54653" opacity="1.000000" stroke="none" 
	d="
M556.333984,218.037125 
	C555.590149,217.977386 555.310791,217.816132 554.983215,216.988251 
	C553.886780,215.138855 552.728271,213.947449 551.949463,212.545181 
	C550.811584,210.496414 549.395508,208.374084 549.080505,206.144302 
	C548.442444,201.627640 552.570496,200.453781 555.472961,198.871933 
	C565.858948,193.211334 575.159485,186.035660 581.237915,175.973862 
	C595.713562,152.011978 603.468628,125.702560 605.858948,97.862648 
	C606.314636,92.555122 605.548401,87.142670 605.345947,81.778633 
	C604.861816,81.684708 604.377625,81.590782 603.893494,81.496849 
	C602.421082,84.003929 600.756104,86.419052 599.508057,89.033249 
	C592.207581,104.325081 585.188904,119.701416 574.911011,133.414749 
	C565.050964,146.570633 553.821777,157.363297 536.995972,160.443146 
	C531.640076,161.423523 526.192078,161.900848 520.786255,162.608368 
	C520.786255,162.608353 520.668579,162.416855 520.750732,162.341400 
	C520.537964,156.820389 520.242981,151.374817 519.984131,145.467102 
	C524.310608,149.962128 529.338867,149.052063 534.965454,147.571457 
	C547.560791,144.257050 556.435364,136.136475 562.986816,125.661057 
	C570.803833,113.162224 577.593079,100.019691 584.797485,87.139175 
	C587.298950,82.666840 589.405396,77.940804 592.235901,73.692863 
	C596.399902,67.443695 601.971130,65.129448 607.400574,66.677368 
	C614.297913,68.643791 618.120544,73.726364 619.091797,81.218285 
	C621.716980,101.467529 617.679260,120.933578 612.075806,140.127396 
	C606.747437,158.378799 600.163208,176.215820 587.808777,191.097839 
	C583.822266,195.900009 579.046143,200.304581 573.894958,203.808563 
	C568.878906,207.220596 565.383911,210.364441 568.242065,217.167618 
	C564.436401,217.709320 560.587769,217.873917 556.333984,218.037125 
z"/>
<path fill="#D54653" opacity="1.000000" stroke="none" 
	d="
M168.019623,156.596481 
	C167.979904,157.376785 167.818832,157.656570 166.932068,157.987473 
	C156.917542,160.538422 138.555466,152.315964 132.280930,142.424866 
	C121.481705,125.401100 116.182770,106.104279 110.040031,87.175751 
	C107.795639,80.259796 105.652710,73.310913 103.463493,66.377052 
	C96.174301,80.517395 94.039062,95.213715 93.030647,110.090294 
	C91.546898,131.979355 96.673347,152.744995 105.926872,172.287399 
	C111.879662,184.858994 119.355644,196.902267 133.308289,202.567978 
	C136.665039,203.931061 139.425812,205.620407 140.475815,209.294327 
	C140.328369,209.998276 140.180939,210.702225 139.548645,211.772263 
	C137.722427,213.453979 136.381073,214.769608 135.039703,216.085236 
	C135.039703,216.085220 135.105576,216.021103 135.145569,216.044037 
	C130.701202,217.028122 126.216850,217.989288 121.302895,218.871002 
	C122.552635,214.990906 121.373985,212.589203 117.846855,210.271805 
	C105.449150,202.126175 97.974312,189.920654 92.000221,176.819962 
	C82.940750,156.953293 77.445656,136.109680 78.165329,114.134026 
	C78.765251,95.815262 81.255127,77.662758 89.337685,60.925678 
	C91.405396,56.643921 95.133072,52.903881 98.803467,49.730877 
	C102.300026,46.708153 107.145401,47.493038 109.391670,51.155193 
	C113.499420,57.852146 117.075119,65.019402 119.812019,72.384674 
	C126.457664,90.268745 132.481827,108.383469 138.781372,126.396530 
	C143.077103,138.679825 153.210617,143.589859 164.697937,146.664398 
	C165.664764,146.923157 166.886444,146.229660 168.318756,145.854599 
	C168.435730,149.207489 168.223663,152.684357 168.019623,156.596481 
z"/>
<path fill="#863239" opacity="1.000000" stroke="none" 
	d="
M574.840515,300.987335 
	C574.197388,301.150146 573.474426,301.591248 572.923462,301.433044 
	C566.863647,299.693298 563.673157,302.957428 561.076294,308.111328 
	C562.026184,299.898071 563.295654,291.470886 564.724060,282.630737 
	C568.310913,285.473541 571.738770,288.729309 575.507324,292.008850 
	C575.920898,292.506409 575.993896,292.980255 576.084595,294.219238 
	C575.853516,296.667877 575.604736,298.351349 575.218140,300.158752 
	C574.998413,300.516876 574.918396,300.751770 574.840515,300.987335 
z"/>
<path fill="#FEF1F2" opacity="1.000000" stroke="none" 
	d="
M575.355896,300.034851 
	C575.604736,298.351349 575.853516,296.667877 576.179016,294.566528 
	C584.945801,295.855072 592.634521,292.963135 600.246887,289.223114 
	C602.156433,288.284973 604.633484,288.501984 606.889893,288.502716 
	C601.918945,292.962463 596.907898,297.107635 591.143799,301.153748 
	C585.379150,300.714752 580.367554,300.374817 575.355896,300.034851 
z"/>
<path fill="#D54653" opacity="1.000000" stroke="none" 
	d="
M115.790894,237.220795 
	C121.621803,240.727203 119.947342,246.859146 120.651672,252.541183 
	C93.916321,257.283630 72.973495,247.985870 56.015694,227.780121 
	C56.510117,230.599823 57.228088,233.268036 58.389595,235.726715 
	C61.079369,241.420486 63.968029,247.020813 66.803963,252.644943 
	C76.232613,271.343536 91.188492,280.900299 112.358078,279.963257 
	C115.976227,279.803162 119.569466,279.080536 123.174217,278.617798 
	C123.174217,278.617798 123.244560,278.809143 123.158707,278.863464 
	C123.193199,287.781525 123.124504,296.596161 116.312714,303.893066 
	C115.877449,303.935211 115.690231,303.847748 115.638985,303.709747 
	C114.473892,300.571991 114.186714,296.126740 111.938614,294.636505 
	C109.473450,293.002380 105.157463,294.415527 101.725677,293.940094 
	C87.253441,291.935028 74.257805,286.066345 64.930016,274.934387 
	C52.770847,260.423340 44.506687,243.511963 40.549416,224.846405 
	C39.545589,220.111588 39.422131,214.962234 40.058697,210.157639 
	C41.189369,201.623764 49.027012,198.512314 55.703316,203.951797 
	C59.218037,206.815369 62.311676,210.571350 64.596107,214.504761 
	C74.787720,232.053070 90.687630,239.709259 110.068420,241.772583 
	C113.426315,242.130066 114.899361,240.405136 115.790894,237.220795 
M55.578224,225.530762 
	C55.578224,225.530762 55.469776,225.601105 55.578224,225.530762 
z"/>
<path fill="#FE7982" opacity="1.000000" stroke="none" 
	d="
M564.427734,279.702087 
	C556.076355,271.598022 554.556824,261.130829 555.333374,250.250427 
	C555.761475,244.251343 557.448608,238.342117 558.898193,232.195877 
	C559.686462,232.466217 560.375244,232.853363 560.568237,233.411835 
	C563.616272,242.232376 565.576416,243.094604 574.816833,241.624908 
	C590.626282,239.110443 605.404297,233.724747 618.889404,225.338913 
	C625.579163,221.178818 631.284729,215.402328 637.278870,210.177444 
	C639.116577,208.575623 640.434631,206.377640 641.990662,204.452667 
	C642.565674,204.773605 643.140747,205.094543 643.715759,205.415482 
	C643.503418,207.184875 643.242615,208.949997 643.086243,210.724319 
	C641.071228,233.579315 627.214722,248.157303 608.438477,258.611633 
	C599.671082,263.493195 589.842896,266.469482 580.495605,270.309509 
	C575.633484,272.306976 570.728394,274.210846 565.954895,276.401611 
	C565.218567,276.739563 565.087341,278.395996 564.427734,279.702087 
z"/>
<path fill="#FD7881" opacity="1.000000" stroke="none" 
	d="
M123.141327,278.181946 
	C119.569466,279.080536 115.976227,279.803162 112.358078,279.963257 
	C91.188492,280.900299 76.232613,271.343536 66.803963,252.644943 
	C63.968029,247.020813 61.079369,241.420486 58.389595,235.726715 
	C57.228088,233.268036 56.510117,230.599823 56.015694,227.780121 
	C72.973495,247.985870 93.916321,257.283630 120.648949,252.969818 
	C121.367020,253.007309 121.626831,253.148621 121.959030,253.536102 
	C122.407265,261.739227 122.757858,269.742676 123.141327,278.181946 
z"/>
<path fill="#FE7982" opacity="1.000000" stroke="none" 
	d="
M140.772095,209.177704 
	C139.425812,205.620407 136.665039,203.931061 133.308289,202.567978 
	C119.355644,196.902267 111.879662,184.858994 105.926872,172.287399 
	C96.673347,152.744995 91.546898,131.979355 93.030647,110.090294 
	C94.039062,95.213715 96.174301,80.517395 103.463493,66.377052 
	C105.652710,73.310913 107.795639,80.259796 110.040031,87.175751 
	C116.182770,106.104279 121.481705,125.401100 132.280930,142.424866 
	C138.555466,152.315964 156.917542,160.538422 166.724350,158.121124 
	C166.404266,169.446991 160.992462,179.069443 155.518814,188.475983 
	C151.317551,195.695862 145.928955,202.224838 140.772095,209.177704 
z"/>
<path fill="#FE7982" opacity="1.000000" stroke="none" 
	d="
M520.860535,162.959503 
	C526.192078,161.900848 531.640076,161.423523 536.995972,160.443146 
	C553.821777,157.363297 565.050964,146.570633 574.911011,133.414749 
	C585.188904,119.701416 592.207581,104.325081 599.508057,89.033249 
	C600.756104,86.419052 602.421082,84.003929 603.893494,81.496849 
	C604.377625,81.590782 604.861816,81.684708 605.345947,81.778633 
	C605.548401,87.142670 606.314636,92.555122 605.858948,97.862648 
	C603.468628,125.702560 595.713562,152.011978 581.237915,175.973862 
	C575.159485,186.035660 565.858948,193.211334 555.472961,198.871933 
	C552.570496,200.453781 548.442444,201.627640 549.080505,206.144302 
	C549.395508,208.374084 550.811584,210.496414 551.949463,212.545181 
	C552.728271,213.947449 553.886780,215.138855 554.845642,216.784424 
	C543.319641,214.391541 536.045044,206.259506 531.445251,196.354141 
	C527.231323,187.279816 525.046692,177.261307 522.000854,167.648407 
	C521.552124,166.232086 521.285645,164.757996 520.860535,162.959503 
z"/>
<path fill="#FCFBF6" opacity="1.000000" stroke="none" 
	d="
M240.899078,300.127777 
	C240.584030,298.394928 240.510620,296.571686 239.903473,294.948090 
	C238.650085,291.596344 240.563278,288.112061 244.192490,288.092499 
	C263.347565,287.989166 282.503723,288.074402 301.658569,287.948761 
	C306.399628,287.917664 305.966125,290.991699 305.625763,294.526917 
	C303.768677,296.920929 302.509949,299.224609 300.601501,300.670990 
	C287.986145,310.231964 273.564728,313.535370 258.268524,310.429962 
	C251.787613,309.114258 244.354553,307.446625 240.899078,300.127777 
z"/>
<path fill="#FCFCF7" opacity="1.000000" stroke="none" 
	d="
M383.624969,288.162354 
	C402.224152,287.470795 420.823334,286.779205 439.830811,286.553589 
	C439.852417,300.443939 436.248077,305.994232 425.640930,309.333466 
	C414.260071,312.916199 403.158112,310.922546 392.432526,306.865204 
	C389.486603,305.750793 387.362610,302.463593 384.921570,299.782043 
	C384.689850,297.932251 384.397980,296.473907 384.045288,294.615601 
	C384.041626,293.141907 384.098816,292.068115 384.310455,290.910095 
	C384.518280,290.722107 384.643311,290.579010 384.611908,290.521790 
	C384.506897,290.330475 384.345886,290.169952 384.123871,289.687134 
	C383.902588,288.971863 383.763794,288.567108 383.624969,288.162354 
z"/>
<path fill="#984D53" opacity="1.000000" stroke="none" 
	d="
M384.156006,290.994354 
	C384.098816,292.068115 384.041626,293.141907 383.959106,294.994995 
	C384.243011,297.240723 384.552246,298.707062 384.861450,300.173431 
	C387.362610,302.463593 389.486603,305.750793 392.432526,306.865204 
	C403.158112,310.922546 414.260071,312.916199 425.640930,309.333466 
	C436.248077,305.994232 439.852417,300.443939 440.322510,286.576843 
	C441.246552,287.108307 442.803589,288.070526 442.819977,289.058319 
	C443.048462,302.834839 441.934509,316.365173 433.630188,328.702332 
	C431.735107,328.960999 430.451630,328.949493 429.084442,328.583862 
	C426.803345,319.058258 416.503387,316.231934 406.551300,319.000580 
	C397.002136,321.657166 394.365234,325.858002 396.971191,335.146149 
	C396.510895,335.624115 396.197205,335.849243 395.883484,336.074371 
	C392.828278,331.035858 388.502869,326.346771 386.999390,320.881378 
	C384.388123,311.388794 383.478210,301.422882 381.990326,291.634857 
	C381.845551,290.682343 382.647614,289.585876 383.317566,288.359314 
	C383.763794,288.567108 383.902588,288.971863 384.037109,289.932434 
	C384.073914,290.656952 384.114990,290.825653 384.156006,290.994354 
z"/>
<path fill="#974B51" opacity="1.000000" stroke="none" 
	d="
M240.638397,299.863922 
	C244.354553,307.446625 251.787613,309.114258 258.268524,310.429962 
	C273.564728,313.535370 287.986145,310.231964 300.601501,300.670990 
	C302.509949,299.224609 303.768677,296.920929 305.668427,294.945923 
	C307.117249,308.173889 303.193024,320.055420 295.787964,330.926147 
	C294.868774,332.275543 293.591125,333.380707 291.983795,334.632446 
	C291.342163,334.135559 291.196320,333.605347 291.091034,332.818665 
	C291.161682,332.391724 291.191833,332.221283 291.405396,331.930054 
	C291.812927,331.603882 291.959564,331.353210 292.049500,330.804565 
	C292.087250,330.383820 292.104218,330.215668 292.402039,329.993469 
	C292.501770,329.275513 292.320648,328.611633 292.096985,327.570923 
	C291.507782,322.918091 289.165344,320.148285 284.993958,318.548096 
	C283.620575,317.821869 282.314423,317.403656 280.640167,316.981445 
	C279.538483,316.924408 278.804871,316.871277 277.952881,316.463562 
	C275.051056,314.679718 272.299744,313.611115 269.563080,316.851929 
	C268.459503,316.915894 267.722717,316.942535 266.773651,316.716095 
	C265.018585,317.256317 263.475800,318.049591 261.589050,318.896454 
	C260.553467,319.029480 259.861847,319.108917 258.839294,319.160706 
	C257.996368,319.728302 257.484314,320.323517 256.726410,321.052216 
	C256.003601,321.475586 255.526611,321.765442 254.687958,322.075256 
	C250.387390,323.619751 250.056076,327.070099 249.805573,330.563629 
	C241.851227,320.900543 238.870773,309.558777 237.908813,297.535797 
	C238.300400,297.369934 238.691986,297.204071 239.083572,297.038208 
	C239.514954,297.892151 239.946335,298.746124 240.638397,299.863922 
z"/>
<path fill="#964E52" opacity="1.000000" stroke="none" 
	d="
M337.616821,360.435089 
	C335.918396,358.557465 334.608490,356.713470 333.298584,354.869507 
	C335.356232,353.574249 337.344330,351.315491 339.484314,351.161011 
	C346.442444,350.658630 353.456146,350.921814 360.448456,350.899475 
	C363.081421,350.891083 365.763275,351.098145 365.834808,354.565186 
	C365.908051,358.113434 363.317963,358.787354 360.405823,358.968994 
	C352.936890,359.434998 345.471893,359.964569 337.616821,360.435089 
z"/>
<path fill="#B84F5F" opacity="1.000000" stroke="none" 
	d="
M249.865616,330.874329 
	C250.056076,327.070099 250.387390,323.619751 254.632751,322.429535 
	C250.663406,329.009338 250.587860,329.828125 256.616272,334.957794 
	C259.190369,337.148132 262.417389,338.849030 265.628662,339.960999 
	C275.541687,343.393585 283.605408,339.191498 291.050507,333.075104 
	C291.196320,333.605347 291.342163,334.135559 291.713684,334.832184 
	C280.129425,348.246826 259.694305,346.391937 249.865616,330.874329 
z"/>
<path fill="#B65461" opacity="1.000000" stroke="none" 
	d="
M429.168182,328.937988 
	C430.451630,328.949493 431.735107,328.960999 433.401306,328.955292 
	C426.138947,345.513092 408.607483,349.127655 396.020691,336.385010 
	C396.197205,335.849243 396.510895,335.624115 397.304504,335.218201 
	C398.935242,335.945984 400.123138,336.811676 401.231110,337.769806 
	C411.127655,346.327942 428.294830,339.434631 429.168182,328.937988 
z"/>
<path fill="#84333A" opacity="1.000000" stroke="none" 
	d="
M135.367401,216.021805 
	C136.381073,214.769608 137.722427,213.453979 139.397110,212.098679 
	C138.385315,213.358795 137.040207,214.658585 135.367401,216.021805 
z"/>
<path fill="#F98A93" opacity="1.000000" stroke="none" 
	d="
M575.218140,300.158752 
	C580.367554,300.374817 585.379150,300.714752 590.794434,301.237183 
	C586.615784,306.874176 580.097534,308.531555 573.013611,311.053894 
	C573.733582,307.439789 574.299316,304.600128 574.852783,301.373901 
	C574.918396,300.751770 574.998413,300.516876 575.218140,300.158752 
z"/>
<path fill="#FD7881" opacity="1.000000" stroke="none" 
	d="
M55.524002,225.565933 
	C55.469776,225.601105 55.578224,225.530762 55.524002,225.565933 
z"/>
<path fill="#FFCCCB" opacity="1.000000" stroke="none" 
	d="
M384.921570,299.782043 
	C384.552246,298.707062 384.243011,297.240723 384.019958,295.394958 
	C384.397980,296.473907 384.689850,297.932251 384.921570,299.782043 
z"/>
<path fill="#FFCCCB" opacity="1.000000" stroke="none" 
	d="
M384.310486,290.910095 
	C384.114990,290.825653 384.073914,290.656952 384.119568,290.242920 
	C384.345886,290.169952 384.506897,290.330475 384.611908,290.521790 
	C384.643311,290.579010 384.518280,290.722107 384.310486,290.910095 
z"/>
<path fill="#F9446D" opacity="1.000000" stroke="none" 
	d="
M429.084442,328.583862 
	C428.294830,339.434631 411.127655,346.327942 401.231110,337.769806 
	C400.123138,336.811676 398.935242,335.945984 397.451111,334.965393 
	C394.365234,325.858002 397.002136,321.657166 406.551300,319.000580 
	C416.503387,316.231934 426.803345,319.058258 429.084442,328.583862 
z"/>
<path fill="#FA446D" opacity="1.000000" stroke="none" 
	d="
M291.091034,332.818665 
	C283.605408,339.191498 275.541687,343.393585 265.628662,339.960999 
	C262.417389,338.849030 259.190369,337.148132 256.616272,334.957794 
	C250.587860,329.828125 250.663406,329.009338 254.994385,322.409546 
	C255.526611,321.765442 256.003601,321.475586 257.040405,321.039246 
	C258.123566,320.324646 258.646881,319.756500 259.170197,319.188354 
	C259.861847,319.108917 260.553467,319.029480 261.943848,318.912842 
	C264.090363,318.240143 265.538147,317.604645 266.985931,316.969177 
	C267.722717,316.942535 268.459503,316.915894 270.013123,316.914307 
	C273.243744,316.898956 275.657501,316.858551 278.071259,316.818176 
	C278.804871,316.871277 279.538483,316.924408 280.830139,317.250641 
	C282.612488,317.967865 283.836823,318.411957 285.061157,318.856079 
	C289.165344,320.148285 291.507782,322.918091 292.044189,327.919617 
	C292.063080,329.112579 292.092133,329.580048 292.121216,330.047516 
	C292.104218,330.215668 292.087250,330.383820 291.835144,330.896179 
	C291.322449,331.439819 291.196411,331.709991 291.221954,332.050873 
	C291.191833,332.221283 291.161682,332.391724 291.091034,332.818665 
z"/>
<path fill="#B84F5F" opacity="1.000000" stroke="none" 
	d="
M277.952881,316.463562 
	C275.657501,316.858551 273.243744,316.898956 270.379944,316.876984 
	C272.299744,313.611115 275.051056,314.679718 277.952881,316.463562 
z"/>
<path fill="#B84F5F" opacity="1.000000" stroke="none" 
	d="
M266.773651,316.716095 
	C265.538147,317.604645 264.090363,318.240143 262.287781,318.859253 
	C263.475800,318.049591 265.018585,317.256317 266.773651,316.716095 
z"/>
<path fill="#B84F5F" opacity="1.000000" stroke="none" 
	d="
M284.993958,318.548096 
	C283.836823,318.411957 282.612488,317.967865 281.198181,317.254578 
	C282.314423,317.403656 283.620575,317.821869 284.993958,318.548096 
z"/>
<path fill="#B84F5F" opacity="1.000000" stroke="none" 
	d="
M292.402039,329.993469 
	C292.092133,329.580048 292.063080,329.112579 292.086792,328.296417 
	C292.320648,328.611633 292.501770,329.275513 292.402039,329.993469 
z"/>
<path fill="#B84F5F" opacity="1.000000" stroke="none" 
	d="
M258.839294,319.160706 
	C258.646881,319.756500 258.123566,320.324646 257.286224,320.905762 
	C257.484314,320.323517 257.996368,319.728302 258.839294,319.160706 
z"/>
<path fill="#B84F5F" opacity="1.000000" stroke="none" 
	d="
M291.405396,331.930054 
	C291.196411,331.709991 291.322449,331.439819 291.814392,331.148804 
	C291.959564,331.353210 291.812927,331.603882 291.405396,331.930054 
z"/>
</svg>