<svg version="1.1" id="Layer_1" xmlns="http://www.w3.org/2000/svg" xmlns:xlink="http://www.w3.org/1999/xlink" x="0px" y="0px"
	 width="100%" viewBox="0 0 760 751" enable-background="new 0 0 760 751" xml:space="preserve">
<path fill="#FFFFFF" opacity="1.000000" stroke="none" 
	d="
M413.000000,752.000000 
	C275.333344,752.000000 138.166672,752.000000 1.000000,752.000000 
	C1.000000,501.666656 1.000000,251.333328 1.000000,1.000000 
	C254.333328,1.000000 507.666656,1.000000 761.000000,1.000000 
	C761.000000,251.333328 761.000000,501.666656 761.000000,752.000000 
	C645.166687,752.000000 529.333313,752.000000 413.000000,752.000000 
M513.030273,239.999680 
	C513.030273,239.999680 513.094910,239.904266 512.816772,239.438873 
	C512.321289,239.257004 511.825806,239.075134 510.954132,238.296478 
	C505.810028,235.579681 500.665924,232.862900 495.304108,229.743866 
	C494.882843,229.619370 494.461548,229.494858 493.524048,228.956665 
	C492.345093,228.415192 491.166168,227.873718 489.451416,226.849365 
	C487.369812,225.816925 485.331909,224.682861 483.200287,223.766815 
	C416.815857,195.238358 348.924347,192.050583 279.863159,212.319397 
	C259.253784,218.368057 239.520233,226.790756 221.019363,238.903961 
	C220.608215,239.227753 220.197083,239.551544 219.130264,240.058075 
	C216.464905,241.790390 213.799530,243.522705 210.460251,245.032379 
	C203.576370,239.339844 196.575302,233.781784 189.843384,227.914886 
	C183.787186,222.636887 178.300781,216.777069 176.319122,208.636841 
	C173.858276,198.528168 167.882690,190.969788 159.359528,185.460281 
	C152.338699,180.921936 148.254120,174.682526 146.633499,166.641342 
	C143.488770,151.037689 134.917145,141.278366 118.495987,138.606064 
	C107.446884,136.808014 94.623924,141.184540 87.920250,150.137695 
	C83.112442,156.558792 81.124084,163.640732 81.024803,171.536224 
	C80.876404,183.338058 81.088745,195.195892 79.964287,206.916367 
	C79.179741,215.093842 76.063499,223.019272 74.622749,231.169357 
	C72.834076,241.287628 73.796890,250.735748 81.036278,259.238617 
	C86.679451,265.866638 91.592430,273.314362 95.681931,281.008026 
	C99.319717,287.851837 101.367561,295.538788 104.141296,302.844452 
	C106.936676,310.207062 111.428818,316.134857 118.149681,320.487885 
	C121.741295,322.814148 124.713371,326.075745 128.187012,328.611115 
	C131.892853,331.316040 135.860382,333.662415 139.539948,336.953705 
	C138.484497,340.784790 137.429047,344.615906 135.650330,348.207520 
	C131.351227,345.427765 127.372047,341.804443 122.691864,340.029480 
	C109.634285,335.077271 100.335480,327.210815 94.101494,314.118530 
	C85.604210,296.272949 63.851467,297.308472 54.222889,309.882843 
	C43.057419,324.464355 42.399040,341.697845 47.669697,358.847656 
	C49.160080,363.697113 53.991692,367.442627 55.959476,372.240479 
	C58.955025,379.544281 61.336342,387.208191 62.974949,394.932068 
	C64.885612,403.938324 69.246803,410.561432 77.680870,414.304108 
	C81.168259,415.851715 84.662018,417.622559 88.342186,418.452362 
	C98.209671,420.677307 106.563332,425.082520 113.519882,432.616974 
	C119.635056,439.240234 127.378754,442.888184 136.748901,441.858490 
	C139.547211,441.550995 142.337067,441.166473 145.441681,441.474121 
	C148.395599,447.324219 151.349503,453.174316 153.801575,459.597046 
	C150.203720,459.131378 146.578796,458.140656 143.014465,458.324493 
	C137.813995,458.592682 133.927902,456.664032 129.938751,453.587708 
	C126.592049,451.006744 122.593445,448.996033 118.580261,447.612152 
	C110.448006,444.807892 102.334595,447.526489 98.267403,453.775665 
	C93.947243,460.413544 94.851570,467.721436 101.128494,474.632202 
	C105.643898,479.603577 109.366577,484.821991 111.238190,491.506287 
	C112.092300,494.556763 114.622559,497.864197 117.331429,499.506897 
	C121.940506,502.301971 127.167580,504.297211 132.371536,505.820374 
	C136.288620,506.966888 140.579575,507.253235 144.697586,507.215332 
	C155.592300,507.115112 164.910446,511.375122 174.259552,516.376770 
	C184.087646,521.634705 190.942276,518.960327 195.922348,509.051880 
	C196.295349,508.309723 196.680664,507.573761 197.689163,507.100952 
	C213.360046,517.399719 229.030945,527.698425 245.261185,538.364807 
	C244.908890,539.212463 244.195297,541.188232 243.287460,543.070374 
	C238.516739,552.961548 233.350113,562.677612 228.962845,572.734558 
	C218.224731,597.349487 225.478775,620.179321 248.735336,633.549744 
	C256.728821,638.145264 265.525238,641.841248 274.416046,644.235779 
	C282.870483,646.512878 287.040100,652.505920 291.486938,657.907959 
	C284.007355,660.328735 276.362366,662.063660 269.382233,665.253357 
	C261.065216,669.054138 256.316376,676.155701 256.554443,685.587158 
	C256.790131,694.925293 261.848663,701.810974 269.943176,705.762817 
	C275.852386,708.647827 282.424133,710.261108 288.803253,712.081238 
	C303.698334,716.331360 318.517914,715.757324 332.889343,710.002747 
	C340.338989,707.019775 347.746063,703.446777 348.356323,694.577332 
	C358.688599,694.987671 368.683563,696.237793 378.539459,695.535889 
	C388.374573,694.835510 398.070435,692.179382 408.382965,690.278259 
	C411.495850,699.073425 419.782654,701.723145 428.495636,703.164062 
	C438.338898,704.791870 448.273468,705.940247 458.203949,706.944763 
	C466.318665,707.765564 474.151459,706.225891 481.397888,702.399231 
	C487.957062,698.935425 491.643738,693.772156 491.211670,685.913208 
	C490.701111,676.625610 483.916351,667.879944 473.982361,664.917725 
	C468.302551,663.224060 462.475098,662.025513 456.689331,660.597900 
	C456.815033,660.234680 456.830353,659.843567 457.033600,659.652649 
	C471.700409,645.874573 486.678864,632.411865 500.966461,618.251892 
	C511.932190,607.384033 520.107056,594.798096 519.904724,578.339233 
	C519.772583,567.590210 514.306641,558.974243 509.129059,550.294189 
	C505.519928,544.243591 501.171021,538.634399 497.508850,533.342834 
	C509.155792,525.482239 520.586731,517.767395 532.463257,510.285278 
	C532.625977,510.325348 532.788696,510.365387 532.879883,511.098877 
	C534.292725,515.699341 537.540161,518.581909 542.127441,519.099304 
	C546.308533,519.570923 550.827393,519.793152 554.805847,518.700134 
	C561.428833,516.880493 567.559875,516.818665 574.354126,518.322144 
	C587.347290,521.197266 600.107788,517.923157 607.000305,506.145081 
	C609.676697,501.571503 613.913269,497.893219 617.538025,493.896820 
	C621.652588,489.360443 626.440796,485.322144 629.942200,480.365234 
	C638.134888,468.767059 636.579590,454.476898 626.718872,444.359375 
	C625.841614,443.459320 625.087708,442.439026 624.077698,441.238129 
	C625.836792,440.852661 627.110107,440.483978 628.409546,440.302582 
	C643.019531,438.262726 652.883667,429.964294 659.308655,417.038788 
	C665.382935,404.818787 671.355713,392.544098 677.675903,380.451691 
	C685.688660,365.120758 687.785889,348.312714 688.396606,331.636169 
	C689.064148,313.408905 679.598755,302.193451 663.369873,296.816345 
	C664.530151,286.913910 666.339966,277.270233 666.614136,267.583099 
	C666.921326,256.730713 667.617310,246.093735 670.446106,235.544724 
	C675.275269,217.536621 672.108521,201.109650 660.314209,186.283783 
	C657.577026,182.843079 655.501343,178.125397 655.010376,173.781754 
	C653.140503,157.237411 648.209167,141.770172 638.777527,128.187195 
	C631.894165,118.274017 622.073792,112.229599 609.240173,114.643761 
	C594.046570,117.501869 585.997803,125.186371 583.906250,139.484192 
	C583.064636,145.236710 584.070923,151.316925 584.649170,157.207428 
	C585.742126,168.340973 586.655212,179.058029 575.803894,186.869659 
	C570.019043,191.034012 566.194397,197.320496 565.613708,204.577332 
	C565.197693,209.776382 565.872437,215.168091 566.780457,220.347610 
	C569.317505,234.818420 567.563599,239.367096 555.577881,247.374588 
	C551.014771,250.423111 548.479553,254.667358 547.926392,260.199036 
	C547.788391,261.579071 546.708801,262.864990 545.507568,263.769470 
	C535.145386,256.103729 524.783142,248.438004 514.144653,240.252792 
	C513.784668,240.131760 513.424622,240.010742 513.030273,239.999680 
M340.007019,154.172424 
	C340.262115,152.543198 340.130341,150.718628 340.837616,149.317703 
	C344.377075,142.306976 342.631195,135.422287 340.705383,128.503906 
	C337.039825,115.335800 328.721649,105.560722 318.711395,96.603966 
	C313.387543,91.840385 308.290955,85.991081 305.318939,79.596703 
	C298.212921,64.307930 303.251099,50.589664 313.315918,38.161427 
	C314.286011,36.963543 314.549286,35.193214 315.140686,33.688629 
	C313.356934,33.423977 311.066803,32.328629 309.883881,33.049664 
	C306.266724,35.254486 302.685333,37.790668 299.795074,40.861507 
	C292.601135,48.504906 287.713226,57.226025 286.852539,68.155693 
	C285.301544,87.851891 294.473267,101.817924 309.318542,113.205528 
	C317.546753,119.517288 325.055298,126.605431 328.749359,136.618469 
	C330.861359,142.343307 332.122620,148.377274 334.026642,154.186951 
	C334.483185,155.580002 335.973907,156.634109 336.989044,157.844131 
	C337.957367,156.885971 338.925690,155.927795 340.007019,154.172424 
M406.056610,157.245605 
	C406.370880,158.702744 406.618713,160.177979 407.010193,161.614059 
	C409.611359,171.156509 412.830872,180.375565 421.204895,186.614410 
	C422.165802,187.330322 423.540100,187.671371 424.752289,187.754303 
	C425.090759,187.777451 425.909180,186.234894 425.868408,185.443481 
	C425.647491,181.153183 425.720612,176.759811 424.769653,172.613571 
	C422.865753,164.312180 425.535065,156.967560 428.226471,149.407181 
	C431.660553,139.760437 435.518036,130.118484 437.473480,120.137573 
	C439.034637,112.169395 439.432495,103.532135 435.298218,95.754395 
	C434.586639,94.415695 433.110992,93.483124 431.988281,92.362953 
	C430.932922,93.693237 429.674805,94.910149 428.856720,96.373116 
	C424.997467,103.274727 421.820343,110.631081 417.355194,117.104660 
	C409.119659,129.044678 402.618774,141.202850 406.056610,157.245605 
z"/>
<path fill="#813239" opacity="1.000000" stroke="none" 
	d="
M532.017700,510.052582 
	C520.586731,517.767395 509.155792,525.482239 497.508850,533.342834 
	C501.171021,538.634399 505.519928,544.243591 509.129059,550.294189 
	C514.306641,558.974243 519.772583,567.590210 519.904724,578.339233 
	C520.107056,594.798096 511.932190,607.384033 500.966461,618.251892 
	C486.678864,632.411865 471.700409,645.874573 457.033600,659.652649 
	C456.830353,659.843567 456.815033,660.234680 456.689331,660.597900 
	C462.475098,662.025513 468.302551,663.224060 473.982361,664.917725 
	C483.916351,667.879944 490.701111,676.625610 491.211670,685.913208 
	C491.643738,693.772156 487.957062,698.935425 481.397888,702.399231 
	C474.151459,706.225891 466.318665,707.765564 458.203949,706.944763 
	C448.273468,705.940247 438.338898,704.791870 428.495636,703.164062 
	C419.782654,701.723145 411.495850,699.073425 408.382965,690.278259 
	C398.070435,692.179382 388.374573,694.835510 378.539459,695.535889 
	C368.683563,696.237793 358.688599,694.987671 348.356323,694.577332 
	C347.746063,703.446777 340.338989,707.019775 332.889343,710.002747 
	C318.517914,715.757324 303.698334,716.331360 288.803253,712.081238 
	C282.424133,710.261108 275.852386,708.647827 269.943176,705.762817 
	C261.848663,701.810974 256.790131,694.925293 256.554443,685.587158 
	C256.316376,676.155701 261.065216,669.054138 269.382233,665.253357 
	C276.362366,662.063660 284.007355,660.328735 291.486938,657.907959 
	C287.040100,652.505920 282.870483,646.512878 274.416046,644.235779 
	C265.525238,641.841248 256.728821,638.145264 248.735336,633.549744 
	C225.478775,620.179321 218.224731,597.349487 228.962845,572.734558 
	C233.350113,562.677612 238.516739,552.961548 243.287460,543.070374 
	C244.195297,541.188232 244.908890,539.212463 245.261185,538.364807 
	C229.030945,527.698425 213.360046,517.399719 197.371964,506.740234 
	C197.054764,506.379486 196.915649,505.946381 196.946045,505.492004 
	C195.974701,498.710968 194.972977,492.384308 194.082794,485.912933 
	C194.194336,485.768250 194.308273,485.421082 194.718262,485.363739 
	C198.954544,484.563629 201.781494,485.787933 204.977646,488.317535 
	C216.955139,497.797058 229.044678,507.171539 243.280945,513.307800 
	C249.648727,516.052490 255.658005,519.632629 261.812775,522.866455 
	C265.371277,524.736145 267.101410,527.571777 267.023407,531.747253 
	C266.925720,536.976746 266.868286,542.263489 267.521057,547.433594 
	C268.089722,551.937622 270.125824,556.252869 270.728058,560.756592 
	C274.899048,591.949219 285.739197,620.039673 306.255798,644.495483 
	C338.097076,682.450134 392.082520,686.556824 428.768677,653.259033 
	C443.106140,640.245728 453.736328,624.667542 461.065582,606.983521 
	C469.057343,587.701050 474.652557,567.713318 473.918671,546.501282 
	C473.763824,542.025879 472.979034,537.566406 472.943115,533.095886 
	C472.931091,531.601807 473.963623,529.588135 475.171173,528.674255 
	C487.628143,519.247070 500.233459,510.016296 512.763977,500.685822 
	C516.765930,497.705872 520.556946,494.429718 524.667664,491.615051 
	C526.464539,490.384674 528.822083,489.973114 530.935913,489.609375 
	C529.352905,496.807861 529.953247,503.469360 532.017700,510.052582 
M290.305725,673.796265 
	C286.144470,674.870667 281.603607,675.248657 277.944244,677.243652 
	C275.107178,678.790405 272.017700,682.108643 271.469910,685.086426 
	C270.685150,689.352295 274.343994,692.460083 278.363922,693.761108 
	C290.090363,697.556213 301.898651,701.509216 314.490540,699.802795 
	C320.964569,698.925476 327.471161,697.584473 333.487061,693.086060 
	C326.894775,686.189148 324.146790,675.589539 312.123779,676.524963 
	C311.823700,676.548401 311.511566,676.237976 311.190552,676.197083 
	C304.520905,675.346924 297.849121,674.513428 290.305725,673.796265 
M498.973877,561.540833 
	C496.492126,557.522644 494.010345,553.504456 491.528564,549.486267 
	C490.973236,549.550537 490.417908,549.614807 489.862549,549.679077 
	C489.290253,552.627563 488.637665,555.563171 488.161865,558.527161 
	C487.059967,565.391479 486.596802,572.412292 484.869019,579.110229 
	C481.926666,590.517029 478.099457,601.692871 474.901855,613.038391 
	C474.139313,615.744080 474.394440,618.736450 474.181458,621.596985 
	C474.790833,621.763794 475.400177,621.930664 476.009552,622.097473 
	C481.353973,616.943115 487.097626,612.137207 491.961426,606.563416 
	C502.770477,594.176392 511.370850,581.763489 498.973877,561.540833 
M251.154999,618.419434 
	C257.462555,621.774536 263.770081,625.129639 270.077637,628.484741 
	C270.631683,627.994873 271.185730,627.504944 271.739746,627.015076 
	C262.119995,605.504089 252.831406,583.895813 250.931427,559.854431 
	C247.503220,565.594116 244.639175,571.336426 242.096756,577.217773 
	C235.623077,592.193481 235.770676,605.809509 251.154999,618.419434 
M433.349823,690.187927 
	C441.611908,691.122620 449.855255,692.431152 458.143341,692.846802 
	C462.856384,693.083130 467.723450,692.205078 472.356354,691.123169 
	C474.219513,690.688049 477.006683,688.309692 476.952362,686.909668 
	C476.864990,684.658630 475.029785,682.264038 473.421844,680.362427 
	C472.449158,679.212036 470.576996,678.624817 468.997406,678.218567 
	C461.433563,676.273682 453.905701,674.132385 445.909210,675.893799 
	C442.684479,676.604187 439.085144,677.494507 436.042267,676.742065 
	C430.442139,675.357239 427.212250,678.465149 423.845917,681.607605 
	C420.043854,685.156860 420.404266,686.889832 425.189209,688.493958 
	C427.535400,689.280457 430.045166,689.578918 433.349823,690.187927 
z"/>
<path fill="#FD8B94" opacity="1.000000" stroke="none" 
	d="
M546.062012,264.194153 
	C546.708801,262.864990 547.788391,261.579071 547.926392,260.199036 
	C548.479553,254.667358 551.014771,250.423111 555.577881,247.374588 
	C567.563599,239.367096 569.317505,234.818420 566.780457,220.347610 
	C565.872437,215.168091 565.197693,209.776382 565.613708,204.577332 
	C566.194397,197.320496 570.019043,191.034012 575.803894,186.869659 
	C586.655212,179.058029 585.742126,168.340973 584.649170,157.207428 
	C584.070923,151.316925 583.064636,145.236710 583.906250,139.484192 
	C585.997803,125.186371 594.046570,117.501869 609.240173,114.643761 
	C622.073792,112.229599 631.894165,118.274017 638.777527,128.187195 
	C648.209167,141.770172 653.140503,157.237411 655.010376,173.781754 
	C655.501343,178.125397 657.577026,182.843079 660.314209,186.283783 
	C672.108521,201.109650 675.275269,217.536621 670.446106,235.544724 
	C667.617310,246.093735 666.921326,256.730713 666.614136,267.583099 
	C666.339966,277.270233 664.530151,286.913910 663.369873,296.816345 
	C679.598755,302.193451 689.064148,313.408905 688.396606,331.636169 
	C687.785889,348.312714 685.688660,365.120758 677.675903,380.451691 
	C671.355713,392.544098 665.382935,404.818787 659.308655,417.038788 
	C652.883667,429.964294 643.019531,438.262726 628.409546,440.302582 
	C627.110107,440.483978 625.836792,440.852661 624.077698,441.238129 
	C625.087708,442.439026 625.841614,443.459320 626.718872,444.359375 
	C636.579590,454.476898 638.134888,468.767059 629.942200,480.365234 
	C626.440796,485.322144 621.652588,489.360443 617.538025,493.896820 
	C613.913269,497.893219 609.676697,501.571503 607.000305,506.145081 
	C600.107788,517.923157 587.347290,521.197266 574.354126,518.322144 
	C567.559875,516.818665 561.428833,516.880493 554.805847,518.700134 
	C550.827393,519.793152 546.308533,519.570923 542.127441,519.099304 
	C537.540161,518.581909 534.292725,515.699341 533.010986,510.395264 
	C535.985352,507.471771 538.517273,504.296814 541.741577,503.245819 
	C547.188416,501.470337 553.038574,500.540710 558.781006,500.138611 
	C574.616028,499.029877 589.074219,494.075623 601.909363,484.917847 
	C608.692627,480.078094 614.595032,474.048279 617.231506,465.749634 
	C618.960999,460.305695 618.261658,455.229462 613.776917,451.147125 
	C609.548218,447.297943 605.065125,448.879456 600.746094,450.749786 
	C597.554199,452.132080 594.659851,454.193909 591.485229,455.625580 
	C587.440430,457.449799 583.246582,458.943756 579.117004,460.580078 
	C578.949402,460.172211 578.781860,459.764343 578.614258,459.356476 
	C579.968262,456.547638 581.322205,453.738800 582.858521,450.853851 
	C583.040894,450.777740 583.401367,450.934052 583.805542,451.023804 
	C594.764832,453.473145 599.665588,444.760101 606.814026,440.448730 
	C606.703186,439.998505 606.592285,439.548309 606.481384,439.098114 
	C600.705750,439.098114 594.930054,439.098114 589.215576,438.734070 
	C590.111511,436.020508 591.326355,433.730286 591.703979,431.309448 
	C592.567810,425.772583 595.957031,424.432159 601.051331,423.852173 
	C617.897339,421.934204 633.888916,417.602448 647.606506,406.743073 
	C657.061523,399.258148 665.214111,391.001617 668.878601,379.191040 
	C674.658142,360.563568 674.164673,341.580994 671.568665,322.579498 
	C670.815125,317.064117 667.885925,312.468079 661.817810,311.217651 
	C657.430664,310.313599 651.791809,314.103760 649.058105,319.931885 
	C647.375793,323.518707 645.974548,327.310944 645.024109,331.153656 
	C642.171570,342.685608 636.351746,351.995422 625.712646,357.751984 
	C617.474915,362.209229 609.096558,366.406494 600.397156,370.918274 
	C600.215088,369.427521 600.150269,368.314209 599.935059,367.230743 
	C598.659485,360.808167 597.348999,354.392487 596.045837,347.601044 
	C596.056519,346.482910 596.071655,345.738251 596.460571,345.012512 
	C606.143188,339.905457 615.757935,338.702911 626.136963,341.675262 
	C628.613403,342.384491 632.878296,341.349823 634.557861,339.508972 
	C639.901306,333.652527 640.095459,325.924103 641.114868,317.207397 
	C633.135132,321.164062 625.359253,323.406708 619.749695,328.189941 
	C611.895813,334.886841 604.067017,338.494904 593.643311,336.021484 
	C593.194763,335.681152 592.991333,335.409882 592.815063,334.758118 
	C591.833923,331.171051 590.825500,327.964447 589.744629,324.527435 
	C594.642578,323.531982 598.772400,322.754700 602.873474,321.847473 
	C614.838806,319.200592 624.574707,312.893250 632.279602,303.473389 
	C643.073792,290.276611 647.533997,274.512817 649.837524,258.069580 
	C652.097473,241.937119 651.696838,225.921997 645.712708,210.433929 
	C641.882874,200.521622 637.460999,190.765991 634.580444,180.579315 
	C631.719727,170.462799 625.156128,164.010635 616.958984,158.656509 
	C610.004944,154.114441 601.850098,157.164764 600.239136,165.281601 
	C599.089233,171.075180 599.110046,177.165314 599.153564,183.119141 
	C599.269653,199.016144 600.574280,214.960587 599.696777,230.791397 
	C598.962891,244.030777 593.764221,256.023407 581.845886,263.759888 
	C575.172241,268.091888 568.520142,272.470520 561.654419,276.478821 
	C560.645264,277.068024 558.198608,276.122345 556.945557,275.182251 
	C553.916321,272.909576 551.199341,270.220520 548.148193,267.471008 
	C547.313965,266.226532 546.687927,265.210327 546.062012,264.194153 
M658.505798,301.837524 
	C657.885071,300.987976 656.857422,299.327637 656.702087,299.405609 
	C650.287842,302.624451 644.710754,306.647766 643.237366,315.594849 
	C650.286865,312.670715 654.197815,307.563751 658.505798,301.837524 
z"/>
<path fill="#FD8B94" opacity="1.000000" stroke="none" 
	d="
M139.713684,336.165314 
	C135.860382,333.662415 131.892853,331.316040 128.187012,328.611115 
	C124.713371,326.075745 121.741295,322.814148 118.149681,320.487885 
	C111.428818,316.134857 106.936676,310.207062 104.141296,302.844452 
	C101.367561,295.538788 99.319717,287.851837 95.681931,281.008026 
	C91.592430,273.314362 86.679451,265.866638 81.036278,259.238617 
	C73.796890,250.735748 72.834076,241.287628 74.622749,231.169357 
	C76.063499,223.019272 79.179741,215.093842 79.964287,206.916367 
	C81.088745,195.195892 80.876404,183.338058 81.024803,171.536224 
	C81.124084,163.640732 83.112442,156.558792 87.920250,150.137695 
	C94.623924,141.184540 107.446884,136.808014 118.495987,138.606064 
	C134.917145,141.278366 143.488770,151.037689 146.633499,166.641342 
	C148.254120,174.682526 152.338699,180.921936 159.359528,185.460281 
	C167.882690,190.969788 173.858276,198.528168 176.319122,208.636841 
	C178.300781,216.777069 183.787186,222.636887 189.843384,227.914886 
	C196.575302,233.781784 203.576370,239.339844 210.742798,245.406403 
	C210.833923,246.084061 210.642502,246.387680 210.141083,246.771408 
	C204.383957,250.884689 198.785736,254.734268 193.559158,259.035461 
	C191.258057,260.929169 189.468811,261.326691 186.887207,259.959930 
	C182.047516,257.397766 177.082153,255.074203 172.191162,252.607574 
	C155.224579,244.050995 144.174026,230.082458 136.540237,213.144379 
	C131.732101,202.475937 131.020172,191.058548 130.918747,179.516129 
	C130.878433,174.928589 130.066010,170.280106 129.054474,165.783234 
	C127.069901,156.960510 116.694321,156.140686 111.254112,159.273605 
	C104.420479,163.208939 98.586052,168.125824 97.444824,176.810165 
	C96.973267,180.398483 95.734825,183.899155 94.705383,187.398575 
	C91.509422,198.262726 90.887268,209.453384 92.263535,220.499741 
	C95.060921,242.952408 104.358795,263.144745 115.670921,282.482147 
	C122.898079,294.836517 132.679947,304.978821 143.637360,313.981873 
	C146.962891,316.714294 146.682144,319.140015 145.263229,322.551361 
	C143.490341,326.813812 142.244781,331.295563 140.596390,335.775146 
	C140.236618,336.088684 140.000778,336.187897 139.713684,336.165314 
z"/>
<path fill="#813239" opacity="1.000000" stroke="none" 
	d="
M221.549957,238.859894 
	C239.520233,226.790756 259.253784,218.368057 279.863159,212.319397 
	C348.924347,192.050583 416.815857,195.238358 483.200287,223.766815 
	C485.331909,224.682861 487.369812,225.816925 489.729401,227.418884 
	C490.674561,228.663513 491.341736,229.338608 492.010651,230.468185 
	C491.898254,240.241196 493.179352,238.815689 483.719574,239.044693 
	C480.146179,239.131180 476.581787,239.588730 472.649597,239.849060 
	C425.551392,219.985641 376.944946,214.869583 326.879944,221.418335 
	C303.963074,224.415970 281.908020,230.646683 260.089783,239.360535 
	C246.918045,239.101730 234.233994,238.980804 221.549957,238.859894 
z"/>
<path fill="#FD8B94" opacity="1.000000" stroke="none" 
	d="
M145.130783,440.817200 
	C142.337067,441.166473 139.547211,441.550995 136.748901,441.858490 
	C127.378754,442.888184 119.635056,439.240234 113.519882,432.616974 
	C106.563332,425.082520 98.209671,420.677307 88.342186,418.452362 
	C84.662018,417.622559 81.168259,415.851715 77.680870,414.304108 
	C69.246803,410.561432 64.885612,403.938324 62.974949,394.932068 
	C61.336342,387.208191 58.955025,379.544281 55.959476,372.240479 
	C53.991692,367.442627 49.160080,363.697113 47.669697,358.847656 
	C42.399040,341.697845 43.057419,324.464355 54.222889,309.882843 
	C63.851467,297.308472 85.604210,296.272949 94.101494,314.118530 
	C100.335480,327.210815 109.634285,335.077271 122.691864,340.029480 
	C127.372047,341.804443 131.351227,345.427765 136.045151,348.618103 
	C136.399902,349.610168 136.359818,350.191620 136.161301,351.170746 
	C134.978149,356.625916 133.953445,361.683441 132.551498,368.602905 
	C124.986183,362.631744 118.023262,358.072510 112.224625,352.336304 
	C103.860413,344.062195 96.235718,335.025635 88.499527,326.136810 
	C83.495651,320.387451 77.440079,317.748291 72.474312,319.750580 
	C66.024338,322.351379 62.716862,328.327789 63.142822,335.763885 
	C64.443787,358.475067 73.218353,377.600128 89.215248,393.870209 
	C101.869232,406.740326 116.309586,416.355804 133.519516,421.573486 
	C137.766235,422.861023 139.796997,425.045837 140.951462,429.102142 
	C141.926605,432.528351 143.726242,435.719940 145.173035,439.317566 
	C145.166992,440.018921 145.148880,440.418060 145.130783,440.817200 
z"/>
<path fill="#D54653" opacity="1.000000" stroke="none" 
	d="
M582.676147,450.929932 
	C581.322205,453.738800 579.968262,456.547638 578.614258,459.356476 
	C578.781860,459.764343 578.949402,460.172211 579.117004,460.580078 
	C583.246582,458.943756 587.440430,457.449799 591.485229,455.625580 
	C594.659851,454.193909 597.554199,452.132080 600.746094,450.749786 
	C605.065125,448.879456 609.548218,447.297943 613.776917,451.147125 
	C618.261658,455.229462 618.960999,460.305695 617.231506,465.749634 
	C614.595032,474.048279 608.692627,480.078094 601.909363,484.917847 
	C589.074219,494.075623 574.616028,499.029877 558.781006,500.138611 
	C553.038574,500.540710 547.188416,501.470337 541.741577,503.245819 
	C538.517273,504.296814 535.985352,507.471771 533.046753,510.048584 
	C532.788696,510.365387 532.625977,510.325348 532.240479,510.168945 
	C529.953247,503.469360 529.352905,496.807861 531.116455,489.448303 
	C531.286133,488.867584 531.734924,488.688446 532.198303,488.791565 
	C537.455811,488.580994 542.300842,488.602539 547.033508,487.884033 
	C556.969604,486.375641 567.282837,487.301910 576.799255,482.974609 
	C585.731445,478.912964 595.003235,475.472900 601.116821,466.932220 
	C601.176025,466.927704 601.096680,466.975159 600.642944,467.011292 
	C597.111694,468.401550 593.995911,469.906250 590.790466,471.186523 
	C578.531799,476.082947 565.448975,475.819458 552.616577,476.781860 
	C550.589172,476.933899 548.058777,474.009064 546.344604,472.007080 
	C545.945129,471.540466 547.848816,468.977142 548.836792,467.473206 
	C550.884521,464.356110 553.029053,461.302551 555.372437,458.031006 
	C556.402466,457.213257 557.193787,456.587341 558.353699,455.918976 
	C566.386597,452.676727 574.165527,450.031952 582.676147,450.929932 
z"/>
<path fill="#D1D2CD" opacity="1.000000" stroke="none" 
	d="
M339.950500,154.571030 
	C338.925690,155.927795 337.957367,156.885971 336.989014,157.844116 
	C335.973907,156.634109 334.483185,155.580002 334.026642,154.186951 
	C332.122620,148.377274 330.861359,142.343307 328.749359,136.618469 
	C325.055298,126.605431 317.546753,119.517288 309.318542,113.205528 
	C294.473267,101.817924 285.301544,87.851891 286.852539,68.155693 
	C287.713226,57.226025 292.601135,48.504906 299.795074,40.861507 
	C302.685333,37.790668 306.266724,35.254486 309.883881,33.049664 
	C311.066803,32.328629 313.356934,33.423977 315.140686,33.688625 
	C314.549286,35.193214 314.286011,36.963543 313.315918,38.161427 
	C303.251099,50.589664 298.212921,64.307930 305.318939,79.596703 
	C308.290955,85.991081 313.387543,91.840385 318.711395,96.603966 
	C328.721649,105.560722 337.039825,115.335800 340.705383,128.503906 
	C342.631195,135.422287 344.377075,142.306976 340.837616,149.317703 
	C340.130341,150.718628 340.262115,152.543198 339.950500,154.571030 
z"/>
<path fill="#FC8C95" opacity="1.000000" stroke="none" 
	d="
M196.915649,505.946381 
	C196.915649,505.946381 197.054764,506.379486 197.057526,506.607178 
	C196.680664,507.573761 196.295349,508.309723 195.922348,509.051880 
	C190.942276,518.960327 184.087646,521.634705 174.259552,516.376770 
	C164.910446,511.375122 155.592300,507.115112 144.697586,507.215332 
	C140.579575,507.253235 136.288620,506.966888 132.371536,505.820374 
	C127.167580,504.297211 121.940506,502.301971 117.331429,499.506897 
	C114.622559,497.864197 112.092300,494.556763 111.238190,491.506287 
	C109.366577,484.821991 105.643898,479.603577 101.128494,474.632202 
	C94.851570,467.721436 93.947243,460.413544 98.267403,453.775665 
	C102.334595,447.526489 110.448006,444.807892 118.580261,447.612152 
	C122.593445,448.996033 126.592049,451.006744 129.938751,453.587708 
	C133.927902,456.664032 137.813995,458.592682 143.014465,458.324493 
	C146.578796,458.140656 150.203720,459.131378 154.313141,459.402588 
	C155.443756,459.925018 156.062820,460.641937 156.793076,461.681946 
	C157.855194,463.809784 158.806091,465.614563 160.194565,468.249786 
	C157.098907,467.889526 154.885071,467.984100 152.912277,467.340179 
	C145.193100,464.820679 137.506210,462.186462 129.891586,459.367218 
	C122.753319,456.724365 116.431396,460.390350 117.050400,467.680450 
	C117.443260,472.307159 118.467316,477.556610 121.064331,481.205902 
	C134.176224,499.630310 155.776779,509.606537 178.587006,503.596893 
	C185.743774,501.711304 191.435059,499.852966 196.915649,505.946381 
z"/>
<path fill="#D1D2CC" opacity="1.000000" stroke="none" 
	d="
M406.027405,156.810791 
	C402.618774,141.202850 409.119659,129.044678 417.355194,117.104660 
	C421.820343,110.631081 424.997467,103.274727 428.856720,96.373116 
	C429.674805,94.910149 430.932922,93.693237 431.988281,92.362961 
	C433.110992,93.483124 434.586639,94.415695 435.298218,95.754395 
	C439.432495,103.532135 439.034637,112.169395 437.473480,120.137573 
	C435.518036,130.118484 431.660553,139.760437 428.226471,149.407181 
	C425.535065,156.967560 422.865753,164.312180 424.769653,172.613571 
	C425.720612,176.759811 425.647491,181.153183 425.868408,185.443481 
	C425.909180,186.234894 425.090759,187.777451 424.752289,187.754303 
	C423.540100,187.671371 422.165802,187.330322 421.204895,186.614410 
	C412.830872,180.375565 409.611359,171.156509 407.010193,161.614059 
	C406.618713,160.177979 406.370880,158.702744 406.027405,156.810791 
z"/>
<path fill="#813239" opacity="1.000000" stroke="none" 
	d="
M545.784790,263.981812 
	C546.687927,265.210327 547.313965,266.226532 548.027222,267.920959 
	C548.664307,275.599213 549.214050,282.599243 549.390503,289.513306 
	C545.311890,287.284973 540.989624,285.779572 538.007263,282.890808 
	C524.506409,269.813690 509.136322,259.401245 493.005981,249.639450 
	C492.998016,248.857178 492.992401,248.409927 492.983887,247.514816 
	C493.085907,244.836258 493.190796,242.605560 493.317841,239.904266 
	C500.271606,239.904266 506.683258,239.904266 513.094910,239.904266 
	C513.094910,239.904266 513.030273,239.999680 513.186768,240.204819 
	C513.702454,240.530731 514.061646,240.651505 514.420898,240.772278 
	C524.783142,248.438004 535.145386,256.103729 545.784790,263.981812 
z"/>
<path fill="#833239" opacity="1.000000" stroke="none" 
	d="
M156.681870,461.358887 
	C156.062820,460.641937 155.443756,459.925018 154.564056,459.116272 
	C151.349503,453.174316 148.395599,447.324219 145.286224,441.145660 
	C145.148880,440.418060 145.166992,440.018921 145.531464,439.330627 
	C147.618271,438.180908 149.679443,437.662262 151.034546,436.390961 
	C154.167374,433.451752 156.958099,430.147888 160.087723,427.279053 
	C165.463272,439.433624 170.732880,451.205902 179.842102,460.811188 
	C182.359512,463.465698 185.211151,466.714569 181.572510,470.708771 
	C179.969940,469.318695 178.718704,467.989258 177.318176,466.842072 
	C171.281174,461.897003 165.020828,457.683441 156.681870,461.358887 
z"/>
<path fill="#833239" opacity="1.000000" stroke="none" 
	d="
M210.451080,246.691299 
	C210.642502,246.387680 210.833923,246.084061 211.079742,245.517731 
	C213.799530,243.522705 216.464905,241.790390 219.939102,240.020508 
	C231.140320,239.982086 241.533127,239.933533 251.924652,240.028015 
	C253.625656,240.043488 255.320938,240.689240 256.769836,241.273895 
	C245.934433,247.395187 235.283218,253.174011 224.792343,259.230560 
	C220.367706,261.785004 216.281113,264.924988 212.067795,267.394928 
	C213.731873,260.047546 213.565491,253.250061 210.451080,246.691299 
z"/>
<path fill="#843239" opacity="1.000000" stroke="none" 
	d="
M136.319748,350.773102 
	C136.359818,350.191620 136.399902,349.610168 136.406799,348.737854 
	C137.429047,344.615906 138.484497,340.784790 139.626816,336.559509 
	C140.000778,336.187897 140.236618,336.088684 141.062378,335.894226 
	C148.079361,334.978271 154.455170,334.035736 160.836670,333.462494 
	C158.162399,343.526855 155.482452,353.221954 152.523315,362.754395 
	C149.720428,359.541534 147.569748,356.026825 144.546127,353.599396 
	C142.418747,351.891571 139.104202,351.662476 136.319748,350.773102 
z"/>
<path fill="#81363D" opacity="1.000000" stroke="none" 
	d="
M492.008942,230.013702 
	C491.341736,229.338608 490.674561,228.663513 489.997314,227.660339 
	C491.166168,227.873718 492.345093,228.415192 493.903259,229.348999 
	C494.695557,229.876266 495.108704,230.011185 495.521820,230.146118 
	C500.665924,232.862900 505.810028,235.579681 510.651703,238.624161 
	C507.215912,238.969955 504.082550,239.001633 500.949188,239.003418 
	C493.801025,239.007507 493.817230,238.999527 492.898987,231.689194 
	C492.825317,231.102661 492.315918,230.570892 492.008942,230.013702 
z"/>
<path fill="#974B51" opacity="1.000000" stroke="none" 
	d="
M492.010651,230.468170 
	C492.315918,230.570892 492.825317,231.102661 492.898987,231.689194 
	C493.817230,238.999527 493.801025,239.007507 500.949188,239.003418 
	C504.082550,239.001633 507.215912,238.969955 510.839783,238.922546 
	C511.825806,239.075134 512.321289,239.257004 512.955811,239.671570 
	C506.683258,239.904266 500.271606,239.904266 493.317841,239.904266 
	C493.190796,242.605560 493.085907,244.836258 492.694641,247.237793 
	C492.118286,245.040695 491.828308,242.672745 491.455353,239.627045 
	C485.727905,240.048828 480.407745,240.440628 474.781494,240.845093 
	C473.988007,240.530884 473.500641,240.204010 473.013275,239.877136 
	C476.581787,239.588730 480.146179,239.131180 483.719574,239.044693 
	C493.179352,238.815689 491.898254,240.241196 492.010651,230.468170 
z"/>
<path fill="#995055" opacity="1.000000" stroke="none" 
	d="
M257.018860,241.043701 
	C255.320938,240.689240 253.625656,240.043488 251.924652,240.028015 
	C241.533127,239.933533 231.140320,239.982086 220.266937,239.929138 
	C220.197083,239.551544 220.608215,239.227753 221.284668,238.881927 
	C234.233994,238.980804 246.918045,239.101730 259.847229,239.588623 
	C259.067871,240.317627 258.043365,240.680664 257.018860,241.043701 
z"/>
<path fill="#974B51" opacity="1.000000" stroke="none" 
	d="
M495.412964,229.944977 
	C495.108704,230.011185 494.695557,229.876266 494.161377,229.555847 
	C494.461548,229.494858 494.882843,229.619370 495.412964,229.944977 
z"/>
<path fill="#974B51" opacity="1.000000" stroke="none" 
	d="
M514.282776,240.512543 
	C514.061646,240.651505 513.702454,240.530731 513.203918,240.149841 
	C513.424622,240.010742 513.784668,240.131760 514.282776,240.512543 
z"/>
<path fill="#FFCCCB" opacity="1.000000" stroke="none" 
	d="
M256.769836,241.273895 
	C258.043365,240.680664 259.067871,240.317627 260.334961,239.726517 
	C281.908020,230.646683 303.963074,224.415970 326.879944,221.418335 
	C376.944946,214.869583 425.551392,219.985641 472.649597,239.849060 
	C473.500641,240.204010 473.988007,240.530884 475.046692,241.057739 
	C481.414795,244.163315 487.211578,247.068893 493.008362,249.974487 
	C509.136322,259.401245 524.506409,269.813690 538.007263,282.890808 
	C540.989624,285.779572 545.311890,287.284973 549.363037,289.664246 
	C549.708923,289.901093 549.871094,290.165405 549.897339,290.553406 
	C552.905334,305.078461 559.924438,316.652802 571.737427,325.531067 
	C571.928162,326.239777 572.063293,326.636871 572.196655,327.422791 
	C575.169006,343.820099 581.833191,359.140289 581.046265,376.159485 
	C580.753418,377.610291 580.566040,378.732239 580.136475,380.176636 
	C574.850342,393.245789 574.180481,406.506104 575.217041,420.249390 
	C575.195312,420.713196 575.215210,420.899323 575.082703,421.417786 
	C569.281860,433.153870 563.633484,444.557648 557.985107,455.961426 
	C557.193787,456.587341 556.402466,457.213257 555.018555,457.995972 
	C542.843262,465.344788 534.751953,475.131256 531.734924,488.688446 
	C531.734924,488.688446 531.286133,488.867584 531.105591,489.028687 
	C528.822083,489.973114 526.464539,490.384674 524.667664,491.615051 
	C520.556946,494.429718 516.765930,497.705872 512.763977,500.685822 
	C500.233459,510.016296 487.628143,519.247070 475.171173,528.674255 
	C473.963623,529.588135 472.931091,531.601807 472.943115,533.095886 
	C472.979034,537.566406 473.763824,542.025879 473.918671,546.501282 
	C474.652557,567.713318 469.057343,587.701050 461.065582,606.983521 
	C453.736328,624.667542 443.106140,640.245728 428.768677,653.259033 
	C392.082520,686.556824 338.097076,682.450134 306.255798,644.495483 
	C285.739197,620.039673 274.899048,591.949219 270.728058,560.756592 
	C270.125824,556.252869 268.089722,551.937622 267.521057,547.433594 
	C266.868286,542.263489 266.925720,536.976746 267.023407,531.747253 
	C267.101410,527.571777 265.371277,524.736145 261.812775,522.866455 
	C255.658005,519.632629 249.648727,516.052490 243.280945,513.307800 
	C229.044678,507.171539 216.955139,497.797058 204.977646,488.317535 
	C201.781494,485.787933 198.954544,484.563629 194.418457,485.128418 
	C192.840591,483.761017 192.081390,482.470032 191.084015,481.401306 
	C188.114014,478.218872 185.050400,475.123749 182.012100,471.704651 
	C181.952271,471.227631 181.903717,471.040436 181.855164,470.853271 
	C185.211151,466.714569 182.359512,463.465698 179.842102,460.811188 
	C170.732880,451.205902 165.463272,439.433624 160.120407,426.878662 
	C159.847275,425.119751 159.741608,424.048370 159.982742,422.774109 
	C163.952423,411.214417 163.616776,399.766022 160.520935,388.438477 
	C158.718399,381.843048 156.101685,375.470154 153.814972,368.615753 
	C153.453293,366.461945 153.127899,364.689484 152.802521,362.917053 
	C155.482452,353.221954 158.162399,343.526855 161.008179,333.207397 
	C161.772781,332.045685 162.371536,331.508331 163.323730,330.960571 
	C164.260437,330.646637 164.880585,330.397675 165.421585,330.031677 
	C180.305878,319.962891 190.579498,305.664124 200.828171,291.353882 
	C205.669464,284.593964 210.336029,277.727570 211.305420,268.907471 
	C211.694977,268.427612 211.867920,268.113220 212.040863,267.798828 
	C216.281113,264.924988 220.367706,261.785004 224.792343,259.230560 
	C235.283218,253.174011 245.934433,247.395187 256.769836,241.273895 
M484.785889,429.021393 
	C486.108185,429.092041 487.500946,428.918762 488.740204,429.276825 
	C493.388062,430.619781 495.022797,428.750183 495.058289,424.183350 
	C495.109650,417.564697 495.968597,410.930878 495.696289,404.335999 
	C495.238983,393.262573 493.900879,382.273743 488.442291,371.274994 
	C485.272797,373.727448 482.487518,375.882629 478.972595,378.046814 
	C477.884796,378.338837 476.661102,378.403046 475.730347,378.958313 
	C466.948792,384.197327 458.161072,389.430695 449.499634,394.864105 
	C446.176819,396.948547 443.174957,399.544617 439.276947,401.871979 
	C436.943817,403.104492 434.340942,404.015228 432.363861,405.672546 
	C430.814423,406.971344 428.917755,409.318756 429.102661,410.986603 
	C430.304382,421.825989 431.522278,432.716309 433.799774,443.362122 
	C434.984039,448.897919 438.343994,453.968262 441.266022,460.459381 
	C443.823090,454.908173 445.605194,451.039368 447.970459,446.925476 
	C457.072296,435.155212 469.472443,429.982635 484.785889,429.021393 
M302.905090,446.822662 
	C305.130035,452.041840 307.354980,457.261047 309.873169,463.168091 
	C312.094208,459.759521 314.224609,456.994385 315.824249,453.950348 
	C323.957306,438.473389 325.300690,421.655487 325.467194,404.581726 
	C325.520355,399.130432 323.309113,396.039093 318.012787,394.658905 
	C314.990509,393.871307 312.174866,392.290863 308.574982,390.808655 
	C300.683044,387.365936 292.833801,383.819305 284.871521,380.547852 
	C282.663086,379.640503 280.119171,379.549835 277.363495,378.413269 
	C273.301270,376.394043 269.239044,374.374786 264.683990,372.110596 
	C257.704315,390.332886 256.875397,408.151611 258.839417,426.352814 
	C264.107635,426.083862 268.533539,425.857941 273.702881,425.905640 
	C281.812195,427.701935 289.114288,431.036499 294.867279,437.213501 
	C297.566895,440.112122 300.140991,443.127625 302.905090,446.822662 
M372.954163,474.687836 
	C378.377350,474.341400 383.817871,474.148163 389.211182,473.537750 
	C390.513275,473.390350 391.659210,471.863190 392.876953,470.970551 
	C391.693665,470.097076 390.574310,468.586243 389.316101,468.460052 
	C383.747009,467.901611 378.126770,467.417145 372.549500,467.610535 
	C370.573273,467.679047 367.300659,469.479279 367.007019,470.961670 
	C366.358948,474.234009 369.525696,474.516174 372.954163,474.687836 
z"/>
<path fill="#D54653" opacity="1.000000" stroke="none" 
	d="
M181.572510,470.708771 
	C181.903717,471.040436 181.952271,471.227631 181.664093,471.740143 
	C177.307892,477.593048 172.264450,482.067810 165.252380,482.237762 
	C160.150574,482.361389 154.946381,481.032776 149.898743,479.870178 
	C144.396667,478.602844 139.022598,476.779877 133.592728,475.199158 
	C133.333054,475.638428 133.073395,476.077728 132.813736,476.516998 
	C135.984741,479.276825 138.890320,482.442657 142.375824,484.721466 
	C153.441040,491.955719 165.031677,496.072021 178.357956,490.434998 
	C183.296005,488.346161 188.751648,487.480865 193.971252,486.057617 
	C194.972977,492.384308 195.974701,498.710968 196.946045,505.492004 
	C191.435059,499.852966 185.743774,501.711304 178.587006,503.596893 
	C155.776779,509.606537 134.176224,499.630310 121.064331,481.205902 
	C118.467316,477.556610 117.443260,472.307159 117.050400,467.680450 
	C116.431396,460.390350 122.753319,456.724365 129.891586,459.367218 
	C137.506210,462.186462 145.193100,464.820679 152.912277,467.340179 
	C154.885071,467.984100 157.098907,467.889526 160.194565,468.249786 
	C158.806091,465.614563 157.855194,463.809784 156.793076,461.681946 
	C165.020828,457.683441 171.281174,461.897003 177.318176,466.842072 
	C178.718704,467.989258 179.969940,469.318695 181.572510,470.708771 
z"/>
<path fill="#FCC7C7" opacity="1.000000" stroke="none" 
	d="
M290.741760,673.736450 
	C297.849121,674.513428 304.520905,675.346924 311.190552,676.197083 
	C311.511566,676.237976 311.823700,676.548401 312.123779,676.524963 
	C324.146790,675.589539 326.894775,686.189148 333.487061,693.086060 
	C327.471161,697.584473 320.964569,698.925476 314.490540,699.802795 
	C301.898651,701.509216 290.090363,697.556213 278.363922,693.761108 
	C274.343994,692.460083 270.685150,689.352295 271.469910,685.086426 
	C272.017700,682.108643 275.107178,678.790405 277.944244,677.243652 
	C281.603607,675.248657 286.144470,674.870667 290.741760,673.736450 
z"/>
<path fill="#FBC6C6" opacity="1.000000" stroke="none" 
	d="
M499.170044,561.852295 
	C511.370850,581.763489 502.770477,594.176392 491.961426,606.563416 
	C487.097626,612.137207 481.353973,616.943115 476.009552,622.097473 
	C475.400177,621.930664 474.790833,621.763794 474.181458,621.596985 
	C474.394440,618.736450 474.139313,615.744080 474.901855,613.038391 
	C478.099457,601.692871 481.926666,590.517029 484.869019,579.110229 
	C486.596802,572.412292 487.059967,565.391479 488.161865,558.527161 
	C488.637665,555.563171 489.290253,552.627563 489.862549,549.679077 
	C490.417908,549.614807 490.973236,549.550537 491.528564,549.486267 
	C494.010345,553.504456 496.492126,557.522644 499.170044,561.852295 
z"/>
<path fill="#FBC7C7" opacity="1.000000" stroke="none" 
	d="
M250.887970,618.179810 
	C235.770676,605.809509 235.623077,592.193481 242.096756,577.217773 
	C244.639175,571.336426 247.503220,565.594116 250.931427,559.854431 
	C252.831406,583.895813 262.119995,605.504089 271.739746,627.015076 
	C271.185730,627.504944 270.631683,627.994873 270.077637,628.484741 
	C263.770081,625.129639 257.462555,621.774536 250.887970,618.179810 
z"/>
<path fill="#FBC5C6" opacity="1.000000" stroke="none" 
	d="
M432.915375,690.143066 
	C430.045166,689.578918 427.535400,689.280457 425.189209,688.493958 
	C420.404266,686.889832 420.043854,685.156860 423.845917,681.607605 
	C427.212250,678.465149 430.442139,675.357239 436.042267,676.742065 
	C439.085144,677.494507 442.684479,676.604187 445.909210,675.893799 
	C453.905701,674.132385 461.433563,676.273682 468.997406,678.218567 
	C470.576996,678.624817 472.449158,679.212036 473.421844,680.362427 
	C475.029785,682.264038 476.864990,684.658630 476.952362,686.909668 
	C477.006683,688.309692 474.219513,690.688049 472.356354,691.123169 
	C467.723450,692.205078 462.856384,693.083130 458.143341,692.846802 
	C449.855255,692.431152 441.611908,691.122620 432.915375,690.143066 
z"/>
<path fill="#FC7881" opacity="1.000000" stroke="none" 
	d="
M194.082794,485.912903 
	C188.751648,487.480865 183.296005,488.346161 178.357956,490.434998 
	C165.031677,496.072021 153.441040,491.955719 142.375824,484.721466 
	C138.890320,482.442657 135.984741,479.276825 132.813736,476.516998 
	C133.073395,476.077728 133.333054,475.638428 133.592728,475.199158 
	C139.022598,476.779877 144.396667,478.602844 149.898743,479.870178 
	C154.946381,481.032776 160.150574,482.361389 165.252380,482.237762 
	C172.264450,482.067810 177.307892,477.593048 181.675385,472.029968 
	C185.050400,475.123749 188.114014,478.218872 191.084015,481.401306 
	C192.081390,482.470032 192.840591,483.761017 194.008469,485.185730 
	C194.308273,485.421082 194.194336,485.768250 194.082794,485.912903 
z"/>
<path fill="#D54653" opacity="1.000000" stroke="none" 
	d="
M549.871094,290.165405 
	C549.871094,290.165405 549.708923,289.901093 549.736389,289.750183 
	C549.214050,282.599243 548.664307,275.599213 548.235474,268.149292 
	C551.199341,270.220520 553.916321,272.909576 556.945557,275.182251 
	C558.198608,276.122345 560.645264,277.068024 561.654419,276.478821 
	C568.520142,272.470520 575.172241,268.091888 581.845886,263.759888 
	C593.764221,256.023407 598.962891,244.030777 599.696777,230.791397 
	C600.574280,214.960587 599.269653,199.016144 599.153564,183.119141 
	C599.110046,177.165314 599.089233,171.075180 600.239136,165.281601 
	C601.850098,157.164764 610.004944,154.114441 616.958984,158.656509 
	C625.156128,164.010635 631.719727,170.462799 634.580444,180.579315 
	C637.460999,190.765991 641.882874,200.521622 645.712708,210.433929 
	C651.696838,225.921997 652.097473,241.937119 649.837524,258.069580 
	C647.533997,274.512817 643.073792,290.276611 632.279602,303.473389 
	C624.574707,312.893250 614.838806,319.200592 602.873474,321.847473 
	C598.772400,322.754700 594.642578,323.531982 589.744629,324.527435 
	C590.825500,327.964447 591.833923,331.171051 592.421204,334.749146 
	C588.868286,334.185547 585.633484,333.498596 582.631470,332.251221 
	C579.049622,330.762878 575.667236,328.794434 572.198486,327.033966 
	C572.063293,326.636871 571.928162,326.239777 571.869995,325.170105 
	C574.872986,316.976562 579.800659,311.902344 588.243347,311.030212 
	C590.876526,310.758179 593.520874,310.453705 596.110352,309.921967 
	C611.095337,306.845001 622.045288,298.381165 628.581665,284.607513 
	C634.878662,271.338379 636.594666,257.017670 637.008484,242.527893 
	C637.131104,238.235184 637.351562,233.723480 636.245544,229.661072 
	C633.464722,219.447830 630.117615,209.377167 626.681946,199.357529 
	C623.887268,191.207458 620.754456,183.165482 617.493164,175.189438 
	C616.770996,173.423294 614.877319,172.136215 613.523010,170.628555 
	C612.989258,170.944717 612.455444,171.260895 611.921631,171.577072 
	C612.789612,183.091980 613.602661,194.611359 614.538635,206.120728 
	C615.847473,222.214188 615.283142,238.452744 608.199463,252.951736 
	C596.568787,276.757996 576.785217,289.469269 549.871094,290.165405 
z"/>
<path fill="#D54653" opacity="1.000000" stroke="none" 
	d="
M580.378662,379.854187 
	C580.566040,378.732239 580.753418,377.610291 581.287842,375.905090 
	C582.078064,373.565491 582.500061,371.803467 582.968201,370.053833 
	C585.264038,361.472412 588.560791,353.480225 596.050293,347.974487 
	C597.348999,354.392487 598.659485,360.808167 599.935059,367.230743 
	C600.150269,368.314209 600.215088,369.427521 600.397156,370.918274 
	C609.096558,366.406494 617.474915,362.209229 625.712646,357.751984 
	C636.351746,351.995422 642.171570,342.685608 645.024109,331.153656 
	C645.974548,327.310944 647.375793,323.518707 649.058105,319.931885 
	C651.791809,314.103760 657.430664,310.313599 661.817810,311.217651 
	C667.885925,312.468079 670.815125,317.064117 671.568665,322.579498 
	C674.164673,341.580994 674.658142,360.563568 668.878601,379.191040 
	C665.214111,391.001617 657.061523,399.258148 647.606506,406.743073 
	C633.888916,417.602448 617.897339,421.934204 601.051331,423.852173 
	C595.957031,424.432159 592.567810,425.772583 591.703979,431.309448 
	C591.326355,433.730286 590.111511,436.020508 589.042053,438.852875 
	C588.807312,439.335724 588.393921,439.407440 588.174622,439.112030 
	C582.721436,435.233521 578.927734,430.598450 577.140137,424.399597 
	C576.797363,423.210632 575.884888,422.185944 575.235168,421.085480 
	C575.215210,420.899323 575.195312,420.713196 575.454895,419.997192 
	C576.344299,417.569000 577.383728,415.693268 577.484619,413.768311 
	C577.805115,407.657196 580.957642,407.989777 585.914734,408.571106 
	C593.442139,409.453888 600.867737,410.973846 608.820435,409.229614 
	C625.657837,405.536652 640.709778,398.903809 650.717834,384.634186 
	C661.263367,369.598297 660.520691,352.001099 658.939514,333.193634 
	C658.023926,335.860992 657.610596,337.358063 657.006165,338.773560 
	C654.803833,343.930786 652.998962,349.329681 650.193909,354.141815 
	C645.252869,362.618286 636.507629,366.968170 628.878906,372.547455 
	C617.496948,380.871735 604.005310,381.090027 590.950989,382.692627 
	C587.593628,383.104797 583.911560,380.871918 580.378662,379.854187 
z"/>
<path fill="#FEF6F6" opacity="1.000000" stroke="none" 
	d="
M593.888428,336.090576 
	C604.067017,338.494904 611.895813,334.886841 619.749695,328.189941 
	C625.359253,323.406708 633.135132,321.164062 641.114868,317.207397 
	C640.095459,325.924103 639.901306,333.652527 634.557861,339.508972 
	C632.878296,341.349823 628.613403,342.384491 626.136963,341.675262 
	C615.757935,338.702911 606.143188,339.905457 596.344727,344.649719 
	C595.199524,341.542145 594.544006,338.816376 593.888428,336.090576 
z"/>
<path fill="#833138" opacity="1.000000" stroke="none" 
	d="
M593.643311,336.021484 
	C594.544006,338.816376 595.199524,341.542145 595.970947,344.630737 
	C596.071655,345.738251 596.056519,346.482910 596.045837,347.601044 
	C588.560791,353.480225 585.264038,361.472412 582.968201,370.053833 
	C582.500061,371.803467 582.078064,373.565491 581.393311,375.576233 
	C581.833191,359.140289 575.169006,343.820099 572.196655,327.422791 
	C575.667236,328.794434 579.049622,330.762878 582.631470,332.251221 
	C585.633484,333.498596 588.868286,334.185547 592.393921,335.129639 
	C592.991333,335.409882 593.194763,335.681152 593.643311,336.021484 
z"/>
<path fill="#843239" opacity="1.000000" stroke="none" 
	d="
M575.082703,421.417786 
	C575.884888,422.185944 576.797363,423.210632 577.140137,424.399597 
	C578.927734,430.598450 582.721436,435.233521 588.082092,439.455963 
	C586.606384,443.708221 585.003906,447.321136 583.401367,450.934082 
	C583.401367,450.934052 583.040894,450.777740 582.858521,450.853821 
	C574.165527,450.031952 566.386597,452.676727 558.353638,455.918945 
	C563.633484,444.557648 569.281860,433.153870 575.082703,421.417786 
z"/>
<path fill="#FDF1F1" opacity="1.000000" stroke="none" 
	d="
M583.805603,451.023804 
	C585.003906,447.321136 586.606384,443.708221 588.301392,439.751373 
	C588.393921,439.407440 588.807312,439.335724 588.980835,439.216919 
	C594.930054,439.098114 600.705750,439.098114 606.481384,439.098114 
	C606.592285,439.548309 606.703186,439.998505 606.814026,440.448730 
	C599.665588,444.760101 594.764832,453.473145 583.805603,451.023804 
z"/>
<path fill="#FB6A76" opacity="1.000000" stroke="none" 
	d="
M658.291016,302.127747 
	C654.197815,307.563751 650.286865,312.670715 643.237366,315.594849 
	C644.710754,306.647766 650.287842,302.624451 656.702087,299.405609 
	C656.857422,299.327637 657.885071,300.987976 658.291016,302.127747 
z"/>
<path fill="#D54653" opacity="1.000000" stroke="none" 
	d="
M162.970291,330.970978 
	C162.371536,331.508331 161.772781,332.045685 161.002502,332.838135 
	C154.455170,334.035736 148.079361,334.978271 141.237549,335.801697 
	C142.244781,331.295563 143.490341,326.813812 145.263229,322.551361 
	C146.682144,319.140015 146.962891,316.714294 143.637360,313.981873 
	C132.679947,304.978821 122.898079,294.836517 115.670921,282.482147 
	C104.358795,263.144745 95.060921,242.952408 92.263535,220.499741 
	C90.887268,209.453384 91.509422,198.262726 94.705383,187.398575 
	C95.734825,183.899155 96.973267,180.398483 97.444824,176.810165 
	C98.586052,168.125824 104.420479,163.208939 111.254112,159.273605 
	C116.694321,156.140686 127.069901,156.960510 129.054474,165.783234 
	C130.066010,170.280106 130.878433,174.928589 130.918747,179.516129 
	C131.020172,191.058548 131.732101,202.475937 136.540237,213.144379 
	C144.174026,230.082458 155.224579,244.050995 172.191162,252.607574 
	C177.082153,255.074203 182.047516,257.397766 186.887207,259.959930 
	C189.468811,261.326691 191.258057,260.929169 193.559158,259.035461 
	C198.785736,254.734268 204.383957,250.884689 210.141083,246.771408 
	C213.565491,253.250061 213.731873,260.047546 212.067780,267.394928 
	C211.867920,268.113220 211.694977,268.427612 210.885422,268.858765 
	C202.156509,270.904755 194.154480,273.585693 185.632111,271.946259 
	C182.560822,271.355469 179.293655,271.239929 176.453171,270.080872 
	C158.450424,262.734955 143.974716,251.007294 132.918442,234.921158 
	C122.909958,220.359467 117.808403,204.414886 117.989487,186.755371 
	C118.044891,181.352737 117.998093,175.949081 117.998093,170.545883 
	C117.225105,170.036804 116.452118,169.527725 115.679131,169.018646 
	C114.836548,170.589050 113.986618,172.155579 113.152534,173.730469 
	C106.229317,186.802612 101.667648,200.839905 104.360886,215.443893 
	C110.443718,248.428085 123.124252,278.348389 149.358704,300.911896 
	C153.757233,304.694946 158.405441,308.209320 162.596985,312.205780 
	C167.544846,316.923370 167.699051,319.332825 164.837128,325.384033 
	C164.003601,327.146423 163.581177,329.103271 162.970291,330.970978 
z"/>
<path fill="#D54653" opacity="1.000000" stroke="none" 
	d="
M152.523315,362.754395 
	C153.127899,364.689484 153.453293,366.461945 153.551208,368.903687 
	C152.882233,372.848083 152.308670,376.112122 152.034393,379.401123 
	C151.726700,383.090881 149.505081,384.527283 146.294861,383.975006 
	C135.483170,382.115021 124.602264,380.215088 115.641266,373.165588 
	C104.111488,364.095245 93.515068,354.097595 84.949783,342.058258 
	C82.392303,338.463501 79.214996,335.309662 76.321678,331.953796 
	C75.782410,336.132904 76.107796,339.569214 76.498032,342.998138 
	C78.053535,356.666473 83.984085,368.129974 93.090866,378.420837 
	C105.310974,392.229797 118.946800,403.352966 137.198944,408.392548 
	C145.933228,410.804169 157.421967,410.093475 159.635941,422.977020 
	C159.741608,424.048370 159.847275,425.119751 159.920258,426.591492 
	C156.958099,430.147888 154.167374,433.451752 151.034546,436.390961 
	C149.679443,437.662262 147.618271,438.180908 145.519394,439.028412 
	C143.726242,435.719940 141.926605,432.528351 140.951462,429.102142 
	C139.796997,425.045837 137.766235,422.861023 133.519516,421.573486 
	C116.309586,416.355804 101.869232,406.740326 89.215248,393.870209 
	C73.218353,377.600128 64.443787,358.475067 63.142822,335.763885 
	C62.716862,328.327789 66.024338,322.351379 72.474312,319.750580 
	C77.440079,317.748291 83.495651,320.387451 88.499527,326.136810 
	C96.235718,335.025635 103.860413,344.062195 112.224625,352.336304 
	C118.023262,358.072510 124.986183,362.631744 132.551498,368.602905 
	C133.953445,361.683441 134.978149,356.625916 136.161301,351.170746 
	C139.104202,351.662476 142.418747,351.891571 144.546127,353.599396 
	C147.569748,356.026825 149.720428,359.541534 152.523315,362.754395 
z"/>
<path fill="#FC7781" opacity="1.000000" stroke="none" 
	d="
M532.198303,488.791565 
	C534.751953,475.131256 542.843262,465.344788 554.779846,458.187805 
	C553.029053,461.302551 550.884521,464.356110 548.836792,467.473206 
	C547.848816,468.977142 545.945129,471.540466 546.344604,472.007080 
	C548.058777,474.009064 550.589172,476.933899 552.616577,476.781860 
	C565.448975,475.819458 578.531799,476.082947 590.790466,471.186523 
	C593.995911,469.906250 597.111694,468.401550 600.634277,467.000488 
	C601.000000,467.001038 600.978210,466.984222 600.978210,466.984222 
	C595.003235,475.472900 585.731445,478.912964 576.799255,482.974609 
	C567.282837,487.301910 556.969604,486.375641 547.033508,487.884033 
	C542.300842,488.602539 537.455811,488.580994 532.198303,488.791565 
z"/>
<path fill="#FC7781" opacity="1.000000" stroke="none" 
	d="
M601.008667,467.011841 
	C601.096680,466.975159 601.176025,466.927704 601.116821,466.932220 
	C600.978210,466.984222 601.000000,467.001038 601.008667,467.011841 
z"/>
<path fill="#81363D" opacity="1.000000" stroke="none" 
	d="
M493.005981,249.639450 
	C487.211578,247.068893 481.414795,244.163315 475.352783,241.045074 
	C480.407745,240.440628 485.727905,240.048828 491.455353,239.627045 
	C491.828308,242.672745 492.118286,245.040695 492.697510,247.685669 
	C492.992401,248.409927 492.998016,248.857178 493.005981,249.639450 
z"/>
<path fill="#FE7982" opacity="1.000000" stroke="none" 
	d="
M163.323730,330.960571 
	C163.581177,329.103271 164.003601,327.146423 164.837128,325.384033 
	C167.699051,319.332825 167.544846,316.923370 162.596985,312.205780 
	C158.405441,308.209320 153.757233,304.694946 149.358704,300.911896 
	C123.124252,278.348389 110.443718,248.428085 104.360886,215.443893 
	C101.667648,200.839905 106.229317,186.802612 113.152534,173.730469 
	C113.986618,172.155579 114.836548,170.589050 115.679131,169.018646 
	C116.452118,169.527725 117.225105,170.036804 117.998093,170.545883 
	C117.998093,175.949081 118.044891,181.352737 117.989487,186.755371 
	C117.808403,204.414886 122.909958,220.359467 132.918442,234.921158 
	C143.974716,251.007294 158.450424,262.734955 176.453171,270.080872 
	C179.293655,271.239929 182.560822,271.355469 185.632111,271.946259 
	C194.154480,273.585693 202.156509,270.904755 210.668823,269.024231 
	C210.336029,277.727570 205.669464,284.593964 200.828171,291.353882 
	C190.579498,305.664124 180.305878,319.962891 165.421585,330.031677 
	C164.880585,330.397675 164.260437,330.646637 163.323730,330.960571 
z"/>
<path fill="#FE7881" opacity="1.000000" stroke="none" 
	d="
M549.897339,290.553406 
	C576.785217,289.469269 596.568787,276.757996 608.199463,252.951736 
	C615.283142,238.452744 615.847473,222.214188 614.538635,206.120728 
	C613.602661,194.611359 612.789612,183.091980 611.921631,171.577072 
	C612.455444,171.260895 612.989258,170.944717 613.523010,170.628555 
	C614.877319,172.136215 616.770996,173.423294 617.493164,175.189438 
	C620.754456,183.165482 623.887268,191.207458 626.681946,199.357529 
	C630.117615,209.377167 633.464722,219.447830 636.245544,229.661072 
	C637.351562,233.723480 637.131104,238.235184 637.008484,242.527893 
	C636.594666,257.017670 634.878662,271.338379 628.581665,284.607513 
	C622.045288,298.381165 611.095337,306.845001 596.110352,309.921967 
	C593.520874,310.453705 590.876526,310.758179 588.243347,311.030212 
	C579.800659,311.902344 574.872986,316.976562 571.814453,324.858459 
	C559.924438,316.652802 552.905334,305.078461 549.897339,290.553406 
z"/>
<path fill="#FE7881" opacity="1.000000" stroke="none" 
	d="
M580.136414,380.176636 
	C583.911560,380.871918 587.593628,383.104797 590.950989,382.692627 
	C604.005310,381.090027 617.496948,380.871735 628.878906,372.547455 
	C636.507629,366.968170 645.252869,362.618286 650.193909,354.141815 
	C652.998962,349.329681 654.803833,343.930786 657.006165,338.773560 
	C657.610596,337.358063 658.023926,335.860992 658.939514,333.193634 
	C660.520691,352.001099 661.263367,369.598297 650.717834,384.634186 
	C640.709778,398.903809 625.657837,405.536652 608.820435,409.229614 
	C600.867737,410.973846 593.442139,409.453888 585.914734,408.571106 
	C580.957642,407.989777 577.805115,407.657196 577.484619,413.768311 
	C577.383728,415.693268 576.344299,417.569000 575.496521,419.719482 
	C574.180481,406.506104 574.850342,393.245789 580.136414,380.176636 
z"/>
<path fill="#964A50" opacity="1.000000" stroke="none" 
	d="
M272.959412,425.632019 
	C268.533539,425.857941 264.107635,426.083862 258.839417,426.352814 
	C256.875397,408.151611 257.704315,390.332886 264.683990,372.110596 
	C269.239044,374.374786 273.301270,376.394043 277.336731,379.094849 
	C276.721680,381.675812 276.347656,383.677063 275.502594,385.454346 
	C273.415436,389.843933 275.109253,392.750763 278.928497,394.836060 
	C283.865692,397.531677 288.679993,400.612366 293.904602,402.576752 
	C299.151947,404.549652 304.838257,405.355194 311.160126,406.870819 
	C310.402344,400.547760 309.834259,395.807587 309.266174,391.067413 
	C312.174866,392.290863 314.990509,393.871307 318.012787,394.658905 
	C323.309113,396.039093 325.520355,399.130432 325.467194,404.581726 
	C325.300690,421.655487 323.957306,438.473389 315.824249,453.950348 
	C314.224609,456.994385 312.094208,459.759521 309.873169,463.168091 
	C307.354980,457.261047 305.130035,452.041840 303.179077,446.291870 
	C305.957886,440.410522 310.269623,435.187103 305.380463,429.077515 
	C298.454895,420.423157 290.180115,413.496399 279.442535,410.023743 
	C277.551697,409.412201 275.497040,409.307129 272.959412,408.872467 
	C272.959412,415.085419 272.959412,420.358704 272.959412,425.632019 
z"/>
<path fill="#FD7882" opacity="1.000000" stroke="none" 
	d="
M159.982742,422.774109 
	C157.421967,410.093475 145.933228,410.804169 137.198944,408.392548 
	C118.946800,403.352966 105.310974,392.229797 93.090866,378.420837 
	C83.984085,368.129974 78.053535,356.666473 76.498032,342.998138 
	C76.107796,339.569214 75.782410,336.132904 76.321678,331.953796 
	C79.214996,335.309662 82.392303,338.463501 84.949783,342.058258 
	C93.515068,354.097595 104.111488,364.095245 115.641266,373.165588 
	C124.602264,380.215088 135.483170,382.115021 146.294861,383.975006 
	C149.505081,384.527283 151.726700,383.090881 152.034393,379.401123 
	C152.308670,376.112122 152.882233,372.848083 153.587509,369.285095 
	C156.101685,375.470154 158.718399,381.843048 160.520935,388.438477 
	C163.616776,399.766022 163.952423,411.214417 159.982742,422.774109 
z"/>
<path fill="#974B51" opacity="1.000000" stroke="none" 
	d="
M447.387268,447.170593 
	C445.605194,451.039368 443.823090,454.908173 441.266022,460.459381 
	C438.343994,453.968262 434.984039,448.897919 433.799774,443.362122 
	C431.522278,432.716309 430.304382,421.825989 429.102661,410.986603 
	C428.917755,409.318756 430.814423,406.971344 432.363861,405.672546 
	C434.340942,404.015228 436.943817,403.104492 439.634827,402.330017 
	C439.992676,407.854309 439.992676,412.920502 439.992676,418.203186 
	C441.310181,418.099609 442.200562,418.242737 442.901367,417.942841 
	C455.296021,412.640137 466.891785,406.132782 476.729584,396.670258 
	C482.605316,391.018677 483.827362,385.066345 479.702209,378.037811 
	C482.487518,375.882629 485.272797,373.727448 488.442291,371.274994 
	C493.900879,382.273743 495.238983,393.262573 495.696289,404.335999 
	C495.968597,410.930878 495.109650,417.564697 495.058289,424.183350 
	C495.022797,428.750183 493.388062,430.619781 488.740204,429.276825 
	C487.500946,428.918762 486.108185,429.092041 484.367920,428.552307 
	C484.023407,426.761414 483.977875,425.420166 484.190094,424.121063 
	C485.353943,416.995514 484.727173,416.209198 477.459869,416.059265 
	C476.304565,416.035431 475.145508,416.129028 473.989807,416.195984 
	C462.610718,416.855316 453.509247,422.785950 444.618744,429.080200 
	C443.426453,429.924286 441.953583,432.010437 442.253815,433.044159 
	C443.648193,437.844940 445.621307,442.477692 447.387268,447.170593 
z"/>
<path fill="#FCFAF6" opacity="1.000000" stroke="none" 
	d="
M479.337402,378.042297 
	C483.827362,385.066345 482.605316,391.018677 476.729584,396.670258 
	C466.891785,406.132782 455.296021,412.640137 442.901367,417.942841 
	C442.200562,418.242737 441.310181,418.099609 439.992676,418.203186 
	C439.992676,412.920502 439.992676,407.854309 440.009766,402.347809 
	C443.174957,399.544617 446.176819,396.948547 449.499634,394.864105 
	C458.161072,389.430695 466.948792,384.197327 475.730347,378.958313 
	C476.661102,378.403046 477.884796,378.338837 479.337402,378.042297 
z"/>
<path fill="#F8466E" opacity="1.000000" stroke="none" 
	d="
M447.678894,447.048035 
	C445.621307,442.477692 443.648193,437.844940 442.253815,433.044159 
	C441.953583,432.010437 443.426453,429.924286 444.618744,429.080200 
	C453.509247,422.785950 462.610718,416.855316 473.989807,416.195984 
	C475.145508,416.129028 476.304565,416.035431 477.459869,416.059265 
	C484.727173,416.209198 485.353943,416.995514 484.190094,424.121063 
	C483.977875,425.420166 484.023407,426.761414 483.944580,428.513672 
	C469.472443,429.982635 457.072296,435.155212 447.678894,447.048035 
z"/>
<path fill="#F8476F" opacity="1.000000" stroke="none" 
	d="
M273.331146,425.768829 
	C272.959412,420.358704 272.959412,415.085419 272.959412,408.872467 
	C275.497040,409.307129 277.551697,409.412201 279.442535,410.023743 
	C290.180115,413.496399 298.454895,420.423157 305.380463,429.077515 
	C310.269623,435.187103 305.957886,440.410522 303.112549,445.925598 
	C300.140991,443.127625 297.566895,440.112122 294.867279,437.213501 
	C289.114288,431.036499 281.812195,427.701935 273.331146,425.768829 
z"/>
<path fill="#FCF9F5" opacity="1.000000" stroke="none" 
	d="
M308.920593,390.938049 
	C309.834259,395.807587 310.402344,400.547760 311.160126,406.870819 
	C304.838257,405.355194 299.151947,404.549652 293.904602,402.576752 
	C288.679993,400.612366 283.865692,397.531677 278.928497,394.836060 
	C275.109253,392.750763 273.415436,389.843933 275.502594,385.454346 
	C276.347656,383.677063 276.721680,381.675812 277.519592,379.430481 
	C280.119171,379.549835 282.663086,379.640503 284.871521,380.547852 
	C292.833801,383.819305 300.683044,387.365936 308.920593,390.938049 
z"/>
<path fill="#995055" opacity="1.000000" stroke="none" 
	d="
M372.522278,474.669861 
	C369.525696,474.516174 366.358948,474.234009 367.007019,470.961670 
	C367.300659,469.479279 370.573273,467.679047 372.549500,467.610535 
	C378.126770,467.417145 383.747009,467.901611 389.316101,468.460052 
	C390.574310,468.586243 391.693665,470.097076 392.876953,470.970520 
	C391.659210,471.863190 390.513275,473.390350 389.211182,473.537750 
	C383.817871,474.148163 378.377350,474.341400 372.522278,474.669861 
z"/>
</svg>