<svg version="1.1" id="Layer_1" xmlns="http://www.w3.org/2000/svg" xmlns:xlink="http://www.w3.org/1999/xlink" x="0px" y="0px"
	 width="100%" viewBox="0 0 949 750" enable-background="new 0 0 949 750" xml:space="preserve">
<path fill="#FFFFFF" opacity="1.000000" stroke="none" 
	d="
M553.000000,751.000000 
	C368.666718,751.000000 184.833450,751.000000 1.000123,751.000000 
	C1.000082,501.000122 1.000082,251.000259 1.000041,1.000291 
	C317.333099,1.000194 633.666199,1.000194 949.999512,1.000097 
	C949.999634,250.999695 949.999634,500.999390 949.999817,750.999512 
	C817.833313,751.000000 685.666687,751.000000 553.000000,751.000000 
M212.217163,274.659241 
	C210.845490,271.298187 209.533508,267.911255 208.089066,264.581787 
	C205.482986,258.574768 203.872116,251.751205 199.935898,246.781113 
	C189.777176,233.954193 179.599121,221.405685 175.423203,205.071442 
	C172.974197,195.492081 167.720734,187.319351 160.181976,180.955933 
	C151.610336,173.720642 146.969849,164.992096 145.680420,153.678955 
	C144.498199,143.306412 141.635223,133.269638 133.273544,125.553429 
	C123.212128,116.268684 108.806725,115.636429 99.228241,125.323616 
	C80.089600,144.679459 76.268906,169.018402 78.663116,194.596024 
	C79.734276,206.039383 82.031525,216.973206 77.722847,228.367508 
	C75.705368,233.702744 75.780121,240.068481 75.948242,245.937332 
	C76.233429,255.892731 81.173683,264.344330 86.155464,272.651428 
	C91.182678,281.034271 97.202766,288.907410 99.154221,298.835266 
	C100.316040,304.745911 101.671631,310.618469 102.962730,316.613190 
	C101.788231,316.764191 101.268799,316.977997 100.833618,316.865601 
	C86.488327,313.160706 73.503586,324.219421 70.934067,338.393341 
	C68.666939,350.899261 70.112076,362.826050 76.027634,374.212463 
	C78.239479,378.469910 80.377701,382.903961 81.602562,387.509338 
	C85.038727,400.429016 92.469978,409.956909 103.772507,417.021240 
	C111.538277,421.875000 118.044174,428.040070 122.579178,436.480713 
	C128.148834,446.847015 135.324631,456.479370 147.536591,459.509705 
	C153.856216,461.077820 160.763077,460.112457 167.282898,461.097382 
	C171.904236,461.795532 176.321732,463.843079 180.830200,465.288300 
	C179.808395,467.036255 179.250717,467.401459 178.642670,467.636017 
	C163.785675,473.366852 159.350922,487.560242 168.218430,500.805634 
	C174.128540,509.633545 182.797531,513.621155 192.919006,514.953491 
	C198.477448,515.685120 203.109543,517.067139 207.072266,521.900085 
	C211.510361,527.312683 217.864914,530.925598 225.314087,530.999756 
	C236.917740,531.115356 248.546967,531.347778 260.123779,530.739624 
	C272.304535,530.099670 284.505371,520.416138 286.934845,510.448456 
	C291.235260,512.250549 295.453583,514.297607 299.862518,515.776062 
	C303.295532,516.927185 304.401825,518.674255 304.047913,522.325378 
	C303.586090,527.089905 303.394043,531.998901 304.012299,536.724548 
	C305.219696,545.953064 306.091919,554.882324 298.395172,562.048279 
	C298.168304,562.259521 298.087830,562.633972 297.954559,562.939087 
	C290.317902,580.416077 286.590118,598.779053 286.282379,617.763733 
	C286.154938,625.629333 287.590332,633.442139 293.235077,639.626099 
	C301.314911,648.477661 313.679565,650.332458 325.692749,643.277649 
	C334.338684,638.200317 342.085815,631.592468 350.562073,625.428650 
	C354.623871,628.007751 359.454071,631.074768 363.672333,633.753235 
	C358.739075,637.062195 353.272827,639.763062 349.047913,643.772095 
	C341.284454,651.138916 342.631653,660.859741 352.150482,665.531311 
	C370.707275,674.638306 389.415771,672.125549 407.575348,664.165527 
	C413.934204,661.378174 415.517029,655.762939 413.735840,648.948608 
	C413.344849,647.452820 412.872711,645.978271 412.484283,644.652039 
	C420.070648,643.312622 427.034149,642.083130 434.002197,640.852844 
	C435.081665,655.819092 439.305664,660.979919 454.196716,663.806091 
	C461.340393,665.161865 468.849670,666.271606 475.988586,665.527588 
	C484.094696,664.682922 492.669861,662.980347 499.798584,659.265991 
	C513.340698,652.210144 513.668030,640.494568 501.558472,631.145996 
	C494.360626,625.589233 485.712433,623.609924 476.973419,622.042480 
	C474.986603,621.686096 472.991821,621.374207 471.596680,621.141357 
	C478.906982,611.878113 486.903046,603.458252 492.797424,593.760925 
	C497.952240,585.280334 502.641357,577.411377 513.105774,575.188904 
	C513.863892,575.027954 514.540833,574.362610 515.195374,573.854309 
	C530.536011,561.940552 544.670471,548.778931 555.218567,532.334045 
	C564.856567,517.307983 571.222351,501.690155 558.687317,484.802948 
	C562.603455,481.479004 566.486450,478.352112 570.181641,475.017120 
	C584.618835,461.986969 597.289429,447.532196 606.510742,429.948029 
	C606.510742,429.948029 606.949097,429.824036 607.623901,430.195007 
	C623.541260,436.056732 636.286987,432.168030 644.968567,419.754364 
	C650.352600,412.055725 655.987671,404.196381 662.921448,397.984589 
	C679.729553,382.926636 685.416687,351.378693 676.708313,330.612854 
	C672.547241,320.690338 663.159058,314.533081 653.137024,316.138763 
	C649.338074,316.747406 645.759644,318.732513 642.006897,320.011505 
	C642.006897,320.011505 641.927551,319.938324 641.890381,319.106720 
	C643.888489,312.814209 644.764771,305.844330 648.082947,300.348846 
	C661.052551,278.868713 664.665100,256.304504 657.118225,232.429932 
	C652.785278,218.722733 650.951843,204.702408 648.615601,190.631073 
	C644.987854,168.780380 625.037354,156.797775 604.195129,167.974792 
	C599.971436,170.239822 596.260803,173.461670 591.398804,176.886917 
	C592.516357,172.431046 593.200623,168.861816 594.306519,165.428391 
	C602.216858,140.869888 602.339783,116.356514 593.439697,92.082451 
	C587.674683,76.359039 584.046204,60.243137 583.100830,43.568138 
	C582.283569,29.152575 564.596252,12.452325 551.926270,10.032137 
	C531.872498,6.201505 516.531616,13.998438 504.076813,28.998392 
	C497.843628,36.505325 494.541687,45.242317 497.014801,54.923817 
	C499.168976,63.356781 502.083618,71.673744 505.509918,79.679138 
	C508.332092,86.272972 509.161285,92.417778 505.638824,98.778038 
	C502.511322,104.425110 499.646088,110.281776 495.927612,115.522720 
	C489.695129,124.307045 486.532349,133.917526 487.236328,144.535873 
	C487.927124,154.955750 485.207764,163.916473 479.540070,172.743027 
	C475.710663,178.706757 473.594757,185.965622 471.729309,192.917999 
	C470.709412,196.719055 471.803894,201.087448 471.125122,205.171249 
	C470.127930,205.109634 469.066162,205.250641 468.143127,204.956390 
	C450.703644,199.396957 432.630554,197.395111 414.533295,196.793304 
	C335.971527,194.180847 266.448456,215.274841 212.217163,274.659241 
M770.219849,333.170441 
	C770.174011,328.999603 772.377380,326.971252 776.097351,325.082336 
	C781.973877,322.098358 787.296082,318.023376 792.857361,314.417053 
	C793.898438,313.741974 794.960388,313.099030 796.352234,312.228973 
	C797.158447,315.138214 797.445984,317.689606 798.536682,319.832153 
	C802.009033,326.653015 802.344604,332.682648 795.340454,337.564941 
	C794.578735,338.095917 793.762451,339.181976 793.747070,340.024689 
	C793.709595,342.084869 794.126587,344.153320 794.360657,346.218445 
	C796.278137,345.802185 798.614319,345.925476 800.012634,344.840240 
	C801.999573,343.298187 803.296692,340.867249 805.228699,338.377777 
	C806.677734,340.482239 807.034363,341.241821 807.600342,341.782043 
	C810.758118,344.795685 813.663940,348.254333 817.316467,350.473785 
	C818.655701,351.287598 821.804565,349.123199 824.128052,348.317322 
	C823.082275,346.651855 822.115356,344.928192 820.951660,343.349670 
	C820.489868,342.723328 819.561035,342.459473 818.896484,341.961548 
	C813.392334,337.837738 812.602844,332.751495 816.598511,327.344360 
	C817.587097,326.006592 818.974182,324.768036 819.399658,323.263702 
	C819.836304,321.720093 819.936951,319.291138 819.039734,318.391327 
	C818.206421,317.555664 815.695251,317.784485 814.227051,318.343597 
	C812.363953,319.053070 810.807861,320.568665 808.416016,322.223206 
	C807.128784,317.746643 806.174500,314.087921 805.002197,310.500458 
	C804.452637,308.818726 803.874573,306.807007 802.625916,305.760193 
	C799.566467,303.195312 791.032166,303.904236 787.559692,306.335510 
	C782.881958,309.610687 778.050537,312.666199 773.220093,315.858887 
	C772.520630,314.560486 772.231506,314.274628 772.241394,313.999512 
	C772.289062,312.672150 772.415100,311.347504 772.517395,310.022247 
	C773.406921,298.492950 773.670959,287.008118 768.948914,276.092773 
	C762.924255,262.166199 748.062866,260.205688 737.920959,271.533813 
	C730.348816,279.991608 725.580872,289.631561 723.410583,300.630096 
	C722.581848,304.830231 721.034851,308.308807 717.802856,311.372772 
	C713.651306,315.308594 713.690369,319.571381 715.976135,324.080444 
	C717.201477,326.497742 717.715515,329.553345 717.637573,332.294922 
	C717.481934,337.765015 716.362427,343.219025 716.391602,348.675629 
	C716.399475,350.160675 719.020935,352.702393 720.560608,352.794586 
	C721.979248,352.879608 724.431519,350.564972 724.890076,348.886932 
	C726.022095,344.744049 726.102295,340.324860 726.981018,336.094788 
	C727.240723,334.844788 728.725769,332.920776 729.695923,332.892273 
	C738.273376,332.640350 746.861328,332.746033 756.109924,332.746033 
	C756.791382,338.047241 757.597046,343.782532 758.241516,349.535858 
	C758.602539,352.758789 759.347351,355.745697 763.226929,355.813660 
	C767.267334,355.884460 768.474731,352.975525 768.764343,349.477570 
	C769.190430,344.331360 769.648865,339.187836 770.219849,333.170441 
M742.617981,197.875763 
	C752.486755,197.257843 762.355530,196.639923 772.681213,195.993393 
	C773.485596,198.412827 774.050964,201.846161 775.738586,204.588882 
	C776.890686,206.461197 779.629028,208.394867 781.621704,208.357498 
	C783.011658,208.331406 785.732910,204.782883 785.471191,203.203461 
	C783.665527,192.304871 788.344971,185.385590 797.663879,180.583099 
	C800.628906,179.055084 803.047424,176.311539 800.591431,172.854416 
	C797.963562,169.155304 794.761658,171.121750 791.840637,173.018051 
	C790.151855,174.114456 788.390747,175.099503 785.524292,176.816055 
	C785.524292,166.782745 785.608826,158.131195 785.482971,149.482712 
	C785.432312,145.999084 785.283447,142.440063 784.519653,139.064667 
	C783.716309,135.514786 780.756042,133.595825 777.341614,134.641846 
	C775.838928,135.102188 774.091187,138.024063 774.152954,139.768158 
	C774.427551,147.520004 775.437805,155.242310 775.936279,162.991089 
	C776.206726,167.195389 775.984497,171.431381 775.984497,175.653076 
	C775.672729,175.931122 775.361023,176.209167 775.049255,176.487228 
	C766.067078,165.542877 754.670410,167.479614 742.498779,170.392548 
	C742.498779,166.013916 742.718262,162.371765 742.449219,158.766068 
	C742.004761,152.809662 741.596680,146.803223 740.379272,140.983963 
	C740.061035,139.462875 736.765198,137.602310 734.926025,137.693680 
	C733.659180,137.756622 731.523254,140.919281 731.533020,142.686874 
	C731.588867,152.824936 732.342407,162.958084 732.462708,173.097595 
	C732.496460,175.943268 731.066772,178.781815 730.538391,181.665771 
	C730.047852,184.343094 729.503967,187.094864 729.639587,189.780716 
	C729.798218,192.920410 730.898071,196.004745 731.163269,199.149063 
	C731.428040,202.288849 731.113525,205.473694 731.149048,208.637695 
	C731.187378,212.046997 732.564026,214.703018 736.295532,214.711502 
	C740.143127,214.720245 741.147766,211.758011 741.381409,208.525192 
	C741.620850,205.212509 741.745117,201.891479 742.617981,197.875763 
M843.784424,330.565643 
	C845.392029,326.924561 845.367615,322.036713 850.341553,320.861938 
	C853.255615,320.173676 855.543640,318.656555 854.134277,315.949921 
	C853.198975,314.153900 849.932922,312.441376 847.904480,312.643219 
	C845.593994,312.873199 842.786316,314.794617 841.431824,316.811584 
	C834.800537,326.686127 830.661987,337.494659 835.770020,349.158478 
	C838.104065,354.488251 841.582031,359.233154 841.997375,365.331207 
	C842.074158,366.457947 843.232178,367.698425 844.202332,368.518188 
	C844.994751,369.187592 846.618042,369.901337 847.215881,369.531952 
	C848.107605,368.980835 848.778809,367.534393 848.905701,366.397644 
	C849.159729,364.122681 848.981140,361.799438 848.981140,359.376221 
	C850.516357,358.944733 851.799927,358.684052 853.010132,358.228302 
	C865.572815,353.498047 875.038025,345.296661 880.181946,332.787262 
	C882.959290,326.033142 881.067749,319.661743 876.190430,316.159027 
	C871.521057,312.805634 864.952515,312.832214 859.790649,318.128906 
	C854.799561,323.250336 851.152283,329.728058 847.211060,335.802338 
	C845.671387,338.175354 844.939758,341.072723 843.840149,343.731293 
	C843.266296,343.598053 842.692505,343.464844 842.118713,343.331604 
	C842.583313,339.330719 843.047974,335.329834 843.784424,330.565643 
M897.678162,254.206512 
	C897.179382,255.582535 896.304138,256.940735 896.238098,258.337250 
	C895.208618,280.097412 894.249512,301.861115 893.385193,323.628448 
	C893.294556,325.912354 893.415955,328.454163 894.353394,330.445923 
	C895.033936,331.892029 897.269836,333.507660 898.729553,333.432922 
	C900.201050,333.357544 902.118652,331.547668 902.837646,330.024261 
	C903.631165,328.343018 903.356201,326.126007 903.422546,324.138184 
	C903.827698,312.002472 904.207520,299.865845 904.575806,287.728943 
	C904.868225,278.089996 905.330322,268.450134 905.328613,258.810730 
	C905.327698,253.642273 903.540833,252.622696 897.678162,254.206512 
M833.766785,157.533493 
	C830.510376,153.720444 826.220276,156.542435 822.626831,155.722305 
	C815.952820,154.199097 811.555481,157.116638 809.057251,162.229996 
	C806.832214,166.784042 806.374390,172.201477 805.228088,176.865723 
	C809.563538,176.461258 812.893188,176.382935 816.132446,175.801132 
	C823.357300,174.503479 830.016174,171.877487 833.694702,165.014282 
	C834.692322,163.152863 834.085754,160.431610 833.766785,157.533493 
M813.708374,211.693924 
	C818.488281,214.615005 822.046997,213.435440 822.574097,208.160034 
	C823.348633,200.408905 823.657715,192.584702 823.581055,184.797348 
	C823.565613,183.230728 821.144104,180.807877 819.455078,180.419846 
	C818.135925,180.116791 814.912842,182.235748 814.800293,183.482803 
	C813.972473,192.657684 813.714478,201.883987 813.708374,211.693924 
M911.902893,347.072662 
	C907.513306,346.191864 903.393188,349.565308 898.550659,347.444916 
	C897.157166,346.834747 891.666199,351.008606 891.570923,353.145935 
	C891.447266,355.919983 894.261475,360.455322 896.837402,361.383240 
	C902.359619,363.372375 911.696533,357.669861 913.832336,351.947144 
	C914.294128,350.709747 913.089417,348.850372 911.902893,347.072662 
z"/>
<path fill="#803138" opacity="1.000000" stroke="none" 
	d="
M606.056763,429.977783 
	C597.289429,447.532196 584.618835,461.986969 570.181641,475.017120 
	C566.486450,478.352112 562.603455,481.479004 558.687317,484.802948 
	C571.222351,501.690155 564.856567,517.307983 555.218567,532.334045 
	C544.670471,548.778931 530.536011,561.940552 515.195374,573.854309 
	C514.540833,574.362610 513.863892,575.027954 513.105774,575.188904 
	C502.641357,577.411377 497.952240,585.280334 492.797424,593.760925 
	C486.903046,603.458252 478.906982,611.878113 471.596680,621.141357 
	C472.991821,621.374207 474.986603,621.686096 476.973419,622.042480 
	C485.712433,623.609924 494.360626,625.589233 501.558472,631.145996 
	C513.668030,640.494568 513.340698,652.210144 499.798584,659.265991 
	C492.669861,662.980347 484.094696,664.682922 475.988586,665.527588 
	C468.849670,666.271606 461.340393,665.161865 454.196716,663.806091 
	C439.305664,660.979919 435.081665,655.819092 434.002197,640.852844 
	C427.034149,642.083130 420.070648,643.312622 412.484283,644.652039 
	C412.872711,645.978271 413.344849,647.452820 413.735840,648.948608 
	C415.517029,655.762939 413.934204,661.378174 407.575348,664.165527 
	C389.415771,672.125549 370.707275,674.638306 352.150482,665.531311 
	C342.631653,660.859741 341.284454,651.138916 349.047913,643.772095 
	C353.272827,639.763062 358.739075,637.062195 363.672333,633.753235 
	C359.454071,631.074768 354.623871,628.007751 350.562073,625.428650 
	C342.085815,631.592468 334.338684,638.200317 325.692749,643.277649 
	C313.679565,650.332458 301.314911,648.477661 293.235077,639.626099 
	C287.590332,633.442139 286.154938,625.629333 286.282379,617.763733 
	C286.590118,598.779053 290.317902,580.416077 297.954559,562.939087 
	C298.087830,562.633972 298.168304,562.259521 298.395172,562.048279 
	C306.091919,554.882324 305.219696,545.953064 304.012299,536.724548 
	C303.394043,531.998901 303.586090,527.089905 304.047913,522.325378 
	C304.401825,518.674255 303.295532,516.927185 299.862518,515.776062 
	C295.453583,514.297607 291.235260,512.250549 286.561096,510.132751 
	C286.031708,509.582489 285.914581,509.330109 285.934784,508.648987 
	C284.270844,502.764771 282.508057,497.291443 281.177155,491.774292 
	C289.611877,492.911041 297.633423,495.160400 305.613098,495.020416 
	C317.435608,494.813019 326.643158,501.206970 337.201813,504.416107 
	C336.860229,507.678802 336.632935,510.321625 336.300568,512.951111 
	C332.928864,539.627075 337.403351,564.366882 354.665192,585.787598 
	C366.407166,600.358398 381.377258,609.836304 400.163177,612.052246 
	C440.567200,616.818176 473.917450,581.678040 477.891815,543.634583 
	C479.391357,529.281067 478.595245,514.775940 475.491150,500.552124 
	C474.959717,498.116852 475.413361,496.872650 477.999023,496.246887 
	C494.423462,492.271973 509.579163,485.232910 524.019226,476.626404 
	C551.628662,460.170776 574.323608,439.033905 587.752380,409.136902 
	C588.244995,408.039978 589.790833,407.416107 590.862061,406.985840 
	C592.540833,417.209595 598.439575,424.171295 606.056763,429.977783 
M481.000305,655.869202 
	C484.386017,655.061646 488.132660,654.905212 491.065186,653.279968 
	C494.653290,651.291382 497.559204,648.072021 500.760132,645.384888 
	C497.946442,642.335876 495.674133,638.281372 492.220123,636.421509 
	C480.674927,630.204895 468.091980,629.500366 455.445862,632.157654 
	C452.429108,632.791565 449.345093,634.963318 447.139893,637.246582 
	C440.976227,643.628479 442.746307,650.359619 451.048218,653.280151 
	C460.492554,656.602600 470.260529,656.684387 481.000305,655.869202 
M396.993774,658.690796 
	C398.233887,658.217590 399.485138,657.771423 400.712250,657.266602 
	C406.220795,655.000488 406.765472,651.616882 402.124756,647.767090 
	C400.609711,646.510193 398.901978,645.312073 397.079437,644.627502 
	C385.040131,640.105591 372.985016,640.038696 361.478760,646.027649 
	C358.397644,647.631409 356.333038,651.187988 353.801727,653.848022 
	C356.794189,655.887817 359.521332,658.743408 362.827484,659.818665 
	C373.959320,663.438904 385.124878,661.090393 396.993774,658.690796 
M321.902771,594.520264 
	C319.245483,589.601013 316.588196,584.681702 313.581085,579.114807 
	C312.697113,582.135681 311.900848,584.300293 311.437561,586.533936 
	C309.110504,597.754028 305.902802,608.906006 307.544495,620.551758 
	C308.372131,626.422729 310.431641,627.655273 315.534729,624.511475 
	C321.979095,620.541382 327.895813,615.714844 334.096191,611.217102 
	C329.783356,605.310608 326.057922,600.208557 321.902771,594.520264 
M538.558594,516.027039 
	C539.767151,513.481079 541.408997,511.040283 542.059509,508.358948 
	C542.681335,505.795837 542.271912,502.982544 542.315796,500.279205 
	C539.712463,501.004395 536.899719,501.319794 534.541565,502.524811 
	C523.491821,508.171143 518.958618,519.964600 510.697235,528.270813 
	C510.377869,528.591858 510.152710,529.162537 510.149780,529.618652 
	C510.113159,535.318420 510.125732,541.018494 510.125732,547.464600 
	C521.881531,538.735535 530.474976,528.109131 538.558594,516.027039 
z"/>
<path fill="#FEA8AC" opacity="1.000000" stroke="none" 
	d="
M642.080688,320.090210 
	C645.759644,318.732513 649.338074,316.747406 653.137024,316.138763 
	C663.159058,314.533081 672.547241,320.690338 676.708313,330.612854 
	C685.416687,351.378693 679.729553,382.926636 662.921448,397.984589 
	C655.987671,404.196381 650.352600,412.055725 644.968567,419.754364 
	C636.286987,432.168030 623.541260,436.056732 607.338135,429.659851 
	C608.771118,424.404205 610.625366,420.667053 616.985291,420.209442 
	C621.884521,419.856903 627.408875,417.887268 631.211975,414.837158 
	C638.271179,409.175537 645.131042,402.841919 650.543213,395.638031 
	C661.953247,380.450745 665.583008,362.977570 661.818665,344.287872 
	C659.806824,334.299164 649.258362,329.974915 640.457947,335.086426 
	C639.309998,335.753204 638.172058,336.437256 637.019714,336.705627 
	C637.980164,332.788116 638.950378,329.278259 639.920532,325.768402 
	C639.361145,325.509796 638.801819,325.251190 638.242493,324.992584 
	C633.687683,330.554047 629.194092,336.167969 624.513428,341.621338 
	C623.796631,342.456421 622.215942,342.550140 621.009766,342.585815 
	C620.825439,337.925262 618.117493,334.319916 621.734314,329.341919 
	C632.436584,314.611694 640.622681,298.495819 641.000183,279.628021 
	C641.198425,269.716888 641.198364,259.794830 640.988464,249.884033 
	C640.563416,229.815536 635.994080,210.849655 624.867126,193.878098 
	C621.070984,188.087860 615.973572,183.400070 608.379028,185.150024 
	C602.362488,186.536377 599.545471,191.664307 597.793701,197.259552 
	C597.449402,198.359573 597.082153,199.491058 596.998840,200.628082 
	C596.297119,210.198334 596.198914,219.850220 594.848389,229.324905 
	C593.526062,238.600952 591.287109,247.793060 588.756653,256.827667 
	C587.710205,260.563843 584.856873,263.793945 582.864624,267.187256 
	C578.948181,264.356476 575.933838,262.177673 572.856934,259.688568 
	C572.220032,258.820007 571.645752,258.261749 571.012146,257.374329 
	C569.330994,255.072083 569.269653,253.374313 570.546692,250.852859 
	C573.362427,245.293243 576.788940,239.563797 577.627930,233.576004 
	C579.761963,218.345871 581.354736,202.955215 581.757446,187.591934 
	C582.130493,173.362625 581.300110,159.023102 579.871399,144.845810 
	C578.214844,128.407822 576.324463,111.868889 572.695618,95.789024 
	C569.037415,79.579224 566.438843,62.743431 556.366394,48.586426 
	C551.307007,41.475384 545.380798,36.567112 536.010925,37.963272 
	C528.150940,39.134438 523.489563,44.245358 521.540283,51.330605 
	C519.935669,57.163193 519.148315,63.391571 519.103149,69.452782 
	C518.901245,96.518326 520.285461,123.725304 513.840576,150.299637 
	C510.371887,164.602097 505.553009,178.586624 501.094757,192.635727 
	C498.717773,200.126266 492.533264,204.619141 485.967072,207.607651 
	C483.045166,208.937531 478.515381,206.709976 474.708405,206.143936 
	C474.065704,206.048370 473.387573,206.191315 472.532471,206.103058 
	C472.053772,205.798981 471.922363,205.538284 471.944885,205.199982 
	C471.803894,201.087448 470.709412,196.719055 471.729309,192.917999 
	C473.594757,185.965622 475.710663,178.706757 479.540070,172.743027 
	C485.207764,163.916473 487.927124,154.955750 487.236328,144.535873 
	C486.532349,133.917526 489.695129,124.307045 495.927612,115.522720 
	C499.646088,110.281776 502.511322,104.425110 505.638824,98.778038 
	C509.161285,92.417778 508.332092,86.272972 505.509918,79.679138 
	C502.083618,71.673744 499.168976,63.356781 497.014801,54.923817 
	C494.541687,45.242317 497.843628,36.505325 504.076813,28.998392 
	C516.531616,13.998438 531.872498,6.201505 551.926270,10.032137 
	C564.596252,12.452325 582.283569,29.152575 583.100830,43.568138 
	C584.046204,60.243137 587.674683,76.359039 593.439697,92.082451 
	C602.339783,116.356514 602.216858,140.869888 594.306519,165.428391 
	C593.200623,168.861816 592.516357,172.431046 591.398804,176.886917 
	C596.260803,173.461670 599.971436,170.239822 604.195129,167.974792 
	C625.037354,156.797775 644.987854,168.780380 648.615601,190.631073 
	C650.951843,204.702408 652.785278,218.722733 657.118225,232.429932 
	C664.665100,256.304504 661.052551,278.868713 648.082947,300.348846 
	C644.764771,305.844330 643.888489,312.814209 641.752319,319.597321 
	C641.769714,320.088684 641.925171,320.089447 642.080688,320.090210 
M581.156921,236.640503 
	C579.646545,239.314102 577.950195,241.902710 576.678711,244.685486 
	C575.436035,247.405334 574.626892,250.323242 573.627380,253.154221 
	C582.827087,248.422791 590.569214,225.815323 587.047058,220.323288 
	C585.298889,225.250839 583.398621,230.607178 581.156921,236.640503 
M573.482483,255.589828 
	C573.482483,255.589828 573.413574,255.474854 573.482483,255.589828 
z"/>
<path fill="#FDA8AC" opacity="1.000000" stroke="none" 
	d="
M285.835907,509.059875 
	C285.914581,509.330109 286.031708,509.582489 286.195312,510.025970 
	C284.505371,520.416138 272.304535,530.099670 260.123779,530.739624 
	C248.546967,531.347778 236.917740,531.115356 225.314087,530.999756 
	C217.864914,530.925598 211.510361,527.312683 207.072266,521.900085 
	C203.109543,517.067139 198.477448,515.685120 192.919006,514.953491 
	C182.797531,513.621155 174.128540,509.633545 168.218430,500.805634 
	C159.350922,487.560242 163.785675,473.366852 178.642670,467.636017 
	C179.250717,467.401459 179.808395,467.036255 180.830200,465.288300 
	C176.321732,463.843079 171.904236,461.795532 167.282898,461.097382 
	C160.763077,460.112457 153.856216,461.077820 147.536591,459.509705 
	C135.324631,456.479370 128.148834,446.847015 122.579178,436.480713 
	C118.044174,428.040070 111.538277,421.875000 103.772507,417.021240 
	C92.469978,409.956909 85.038727,400.429016 81.602562,387.509338 
	C80.377701,382.903961 78.239479,378.469910 76.027634,374.212463 
	C70.112076,362.826050 68.666939,350.899261 70.934067,338.393341 
	C73.503586,324.219421 86.488327,313.160706 100.833618,316.865601 
	C101.268799,316.977997 101.788231,316.764191 102.962730,316.613190 
	C101.671631,310.618469 100.316040,304.745911 99.154221,298.835266 
	C97.202766,288.907410 91.182678,281.034271 86.155464,272.651428 
	C81.173683,264.344330 76.233429,255.892731 75.948242,245.937332 
	C75.780121,240.068481 75.705368,233.702744 77.722847,228.367508 
	C82.031525,216.973206 79.734276,206.039383 78.663116,194.596024 
	C76.268906,169.018402 80.089600,144.679459 99.228241,125.323616 
	C108.806725,115.636429 123.212128,116.268684 133.273544,125.553429 
	C141.635223,133.269638 144.498199,143.306412 145.680420,153.678955 
	C146.969849,164.992096 151.610336,173.720642 160.181976,180.955933 
	C167.720734,187.319351 172.974197,195.492081 175.423203,205.071442 
	C179.599121,221.405685 189.777176,233.954193 199.935898,246.781113 
	C203.872116,251.751205 205.482986,258.574768 208.089066,264.581787 
	C209.533508,267.911255 210.845490,271.298187 212.265823,275.386597 
	C212.221344,276.745697 212.128204,277.377441 211.680817,278.020813 
	C209.350937,280.404541 207.080872,282.595551 205.479950,285.198151 
	C203.776077,287.968109 202.558975,288.536407 199.706421,286.372589 
	C185.170441,275.346252 175.593842,260.251923 166.739517,244.920319 
	C155.512375,225.480133 146.643631,204.839523 139.911926,183.332214 
	C136.839935,173.517441 133.423752,163.801315 129.864700,154.150711 
	C126.430374,144.838348 118.790413,140.908203 111.322304,145.308426 
	C107.592552,147.505997 104.493774,151.664429 102.418587,155.622284 
	C94.480690,170.761566 92.426506,187.521652 91.206955,204.182037 
	C89.821739,223.105682 91.599899,241.861633 95.834473,260.537506 
	C99.416092,276.333557 105.267273,291.028259 113.583153,304.635010 
	C123.008408,320.057007 135.720322,332.864319 149.838104,344.049805 
	C158.475266,350.893036 166.449005,358.955078 177.503510,362.301178 
	C178.282394,362.536926 178.472336,364.718414 178.486786,365.994324 
	C173.494049,366.362976 168.950653,366.732483 164.407272,367.101959 
	C164.316101,367.936432 164.224930,368.770905 164.133759,369.605408 
	C169.379715,371.089722 174.625671,372.574066 179.890793,374.513855 
	C179.909943,378.429504 179.909943,381.889709 179.909943,386.718964 
	C171.023300,382.937256 162.941620,379.618896 154.960281,376.074615 
	C141.456879,370.078094 129.622101,361.642212 119.502815,350.894165 
	C114.842819,345.944580 110.579315,340.624023 106.046219,335.551941 
	C102.281837,331.339996 97.578926,329.729218 92.123016,331.518524 
	C87.504631,333.033142 83.639046,338.820587 84.129517,344.766571 
	C84.739433,352.160614 85.486382,359.722778 87.616028,366.777008 
	C93.120636,385.010406 102.395607,401.343567 116.774857,414.013031 
	C126.561966,422.636383 136.909622,430.909882 148.026505,437.660217 
	C160.069595,444.973022 173.576859,449.610199 187.596481,452.091156 
	C196.047562,453.586700 204.571671,454.669495 213.120758,456.158508 
	C213.178558,456.379303 213.211258,456.834564 212.892395,457.002991 
	C211.379578,458.804779 210.185638,460.438141 208.991699,462.071503 
	C209.260696,462.522278 209.529709,462.973022 209.798721,463.423767 
	C212.217651,462.606659 214.636597,461.789520 217.353210,461.066467 
	C218.416046,461.466949 219.181229,461.773346 219.967896,462.425171 
	C222.758591,466.058441 225.527771,469.346252 229.039154,473.515289 
	C224.127167,474.120453 220.578842,474.834534 217.012772,474.938080 
	C210.027847,475.140839 203.015930,474.705933 196.048126,475.107208 
	C191.108719,475.391663 186.046265,476.158417 183.827209,481.897614 
	C181.584137,487.698914 184.264801,491.810394 188.096451,495.650299 
	C197.318069,504.891907 209.206421,508.989716 221.133545,513.259216 
	C241.319794,520.485291 260.829803,519.107178 280.063812,510.056885 
	C281.767120,509.255432 283.901642,509.370483 285.835907,509.059875 
M115.004501,326.496460 
	C112.236176,323.779938 109.467850,321.063385 105.972809,317.633728 
	C104.867615,325.071686 116.673203,338.967133 124.420746,340.504456 
	C121.214119,335.645691 118.362709,331.325104 115.004501,326.496460 
M154.444580,356.036469 
	C146.982498,352.544556 139.520401,349.052643 132.058319,345.560760 
	C131.745529,346.153656 131.432755,346.746552 131.119965,347.339478 
	C141.976379,352.110626 152.705734,357.067139 159.943924,367.117096 
	C160.400635,366.698151 160.857346,366.279175 161.314056,365.860199 
	C159.188171,362.761688 157.062286,359.663147 154.444580,356.036469 
M129.491577,345.615234 
	C129.491577,345.615234 129.588364,345.458252 129.588364,345.458252 
	C129.588364,345.458252 129.397339,345.475861 129.491577,345.615234 
z"/>
<path fill="#E47C81" opacity="1.000000" stroke="none" 
	d="
M572.919434,259.998871 
	C575.933838,262.177673 578.948181,264.356476 582.864624,267.187256 
	C584.856873,263.793945 587.710205,260.563843 588.756653,256.827667 
	C591.287109,247.793060 593.526062,238.600952 594.848389,229.324905 
	C596.198914,219.850220 596.297119,210.198334 596.998840,200.628082 
	C597.082153,199.491058 597.449402,198.359573 597.793701,197.259552 
	C599.545471,191.664307 602.362488,186.536377 608.379028,185.150024 
	C615.973572,183.400070 621.070984,188.087860 624.867126,193.878098 
	C635.994080,210.849655 640.563416,229.815536 640.988464,249.884033 
	C641.198364,259.794830 641.198425,269.716888 641.000183,279.628021 
	C640.622681,298.495819 632.436584,314.611694 621.734314,329.341919 
	C618.117493,334.319916 620.825439,337.925262 620.993652,343.054199 
	C621.002625,348.911469 621.002625,353.899353 621.002625,359.466797 
	C626.029724,356.892609 631.712585,348.521545 637.029419,337.113281 
	C638.172058,336.437256 639.309998,335.753204 640.457947,335.086426 
	C649.258362,329.974915 659.806824,334.299164 661.818665,344.287872 
	C665.583008,362.977570 661.953247,380.450745 650.543213,395.638031 
	C645.131042,402.841919 638.271179,409.175537 631.211975,414.837158 
	C627.408875,417.887268 621.884521,419.856903 616.985291,420.209442 
	C610.625366,420.667053 608.771118,424.404205 607.000732,429.474365 
	C606.949097,429.824036 606.510742,429.948029 606.283752,429.962891 
	C598.439575,424.171295 592.540833,417.209595 590.712524,406.840637 
	C590.546692,406.281372 590.497986,405.860687 590.960144,405.908447 
	C616.031372,405.621582 635.098022,384.589905 638.598755,373.820465 
	C633.877258,376.440796 629.385193,380.578308 624.380920,381.337006 
	C616.014343,382.605408 607.314941,381.861847 598.772217,381.533752 
	C597.796997,381.496307 596.298767,378.766693 596.122803,377.166626 
	C595.496460,371.471741 595.336792,365.725525 595.015991,359.545959 
	C595.260986,357.925659 595.490356,356.758118 595.999390,355.591614 
	C601.343079,348.575775 609.402893,351.114807 615.314697,350.393738 
	C608.594788,347.678009 601.558533,344.834442 594.336121,341.730011 
	C593.711487,340.032867 593.273010,338.596527 592.853699,336.752838 
	C591.151428,332.149109 592.213257,329.015106 595.532959,325.737885 
	C600.337463,320.994873 605.341919,316.046936 608.620300,310.257355 
	C614.046875,300.674255 619.387329,290.799255 619.205994,279.126099 
	C618.961853,263.407776 619.111206,247.681412 618.691650,231.969162 
	C618.591919,228.234879 616.903748,224.543030 615.823486,220.356125 
	C614.695557,228.950302 614.153320,236.906815 612.496765,244.624115 
	C610.850952,252.291321 608.649170,259.951019 605.662170,267.189331 
	C602.145630,275.710388 595.765137,281.927582 587.044067,285.539215 
	C581.302734,287.916870 575.660950,290.534698 569.724670,292.882874 
	C569.312866,292.166626 569.151001,291.612549 569.218262,290.781952 
	C569.497498,280.210571 564.873169,269.383698 572.919434,259.998871 
z"/>
<path fill="#813138" opacity="1.000000" stroke="none" 
	d="
M212.035065,278.009155 
	C212.128204,277.377441 212.221344,276.745697 212.274658,275.797607 
	C266.448456,215.274841 335.971527,194.180847 414.533295,196.793304 
	C432.630554,197.395111 450.703644,199.396957 468.143127,204.956390 
	C469.066162,205.250641 470.127930,205.109634 471.534973,205.185608 
	C471.922363,205.538284 472.053772,205.798981 472.555176,206.497421 
	C476.684662,215.771362 480.598083,224.529953 484.271484,233.576324 
	C482.349243,233.986038 480.606232,234.443268 478.999115,234.151566 
	C476.562805,233.709396 474.247437,232.644577 471.835114,232.020386 
	C442.808960,224.509705 413.422577,220.621964 383.358978,222.734650 
	C358.970337,224.448532 335.175873,228.808044 312.319092,237.652191 
	C304.260101,240.770508 296.569946,245.178375 288.276337,247.283173 
	C271.589447,251.518051 257.234680,259.612579 243.943604,270.220306 
	C232.032043,279.727020 221.761307,290.684113 213.063553,302.638947 
	C212.757156,294.111389 212.396118,286.060272 212.035065,278.009155 
z"/>
<path fill="#F96D5B" opacity="1.000000" stroke="none" 
	d="
M770.156677,333.606812 
	C769.648865,339.187836 769.190430,344.331360 768.764343,349.477570 
	C768.474731,352.975525 767.267334,355.884460 763.226929,355.813660 
	C759.347351,355.745697 758.602539,352.758789 758.241516,349.535858 
	C757.597046,343.782532 756.791382,338.047241 756.109924,332.746033 
	C746.861328,332.746033 738.273376,332.640350 729.695923,332.892273 
	C728.725769,332.920776 727.240723,334.844788 726.981018,336.094788 
	C726.102295,340.324860 726.022095,344.744049 724.890076,348.886932 
	C724.431519,350.564972 721.979248,352.879608 720.560608,352.794586 
	C719.020935,352.702393 716.399475,350.160675 716.391602,348.675629 
	C716.362427,343.219025 717.481934,337.765015 717.637573,332.294922 
	C717.715515,329.553345 717.201477,326.497742 715.976135,324.080444 
	C713.690369,319.571381 713.651306,315.308594 717.802856,311.372772 
	C721.034851,308.308807 722.581848,304.830231 723.410583,300.630096 
	C725.580872,289.631561 730.348816,279.991608 737.920959,271.533813 
	C748.062866,260.205688 762.924255,262.166199 768.948914,276.092773 
	C773.670959,287.008118 773.406921,298.492950 772.517395,310.022247 
	C772.415100,311.347504 772.289062,312.672150 772.241394,313.999512 
	C772.231506,314.274628 772.520630,314.560486 773.220093,315.858887 
	C778.050537,312.666199 782.881958,309.610687 787.559692,306.335510 
	C791.032166,303.904236 799.566467,303.195312 802.625916,305.760193 
	C803.874573,306.807007 804.452637,308.818726 805.002197,310.500458 
	C806.174500,314.087921 807.128784,317.746643 808.416016,322.223206 
	C810.807861,320.568665 812.363953,319.053070 814.227051,318.343597 
	C815.695251,317.784485 818.206421,317.555664 819.039734,318.391327 
	C819.936951,319.291138 819.836304,321.720093 819.399658,323.263702 
	C818.974182,324.768036 817.587097,326.006592 816.598511,327.344360 
	C812.602844,332.751495 813.392334,337.837738 818.896484,341.961548 
	C819.561035,342.459473 820.489868,342.723328 820.951660,343.349670 
	C822.115356,344.928192 823.082275,346.651855 824.128052,348.317322 
	C821.804565,349.123199 818.655701,351.287598 817.316467,350.473785 
	C813.663940,348.254333 810.758118,344.795685 807.600342,341.782043 
	C807.034363,341.241821 806.677734,340.482239 805.228699,338.377777 
	C803.296692,340.867249 801.999573,343.298187 800.012634,344.840240 
	C798.614319,345.925476 796.278137,345.802185 794.360657,346.218445 
	C794.126587,344.153320 793.709595,342.084869 793.747070,340.024689 
	C793.762451,339.181976 794.578735,338.095917 795.340454,337.564941 
	C802.344604,332.682648 802.009033,326.653015 798.536682,319.832153 
	C797.445984,317.689606 797.158447,315.138214 796.352234,312.228973 
	C794.960388,313.099030 793.898438,313.741974 792.857361,314.417053 
	C787.296082,318.023376 781.973877,322.098358 776.097351,325.082336 
	C772.377380,326.971252 770.174011,328.999603 770.156677,333.606812 
M750.299683,274.368286 
	C739.976562,280.859009 735.442932,290.817108 733.123413,302.904388 
	C745.721313,301.217468 754.518433,307.070343 762.169250,316.466187 
	C763.004272,308.431488 763.474060,300.778473 762.838623,293.218323 
	C762.417236,288.203766 760.747070,283.200500 759.003540,278.422943 
	C757.792664,275.104919 755.005798,273.129730 750.299683,274.368286 
M732.927185,323.043732 
	C739.202271,322.866516 745.477417,322.689301 752.454407,322.492279 
	C747.529907,313.864227 739.873291,310.362396 732.918396,313.205048 
	C731.188538,313.912079 729.849243,316.749115 729.363037,318.846436 
	C729.105896,319.955780 731.070068,321.580017 732.927185,323.043732 
z"/>
<path fill="#F86D5B" opacity="1.000000" stroke="none" 
	d="
M742.268860,198.224945 
	C741.745117,201.891479 741.620850,205.212509 741.381409,208.525192 
	C741.147766,211.758011 740.143127,214.720245 736.295532,214.711502 
	C732.564026,214.703018 731.187378,212.046997 731.149048,208.637695 
	C731.113525,205.473694 731.428040,202.288849 731.163269,199.149063 
	C730.898071,196.004745 729.798218,192.920410 729.639587,189.780716 
	C729.503967,187.094864 730.047852,184.343094 730.538391,181.665771 
	C731.066772,178.781815 732.496460,175.943268 732.462708,173.097595 
	C732.342407,162.958084 731.588867,152.824936 731.533020,142.686874 
	C731.523254,140.919281 733.659180,137.756622 734.926025,137.693680 
	C736.765198,137.602310 740.061035,139.462875 740.379272,140.983963 
	C741.596680,146.803223 742.004761,152.809662 742.449219,158.766068 
	C742.718262,162.371765 742.498779,166.013916 742.498779,170.392548 
	C754.670410,167.479614 766.067078,165.542877 775.049255,176.487228 
	C775.361023,176.209167 775.672729,175.931122 775.984497,175.653076 
	C775.984497,171.431381 776.206726,167.195389 775.936279,162.991089 
	C775.437805,155.242310 774.427551,147.520004 774.152954,139.768158 
	C774.091187,138.024063 775.838928,135.102188 777.341614,134.641846 
	C780.756042,133.595825 783.716309,135.514786 784.519653,139.064667 
	C785.283447,142.440063 785.432312,145.999084 785.482971,149.482712 
	C785.608826,158.131195 785.524292,166.782745 785.524292,176.816055 
	C788.390747,175.099503 790.151855,174.114456 791.840637,173.018051 
	C794.761658,171.121750 797.963562,169.155304 800.591431,172.854416 
	C803.047424,176.311539 800.628906,179.055084 797.663879,180.583099 
	C788.344971,185.385590 783.665527,192.304871 785.471191,203.203461 
	C785.732910,204.782883 783.011658,208.331406 781.621704,208.357498 
	C779.629028,208.394867 776.890686,206.461197 775.738586,204.588882 
	C774.050964,201.846161 773.485596,198.412827 772.681213,195.993393 
	C762.355530,196.639923 752.486755,197.257843 742.268860,198.224945 
M763.070129,186.857040 
	C764.741638,186.322952 766.413147,185.788879 768.439636,185.141373 
	C767.666809,183.773041 767.321899,182.843414 766.715149,182.139450 
	C762.449097,177.189590 752.296082,176.382019 745.081360,180.709824 
	C743.700867,181.537888 742.569214,183.670471 742.435913,185.292694 
	C742.374146,186.044235 744.983826,187.752823 746.385132,187.755844 
	C751.664429,187.767166 756.944946,187.255844 763.070129,186.857040 
z"/>
<path fill="#F7705E" opacity="1.000000" stroke="none" 
	d="
M843.648499,330.947296 
	C843.047974,335.329834 842.583313,339.330719 842.118713,343.331604 
	C842.692505,343.464844 843.266296,343.598053 843.840149,343.731293 
	C844.939758,341.072723 845.671387,338.175354 847.211060,335.802338 
	C851.152283,329.728058 854.799561,323.250336 859.790649,318.128906 
	C864.952515,312.832214 871.521057,312.805634 876.190430,316.159027 
	C881.067749,319.661743 882.959290,326.033142 880.181946,332.787262 
	C875.038025,345.296661 865.572815,353.498047 853.010132,358.228302 
	C851.799927,358.684052 850.516357,358.944733 848.981140,359.376221 
	C848.981140,361.799438 849.159729,364.122681 848.905701,366.397644 
	C848.778809,367.534393 848.107605,368.980835 847.215881,369.531952 
	C846.618042,369.901337 844.994751,369.187592 844.202332,368.518188 
	C843.232178,367.698425 842.074158,366.457947 841.997375,365.331207 
	C841.582031,359.233154 838.104065,354.488251 835.770020,349.158478 
	C830.661987,337.494659 834.800537,326.686127 841.431824,316.811584 
	C842.786316,314.794617 845.593994,312.873199 847.904480,312.643219 
	C849.932922,312.441376 853.198975,314.153900 854.134277,315.949921 
	C855.543640,318.656555 853.255615,320.173676 850.341553,320.861938 
	C845.367615,322.036713 845.392029,326.924561 843.648499,330.947296 
M868.539856,336.969788 
	C869.987671,334.570007 871.979797,332.322937 872.709595,329.721710 
	C873.284058,327.674255 872.301819,325.190094 872.011047,322.899902 
	C869.745605,323.221283 866.872131,322.769989 865.316772,323.993805 
	C857.317444,330.288025 853.971985,339.340088 850.684204,349.718170 
	C858.542542,347.073425 863.191711,342.139282 868.539856,336.969788 
z"/>
<path fill="#F86D5B" opacity="1.000000" stroke="none" 
	d="
M897.995239,253.955505 
	C903.540833,252.622696 905.327698,253.642273 905.328613,258.810730 
	C905.330322,268.450134 904.868225,278.089996 904.575806,287.728943 
	C904.207520,299.865845 903.827698,312.002472 903.422546,324.138184 
	C903.356201,326.126007 903.631165,328.343018 902.837646,330.024261 
	C902.118652,331.547668 900.201050,333.357544 898.729553,333.432922 
	C897.269836,333.507660 895.033936,331.892029 894.353394,330.445923 
	C893.415955,328.454163 893.294556,325.912354 893.385193,323.628448 
	C894.249512,301.861115 895.208618,280.097412 896.238098,258.337250 
	C896.304138,256.940735 897.179382,255.582535 897.995239,253.955505 
z"/>
<path fill="#F67262" opacity="1.000000" stroke="none" 
	d="
M833.991089,157.819260 
	C834.085754,160.431610 834.692322,163.152863 833.694702,165.014282 
	C830.016174,171.877487 823.357300,174.503479 816.132446,175.801132 
	C812.893188,176.382935 809.563538,176.461258 805.228088,176.865723 
	C806.374390,172.201477 806.832214,166.784042 809.057251,162.229996 
	C811.555481,157.116638 815.952820,154.199097 822.626831,155.722305 
	C826.220276,156.542435 830.510376,153.720444 833.991089,157.819260 
M818.273865,166.656555 
	C817.603149,167.486862 816.932373,168.317169 815.560120,170.015839 
	C821.712646,168.265030 826.996277,167.339935 829.708801,162.073822 
	C829.395081,161.510376 829.081421,160.946930 828.767700,160.383484 
	C825.452698,162.332123 822.137695,164.280777 818.273865,166.656555 
z"/>
<path fill="#F7705E" opacity="1.000000" stroke="none" 
	d="
M813.492676,211.394012 
	C813.714478,201.883987 813.972473,192.657684 814.800293,183.482803 
	C814.912842,182.235748 818.135925,180.116791 819.455078,180.419846 
	C821.144104,180.807877 823.565613,183.230728 823.581055,184.797348 
	C823.657715,192.584702 823.348633,200.408905 822.574097,208.160034 
	C822.046997,213.435440 818.488281,214.615005 813.492676,211.394012 
z"/>
<path fill="#F0796A" opacity="1.000000" stroke="none" 
	d="
M912.277588,347.175079 
	C913.089417,348.850372 914.294128,350.709747 913.832336,351.947144 
	C911.696533,357.669861 902.359619,363.372375 896.837402,361.383240 
	C894.261475,360.455322 891.447266,355.919983 891.570923,353.145935 
	C891.666199,351.008606 897.157166,346.834747 898.550659,347.444916 
	C903.393188,349.565308 907.513306,346.191864 912.277588,347.175079 
M908.214783,351.115082 
	C905.091980,352.738464 901.969238,354.361847 898.846436,355.985260 
	C899.199890,356.592041 899.553284,357.198822 899.906677,357.805603 
	C904.180664,357.790741 906.995605,355.424988 908.214783,351.115082 
z"/>
<path fill="#FECCCB" opacity="1.000000" stroke="none" 
	d="
M213.008881,303.115387 
	C221.761307,290.684113 232.032043,279.727020 243.943604,270.220306 
	C257.234680,259.612579 271.589447,251.518051 288.276337,247.283173 
	C296.569946,245.178375 304.260101,240.770508 312.319092,237.652191 
	C335.175873,228.808044 358.970337,224.448532 383.358978,222.734650 
	C413.422577,220.621964 442.808960,224.509705 471.835114,232.020386 
	C474.247437,232.644577 476.562805,233.709396 478.999115,234.151566 
	C480.606232,234.443268 482.349243,233.986038 484.511536,233.568192 
	C485.309906,233.212326 485.630890,233.188126 485.988831,233.536148 
	C487.237213,235.628281 488.168030,237.697449 489.709686,239.090622 
	C503.852264,251.871323 520.639771,259.333801 539.295898,263.473297 
	C539.623169,263.604126 539.781616,263.546509 539.856812,263.880829 
	C549.512024,273.201324 559.250549,282.129883 568.989075,291.058441 
	C569.151001,291.612549 569.312866,292.166626 569.733154,293.305023 
	C571.506348,306.464355 575.416626,318.131775 583.590698,328.000122 
	C586.344543,331.324738 589.735046,334.121948 592.834595,337.160217 
	C593.273010,338.596527 593.711487,340.032867 594.436340,342.187134 
	C595.055115,347.133575 595.387451,351.362091 595.719727,355.590576 
	C595.490356,356.758118 595.260986,357.925659 594.687500,359.716217 
	C588.345093,375.114624 587.451843,390.321289 590.497986,405.860687 
	C590.497986,405.860687 590.546692,406.281372 590.696289,406.426575 
	C589.790833,407.416107 588.244995,408.039978 587.752380,409.136902 
	C574.323608,439.033905 551.628662,460.170776 524.019226,476.626404 
	C509.579163,485.232910 494.423462,492.271973 477.999023,496.246887 
	C475.413361,496.872650 474.959717,498.116852 475.491150,500.552124 
	C478.595245,514.775940 479.391357,529.281067 477.891815,543.634583 
	C473.917450,581.678040 440.567200,616.818176 400.163177,612.052246 
	C381.377258,609.836304 366.407166,600.358398 354.665192,585.787598 
	C337.403351,564.366882 332.928864,539.627075 336.300568,512.951111 
	C336.632935,510.321625 336.860229,507.678802 337.201813,504.416107 
	C326.643158,501.206970 317.435608,494.813019 305.613098,495.020416 
	C297.633423,495.160400 289.611877,492.911041 280.922821,491.727234 
	C279.890656,491.720215 279.544678,491.716431 279.096832,491.405518 
	C274.560577,486.679352 270.232727,482.146149 265.656952,477.878784 
	C262.229828,474.682739 258.483337,471.829071 254.933746,468.485413 
	C255.964386,466.669373 256.940338,465.190857 257.961243,463.644318 
	C252.638718,458.882629 246.850632,454.775482 242.452026,449.508057 
	C236.466568,442.340302 229.989487,438.358551 220.495544,441.128204 
	C219.464905,441.428894 218.208771,440.956787 217.041473,440.398041 
	C216.804489,436.849976 216.939606,433.670715 216.294754,430.658417 
	C214.414871,421.876953 212.223221,413.162292 210.448486,404.439758 
	C210.686707,402.998535 210.850525,401.489563 210.535965,400.087952 
	C209.122421,393.789215 206.982162,387.591736 206.219269,381.224121 
	C205.222885,372.907654 205.277939,364.465240 204.836639,355.829651 
	C204.547455,355.361938 204.302246,355.141541 204.096619,354.528687 
	C205.292526,348.328735 206.606979,342.547333 207.569351,336.707886 
	C209.145737,327.142700 210.493210,317.539825 212.089569,307.625366 
	C212.497589,305.903748 212.753235,304.509552 213.008881,303.115387 
M460.479858,434.074829 
	C468.310181,432.603058 474.658691,428.654541 479.985046,422.778748 
	C493.043182,408.373505 496.193909,391.200928 494.347687,372.550842 
	C493.134003,360.290192 487.947723,349.866669 479.576660,341.031372 
	C464.214172,324.816803 441.057281,325.451263 426.442535,342.341248 
	C408.230713,363.388275 407.310547,397.807404 424.717163,419.595612 
	C433.572083,430.679413 444.790009,436.994415 460.479858,434.074829 
M352.254486,384.058350 
	C352.750092,371.479767 349.108490,360.140259 342.187469,349.709290 
	C329.004211,329.840240 302.248260,326.679260 284.929749,343.013916 
	C264.948578,361.859955 263.648163,397.655457 282.209595,417.889160 
	C299.017151,436.210968 324.168762,435.963989 340.222839,417.053619 
	C348.010712,407.880157 351.762848,396.960968 352.254486,384.058350 
M407.258667,469.739258 
	C415.685425,459.943909 415.965668,449.053680 411.593628,437.534027 
	C410.403687,434.398743 408.513672,433.353851 405.022278,434.317291 
	C391.584015,438.025635 378.106812,441.609192 364.564484,444.912567 
	C361.106323,445.756104 360.274445,447.632111 360.580902,450.549561 
	C361.754089,461.718933 365.580750,471.387726 376.825500,475.987762 
	C387.910217,480.522247 397.965851,478.363190 407.258667,469.739258 
z"/>
<path fill="#E47C81" opacity="1.000000" stroke="none" 
	d="
M279.198730,491.712646 
	C279.544678,491.716431 279.890656,491.720215 280.490936,491.771057 
	C282.508057,497.291443 284.270844,502.764771 285.934784,508.648956 
	C283.901642,509.370483 281.767120,509.255432 280.063812,510.056885 
	C260.829803,519.107178 241.319794,520.485291 221.133545,513.259216 
	C209.206421,508.989716 197.318069,504.891907 188.096451,495.650299 
	C184.264801,491.810394 181.584137,487.698914 183.827209,481.897614 
	C186.046265,476.158417 191.108719,475.391663 196.048126,475.107208 
	C203.015930,474.705933 210.027847,475.140839 217.012772,474.938080 
	C220.578842,474.834534 224.127167,474.120453 229.039154,473.515289 
	C225.527771,469.346252 222.758591,466.058441 220.407501,462.294495 
	C232.279816,462.575226 243.359360,464.894653 253.781494,470.086853 
	C246.738037,483.265228 235.112030,489.523041 221.353180,493.096649 
	C227.149673,495.089081 232.765533,497.224274 238.541153,497.825958 
	C244.663757,498.463745 251.044342,498.292297 257.119110,497.296265 
	C264.583466,496.072388 271.847870,493.628906 279.198730,491.712646 
z"/>
<path fill="#FCCAC9" opacity="1.000000" stroke="none" 
	d="
M480.545776,655.912109 
	C470.260529,656.684387 460.492554,656.602600 451.048218,653.280151 
	C442.746307,650.359619 440.976227,643.628479 447.139893,637.246582 
	C449.345093,634.963318 452.429108,632.791565 455.445862,632.157654 
	C468.091980,629.500366 480.674927,630.204895 492.220123,636.421509 
	C495.674133,638.281372 497.946442,642.335876 500.760132,645.384888 
	C497.559204,648.072021 494.653290,651.291382 491.065186,653.279968 
	C488.132660,654.905212 484.386017,655.061646 480.545776,655.912109 
z"/>
<path fill="#FBC9C8" opacity="1.000000" stroke="none" 
	d="
M396.601166,658.789551 
	C385.124878,661.090393 373.959320,663.438904 362.827484,659.818665 
	C359.521332,658.743408 356.794189,655.887817 353.801758,653.848022 
	C356.333038,651.187988 358.397644,647.631409 361.478760,646.027649 
	C372.985016,640.038696 385.040131,640.105591 397.079437,644.627502 
	C398.901978,645.312073 400.609711,646.510193 402.124756,647.767090 
	C406.765472,651.616882 406.220795,655.000488 400.712250,657.266602 
	C399.485138,657.771423 398.233887,658.217590 396.601166,658.789551 
z"/>
<path fill="#FBC8C7" opacity="1.000000" stroke="none" 
	d="
M322.117615,594.813416 
	C326.057922,600.208557 329.783356,605.310608 334.096191,611.217102 
	C327.895813,615.714844 321.979095,620.541382 315.534729,624.511475 
	C310.431641,627.655273 308.372131,626.422729 307.544495,620.551758 
	C305.902802,608.906006 309.110504,597.754028 311.437561,586.533936 
	C311.900848,584.300293 312.697113,582.135681 313.581085,579.114807 
	C316.588196,584.681702 319.245483,589.601013 322.117615,594.813416 
z"/>
<path fill="#FBC8C7" opacity="1.000000" stroke="none" 
	d="
M538.363159,516.339111 
	C530.474976,528.109131 521.881531,538.735535 510.125732,547.464600 
	C510.125732,541.018494 510.113159,535.318420 510.149780,529.618652 
	C510.152710,529.162537 510.377869,528.591858 510.697235,528.270813 
	C518.958618,519.964600 523.491821,508.171143 534.541565,502.524811 
	C536.899719,501.319794 539.712463,501.004395 542.315796,500.279205 
	C542.271912,502.982544 542.681335,505.795837 542.059509,508.358948 
	C541.408997,511.040283 539.767151,513.481079 538.363159,516.339111 
z"/>
<path fill="#E47C81" opacity="1.000000" stroke="none" 
	d="
M539.940063,263.488922 
	C539.781616,263.546509 539.623169,263.604126 539.559143,263.137207 
	C540.227417,261.429138 540.809631,260.249603 541.373718,259.061432 
	C545.977173,249.364609 552.342590,240.082199 554.749695,229.867279 
	C558.060974,215.815781 558.973877,201.093842 559.833984,186.595062 
	C561.075195,165.671844 559.254089,144.798599 555.988647,124.120438 
	C552.946350,104.855934 549.480713,85.651535 545.745728,66.509590 
	C545.098022,63.189739 542.184692,60.311951 540.317810,57.229980 
	C539.594727,57.451782 538.871643,57.673580 538.148560,57.895382 
	C538.148560,67.826019 537.490662,77.809769 538.287170,87.676109 
	C539.885254,107.472733 539.695129,127.243088 536.336121,146.716156 
	C533.699402,162.001617 529.375610,177.044846 525.043213,191.975708 
	C520.419067,207.911789 511.733154,220.697205 495.085083,226.648544 
	C491.694275,227.860672 488.980469,230.966690 485.954559,233.199631 
	C485.630890,233.188126 485.309906,233.212326 484.751587,233.280396 
	C480.598083,224.529953 476.684662,215.771362 472.748535,206.618423 
	C473.387573,206.191315 474.065704,206.048370 474.708405,206.143936 
	C478.515381,206.709976 483.045166,208.937531 485.967072,207.607651 
	C492.533264,204.619141 498.717773,200.126266 501.094757,192.635727 
	C505.553009,178.586624 510.371887,164.602097 513.840576,150.299637 
	C520.285461,123.725304 518.901245,96.518326 519.103149,69.452782 
	C519.148315,63.391571 519.935669,57.163193 521.540283,51.330605 
	C523.489563,44.245358 528.150940,39.134438 536.010925,37.963272 
	C545.380798,36.567112 551.307007,41.475384 556.366394,48.586426 
	C566.438843,62.743431 569.037415,79.579224 572.695618,95.789024 
	C576.324463,111.868889 578.214844,128.407822 579.871399,144.845810 
	C581.300110,159.023102 582.130493,173.362625 581.757446,187.591934 
	C581.354736,202.955215 579.761963,218.345871 577.627930,233.576004 
	C576.788940,239.563797 573.362427,245.293243 570.546692,250.852859 
	C569.269653,253.374313 569.330994,255.072083 570.762329,257.646118 
	C561.228210,265.061005 550.849854,265.827667 539.940063,263.488922 
z"/>
<path fill="#843339" opacity="1.000000" stroke="none" 
	d="
M539.856812,263.880829 
	C550.849854,265.827667 561.228210,265.061005 570.821594,257.975281 
	C571.645752,258.261749 572.220032,258.820007 572.856934,259.688568 
	C564.873169,269.383698 569.497498,280.210571 569.218262,290.781952 
	C559.250549,282.129883 549.512024,273.201324 539.856812,263.880829 
z"/>
<path fill="#FE9C9F" opacity="1.000000" stroke="none" 
	d="
M637.019714,336.705627 
	C631.712585,348.521545 626.029724,356.892609 621.002625,359.466797 
	C621.002625,353.899353 621.002625,348.911469 621.018738,343.455139 
	C622.215942,342.550140 623.796631,342.456421 624.513428,341.621338 
	C629.194092,336.167969 633.687683,330.554047 638.242493,324.992584 
	C638.801819,325.251190 639.361145,325.509796 639.920532,325.768402 
	C638.950378,329.278259 637.980164,332.788116 637.019714,336.705627 
z"/>
<path fill="#FE9B9F" opacity="1.000000" stroke="none" 
	d="
M581.327637,236.302002 
	C583.398621,230.607178 585.298889,225.250839 587.047058,220.323288 
	C590.569214,225.815323 582.827087,248.422791 573.627380,253.154221 
	C574.626892,250.323242 575.436035,247.405334 576.678711,244.685486 
	C577.950195,241.902710 579.646545,239.314102 581.327637,236.302002 
z"/>
<path fill="#FFFFFF" opacity="1.000000" stroke="none" 
	d="
M642.043823,320.050842 
	C641.925171,320.089447 641.769714,320.088684 641.770874,320.013123 
	C641.927551,319.938324 642.006897,320.011505 642.043823,320.050842 
z"/>
<path fill="#FE9B9F" opacity="1.000000" stroke="none" 
	d="
M573.447998,255.532349 
	C573.413574,255.474854 573.482483,255.589828 573.447998,255.532349 
z"/>
<path fill="#E47C81" opacity="1.000000" stroke="none" 
	d="
M213.063538,302.638947 
	C212.753235,304.509552 212.497589,305.903748 211.674316,307.642395 
	C204.262360,309.834412 197.515182,309.983429 191.532730,305.632904 
	C186.979294,302.321625 182.612839,298.704132 178.463181,294.895966 
	C166.205246,283.646820 157.011917,269.894318 149.055603,255.559921 
	C136.952072,233.753754 127.011055,210.904648 120.918808,186.558151 
	C119.718521,181.761429 118.121918,177.063889 116.708092,172.320602 
	C116.287132,172.406097 115.866173,172.491577 115.445213,172.577072 
	C114.301918,181.509445 112.691299,190.411438 112.108627,199.380234 
	C110.720528,220.746796 113.024994,241.714218 118.906410,262.417480 
	C124.161469,280.915955 133.378494,296.891785 146.364731,310.848724 
	C161.254501,326.851532 179.209412,339.007141 197.215408,351.079193 
	C199.381073,352.531189 201.771027,353.648651 204.057037,354.921143 
	C204.302246,355.141541 204.547455,355.361938 204.501465,355.871460 
	C200.015472,361.293091 195.820679,366.425629 191.303467,371.952606 
	C191.520508,372.266571 192.122238,373.204620 192.790237,374.092804 
	C199.384171,382.860321 205.486877,391.893829 207.934845,402.773956 
	C205.177582,403.130707 202.881317,403.428070 200.577042,403.637329 
	C192.182907,404.399658 183.460236,406.953033 175.454132,405.519958 
	C155.081650,401.873199 137.141388,391.940216 120.443932,379.887360 
	C116.974884,377.383179 113.853012,374.398071 110.571136,371.634583 
	C110.198288,371.954315 109.825439,372.274048 109.452599,372.593781 
	C113.454979,378.380707 117.032547,384.523590 121.532440,389.893585 
	C142.271088,414.642151 169.967773,427.741058 200.323059,436.285065 
	C205.647720,437.783783 210.849747,439.718262 216.177338,441.860901 
	C215.185165,446.826080 214.124069,451.381927 213.062973,455.937744 
	C204.571671,454.669495 196.047562,453.586700 187.596481,452.091156 
	C173.576859,449.610199 160.069595,444.973022 148.026505,437.660217 
	C136.909622,430.909882 126.561966,422.636383 116.774857,414.013031 
	C102.395607,401.343567 93.120636,385.010406 87.616028,366.777008 
	C85.486382,359.722778 84.739433,352.160614 84.129517,344.766571 
	C83.639046,338.820587 87.504631,333.033142 92.123016,331.518524 
	C97.578926,329.729218 102.281837,331.339996 106.046219,335.551941 
	C110.579315,340.624023 114.842819,345.944580 119.502815,350.894165 
	C129.622101,361.642212 141.456879,370.078094 154.960281,376.074615 
	C162.941620,379.618896 171.023300,382.937256 179.909943,386.718964 
	C179.909943,381.889709 179.909943,378.429504 180.166016,374.231506 
	C183.443619,372.695099 186.465164,371.896484 189.486694,371.097900 
	C189.508865,370.486084 189.531036,369.874268 189.553223,369.262451 
	C186.014191,368.173340 182.475159,367.084229 178.936127,365.995117 
	C178.472336,364.718414 178.282394,362.536926 177.503510,362.301178 
	C166.449005,358.955078 158.475266,350.893036 149.838104,344.049805 
	C135.720322,332.864319 123.008408,320.057007 113.583153,304.635010 
	C105.267273,291.028259 99.416092,276.333557 95.834473,260.537506 
	C91.599899,241.861633 89.821739,223.105682 91.206955,204.182037 
	C92.426506,187.521652 94.480690,170.761566 102.418587,155.622284 
	C104.493774,151.664429 107.592552,147.505997 111.322304,145.308426 
	C118.790413,140.908203 126.430374,144.838348 129.864700,154.150711 
	C133.423752,163.801315 136.839935,173.517441 139.911926,183.332214 
	C146.643631,204.839523 155.512375,225.480133 166.739517,244.920319 
	C175.593842,260.251923 185.170441,275.346252 199.706421,286.372589 
	C202.558975,288.536407 203.776077,287.968109 205.479950,285.198151 
	C207.080872,282.595551 209.350937,280.404541 211.680817,278.020813 
	C212.396118,286.060272 212.757156,294.111389 213.063538,302.638947 
z"/>
<path fill="#823239" opacity="1.000000" stroke="none" 
	d="
M213.120758,456.158508 
	C214.124069,451.381927 215.185165,446.826080 216.431885,441.735107 
	C216.764069,441.081024 216.910645,440.962067 217.057236,440.843109 
	C218.208771,440.956787 219.464905,441.428894 220.495544,441.128204 
	C229.989487,438.358551 236.466568,442.340302 242.452026,449.508057 
	C246.850632,454.775482 252.638718,458.882629 257.961243,463.644318 
	C256.940338,465.190857 255.964386,466.669373 254.708679,468.571594 
	C254.142899,469.170624 253.944855,469.416687 253.834778,469.733521 
	C243.359360,464.894653 232.279816,462.575226 220.385986,461.949066 
	C219.181229,461.773346 218.416046,461.466949 217.209702,460.781372 
	C215.582779,459.212952 214.397018,458.023773 213.211258,456.834564 
	C213.211258,456.834564 213.178558,456.379303 213.120758,456.158508 
z"/>
<path fill="#FB9297" opacity="1.000000" stroke="none" 
	d="
M178.486786,365.994324 
	C182.475159,367.084229 186.014191,368.173340 189.553223,369.262451 
	C189.531036,369.874268 189.508865,370.486084 189.486694,371.097900 
	C186.465164,371.896484 183.443619,372.695099 180.146866,373.776062 
	C174.625671,372.574066 169.379715,371.089722 164.133759,369.605408 
	C164.224930,368.770905 164.316101,367.936432 164.407272,367.101959 
	C168.950653,366.732483 173.494049,366.362976 178.486786,365.994324 
z"/>
<path fill="#FE9B9F" opacity="1.000000" stroke="none" 
	d="
M115.257896,326.750488 
	C118.362709,331.325104 121.214119,335.645691 124.420746,340.504456 
	C116.673203,338.967133 104.867615,325.071686 105.972809,317.633728 
	C109.467850,321.063385 112.236176,323.779938 115.257896,326.750488 
z"/>
<path fill="#FFDEDF" opacity="1.000000" stroke="none" 
	d="
M154.690491,356.300537 
	C157.062286,359.663147 159.188171,362.761688 161.314056,365.860199 
	C160.857346,366.279175 160.400635,366.698151 159.943924,367.117096 
	C152.705734,357.067139 141.976379,352.110626 131.119965,347.339478 
	C131.432755,346.746552 131.745529,346.153656 132.058319,345.560760 
	C139.520401,349.052643 146.982498,352.544556 154.690491,356.300537 
z"/>
<path fill="#FFDEDF" opacity="1.000000" stroke="none" 
	d="
M212.892395,457.002991 
	C214.397018,458.023773 215.582779,459.212952 216.912018,460.687286 
	C214.636597,461.789520 212.217651,462.606659 209.798721,463.423767 
	C209.529709,462.973022 209.260696,462.522278 208.991699,462.071503 
	C210.185638,460.438141 211.379578,458.804779 212.892395,457.002991 
z"/>
<path fill="#FFDEDF" opacity="1.000000" stroke="none" 
	d="
M129.444458,345.545532 
	C129.397339,345.475861 129.588364,345.458252 129.588364,345.458252 
	C129.588364,345.458252 129.491577,345.615234 129.444458,345.545532 
z"/>
<path fill="#FE9C9F" opacity="1.000000" stroke="none" 
	d="
M592.853699,336.752838 
	C589.735046,334.121948 586.344543,331.324738 583.590698,328.000122 
	C575.416626,318.131775 571.506348,306.464355 569.983032,293.467163 
	C575.660950,290.534698 581.302734,287.916870 587.044067,285.539215 
	C595.765137,281.927582 602.145630,275.710388 605.662170,267.189331 
	C608.649170,259.951019 610.850952,252.291321 612.496765,244.624115 
	C614.153320,236.906815 614.695557,228.950302 615.823486,220.356125 
	C616.903748,224.543030 618.591919,228.234879 618.691650,231.969162 
	C619.111206,247.681412 618.961853,263.407776 619.205994,279.126099 
	C619.387329,290.799255 614.046875,300.674255 608.620300,310.257355 
	C605.341919,316.046936 600.337463,320.994873 595.532959,325.737885 
	C592.213257,329.015106 591.151428,332.149109 592.853699,336.752838 
z"/>
<path fill="#FE9C9F" opacity="1.000000" stroke="none" 
	d="
M590.960144,405.908447 
	C587.451843,390.321289 588.345093,375.114624 594.671875,360.168976 
	C595.336792,365.725525 595.496460,371.471741 596.122803,377.166626 
	C596.298767,378.766693 597.796997,381.496307 598.772217,381.533752 
	C607.314941,381.861847 616.014343,382.605408 624.380920,381.337006 
	C629.385193,380.578308 633.877258,376.440796 638.598755,373.820465 
	C635.098022,384.589905 616.031372,405.621582 590.960144,405.908447 
z"/>
<path fill="#89373E" opacity="1.000000" stroke="none" 
	d="
M595.999512,355.591614 
	C595.387451,351.362091 595.055115,347.133575 594.622559,342.447968 
	C601.558533,344.834442 608.594788,347.678009 615.314697,350.393738 
	C609.402893,351.114807 601.343079,348.575775 595.999512,355.591614 
z"/>
<path fill="#FEF8F6" opacity="1.000000" stroke="none" 
	d="
M750.670593,274.246613 
	C755.005798,273.129730 757.792664,275.104919 759.003540,278.422943 
	C760.747070,283.200500 762.417236,288.203766 762.838623,293.218323 
	C763.474060,300.778473 763.004272,308.431488 762.169250,316.466187 
	C754.518433,307.070343 745.721313,301.217468 733.123413,302.904388 
	C735.442932,290.817108 739.976562,280.859009 750.670593,274.246613 
z"/>
<path fill="#FEF2F0" opacity="1.000000" stroke="none" 
	d="
M732.479248,323.007751 
	C731.070068,321.580017 729.105896,319.955780 729.363037,318.846436 
	C729.849243,316.749115 731.188538,313.912079 732.918396,313.205048 
	C739.873291,310.362396 747.529907,313.864227 752.454407,322.492279 
	C745.477417,322.689301 739.202271,322.866516 732.479248,323.007751 
z"/>
<path fill="#FEF2F0" opacity="1.000000" stroke="none" 
	d="
M762.647583,186.898651 
	C756.944946,187.255844 751.664429,187.767166 746.385132,187.755844 
	C744.983826,187.752823 742.374146,186.044235 742.435913,185.292694 
	C742.569214,183.670471 743.700867,181.537888 745.081360,180.709824 
	C752.296082,176.382019 762.449097,177.189590 766.715149,182.139450 
	C767.321899,182.843414 767.666809,183.773041 768.439636,185.141373 
	C766.413147,185.788879 764.741638,186.322952 762.647583,186.898651 
z"/>
<path fill="#FEF2F0" opacity="1.000000" stroke="none" 
	d="
M868.286011,337.224243 
	C863.191711,342.139282 858.542542,347.073425 850.684204,349.718170 
	C853.971985,339.340088 857.317444,330.288025 865.316772,323.993805 
	C866.872131,322.769989 869.745605,323.221283 872.011047,322.899902 
	C872.301819,325.190094 873.284058,327.674255 872.709595,329.721710 
	C871.979797,332.322937 869.987671,334.570007 868.286011,337.224243 
z"/>
<path fill="#FFDEDF" opacity="1.000000" stroke="none" 
	d="
M818.548279,166.442993 
	C822.137695,164.280777 825.452698,162.332123 828.767700,160.383484 
	C829.081421,160.946930 829.395081,161.510376 829.708801,162.073822 
	C826.996277,167.339935 821.712646,168.265030 815.560120,170.015839 
	C816.932373,168.317169 817.603149,167.486862 818.548279,166.442993 
z"/>
<path fill="#FECCCB" opacity="1.000000" stroke="none" 
	d="
M908.525879,351.302887 
	C906.995605,355.424988 904.180664,357.790741 899.906677,357.805603 
	C899.553284,357.198822 899.199890,356.592041 898.846436,355.985260 
	C901.969238,354.361847 905.091980,352.738464 908.525879,351.302887 
z"/>
<path fill="#FE9C9F" opacity="1.000000" stroke="none" 
	d="
M485.988831,233.536148 
	C488.980469,230.966690 491.694275,227.860672 495.085083,226.648544 
	C511.733154,220.697205 520.419067,207.911789 525.043213,191.975708 
	C529.375610,177.044846 533.699402,162.001617 536.336121,146.716156 
	C539.695129,127.243088 539.885254,107.472733 538.287170,87.676109 
	C537.490662,77.809769 538.148560,67.826019 538.148560,57.895382 
	C538.871643,57.673580 539.594727,57.451782 540.317810,57.229980 
	C542.184692,60.311951 545.098022,63.189739 545.745728,66.509590 
	C549.480713,85.651535 552.946350,104.855934 555.988647,124.120438 
	C559.254089,144.798599 561.075195,165.671844 559.833984,186.595062 
	C558.973877,201.093842 558.060974,215.815781 554.749695,229.867279 
	C552.342590,240.082199 545.977173,249.364609 541.373718,259.061432 
	C540.809631,260.249603 540.227417,261.429138 539.390381,262.948761 
	C520.639771,259.333801 503.852264,251.871323 489.709686,239.090622 
	C488.168030,237.697449 487.237213,235.628281 485.988831,233.536148 
z"/>
<path fill="#FE9C9F" opacity="1.000000" stroke="none" 
	d="
M204.096619,354.528687 
	C201.771027,353.648651 199.381073,352.531189 197.215408,351.079193 
	C179.209412,339.007141 161.254501,326.851532 146.364731,310.848724 
	C133.378494,296.891785 124.161469,280.915955 118.906410,262.417480 
	C113.024994,241.714218 110.720528,220.746796 112.108627,199.380234 
	C112.691299,190.411438 114.301918,181.509445 115.445213,172.577072 
	C115.866173,172.491577 116.287132,172.406097 116.708092,172.320602 
	C118.121918,177.063889 119.718521,181.761429 120.918808,186.558151 
	C127.011055,210.904648 136.952072,233.753754 149.055603,255.559921 
	C157.011917,269.894318 166.205246,283.646820 178.463181,294.895966 
	C182.612839,298.704132 186.979294,302.321625 191.532730,305.632904 
	C197.515182,309.983429 204.262360,309.834412 211.521942,307.969849 
	C210.493210,317.539825 209.145737,327.142700 207.569351,336.707886 
	C206.606979,342.547333 205.292526,348.328735 204.096619,354.528687 
z"/>
<path fill="#823239" opacity="1.000000" stroke="none" 
	d="
M460.055420,434.135742 
	C444.790009,436.994415 433.572083,430.679413 424.717163,419.595612 
	C407.310547,397.807404 408.230713,363.388275 426.442535,342.341248 
	C441.057281,325.451263 464.214172,324.816803 479.576660,341.031372 
	C487.947723,349.866669 493.134003,360.290192 494.347687,372.550842 
	C496.193909,391.200928 493.043182,408.373505 479.985046,422.778748 
	C474.658691,428.654541 468.310181,432.603058 460.055420,434.135742 
M470.183533,355.383484 
	C469.411285,354.511719 468.683685,353.595123 467.860016,352.774994 
	C457.998016,342.955353 447.255096,343.599762 438.188324,354.167664 
	C432.834503,360.407959 430.760712,367.780579 429.445038,375.562775 
	C428.362549,381.965759 429.239502,383.463257 435.606293,383.994019 
	C448.812347,385.094971 461.503265,383.597687 473.003815,376.114929 
	C476.896484,373.582184 478.234375,370.758636 476.113434,366.569550 
	C474.314545,363.016602 472.442505,359.500732 470.183533,355.383484 
M469.567291,396.914124 
	C459.432434,389.115601 440.851868,392.994659 434.425964,404.250580 
	C440.380524,414.397369 446.113373,418.344788 454.556549,418.071716 
	C463.285797,417.789368 468.139404,412.176147 472.363800,405.421631 
	C474.739960,401.622314 473.673370,399.286224 469.567291,396.914124 
z"/>
<path fill="#823239" opacity="1.000000" stroke="none" 
	d="
M352.244812,384.495392 
	C351.762848,396.960968 348.010712,407.880157 340.222839,417.053619 
	C324.168762,435.963989 299.017151,436.210968 282.209595,417.889160 
	C263.648163,397.655457 264.948578,361.859955 284.929749,343.013916 
	C302.248260,326.679260 329.004211,329.840240 342.187469,349.709290 
	C349.108490,360.140259 352.750092,371.479767 352.244812,384.495392 
M334.204346,365.487335 
	C333.653076,364.278503 333.179810,363.026550 332.538513,361.867554 
	C326.219788,350.447937 316.165680,345.236450 305.547729,347.841217 
	C295.098206,350.404663 283.873871,364.624817 284.393890,374.872192 
	C284.449371,375.965607 285.398132,377.387299 286.353668,378.004272 
	C297.032074,384.898621 308.573273,388.628052 321.337738,385.909729 
	C329.573456,384.155884 339.860443,375.195007 334.204346,365.487335 
M330.410217,397.154266 
	C325.995361,392.726471 320.903992,389.683594 314.426025,390.910309 
	C306.825439,392.349548 299.304504,394.212616 291.756500,395.924896 
	C287.693054,396.846741 287.157196,399.200775 289.208221,402.512268 
	C299.817841,419.641815 317.791168,422.315186 330.695648,405.536011 
	C332.794006,402.807556 333.540741,400.393860 330.410217,397.154266 
z"/>
<path fill="#FE9B9F" opacity="1.000000" stroke="none" 
	d="
M217.041473,440.398041 
	C216.910645,440.962067 216.764069,441.081024 216.362946,441.325745 
	C210.849747,439.718262 205.647720,437.783783 200.323059,436.285065 
	C169.967773,427.741058 142.271088,414.642151 121.532440,389.893585 
	C117.032547,384.523590 113.454979,378.380707 109.452599,372.593781 
	C109.825439,372.274048 110.198288,371.954315 110.571136,371.634583 
	C113.853012,374.398071 116.974884,377.383179 120.443932,379.887360 
	C137.141388,391.940216 155.081650,401.873199 175.454132,405.519958 
	C183.460236,406.953033 192.182907,404.399658 200.577042,403.637329 
	C202.881317,403.428070 205.177582,403.130707 208.159668,402.898071 
	C209.279160,403.422028 209.716492,403.921722 210.153809,404.421417 
	C212.223221,413.162292 214.414871,421.876953 216.294754,430.658417 
	C216.939606,433.670715 216.804489,436.849976 217.041473,440.398041 
z"/>
<path fill="#803138" opacity="1.000000" stroke="none" 
	d="
M407.005341,469.993073 
	C397.965851,478.363190 387.910217,480.522247 376.825500,475.987762 
	C365.580750,471.387726 361.754089,461.718933 360.580902,450.549561 
	C360.274445,447.632111 361.106323,445.756104 364.564484,444.912567 
	C378.106812,441.609192 391.584015,438.025635 405.022278,434.317291 
	C408.513672,433.353851 410.403687,434.398743 411.593628,437.534027 
	C415.965668,449.053680 415.685425,459.943909 407.005341,469.993073 
z"/>
<path fill="#FE9C9F" opacity="1.000000" stroke="none" 
	d="
M253.781494,470.086853 
	C253.944855,469.416687 254.142899,469.170624 254.653992,468.909119 
	C258.483337,471.829071 262.229828,474.682739 265.656952,477.878784 
	C270.232727,482.146149 274.560577,486.679352 279.096832,491.405487 
	C271.847870,493.628906 264.583466,496.072388 257.119110,497.296265 
	C251.044342,498.292297 244.663757,498.463745 238.541153,497.825958 
	C232.765533,497.224274 227.149673,495.089081 221.353180,493.096649 
	C235.112030,489.523041 246.738037,483.265228 253.781494,470.086853 
z"/>
<path fill="#89373E" opacity="1.000000" stroke="none" 
	d="
M210.448486,404.439758 
	C209.716492,403.921722 209.279160,403.422028 208.616989,402.798218 
	C205.486877,391.893829 199.384171,382.860321 192.790237,374.092804 
	C192.122238,373.204620 191.520508,372.266571 191.303467,371.952606 
	C195.820679,366.425629 200.015472,361.293091 204.545441,356.118774 
	C205.277939,364.465240 205.222885,372.907654 206.219269,381.224121 
	C206.982162,387.591736 209.122421,393.789215 210.535965,400.087952 
	C210.850525,401.489563 210.686707,402.998535 210.448486,404.439758 
z"/>
<path fill="#FBFAF6" opacity="1.000000" stroke="none" 
	d="
M470.393188,355.675964 
	C472.442505,359.500732 474.314545,363.016602 476.113434,366.569550 
	C478.234375,370.758636 476.896484,373.582184 473.003815,376.114929 
	C461.503265,383.597687 448.812347,385.094971 435.606293,383.994019 
	C429.239502,383.463257 428.362549,381.965759 429.445038,375.562775 
	C430.760712,367.780579 432.834503,360.407959 438.188324,354.167664 
	C447.255096,343.599762 457.998016,342.955353 467.860016,352.774994 
	C468.683685,353.595123 469.411285,354.511719 470.393188,355.675964 
z"/>
<path fill="#F8446D" opacity="1.000000" stroke="none" 
	d="
M469.842957,397.155640 
	C473.673370,399.286224 474.739960,401.622314 472.363800,405.421631 
	C468.139404,412.176147 463.285797,417.789368 454.556549,418.071716 
	C446.113373,418.344788 440.380524,414.397369 434.425964,404.250580 
	C440.851868,392.994659 459.432434,389.115601 469.842957,397.155640 
z"/>
<path fill="#FBFAF6" opacity="1.000000" stroke="none" 
	d="
M334.380493,365.835083 
	C339.860443,375.195007 329.573456,384.155884 321.337738,385.909729 
	C308.573273,388.628052 297.032074,384.898621 286.353668,378.004272 
	C285.398132,377.387299 284.449371,375.965607 284.393890,374.872192 
	C283.873871,364.624817 295.098206,350.404663 305.547729,347.841217 
	C316.165680,345.236450 326.219788,350.447937 332.538513,361.867554 
	C333.179810,363.026550 333.653076,364.278503 334.380493,365.835083 
z"/>
<path fill="#F8446D" opacity="1.000000" stroke="none" 
	d="
M330.621002,397.449524 
	C333.540741,400.393860 332.794006,402.807556 330.695648,405.536011 
	C317.791168,422.315186 299.817841,419.641815 289.208221,402.512268 
	C287.157196,399.200775 287.693054,396.846741 291.756500,395.924896 
	C299.304504,394.212616 306.825439,392.349548 314.426025,390.910309 
	C320.903992,389.683594 325.995361,392.726471 330.621002,397.449524 
z"/>
</svg>