<svg version="1.1" id="Layer_1" xmlns="http://www.w3.org/2000/svg" xmlns:xlink="http://www.w3.org/1999/xlink" x="0px" y="0px"
	 width="100%" viewBox="0 0 700 657" enable-background="new 0 0 700 657" xml:space="preserve">
<path fill="#FFFFFF" opacity="1.000000" stroke="none" 
	d="
M395.000000,658.000000 
	C263.333344,658.000000 132.166672,658.000000 1.000000,658.000000 
	C1.000000,439.000000 1.000000,220.000000 1.000000,1.000000 
	C234.333328,1.000000 467.666656,1.000000 701.000000,1.000000 
	C701.000000,220.000000 701.000000,439.000000 701.000000,658.000000 
	C599.166687,658.000000 497.333344,658.000000 395.000000,658.000000 
M122.119873,409.660614 
	C121.505356,410.827362 120.965096,412.040802 120.264778,413.153534 
	C113.449539,423.982330 117.652222,436.902313 129.688141,441.174164 
	C136.155167,443.469452 142.826004,445.223236 149.471786,446.966248 
	C152.158417,447.670898 155.051376,448.124786 157.802185,447.946777 
	C165.545517,447.445648 173.263763,446.557159 181.520920,445.938019 
	C181.699463,445.911011 181.878021,445.884033 182.672379,446.221405 
	C185.438629,447.361145 188.122498,448.820221 190.991837,449.560333 
	C194.635223,450.500031 195.284622,452.464813 195.277786,456.037720 
	C195.263153,463.681183 195.084198,471.528717 196.688858,478.920074 
	C198.777328,488.540039 196.873428,497.075775 192.655457,505.365479 
	C190.565399,509.473145 187.935822,513.427185 184.935135,516.922607 
	C180.284393,522.340088 175.111359,527.309631 170.152359,532.461975 
	C165.562546,537.230713 163.274048,542.909729 165.139343,549.345764 
	C166.867508,555.308716 171.746841,558.924927 177.614639,559.510376 
	C186.139603,560.360901 194.818512,560.556030 203.365356,560.003540 
	C209.599579,559.600525 215.797867,557.799255 221.875076,556.123962 
	C225.549698,555.111084 227.917740,555.679993 230.384491,558.721558 
	C238.212296,568.373169 247.580383,576.312195 258.375732,582.530334 
	C258.701660,582.718079 258.830994,583.247131 259.097595,583.693359 
	C258.394073,584.109802 257.844360,584.487366 257.252014,584.777893 
	C249.249603,588.704163 243.340668,594.407593 243.616470,603.914429 
	C243.890594,613.362976 250.220825,618.420959 258.108795,622.527954 
	C272.290192,629.911682 287.366302,629.529663 302.520233,628.486023 
	C319.202454,627.337219 323.905853,607.624939 315.949493,597.597900 
	C314.938782,596.324219 314.125122,594.894165 313.005463,593.214478 
	C314.251831,592.857666 315.136108,592.509583 316.052979,592.356384 
	C327.206512,590.493469 337.507507,586.399475 347.119354,580.509460 
	C368.105957,567.649170 382.787415,549.289673 393.170990,527.285156 
	C394.587372,524.283630 396.100830,523.436157 399.505493,523.376282 
	C420.754333,523.002930 441.352356,519.050415 459.786682,508.125031 
	C466.292816,504.269012 471.661377,498.083832 476.640381,492.193756 
	C480.449738,487.687286 480.636108,481.693420 476.620270,476.921600 
	C471.609650,470.967651 465.093384,467.541748 456.956177,467.864258 
	C444.513733,468.357422 432.417114,466.084717 420.807617,461.925934 
	C415.949219,460.185547 410.741425,457.874969 408.404816,453.381500 
	C423.138794,445.840302 437.978546,439.311401 451.735779,430.992310 
	C485.260132,410.719971 512.141052,384.199127 526.768982,346.856293 
	C537.644043,319.093994 538.137451,290.916809 529.658386,262.667053 
	C523.898743,243.477676 513.390930,226.647202 501.199860,210.590347 
	C503.874329,207.464539 507.505554,204.748077 509.049866,201.138702 
	C514.402893,188.627441 514.510254,175.855026 508.133453,163.562241 
	C500.567139,148.976517 484.277435,143.663208 470.233826,153.294907 
	C469.753265,153.624512 469.063232,153.648712 467.386169,154.120163 
	C470.536530,143.955261 466.785065,135.316330 464.048492,126.476410 
	C463.590057,124.995605 464.041016,123.174942 464.287323,121.543869 
	C465.771606,111.715172 468.077850,101.930336 465.887451,91.912933 
	C462.995758,78.688339 458.356659,66.292259 447.618927,57.285774 
	C433.010345,45.032494 411.437897,51.903927 407.704987,70.571182 
	C406.051239,78.841240 406.607788,87.795715 407.601318,96.270668 
	C408.307159,102.291893 406.726776,106.438644 403.588684,111.338310 
	C399.834991,117.199074 397.417114,124.036964 395.185730,130.707550 
	C393.746887,135.009018 393.682770,139.770355 392.201111,144.322495 
	C380.529694,141.667099 368.938873,138.566254 357.172058,136.438324 
	C319.136078,129.559799 281.064636,129.747070 243.090042,137.074524 
	C223.304718,140.892227 203.858215,145.908951 185.171127,154.561005 
	C184.868469,154.582382 184.565918,154.605011 184.093811,153.985886 
	C177.985474,145.914108 170.198624,139.805130 161.461624,134.868134 
	C155.926880,131.740631 152.494263,127.189095 150.887436,121.051849 
	C146.644150,104.844696 142.386124,88.639969 137.924515,72.492149 
	C136.257812,66.459846 134.009338,60.588379 132.028687,54.642723 
	C129.001434,45.555271 122.425209,40.829140 112.881721,40.885624 
	C100.011597,40.961796 84.834557,52.915558 79.926453,66.784439 
	C74.089645,83.277580 75.326340,99.895393 79.767555,116.306847 
	C84.451691,133.615967 87.065620,151.023148 86.179932,168.997040 
	C85.913849,174.396698 86.911034,179.899902 87.699745,185.301636 
	C89.343170,196.557068 95.468628,205.632889 101.991859,214.876358 
	C98.037666,220.311630 94.083473,225.746902 89.412567,231.079117 
	C84.474350,226.476349 78.787331,222.440033 74.775383,217.136566 
	C68.922134,209.399078 59.667328,205.753647 50.684875,209.296997 
	C42.560131,212.501984 38.165382,221.855515 39.444088,231.067245 
	C40.344872,237.556442 40.364628,244.247849 40.018803,250.808960 
	C39.631317,258.160461 38.689087,265.591034 42.729053,272.140320 
	C49.118671,282.498657 52.663567,293.809113 55.391293,305.520630 
	C57.629673,315.131165 63.535782,322.074646 72.074097,327.520142 
	C72.135170,327.702789 72.196251,327.885468 72.401367,328.793732 
	C72.789162,329.693054 73.310326,330.558990 73.545158,331.496643 
	C78.850578,352.680450 88.627754,371.603516 102.761963,388.182922 
	C108.901001,395.384003 115.694427,402.027191 122.119873,409.660614 
M369.785889,592.516602 
	C374.960571,599.717651 384.850708,602.984253 394.249420,600.379028 
	C409.882233,596.045776 418.425323,583.937012 425.551788,570.743774 
	C429.850189,562.786133 429.198792,554.239136 424.982452,546.245728 
	C423.889709,544.174072 421.944763,541.621521 419.940948,541.131592 
	C413.374420,539.526123 406.284607,537.799316 400.424683,542.793152 
	C391.341553,550.533813 382.215576,558.312012 373.921997,566.863831 
	C367.203644,573.791443 365.439301,582.532532 369.785889,592.516602 
M597.252808,87.132988 
	C596.699524,86.763336 596.162476,86.104179 595.590271,86.072075 
	C592.414856,85.893913 588.957092,85.127632 586.183838,86.152802 
	C585.066528,86.565819 584.663757,91.215027 585.268738,93.597916 
	C588.418701,106.005112 588.326721,118.545860 587.907471,130.796188 
	C583.612183,130.173035 579.553223,129.016327 575.521545,129.104919 
	C563.053650,129.378860 553.465332,141.516479 556.695618,152.455750 
	C558.687500,159.201233 566.194885,164.555939 574.279541,164.997574 
	C583.334045,165.492188 590.725708,161.276489 593.689148,153.223282 
	C598.033936,141.416199 600.123962,129.271225 598.213989,116.604156 
	C597.514526,111.964821 597.553894,107.214081 597.306030,103.302368 
	C601.650269,102.612656 605.377014,102.135521 609.052612,101.401649 
	C612.065186,100.800148 614.289795,99.335213 614.082397,95.692810 
	C613.880676,92.148987 611.319824,91.692711 608.643127,90.983055 
	C605.016663,90.021584 601.477051,88.732086 597.252808,87.132988 
M652.784424,233.008133 
	C661.467102,232.795242 668.512329,225.216644 666.659180,216.118774 
	C664.421814,205.134735 660.584229,194.466141 657.185791,183.741318 
	C656.718140,182.265564 654.809143,180.225266 653.539917,180.205429 
	C648.620544,180.128555 643.586914,180.261322 638.787598,181.248505 
	C631.358948,182.776535 624.112793,185.170700 616.739380,186.996429 
	C612.683716,188.000656 611.745544,190.246872 613.435608,194.198181 
	C615.342224,198.655716 616.708069,203.344528 618.298462,207.902267 
	C614.677795,208.398102 611.875793,208.559952 609.186401,209.196930 
	C603.792480,210.474457 600.851624,214.749313 600.934265,220.730942 
	C601.011780,226.338120 604.904480,231.985336 609.475220,232.912079 
	C617.422852,234.523468 623.683105,230.665497 629.582031,226.215759 
	C630.452820,225.558838 630.603394,223.118256 630.212891,221.752930 
	C627.715820,213.021942 624.974243,204.360840 622.245178,195.455307 
	C625.383240,194.397919 628.298950,193.134354 631.344666,192.446518 
	C638.092651,190.922638 644.905884,189.687866 652.346008,188.204926 
	C654.305542,194.643738 656.231384,200.971924 658.196960,207.430801 
	C647.569275,208.859512 643.757629,211.781494 643.062561,218.477783 
	C642.233337,226.466232 644.704651,230.490479 652.784424,233.008133 
z"/>
<path fill="#813339" opacity="1.000000" stroke="none" 
	d="
M500.772858,211.147736 
	C513.390930,226.647202 523.898743,243.477676 529.658386,262.667053 
	C538.137451,290.916809 537.644043,319.093994 526.768982,346.856293 
	C512.141052,384.199127 485.260132,410.719971 451.735779,430.992310 
	C437.978546,439.311401 423.138794,445.840302 408.404816,453.381500 
	C410.741425,457.874969 415.949219,460.185547 420.807617,461.925934 
	C432.417114,466.084717 444.513733,468.357422 456.956177,467.864258 
	C465.093384,467.541748 471.609650,470.967651 476.620270,476.921600 
	C480.636108,481.693420 480.449738,487.687286 476.640381,492.193756 
	C471.661377,498.083832 466.292816,504.269012 459.786682,508.125031 
	C441.352356,519.050415 420.754333,523.002930 399.505493,523.376282 
	C396.100830,523.436157 394.587372,524.283630 393.170990,527.285156 
	C382.787415,549.289673 368.105957,567.649170 347.119354,580.509460 
	C337.507507,586.399475 327.206512,590.493469 316.052979,592.356384 
	C315.136108,592.509583 314.251831,592.857666 313.005463,593.214478 
	C314.125122,594.894165 314.938782,596.324219 315.949493,597.597900 
	C323.905853,607.624939 319.202454,627.337219 302.520233,628.486023 
	C287.366302,629.529663 272.290192,629.911682 258.108795,622.527954 
	C250.220825,618.420959 243.890594,613.362976 243.616470,603.914429 
	C243.340668,594.407593 249.249603,588.704163 257.252014,584.777893 
	C257.844360,584.487366 258.394073,584.109802 259.097595,583.693359 
	C258.830994,583.247131 258.701660,582.718079 258.375732,582.530334 
	C247.580383,576.312195 238.212296,568.373169 230.384491,558.721558 
	C227.917740,555.679993 225.549698,555.111084 221.875076,556.123962 
	C215.797867,557.799255 209.599579,559.600525 203.365356,560.003540 
	C194.818512,560.556030 186.139603,560.360901 177.614639,559.510376 
	C171.746841,558.924927 166.867508,555.308716 165.139343,549.345764 
	C163.274048,542.909729 165.562546,537.230713 170.152359,532.461975 
	C175.111359,527.309631 180.284393,522.340088 184.935135,516.922607 
	C187.935822,513.427185 190.565399,509.473145 192.655457,505.365479 
	C196.873428,497.075775 198.777328,488.540039 196.688858,478.920074 
	C195.084198,471.528717 195.263153,463.681183 195.277786,456.037720 
	C195.284622,452.464813 194.635223,450.500031 190.991837,449.560333 
	C188.122498,448.820221 185.438629,447.361145 182.617493,445.785828 
	C185.223267,444.594757 188.034042,444.163361 190.512878,443.015289 
	C195.437119,440.734619 200.178497,438.059113 205.346649,435.612152 
	C206.172592,435.694183 206.647308,435.710846 207.439896,435.893036 
	C209.242966,436.808899 210.676224,437.696960 212.224197,438.281006 
	C215.466858,439.504456 216.549454,441.364777 216.164429,445.100708 
	C215.059875,455.818756 215.016632,466.656860 213.666061,477.335175 
	C212.732376,484.717377 212.591904,491.985748 209.863647,499.532654 
	C203.844589,516.182434 193.645691,529.142578 181.245041,540.988403 
	C180.089615,542.092102 179.408661,543.692505 178.248932,545.455139 
	C188.402740,547.844299 197.587936,547.661377 206.775803,545.285645 
	C217.810120,542.432434 229.225586,540.686523 237.870834,531.987061 
	C240.110092,529.733826 243.484024,528.388428 246.573029,527.291077 
	C248.140198,526.734314 250.842285,527.039490 251.912064,528.092224 
	C252.918457,529.082703 252.985275,531.724365 252.505112,533.357117 
	C251.868927,535.520386 250.554443,537.623169 249.084091,539.376770 
	C244.201553,545.200195 244.089935,545.266724 249.270996,550.728821 
	C280.101990,583.232361 325.180267,581.531067 355.947937,548.531372 
	C373.863129,529.316589 382.915619,505.992218 386.847412,480.468079 
	C387.914703,473.539459 387.786682,466.426697 388.232880,458.970734 
	C382.178619,460.356079 377.193665,461.633881 372.150208,462.609436 
	C367.737000,463.463104 365.135712,460.743774 363.544586,455.040985 
	C362.215759,450.278259 365.304413,450.046875 368.445862,448.945740 
	C383.328857,443.728912 398.378906,438.865784 412.877747,432.717255 
	C423.399597,428.255219 433.399902,422.387878 443.200867,416.435883 
	C467.440002,401.715820 488.372620,383.366577 502.440002,358.322388 
	C524.569458,318.925293 524.223267,279.484955 500.891815,240.742599 
	C482.280640,209.838303 454.384888,189.381744 422.349976,174.318497 
	C409.888824,168.459076 396.618164,164.321274 383.995758,159.038925 
	C386.052765,158.451797 387.827850,158.051208 389.608185,158.026276 
	C401.568329,157.858780 413.529633,157.771088 425.859375,157.690521 
	C427.939117,158.306595 429.714111,158.749863 431.348938,159.499039 
	C436.263702,161.751236 441.123840,164.122665 446.166656,166.714157 
	C449.203857,168.301086 452.079651,169.621445 455.284302,171.062866 
	C459.743011,174.438782 463.872955,177.693649 468.172363,181.231323 
	C470.495239,183.071030 472.648651,184.627945 475.024994,186.433746 
	C478.794342,189.831360 482.340729,192.980087 486.053986,196.416504 
	C488.524078,198.475937 490.827332,200.247665 493.183655,202.351318 
	C495.748749,205.504745 498.260803,208.326233 500.772858,211.147736 
M405.819946,485.238983 
	C404.074585,493.327271 402.329224,501.415527 400.583252,509.506592 
	C411.320129,510.368134 445.456024,502.977509 455.758728,494.622101 
	C459.475739,491.607635 462.782471,488.087311 466.276459,484.797821 
	C445.847839,480.936066 425.733978,480.903961 407.519257,470.695465 
	C406.960175,475.577393 406.456299,479.977173 405.819946,485.238983 
M273.740814,613.034790 
	C282.665985,613.385803 291.592163,614.013062 300.515930,613.980896 
	C305.594482,613.962646 307.220947,609.725891 304.157715,605.636536 
	C300.567566,600.843811 295.361023,599.402832 289.775970,598.893677 
	C284.008881,598.368042 277.929901,598.923096 272.549103,597.225098 
	C268.058838,595.808228 264.861084,596.618713 261.454376,598.778564 
	C256.881104,601.677856 256.806458,605.178772 261.557953,607.921753 
	C265.113647,609.974426 269.120117,611.246338 273.740814,613.034790 
z"/>
<path fill="#DA646A" opacity="1.000000" stroke="none" 
	d="
M184.263474,154.628876 
	C184.565918,154.605011 184.868469,154.582382 185.564743,154.929443 
	C186.599731,155.902054 187.241089,156.506226 187.928085,157.393341 
	C188.286118,158.127365 188.598526,158.578461 189.075882,159.329239 
	C190.829300,162.431671 192.417755,165.234390 193.884460,168.368134 
	C189.919235,170.874619 186.075745,173.050079 181.575485,175.597275 
	C186.952194,183.989441 195.173706,187.942978 204.203674,191.358124 
	C206.667099,192.613083 209.020645,193.409744 211.125320,194.634155 
	C214.662247,196.691803 217.595123,196.428925 220.456345,193.064774 
	C227.545120,193.545898 230.988358,198.625229 235.048798,203.358185 
	C238.107544,208.133362 241.013245,212.600632 243.917984,217.085632 
	C243.917023,217.103333 243.892899,217.134735 243.883530,217.561554 
	C244.214294,227.991333 244.554428,237.994293 244.883484,248.308014 
	C244.838150,249.029984 244.803925,249.441223 244.485947,250.061523 
	C243.447586,251.903595 242.813736,253.606323 241.917877,255.157730 
	C237.543182,262.733459 233.631622,270.654694 228.525681,277.707611 
	C223.622894,284.479950 215.432205,286.872467 207.693192,290.054871 
	C206.961761,290.502777 206.487228,290.825256 205.574280,291.116791 
	C202.373077,290.690521 199.250122,290.995911 196.903885,289.790039 
	C176.399933,279.251862 159.288925,264.662445 145.504471,246.130280 
	C140.618134,239.560989 135.287308,233.322311 130.106323,226.642517 
	C129.735641,225.883224 129.418015,225.414124 129.052155,224.622528 
	C128.333954,223.200043 127.663963,222.100021 126.871796,220.681183 
	C125.918633,218.921371 125.087639,217.480377 123.852890,215.339218 
	C122.889709,217.041779 122.383560,217.936478 121.561401,218.912201 
	C120.141678,220.315338 119.037971,221.637466 117.645538,223.113647 
	C115.875664,224.814926 114.394516,226.362152 112.878738,227.564026 
	C109.630386,222.887833 106.416672,218.556992 103.264664,213.891754 
	C106.725227,209.696747 109.972069,205.685760 113.583389,202.035324 
	C115.559067,200.038223 115.873398,198.516968 114.527702,196.001266 
	C106.239983,180.507614 100.516815,164.095490 97.392952,146.788773 
	C94.183472,129.007690 89.691307,111.257484 91.274254,93.084816 
	C92.005371,84.691345 94.959663,76.301216 98.073288,68.367706 
	C100.429543,62.363979 108.608093,62.118931 112.521225,67.314903 
	C114.208038,69.554695 115.549736,72.088814 116.814461,74.606636 
	C127.485710,95.851074 137.809021,117.277489 148.888000,138.306183 
	C153.032089,146.171967 158.804642,153.198929 164.081360,160.428284 
	C164.878525,161.520447 167.379745,162.495651 168.487457,162.043167 
	C173.859360,159.848907 179.024857,157.149399 184.263474,154.628876 
M235.990311,228.831650 
	C233.464951,222.774948 230.988358,216.697250 228.394485,210.670029 
	C227.011063,207.455429 225.533768,204.294037 221.176407,207.637360 
	C220.509018,208.149429 218.897491,207.738129 217.844925,207.387131 
	C213.601959,205.972366 209.401352,204.429245 205.195160,202.905777 
	C181.967392,194.492691 164.398483,178.729492 150.263580,159.135773 
	C134.631561,137.466736 124.433472,112.824173 113.684006,88.536880 
	C111.792595,84.263420 109.655342,80.098770 107.398926,75.399231 
	C101.423790,81.549881 99.876244,88.397194 100.159920,95.339478 
	C100.551086,104.912529 101.295364,114.582672 103.156601,123.959488 
	C106.410660,140.353363 109.110939,157.112198 114.821548,172.700302 
	C122.332375,193.202408 132.746979,212.468353 145.886139,230.316788 
	C160.278839,249.868088 176.706573,266.807159 197.707626,279.099823 
	C199.359665,280.066803 201.717026,281.366364 203.178741,280.862823 
	C210.708206,278.269104 218.674377,275.787872 223.391037,268.827454 
	C231.337646,257.100647 236.936813,244.425888 235.990311,228.831650 
z"/>
<path fill="#FDA0A4" opacity="1.000000" stroke="none" 
	d="
M184.178650,154.307373 
	C179.024857,157.149399 173.859360,159.848907 168.487457,162.043167 
	C167.379745,162.495651 164.878525,161.520447 164.081360,160.428284 
	C158.804642,153.198929 153.032089,146.171967 148.888000,138.306183 
	C137.809021,117.277489 127.485710,95.851074 116.814461,74.606636 
	C115.549736,72.088814 114.208038,69.554695 112.521225,67.314903 
	C108.608093,62.118931 100.429543,62.363979 98.073288,68.367706 
	C94.959663,76.301216 92.005371,84.691345 91.274254,93.084816 
	C89.691307,111.257484 94.183472,129.007690 97.392952,146.788773 
	C100.516815,164.095490 106.239983,180.507614 114.527702,196.001266 
	C115.873398,198.516968 115.559067,200.038223 113.583389,202.035324 
	C109.972069,205.685760 106.725227,209.696747 103.049316,213.947418 
	C102.772255,214.337448 102.329903,214.299713 102.329903,214.299713 
	C95.468628,205.632889 89.343170,196.557068 87.699745,185.301636 
	C86.911034,179.899902 85.913849,174.396698 86.179932,168.997040 
	C87.065620,151.023148 84.451691,133.615967 79.767555,116.306847 
	C75.326340,99.895393 74.089645,83.277580 79.926453,66.784439 
	C84.834557,52.915558 100.011597,40.961796 112.881721,40.885624 
	C122.425209,40.829140 129.001434,45.555271 132.028687,54.642723 
	C134.009338,60.588379 136.257812,66.459846 137.924515,72.492149 
	C142.386124,88.639969 146.644150,104.844696 150.887436,121.051849 
	C152.494263,127.189095 155.926880,131.740631 161.461624,134.868134 
	C170.198624,139.805130 177.985474,145.914108 184.178650,154.307373 
z"/>
<path fill="#D9646A" opacity="1.000000" stroke="none" 
	d="
M72.257332,328.068115 
	C72.196251,327.885468 72.135170,327.702789 72.073845,326.815857 
	C71.721672,323.653168 71.285858,321.203400 71.032021,318.734924 
	C69.781174,306.571075 70.062614,294.198364 65.006203,282.607819 
	C63.238075,278.554810 62.388077,274.059296 61.450985,269.694550 
	C59.532349,260.757965 57.679646,251.772736 60.065220,242.610367 
	C61.563217,236.856964 66.124115,235.318588 70.562180,239.172562 
	C72.163254,240.562897 73.459854,242.365753 74.661720,244.138763 
	C76.284897,246.533249 77.682617,249.080597 79.465370,252.041122 
	C80.472046,249.908676 81.075020,248.358170 81.899391,246.935989 
	C84.440331,242.552429 87.065842,238.217896 89.914001,234.128632 
	C91.535820,236.440674 92.908447,238.484253 94.266907,240.537186 
	C96.112732,243.326660 97.947746,246.123291 99.825851,249.161560 
	C99.864319,249.406250 99.805305,249.898605 99.525055,250.101349 
	C96.598885,257.243896 92.557877,264.052734 91.889259,271.178070 
	C91.549461,274.799164 97.218208,279.040741 100.281471,282.914215 
	C110.554855,295.904816 123.851028,304.558350 139.970215,307.765778 
	C149.471069,309.656311 159.410263,309.429413 169.163712,309.934753 
	C175.598785,310.268158 179.158005,314.234314 181.192612,319.541168 
	C184.341660,327.754913 185.274796,336.384949 182.911972,344.966827 
	C180.196762,354.828583 173.940704,362.956909 164.366928,365.548187 
	C150.209473,369.380096 136.358185,365.481995 123.816917,358.149994 
	C113.857506,352.327454 104.280830,345.850220 93.829094,339.216095 
	C94.614639,341.541107 95.105659,343.516296 95.931923,345.339539 
	C98.178261,350.296295 100.566513,355.188782 102.552612,360.056763 
	C92.793083,355.081665 86.623596,347.180634 81.353683,338.190430 
	C79.096191,334.339294 78.102982,328.874237 72.257332,328.068115 
M72.171890,258.305969 
	C71.189156,256.604889 70.206421,254.903809 69.223679,253.202728 
	C68.262932,254.310364 68.008858,255.003479 68.164040,255.587936 
	C71.517921,268.220428 74.291901,281.055359 78.523178,293.389709 
	C81.454781,301.935425 85.783089,310.178741 90.595284,317.863342 
	C98.896469,331.119507 111.129570,340.198914 124.841728,347.482697 
	C132.639282,351.624634 140.331787,355.892456 149.341614,356.582825 
	C155.361969,357.044159 161.150894,358.151978 166.638550,353.171661 
	C175.383026,345.235474 176.108353,336.052307 173.793854,325.490173 
	C172.722412,320.600769 170.006287,318.972931 165.497177,318.994659 
	C160.001160,319.021118 154.495514,319.179108 149.010223,318.927460 
	C128.926117,318.006073 112.291969,309.205963 98.206306,295.489990 
	C87.411751,284.978699 79.864357,271.988739 72.171890,258.305969 
M93.590141,337.529877 
	C93.590141,337.529877 93.479439,337.600464 93.590141,337.529877 
z"/>
<path fill="#FCA0A5" opacity="1.000000" stroke="none" 
	d="
M500.986359,210.869034 
	C498.260803,208.326233 495.748749,205.504745 493.534302,202.310287 
	C495.001617,199.107132 496.563416,196.371231 497.270874,193.429855 
	C499.862274,182.655838 500.444336,171.712692 496.718048,161.171158 
	C495.695496,158.278275 492.131042,155.101562 489.199585,154.448074 
	C486.943298,153.945114 482.918030,156.549866 481.305267,158.892197 
	C476.445068,165.950912 472.378754,173.556305 468.002869,180.948517 
	C463.872955,177.693649 459.743011,174.438782 455.293488,170.666107 
	C456.635376,162.062195 459.287750,154.034317 459.766815,145.878784 
	C461.045959,124.101532 456.509247,103.264717 446.668213,83.763596 
	C443.927307,78.332130 440.715576,72.862846 436.589447,68.473465 
	C431.063660,62.595116 423.806061,65.000809 422.046234,72.857727 
	C420.708893,78.828384 419.929932,84.929436 419.028107,90.991158 
	C417.420837,101.794914 416.629608,112.783203 414.127747,123.370728 
	C412.136047,131.799454 408.103943,139.746017 404.581848,147.952057 
	C400.458191,146.773529 396.730347,145.549561 393.002533,144.325592 
	C393.682770,139.770355 393.746887,135.009018 395.185730,130.707550 
	C397.417114,124.036964 399.834991,117.199074 403.588684,111.338310 
	C406.726776,106.438644 408.307159,102.291893 407.601318,96.270668 
	C406.607788,87.795715 406.051239,78.841240 407.704987,70.571182 
	C411.437897,51.903927 433.010345,45.032494 447.618927,57.285774 
	C458.356659,66.292259 462.995758,78.688339 465.887451,91.912933 
	C468.077850,101.930336 465.771606,111.715172 464.287323,121.543869 
	C464.041016,123.174942 463.590057,124.995605 464.048492,126.476410 
	C466.785065,135.316330 470.536530,143.955261 467.386169,154.120163 
	C469.063232,153.648712 469.753265,153.624512 470.233826,153.294907 
	C484.277435,143.663208 500.567139,148.976517 508.133453,163.562241 
	C514.510254,175.855026 514.402893,188.627441 509.049866,201.138702 
	C507.505554,204.748077 503.874329,207.464539 500.986359,210.869034 
M467.473877,155.588425 
	C467.473877,155.588425 467.570557,155.416611 467.570557,155.416611 
	C467.570557,155.416611 467.388306,155.441177 467.473877,155.588425 
z"/>
<path fill="#803239" opacity="1.000000" stroke="none" 
	d="
M392.601807,144.324036 
	C396.730347,145.549561 400.458191,146.773529 404.772583,148.255280 
	C407.830414,149.419479 410.301666,150.325912 413.045532,151.455536 
	C416.525421,153.149734 419.732666,154.620743 422.698334,156.361725 
	C409.392212,156.756943 396.327179,156.851990 383.263550,157.043457 
	C381.517456,157.069046 379.778473,157.582443 377.640778,157.883209 
	C349.391754,150.883820 321.157318,147.813950 292.397095,148.553253 
	C269.841949,149.133057 247.875580,153.120209 225.659393,157.611115 
	C212.862839,157.260818 200.372650,157.185608 187.882446,157.110382 
	C187.241089,156.506226 186.599731,155.902054 185.776749,155.013824 
	C203.858215,145.908951 223.304718,140.892227 243.090042,137.074524 
	C281.064636,129.747070 319.136078,129.559799 357.172058,136.438324 
	C368.938873,138.566254 380.529694,141.667099 392.601807,144.324036 
z"/>
<path fill="#FDA0A4" opacity="1.000000" stroke="none" 
	d="
M89.658493,233.864304 
	C87.065842,238.217896 84.440331,242.552429 81.899391,246.935989 
	C81.075020,248.358170 80.472046,249.908676 79.465370,252.041122 
	C77.682617,249.080597 76.284897,246.533249 74.661720,244.138763 
	C73.459854,242.365753 72.163254,240.562897 70.562180,239.172562 
	C66.124115,235.318588 61.563217,236.856964 60.065220,242.610367 
	C57.679646,251.772736 59.532349,260.757965 61.450985,269.694550 
	C62.388077,274.059296 63.238075,278.554810 65.006203,282.607819 
	C70.062614,294.198364 69.781174,306.571075 71.032021,318.734924 
	C71.285858,321.203400 71.721672,323.653168 72.037537,326.529236 
	C63.535782,322.074646 57.629673,315.131165 55.391293,305.520630 
	C52.663567,293.809113 49.118671,282.498657 42.729053,272.140320 
	C38.689087,265.591034 39.631317,258.160461 40.018803,250.808960 
	C40.364628,244.247849 40.344872,237.556442 39.444088,231.067245 
	C38.165382,221.855515 42.560131,212.501984 50.684875,209.296997 
	C59.667328,205.753647 68.922134,209.399078 74.775383,217.136566 
	C78.787331,222.440033 84.474350,226.476349 89.771721,231.471588 
	C89.973412,232.530807 89.815956,233.197556 89.658493,233.864304 
z"/>
<path fill="#81343B" opacity="1.000000" stroke="none" 
	d="
M369.609711,592.182373 
	C365.439301,582.532532 367.203644,573.791443 373.921997,566.863831 
	C382.215576,558.312012 391.341553,550.533813 400.424683,542.793152 
	C406.284607,537.799316 413.374420,539.526123 419.940948,541.131592 
	C421.944763,541.621521 423.889709,544.174072 424.982452,546.245728 
	C429.198792,554.239136 429.850189,562.786133 425.551788,570.743774 
	C418.425323,583.937012 409.882233,596.045776 394.249420,600.379028 
	C384.850708,602.984253 374.960571,599.717651 369.609711,592.182373 
M410.133698,553.977844 
	C399.895782,560.660889 390.575775,568.396118 383.683746,578.600220 
	C380.380951,583.490173 381.844818,586.299072 387.602112,586.123291 
	C390.891235,586.022888 394.899323,585.242554 397.238342,583.215759 
	C402.360382,578.777344 407.064514,573.670837 411.066162,568.198669 
	C413.274994,565.178101 414.014313,560.931580 414.856232,557.114197 
	C415.450684,554.418884 413.755463,553.133850 410.133698,553.977844 
z"/>
<path fill="#D9636A" opacity="1.000000" stroke="none" 
	d="
M204.995422,435.546753 
	C200.178497,438.059113 195.437119,440.734619 190.512878,443.015289 
	C188.034042,444.163361 185.223267,444.594757 182.309586,445.603638 
	C181.878021,445.884033 181.699463,445.911011 181.047424,445.618225 
	C177.207870,443.936615 173.939133,441.849335 170.453125,441.381653 
	C165.119293,440.666077 159.624802,441.260712 154.217621,440.957733 
	C139.402100,440.127563 132.412109,432.001953 134.355469,418.719818 
	C131.080750,415.377869 128.025528,412.259949 125.074326,408.804138 
	C128.404465,406.596954 131.645935,404.753418 134.849701,402.846527 
	C136.277863,401.996521 137.630127,401.018951 139.315796,400.170013 
	C140.366089,400.558929 141.117416,400.877045 141.942200,401.522156 
	C145.476303,404.628723 148.985474,407.350555 152.384903,410.203125 
	C156.260086,413.454926 160.241135,413.560638 164.048492,410.418335 
	C169.636353,405.806519 175.461853,401.359589 180.373642,396.085754 
	C185.419876,390.667572 188.154541,389.063202 192.652954,393.691254 
	C198.120834,399.316650 203.158020,405.758881 206.755798,412.691406 
	C210.320190,419.559631 207.944473,426.554108 202.275314,431.595123 
	C203.374146,433.191467 204.184784,434.369110 204.995422,435.546753 
M179.295471,430.962830 
	C184.550995,428.958710 189.870880,427.105469 195.040817,424.900604 
	C198.871338,423.266998 199.971420,419.777679 198.781097,416.145935 
	C196.795654,410.088318 193.150330,405.029327 187.778870,400.713562 
	C176.533203,415.849548 162.253494,425.015930 143.076004,425.981934 
	C154.049088,434.864349 166.389084,431.995270 179.295471,430.962830 
z"/>
<path fill="#B3C6DD" opacity="1.000000" stroke="none" 
	d="
M597.576538,87.358154 
	C601.477051,88.732086 605.016663,90.021584 608.643127,90.983055 
	C611.319824,91.692711 613.880676,92.148987 614.082397,95.692810 
	C614.289795,99.335213 612.065186,100.800148 609.052612,101.401649 
	C605.377014,102.135521 601.650269,102.612656 597.306030,103.302368 
	C597.553894,107.214081 597.514526,111.964821 598.213989,116.604156 
	C600.123962,129.271225 598.033936,141.416199 593.689148,153.223282 
	C590.725708,161.276489 583.334045,165.492188 574.279541,164.997574 
	C566.194885,164.555939 558.687500,159.201233 556.695618,152.455750 
	C553.465332,141.516479 563.053650,129.378860 575.521545,129.104919 
	C579.553223,129.016327 583.612183,130.173035 587.907471,130.796188 
	C588.326721,118.545860 588.418701,106.005112 585.268738,93.597916 
	C584.663757,91.215027 585.066528,86.565819 586.183838,86.152802 
	C588.957092,85.127632 592.414856,85.893913 595.590271,86.072075 
	C596.162476,86.104179 596.699524,86.763336 597.576538,87.358154 
z"/>
<path fill="#B4C6DD" opacity="1.000000" stroke="none" 
	d="
M652.375488,232.992493 
	C644.704651,230.490479 642.233337,226.466232 643.062561,218.477783 
	C643.757629,211.781494 647.569275,208.859512 658.196960,207.430801 
	C656.231384,200.971924 654.305542,194.643738 652.346008,188.204926 
	C644.905884,189.687866 638.092651,190.922638 631.344666,192.446518 
	C628.298950,193.134354 625.383240,194.397919 622.245178,195.455307 
	C624.974243,204.360840 627.715820,213.021942 630.212891,221.752930 
	C630.603394,223.118256 630.452820,225.558838 629.582031,226.215759 
	C623.683105,230.665497 617.422852,234.523468 609.475220,232.912079 
	C604.904480,231.985336 601.011780,226.338120 600.934265,220.730942 
	C600.851624,214.749313 603.792480,210.474457 609.186401,209.196930 
	C611.875793,208.559952 614.677795,208.398102 618.298462,207.902267 
	C616.708069,203.344528 615.342224,198.655716 613.435608,194.198181 
	C611.745544,190.246872 612.683716,188.000656 616.739380,186.996429 
	C624.112793,185.170700 631.358948,182.776535 638.787598,181.248505 
	C643.586914,180.261322 648.620544,180.128555 653.539917,180.205429 
	C654.809143,180.225266 656.718140,182.265564 657.185791,183.741318 
	C660.584229,194.466141 664.421814,205.134735 666.659180,216.118774 
	C668.512329,225.216644 661.467102,232.795242 652.375488,232.992493 
z"/>
<path fill="#82333A" opacity="1.000000" stroke="none" 
	d="
M139.016846,400.099243 
	C137.630127,401.018951 136.277863,401.996521 134.849701,402.846527 
	C131.645935,404.753418 128.404465,406.596954 124.727692,408.760223 
	C123.581573,409.010712 122.886101,408.967255 122.190628,408.923767 
	C115.694427,402.027191 108.901001,395.384003 102.761963,388.182922 
	C88.627754,371.603516 78.850578,352.680450 73.545158,331.496643 
	C73.310326,330.558990 72.789162,329.693054 72.329346,328.430908 
	C78.102982,328.874237 79.096191,334.339294 81.353683,338.190430 
	C86.623596,347.180634 92.793083,355.081665 102.711197,360.291138 
	C103.949577,361.394409 104.683502,362.213379 105.579918,363.357178 
	C114.740829,377.733521 126.152557,389.580017 139.016846,400.099243 
z"/>
<path fill="#FCA0A5" opacity="1.000000" stroke="none" 
	d="
M122.155251,409.292175 
	C122.886101,408.967255 123.581573,409.010712 124.623672,409.098083 
	C128.025528,412.259949 131.080750,415.377869 134.355469,418.719818 
	C132.412109,432.001953 139.402100,440.127563 154.217621,440.957733 
	C159.624802,441.260712 165.119293,440.666077 170.453125,441.381653 
	C173.939133,441.849335 177.207870,443.936615 180.782928,445.559937 
	C173.263763,446.557159 165.545517,447.445648 157.802185,447.946777 
	C155.051376,448.124786 152.158417,447.670898 149.471786,446.966248 
	C142.826004,445.223236 136.155167,443.469452 129.688141,441.174164 
	C117.652222,436.902313 113.449539,423.982330 120.264778,413.153534 
	C120.965096,412.040802 121.505356,410.827362 122.155251,409.292175 
z"/>
<path fill="#833339" opacity="1.000000" stroke="none" 
	d="
M89.914001,234.128632 
	C89.815956,233.197556 89.973412,232.530807 90.130081,231.523132 
	C94.083473,225.746902 98.037666,220.311630 102.160881,214.588043 
	C102.329903,214.299713 102.772255,214.337448 102.987602,214.281799 
	C106.416672,218.556992 109.630386,222.887833 112.798477,227.766739 
	C112.752853,228.314804 112.738327,228.749771 112.474289,228.960175 
	C108.069298,235.752655 103.928345,242.334747 99.787392,248.916855 
	C97.947746,246.123291 96.112732,243.326660 94.266907,240.537186 
	C92.908447,238.484253 91.535820,236.440674 89.914001,234.128632 
z"/>
<path fill="#FECCCB" opacity="1.000000" stroke="none" 
	d="
M139.315796,400.170044 
	C126.152557,389.580017 114.740829,377.733521 106.016876,363.355957 
	C115.318291,366.257385 124.939346,368.398682 133.246353,372.942383 
	C149.656799,381.918457 175.899979,374.702576 185.899353,360.701233 
	C198.194687,343.485016 198.394348,321.477631 181.417252,306.894775 
	C179.929367,305.616730 178.486511,304.286255 177.012161,302.988281 
	C177.001572,302.996429 176.990570,303.019745 177.430588,303.008911 
	C179.192200,303.055664 180.533737,302.986450 181.832260,303.190765 
	C193.630096,305.046997 205.190079,304.153809 216.409042,300.020996 
	C227.163986,296.059113 235.533752,289.198517 241.007935,279.003784 
	C241.000610,278.998779 241.008591,279.013306 241.312469,278.860992 
	C242.770126,276.828644 243.923904,274.948608 245.045380,273.032166 
	C245.013077,272.995728 245.068542,273.072083 245.403015,273.012268 
	C247.487137,270.300171 249.236786,267.647919 251.240036,264.837646 
	C251.665390,264.121674 251.837158,263.563721 252.287598,262.798157 
	C258.562073,251.987289 259.311005,240.686737 257.031982,228.652832 
	C256.991577,227.882477 256.951660,227.443130 256.900818,226.620239 
	C254.447983,213.328735 246.605881,203.900803 236.282715,196.792908 
	C227.586319,190.805099 217.876282,186.309174 208.796921,180.850174 
	C203.607849,177.730255 197.951630,174.837326 196.437927,168.112518 
	C205.233032,165.038971 213.678543,162.107712 222.476379,159.177246 
	C223.874390,158.747421 224.920074,158.316818 225.965759,157.886200 
	C247.875580,153.120209 269.841949,149.133057 292.397095,148.553253 
	C321.157318,147.813950 349.391754,150.883820 377.922119,158.122742 
	C380.304657,158.699112 382.010468,159.049179 383.716248,159.399246 
	C396.618164,164.321274 409.888824,168.459076 422.349976,174.318497 
	C454.384888,189.381744 482.280640,209.838303 500.891815,240.742599 
	C524.223267,279.484955 524.569458,318.925293 502.440002,358.322388 
	C488.372620,383.366577 467.440002,401.715820 443.200867,416.435883 
	C433.399902,422.387878 423.399597,428.255219 412.877747,432.717255 
	C398.378906,438.865784 383.328857,443.728912 368.445862,448.945740 
	C365.304413,450.046875 362.215759,450.278259 363.544586,455.040985 
	C365.135712,460.743774 367.737000,463.463104 372.150208,462.609436 
	C377.193665,461.633881 382.178619,460.356079 388.232880,458.970734 
	C387.786682,466.426697 387.914703,473.539459 386.847412,480.468079 
	C382.915619,505.992218 373.863129,529.316589 355.947937,548.531372 
	C325.180267,581.531067 280.101990,583.232361 249.270996,550.728821 
	C244.089935,545.266724 244.201553,545.200195 249.084091,539.376770 
	C250.554443,537.623169 251.868927,535.520386 252.505112,533.357117 
	C252.985275,531.724365 252.918457,529.082703 251.912064,528.092224 
	C250.842285,527.039490 248.140198,526.734314 246.573029,527.291077 
	C243.484024,528.388428 240.110092,529.733826 237.870834,531.987061 
	C229.225586,540.686523 217.810120,542.432434 206.775803,545.285645 
	C197.587936,547.661377 188.402740,547.844299 178.248932,545.455139 
	C179.408661,543.692505 180.089615,542.092102 181.245041,540.988403 
	C193.645691,529.142578 203.844589,516.182434 209.863647,499.532654 
	C212.591904,491.985748 212.732376,484.717377 213.666061,477.335175 
	C215.016632,466.656860 215.059875,455.818756 216.164429,445.100708 
	C216.549454,441.364777 215.466858,439.504456 212.224197,438.281006 
	C210.676224,437.696960 209.242966,436.808899 207.478088,435.569397 
	C208.108414,433.924225 208.983810,432.738983 209.933853,431.616943 
	C216.833893,423.468048 219.169296,409.480591 212.533569,399.741608 
	C201.089020,382.945068 180.792999,378.364868 164.424454,390.461456 
	C157.364624,395.678772 150.588577,400.106415 141.868759,401.195190 
	C141.117416,400.877045 140.366089,400.558929 139.315796,400.170044 
M463.917358,352.845673 
	C470.662231,345.991730 477.407135,339.137787 484.804443,332.046967 
	C488.167023,329.953125 491.603058,327.964752 494.849579,325.704193 
	C495.884491,324.983612 496.999756,323.585114 497.089081,322.420959 
	C498.134674,308.795166 495.869263,295.800690 488.020844,284.382019 
	C478.283020,270.214355 460.980408,270.929291 451.915192,285.496033 
	C442.149902,301.187653 440.949036,318.087616 445.408234,335.454895 
	C447.673615,344.277893 451.544006,352.627960 460.214844,358.263672 
	C461.361023,356.322510 462.340271,354.664124 463.917358,352.845673 
M313.360260,343.764069 
	C321.542816,348.201355 329.725372,352.638641 338.278381,357.638947 
	C342.473969,361.866089 345.797333,360.246704 349.553711,356.584045 
	C367.170074,339.406830 366.729706,307.793762 354.459290,290.451477 
	C344.401062,276.235779 324.382141,268.757782 306.864075,282.569214 
	C291.718536,294.510071 287.584991,318.801880 292.249786,334.999115 
	C292.466919,335.753021 293.417877,336.564911 294.205780,336.842499 
	C300.442261,339.039642 306.722137,341.113617 313.360260,343.764069 
M408.113159,358.327240 
	C408.563721,359.395325 408.730743,360.795624 409.518799,361.468384 
	C411.758301,363.380219 414.296600,366.411194 416.632050,366.336548 
	C419.062378,366.258789 422.206787,363.540192 423.595947,361.140869 
	C426.378265,356.335449 425.678833,351.179321 422.212860,346.694550 
	C418.628357,342.056427 412.640076,342.086517 409.939575,347.253418 
	C408.381592,350.234283 408.536255,354.110229 408.113159,358.327240 
z"/>
<path fill="#FE8F95" opacity="1.000000" stroke="none" 
	d="
M422.939880,156.091736 
	C419.732666,154.620743 416.525421,153.149734 413.128937,151.086151 
	C415.304993,145.789764 418.086670,141.245132 419.957367,136.352188 
	C425.515991,121.813202 426.244659,106.353233 428.038452,91.101425 
	C428.622162,86.138680 429.574585,81.219315 430.358398,76.280106 
	C430.894653,76.279007 431.430908,76.277901 431.967133,76.276802 
	C449.613678,104.187492 455.041840,134.120483 446.005280,166.447571 
	C441.123840,164.122665 436.263702,161.751236 431.348938,159.499039 
	C429.714111,158.749863 427.939117,158.306595 425.684875,157.425507 
	C424.407654,156.782257 423.673767,156.436996 422.939880,156.091736 
z"/>
<path fill="#D9646A" opacity="1.000000" stroke="none" 
	d="
M446.166656,166.714157 
	C455.041840,134.120483 449.613678,104.187492 431.967133,76.276802 
	C431.430908,76.277901 430.894653,76.279007 430.358398,76.280106 
	C429.574585,81.219315 428.622162,86.138680 428.038452,91.101425 
	C426.244659,106.353233 425.515991,121.813202 419.957367,136.352188 
	C418.086670,141.245132 415.304993,145.789764 412.856262,150.862976 
	C410.301666,150.325912 407.830414,149.419479 405.168457,148.209839 
	C408.103943,139.746017 412.136047,131.799454 414.127747,123.370728 
	C416.629608,112.783203 417.420837,101.794914 419.028107,90.991158 
	C419.929932,84.929436 420.708893,78.828384 422.046234,72.857727 
	C423.806061,65.000809 431.063660,62.595116 436.589447,68.473465 
	C440.715576,72.862846 443.927307,78.332130 446.668213,83.763596 
	C456.509247,103.264717 461.045959,124.101532 459.766815,145.878784 
	C459.287750,154.034317 456.635376,162.062195 454.964661,170.545044 
	C452.079651,169.621445 449.203857,168.301086 446.166656,166.714157 
z"/>
<path fill="#FCC8C8" opacity="1.000000" stroke="none" 
	d="
M405.886169,484.807983 
	C406.456299,479.977173 406.960175,475.577393 407.519257,470.695465 
	C425.733978,480.903961 445.847839,480.936066 466.276459,484.797821 
	C462.782471,488.087311 459.475739,491.607635 455.758728,494.622101 
	C445.456024,502.977509 411.320129,510.368134 400.583252,509.506592 
	C402.329224,501.415527 404.074585,493.327271 405.886169,484.807983 
z"/>
<path fill="#FD9196" opacity="1.000000" stroke="none" 
	d="
M141.942200,401.522156 
	C150.588577,400.106415 157.364624,395.678772 164.424454,390.461456 
	C180.792999,378.364868 201.089020,382.945068 212.533569,399.741608 
	C219.169296,409.480591 216.833893,423.468048 209.933853,431.616943 
	C208.983810,432.738983 208.108414,433.924225 207.160248,435.403870 
	C206.647308,435.710846 206.172592,435.694183 205.346649,435.612122 
	C204.184784,434.369110 203.374146,433.191467 202.275314,431.595123 
	C207.944473,426.554108 210.320190,419.559631 206.755798,412.691406 
	C203.158020,405.758881 198.120834,399.316650 192.652954,393.691254 
	C188.154541,389.063202 185.419876,390.667572 180.373642,396.085754 
	C175.461853,401.359589 169.636353,405.806519 164.048492,410.418335 
	C160.241135,413.560638 156.260086,413.454926 152.384903,410.203125 
	C148.985474,407.350555 145.476303,404.628723 141.942200,401.522156 
z"/>
<path fill="#D9646A" opacity="1.000000" stroke="none" 
	d="
M468.172363,181.231323 
	C472.378754,173.556305 476.445068,165.950912 481.305267,158.892197 
	C482.918030,156.549866 486.943298,153.945114 489.199585,154.448074 
	C492.131042,155.101562 495.695496,158.278275 496.718048,161.171158 
	C500.444336,171.712692 499.862274,182.655838 497.270874,193.429855 
	C496.563416,196.371231 495.001617,199.107132 493.481232,201.978363 
	C490.827332,200.247665 488.524078,198.475937 486.392212,196.234589 
	C491.473267,186.011673 490.268066,175.889465 488.176483,165.586868 
	C483.718353,172.452866 479.260193,179.318848 474.802063,186.184845 
	C472.648651,184.627945 470.495239,183.071030 468.172363,181.231323 
z"/>
<path fill="#FBC8C8" opacity="1.000000" stroke="none" 
	d="
M273.333344,612.950378 
	C269.120117,611.246338 265.113647,609.974426 261.557953,607.921753 
	C256.806458,605.178772 256.881104,601.677856 261.454376,598.778564 
	C264.861084,596.618713 268.058838,595.808228 272.549103,597.225098 
	C277.929901,598.923096 284.008881,598.368042 289.775970,598.893677 
	C295.361023,599.402832 300.567566,600.843811 304.157715,605.636536 
	C307.220947,609.725891 305.594482,613.962646 300.515930,613.980896 
	C291.592163,614.013062 282.665985,613.385803 273.333344,612.950378 
z"/>
<path fill="#FC8D93" opacity="1.000000" stroke="none" 
	d="
M475.024994,186.433746 
	C479.260193,179.318848 483.718353,172.452866 488.176483,165.586868 
	C490.268066,175.889465 491.473267,186.011673 486.225342,195.946899 
	C482.340729,192.980087 478.794342,189.831360 475.024994,186.433746 
z"/>
<path fill="#97484E" opacity="1.000000" stroke="none" 
	d="
M422.698334,156.361725 
	C423.673767,156.436996 424.407654,156.782257 425.316040,157.392532 
	C413.529633,157.771088 401.568329,157.858780 389.608185,158.026276 
	C387.827850,158.051208 386.052765,158.451797 383.995758,159.038925 
	C382.010468,159.049179 380.304657,158.699112 378.317535,158.109497 
	C379.778473,157.582443 381.517456,157.069046 383.263550,157.043457 
	C396.327179,156.851990 409.392212,156.756943 422.698334,156.361725 
z"/>
<path fill="#FF9096" opacity="1.000000" stroke="none" 
	d="
M235.993347,229.287231 
	C236.936813,244.425888 231.337646,257.100647 223.391037,268.827454 
	C218.674377,275.787872 210.708206,278.269104 203.178741,280.862823 
	C201.717026,281.366364 199.359665,280.066803 197.707626,279.099823 
	C176.706573,266.807159 160.278839,249.868088 145.886139,230.316788 
	C132.746979,212.468353 122.332375,193.202408 114.821548,172.700302 
	C109.110939,157.112198 106.410660,140.353363 103.156601,123.959488 
	C101.295364,114.582672 100.551086,104.912529 100.159920,95.339478 
	C99.876244,88.397194 101.423790,81.549881 107.398926,75.399231 
	C109.655342,80.098770 111.792595,84.263420 113.684006,88.536880 
	C124.433472,112.824173 134.631561,137.466736 150.263580,159.135773 
	C164.398483,178.729492 181.967392,194.492691 205.195160,202.905777 
	C209.401352,204.429245 213.601959,205.972366 217.844925,207.387131 
	C218.897491,207.738129 220.509018,208.149429 221.176407,207.637360 
	C225.533768,204.294037 227.011063,207.455429 228.394485,210.670029 
	C230.988358,216.697250 233.464951,222.774948 235.993347,229.287231 
z"/>
<path fill="#FE8F95" opacity="1.000000" stroke="none" 
	d="
M256.911713,227.003784 
	C256.951660,227.443130 256.991577,227.882477 256.726471,228.888000 
	C255.812759,234.383942 255.248978,239.319901 254.573303,244.240494 
	C254.301361,246.220871 254.333801,248.556412 253.273514,250.055405 
	C250.299194,254.260483 250.322357,258.485809 252.008911,263.005798 
	C251.837158,263.563721 251.665390,264.121674 250.829956,264.838684 
	C249.024658,264.922821 247.882645,264.783234 246.741470,264.789673 
	C245.391098,264.797302 244.041428,264.930878 242.691452,265.009827 
	C243.001526,266.349213 243.249435,267.706970 243.638733,269.022888 
	C244.044266,270.393646 244.586227,271.724030 245.068542,273.072083 
	C245.068542,273.072083 245.013077,272.995728 244.651306,273.007874 
	C242.408646,272.424957 240.527740,271.829926 237.876434,270.991150 
	C239.113846,274.160431 240.061218,276.586853 241.008591,279.013306 
	C241.008591,279.013306 241.000610,278.998779 240.637695,279.005005 
	C239.034348,279.931915 237.722046,280.770874 236.565643,281.787201 
	C230.979767,286.696442 228.011978,294.998199 218.850464,295.327850 
	C218.149246,295.353058 217.547714,296.699738 216.800583,297.310760 
	C216.070511,297.907776 215.243088,298.733276 214.407120,298.798187 
	C207.824661,299.309357 201.181427,299.293182 194.650467,300.151367 
	C185.196732,301.393646 176.480194,300.538483 168.862656,294.132660 
	C168.173233,293.552917 166.534348,294.021027 165.349487,294.136749 
	C164.366165,294.232819 163.402176,294.526672 161.793289,294.867889 
	C162.539612,292.525665 163.018356,291.023254 163.464661,289.622620 
	C161.377228,289.952179 159.013519,291.052734 158.141891,290.336792 
	C154.404175,287.266632 150.292953,284.144653 147.892746,280.105713 
	C145.803940,276.590820 143.882629,274.703186 139.675842,274.874390 
	C139.269852,274.202759 139.096390,273.685364 138.949158,272.752472 
	C138.856110,271.035889 139.197983,269.394165 138.534073,268.495331 
	C136.221100,265.363953 133.388580,262.614288 131.101257,259.466888 
	C129.901947,257.816650 129.214127,255.694611 128.700668,253.682205 
	C128.372299,252.395218 128.784561,250.919266 128.869781,249.441269 
	C126.509232,249.680710 124.726570,249.861526 122.948509,250.032120 
	C122.953102,250.021896 122.943222,250.050781 122.960518,249.629349 
	C123.989380,246.635254 125.000938,244.062592 126.219231,240.964157 
	C120.016434,244.463791 120.315971,239.280502 119.006966,235.635986 
	C117.954155,232.704758 116.726807,230.103165 118.708359,226.986801 
	C119.241890,226.147720 118.234367,224.328766 117.934250,222.959595 
	C119.037971,221.637466 120.141678,220.315338 121.772690,219.213898 
	C123.864647,219.956390 125.429314,220.478195 126.993980,221.000000 
	C127.663963,222.100021 128.333954,223.200043 128.803314,224.798309 
	C129.121613,225.841934 129.640503,226.387314 130.159409,226.932693 
	C135.287308,233.322311 140.618134,239.560989 145.504471,246.130280 
	C159.288925,264.662445 176.399933,279.251862 196.903885,289.790039 
	C199.250122,290.995911 202.373077,290.690521 205.623016,291.466370 
	C207.504669,292.557190 208.899185,293.267517 210.293701,293.977844 
	C210.542709,293.456940 210.791733,292.936005 211.040741,292.415100 
	C210.010513,291.586578 208.980301,290.758026 207.950073,289.929474 
	C215.432205,286.872467 223.622894,284.479950 228.525681,277.707611 
	C233.631622,270.654694 237.543182,262.733459 241.917877,255.157730 
	C242.813736,253.606323 243.447586,251.903595 244.799286,250.266922 
	C246.463623,250.701065 247.530838,251.138901 248.598068,251.576736 
	C249.058975,250.296295 249.519882,249.015839 250.122498,247.341675 
	C247.758026,247.638184 246.326294,247.817719 244.894577,247.997253 
	C244.554428,237.994293 244.214294,227.991333 244.327744,217.514526 
	C247.829742,217.378311 252.803436,215.460205 251.788544,221.319016 
	C250.940048,226.217270 253.023315,227.078079 256.911713,227.003784 
M172.179184,289.525269 
	C176.127121,292.050964 177.109528,291.740448 178.751694,286.308807 
	C176.119049,287.301697 174.195557,288.027100 172.179184,289.525269 
M188.515869,294.998260 
	C189.663177,294.637665 190.810471,294.277069 191.957764,293.916473 
	C191.805054,293.282074 191.652344,292.647675 191.499619,292.013275 
	C189.154175,292.367249 186.808731,292.721252 184.463272,293.075226 
	C184.493622,293.555511 184.523972,294.035797 184.554321,294.516083 
	C185.605972,294.677124 186.657639,294.838165 188.515869,294.998260 
M145.022964,257.410980 
	C145.594345,258.069550 146.165726,258.728119 146.737122,259.386688 
	C147.068359,258.265930 147.399597,257.145142 147.730820,256.024384 
	C146.843826,256.236786 145.956833,256.449188 145.022964,257.410980 
M224.343781,287.469086 
	C223.697968,287.953339 223.052155,288.437561 222.406326,288.921783 
	C222.712219,289.216858 223.018112,289.511932 223.324005,289.807007 
	C223.801636,289.191925 224.279266,288.576843 224.343781,287.469086 
M229.104919,281.610535 
	C228.996414,282.273346 228.887894,282.936157 228.779388,283.598999 
	C229.350723,283.533844 229.922058,283.468719 230.493393,283.403534 
	C230.227997,282.716583 229.962616,282.029633 229.104919,281.610535 
M124.509644,226.140839 
	C124.206100,226.568375 123.902565,226.995911 123.599014,227.423431 
	C124.048233,227.537277 124.497452,227.651108 124.946686,227.764938 
	C125.000374,227.264496 125.054070,226.764038 124.509644,226.140839 
z"/>
<path fill="#FD9197" opacity="1.000000" stroke="none" 
	d="
M256.900818,226.620239 
	C253.023315,227.078079 250.940048,226.217270 251.788544,221.319016 
	C252.803436,215.460205 247.829742,217.378311 244.337112,217.087708 
	C243.892899,217.134735 243.917023,217.103333 243.945831,216.629745 
	C243.981430,214.025345 244.113937,211.886002 243.970016,209.765411 
	C243.621201,204.625641 239.714600,201.785156 234.895737,203.050308 
	C230.988358,198.625229 227.545120,193.545898 220.137283,192.904358 
	C216.355301,191.167694 213.269302,189.600571 210.183304,188.033447 
	C208.467773,186.944061 206.984726,185.103027 205.191208,183.643478 
	C204.391846,182.992935 202.967575,183.110260 201.826935,182.879074 
	C201.989365,183.892700 202.060959,184.931595 202.334167,185.914413 
	C202.818909,187.658249 203.426010,189.368073 203.981918,191.092117 
	C195.173706,187.942978 186.952194,183.989441 181.575485,175.597275 
	C186.075745,173.050079 189.919235,170.874619 194.232086,168.395905 
	C195.163742,168.146713 195.626038,168.200775 196.088333,168.254837 
	C197.951630,174.837326 203.607849,177.730255 208.796921,180.850174 
	C217.876282,186.309174 227.586319,190.805099 236.282715,196.792908 
	C246.605881,203.900803 254.447983,213.328735 256.900818,226.620239 
z"/>
<path fill="#84343B" opacity="1.000000" stroke="none" 
	d="
M196.437927,168.112518 
	C195.626038,168.200775 195.163742,168.146713 194.353821,168.064880 
	C192.417755,165.234390 190.829300,162.431671 189.375977,159.023682 
	C199.695068,158.286865 209.878891,158.132599 220.063263,158.074371 
	C220.748077,158.070465 221.437027,158.792236 222.124054,159.176483 
	C213.678543,162.107712 205.233032,165.038971 196.437927,168.112518 
z"/>
<path fill="#FE8E94" opacity="1.000000" stroke="none" 
	d="
M204.203674,191.358124 
	C203.426010,189.368073 202.818909,187.658249 202.334167,185.914413 
	C202.060959,184.931595 201.989365,183.892700 201.826935,182.879074 
	C202.967575,183.110260 204.391846,182.992935 205.191208,183.643478 
	C206.984726,185.103027 208.467773,186.944061 210.183304,188.033447 
	C213.269302,189.600571 216.355301,191.167694 219.760345,192.895233 
	C217.595123,196.428925 214.662247,196.691803 211.125320,194.634155 
	C209.020645,193.409744 206.667099,192.613083 204.203674,191.358124 
z"/>
<path fill="#FD9197" opacity="1.000000" stroke="none" 
	d="
M117.645523,223.113647 
	C118.234367,224.328766 119.241890,226.147720 118.708359,226.986801 
	C116.726807,230.103165 117.954155,232.704758 119.006966,235.635986 
	C120.315971,239.280502 120.016434,244.463791 126.219231,240.964157 
	C125.000938,244.062592 123.989380,246.635254 122.658112,249.456161 
	C121.550186,248.276047 120.653313,246.895996 119.993103,245.410721 
	C117.532776,239.875778 115.150131,234.306290 112.738327,228.749771 
	C112.738327,228.749771 112.752853,228.314804 112.833107,228.112091 
	C114.394516,226.362152 115.875664,224.814926 117.645523,223.113647 
z"/>
<path fill="#FE8F95" opacity="1.000000" stroke="none" 
	d="
M235.048798,203.358185 
	C239.714600,201.785156 243.621201,204.625641 243.970016,209.765411 
	C244.113937,211.886002 243.981430,214.025345 243.946808,216.612030 
	C241.013245,212.600632 238.107544,208.133362 235.048798,203.358185 
z"/>
<path fill="#9A4D53" opacity="1.000000" stroke="none" 
	d="
M222.476379,159.177246 
	C221.437027,158.792236 220.748077,158.070465 220.063263,158.074371 
	C209.878891,158.132599 199.695068,158.286865 189.211029,158.723984 
	C188.598526,158.578461 188.286118,158.127365 187.928085,157.393341 
	C200.372650,157.185608 212.862839,157.260818 225.659393,157.611115 
	C224.920074,158.316818 223.874390,158.747421 222.476379,159.177246 
z"/>
<path fill="#FD9197" opacity="1.000000" stroke="none" 
	d="
M244.883484,248.308014 
	C246.326294,247.817719 247.758026,247.638184 250.122498,247.341675 
	C249.519882,249.015839 249.058975,250.296295 248.598068,251.576736 
	C247.530838,251.138901 246.463623,250.701065 245.083038,250.057831 
	C244.803925,249.441223 244.838150,249.029984 244.883484,248.308014 
z"/>
<path fill="#FE8F95" opacity="1.000000" stroke="none" 
	d="
M126.871796,220.681183 
	C125.429314,220.478195 123.864647,219.956390 122.088699,219.132874 
	C122.383560,217.936478 122.889709,217.041779 123.852890,215.339218 
	C125.087639,217.480377 125.918633,218.921371 126.871796,220.681183 
z"/>
<path fill="#FD9197" opacity="1.000000" stroke="none" 
	d="
M207.693192,290.054871 
	C208.980301,290.758026 210.010513,291.586578 211.040741,292.415100 
	C210.791733,292.936005 210.542709,293.456940 210.293701,293.977844 
	C208.899185,293.267517 207.504669,292.557190 206.061432,291.497314 
	C206.487228,290.825256 206.961761,290.502777 207.693192,290.054871 
z"/>
<path fill="#FE8F95" opacity="1.000000" stroke="none" 
	d="
M130.106323,226.642517 
	C129.640503,226.387314 129.121613,225.841934 128.851547,225.120789 
	C129.418015,225.414124 129.735641,225.883224 130.106323,226.642517 
z"/>
<path fill="#FD9197" opacity="1.000000" stroke="none" 
	d="
M139.908356,275.028595 
	C143.882629,274.703186 145.803940,276.590820 147.892746,280.105713 
	C150.292953,284.144653 154.404175,287.266632 158.141891,290.336792 
	C159.013519,291.052734 161.377228,289.952179 163.464661,289.622620 
	C163.018356,291.023254 162.539612,292.525665 161.793289,294.867889 
	C163.402176,294.526672 164.366165,294.232819 165.349487,294.136749 
	C166.534348,294.021027 168.173233,293.552917 168.862656,294.132660 
	C176.480194,300.538483 185.196732,301.393646 194.650467,300.151367 
	C201.181427,299.293182 207.824661,299.309357 214.407120,298.798187 
	C215.243088,298.733276 216.070511,297.907776 216.800583,297.310760 
	C217.547714,296.699738 218.149246,295.353058 218.850464,295.327850 
	C228.011978,294.998199 230.979767,286.696442 236.565643,281.787201 
	C237.722046,280.770874 239.034348,279.931915 240.645020,279.010010 
	C235.533752,289.198517 227.163986,296.059113 216.409042,300.020996 
	C205.190079,304.153809 193.630096,305.046997 181.832260,303.190765 
	C180.533737,302.986450 179.192200,303.055664 177.274872,302.761414 
	C176.088409,302.423737 175.497696,302.322693 174.906967,302.221649 
	C174.882462,302.429077 174.857956,302.636505 174.833450,302.843964 
	C175.563217,302.889343 176.292984,302.934723 177.022751,302.980133 
	C178.486511,304.286255 179.929367,305.616730 181.417252,306.894775 
	C198.394348,321.477631 198.194687,343.485016 185.899353,360.701233 
	C175.899979,374.702576 149.656799,381.918457 133.246353,372.942383 
	C124.939346,368.398682 115.318291,366.257385 105.854385,363.031128 
	C104.683502,362.213379 103.949577,361.394409 103.057083,360.341064 
	C100.566513,355.188782 98.178261,350.296295 95.931923,345.339539 
	C95.105659,343.516296 94.614639,341.541107 93.829094,339.216095 
	C104.280830,345.850220 113.857506,352.327454 123.816917,358.149994 
	C136.358185,365.481995 150.209473,369.380096 164.366928,365.548187 
	C173.940704,362.956909 180.196762,354.828583 182.911972,344.966827 
	C185.274796,336.384949 184.341660,327.754913 181.192612,319.541168 
	C179.158005,314.234314 175.598785,310.268158 169.163712,309.934753 
	C159.410263,309.429413 149.471069,309.656311 139.970215,307.765778 
	C123.851028,304.558350 110.554855,295.904816 100.281471,282.914215 
	C97.218208,279.040741 91.549461,274.799164 91.889259,271.178070 
	C92.557877,264.052734 96.598885,257.243896 99.623672,250.458923 
	C102.691574,254.080643 104.766731,258.400879 108.182243,260.857910 
	C119.404510,268.931061 128.930527,278.349152 135.299118,290.710510 
	C137.435501,294.857208 140.564713,297.526672 145.232727,298.020782 
	C153.550552,298.901184 161.883713,299.636566 170.210464,300.432587 
	C168.968704,299.219299 167.423950,298.540985 165.889389,297.840363 
	C154.942093,292.842072 145.769669,285.820343 139.908356,275.028595 
z"/>
<path fill="#FE8F95" opacity="1.000000" stroke="none" 
	d="
M72.346649,258.626892 
	C79.864357,271.988739 87.411751,284.978699 98.206306,295.489990 
	C112.291969,309.205963 128.926117,318.006073 149.010223,318.927460 
	C154.495514,319.179108 160.001160,319.021118 165.497177,318.994659 
	C170.006287,318.972931 172.722412,320.600769 173.793854,325.490173 
	C176.108353,336.052307 175.383026,345.235474 166.638550,353.171661 
	C161.150894,358.151978 155.361969,357.044159 149.341614,356.582825 
	C140.331787,355.892456 132.639282,351.624634 124.841728,347.482697 
	C111.129570,340.198914 98.896469,331.119507 90.595284,317.863342 
	C85.783089,310.178741 81.454781,301.935425 78.523178,293.389709 
	C74.291901,281.055359 71.517921,268.220428 68.164040,255.587936 
	C68.008858,255.003479 68.262932,254.310364 69.223679,253.202728 
	C70.206421,254.903809 71.189156,256.604889 72.346649,258.626892 
z"/>
<path fill="#FECAC9" opacity="1.000000" stroke="none" 
	d="
M139.675842,274.874390 
	C145.769669,285.820343 154.942093,292.842072 165.889389,297.840363 
	C167.423950,298.540985 168.968704,299.219299 170.210464,300.432587 
	C161.883713,299.636566 153.550552,298.901184 145.232727,298.020782 
	C140.564713,297.526672 137.435501,294.857208 135.299118,290.710510 
	C128.930527,278.349152 119.404510,268.931061 108.182243,260.857910 
	C104.766731,258.400879 102.691574,254.080643 99.903923,250.256165 
	C99.805305,249.898605 99.864319,249.406250 99.825851,249.161560 
	C103.928345,242.334747 108.069298,235.752655 112.474289,228.960175 
	C115.150131,234.306290 117.532776,239.875778 119.993103,245.410721 
	C120.653313,246.895996 121.550186,248.276047 122.640823,249.877594 
	C122.943222,250.050781 122.953102,250.021896 122.987396,250.386719 
	C125.874519,255.191422 128.598358,259.721649 131.622940,264.041260 
	C133.852798,267.225952 136.475342,270.135712 138.922928,273.167969 
	C139.096390,273.685364 139.269852,274.202759 139.675842,274.874390 
z"/>
<path fill="#FD9197" opacity="1.000000" stroke="none" 
	d="
M93.534790,337.565186 
	C93.479439,337.600464 93.590141,337.529877 93.534790,337.565186 
z"/>
<path fill="#FFFFFF" opacity="1.000000" stroke="none" 
	d="
M467.431091,155.514801 
	C467.388306,155.441177 467.570557,155.416611 467.570557,155.416611 
	C467.570557,155.416611 467.473877,155.588425 467.431091,155.514801 
z"/>
<path fill="#FBC8C7" opacity="1.000000" stroke="none" 
	d="
M410.537323,553.882202 
	C413.755463,553.133850 415.450684,554.418884 414.856232,557.114197 
	C414.014313,560.931580 413.274994,565.178101 411.066162,568.198669 
	C407.064514,573.670837 402.360382,578.777344 397.238342,583.215759 
	C394.899323,585.242554 390.891235,586.022888 387.602112,586.123291 
	C381.844818,586.299072 380.380951,583.490173 383.683746,578.600220 
	C390.575775,568.396118 399.895782,560.660889 410.537323,553.882202 
z"/>
<path fill="#FE8E94" opacity="1.000000" stroke="none" 
	d="
M178.870117,431.021179 
	C166.389084,431.995270 154.049088,434.864349 143.076004,425.981934 
	C162.253494,425.015930 176.533203,415.849548 187.778870,400.713562 
	C193.150330,405.029327 196.795654,410.088318 198.781097,416.145935 
	C199.971420,419.777679 198.871338,423.266998 195.040817,424.900604 
	C189.870880,427.105469 184.550995,428.958710 178.870117,431.021179 
z"/>
<path fill="#964B51" opacity="1.000000" stroke="none" 
	d="
M312.988708,343.225464 
	C306.722137,341.113617 300.442261,339.039642 294.205780,336.842499 
	C293.417877,336.564911 292.466919,335.753021 292.249786,334.999115 
	C287.584991,318.801880 291.718536,294.510071 306.864075,282.569214 
	C324.382141,268.757782 344.401062,276.235779 354.459290,290.451477 
	C366.729706,307.793762 367.170074,339.406830 349.553711,356.584045 
	C345.797333,360.246704 342.473969,361.866089 338.404602,357.202026 
	C344.436188,353.158966 349.283325,348.581116 352.200806,342.158783 
	C353.852478,338.522919 353.324585,335.996674 349.400482,334.113129 
	C338.581299,328.919922 320.089783,333.435944 312.988708,343.225464 
M305.535278,293.120514 
	C299.460083,301.014618 299.642181,304.798553 306.976105,311.362823 
	C309.416656,313.547272 312.291260,315.522552 315.312378,316.731354 
	C324.852295,320.548370 334.657288,323.372437 344.837311,319.107391 
	C351.972290,316.118073 355.817352,308.432007 353.420441,302.082367 
	C346.204620,282.967072 322.736877,272.324860 305.535278,293.120514 
z"/>
<path fill="#974B51" opacity="1.000000" stroke="none" 
	d="
M463.319519,353.005707 
	C462.340271,354.664124 461.361023,356.322510 460.214844,358.263672 
	C451.544006,352.627960 447.673615,344.277893 445.408234,335.454895 
	C440.949036,318.087616 442.149902,301.187653 451.915192,285.496033 
	C460.980408,270.929291 478.283020,270.214355 488.020844,284.382019 
	C495.869263,295.800690 498.134674,308.795166 497.089081,322.420959 
	C496.999756,323.585114 495.884491,324.983612 494.849579,325.704193 
	C491.603058,327.964752 488.167023,329.953125 484.213654,331.922729 
	C477.284698,322.528381 468.022491,319.198181 456.236877,321.347504 
	C451.783691,322.159637 450.276154,324.243866 451.061127,328.423645 
	C451.304871,329.721466 451.415466,331.131042 452.016663,332.260803 
	C455.715881,339.212158 459.538177,346.098053 463.319519,353.005707 
M453.597290,299.385162 
	C457.924316,310.238037 477.591980,316.553528 486.781494,309.905670 
	C487.882202,309.109436 489.140167,306.886200 488.763885,305.956024 
	C486.063354,299.280121 483.920654,292.058990 479.738647,286.383087 
	C474.541229,279.328918 465.456940,279.970001 460.144623,286.904205 
	C457.475922,290.387726 455.852509,294.672028 453.597290,299.385162 
z"/>
<path fill="#F8466E" opacity="1.000000" stroke="none" 
	d="
M313.174500,343.494751 
	C320.089783,333.435944 338.581299,328.919922 349.400482,334.113129 
	C353.324585,335.996674 353.852478,338.522919 352.200806,342.158783 
	C349.283325,348.581116 344.436188,353.158966 338.219360,356.920471 
	C329.725372,352.638641 321.542816,348.201355 313.174500,343.494751 
z"/>
<path fill="#F8466E" opacity="1.000000" stroke="none" 
	d="
M463.618439,352.925690 
	C459.538177,346.098053 455.715881,339.212158 452.016663,332.260803 
	C451.415466,331.131042 451.304871,329.721466 451.061127,328.423645 
	C450.276154,324.243866 451.783691,322.159637 456.236877,321.347504 
	C468.022491,319.198181 477.284698,322.528381 483.887451,332.041168 
	C477.407135,339.137787 470.662231,345.991730 463.618439,352.925690 
z"/>
<path fill="#984E53" opacity="1.000000" stroke="none" 
	d="
M408.016602,357.955261 
	C408.536255,354.110229 408.381592,350.234283 409.939575,347.253418 
	C412.640076,342.086517 418.628357,342.056427 422.212860,346.694550 
	C425.678833,351.179321 426.378265,356.335449 423.595947,361.140869 
	C422.206787,363.540192 419.062378,366.258789 416.632050,366.336548 
	C414.296600,366.411194 411.758301,363.380219 409.518799,361.468384 
	C408.730743,360.795624 408.563721,359.395325 408.016602,357.955261 
z"/>
<path fill="#FD9197" opacity="1.000000" stroke="none" 
	d="
M252.287598,262.798157 
	C250.322357,258.485809 250.299194,254.260483 253.273514,250.055405 
	C254.333801,248.556412 254.301361,246.220871 254.573303,244.240494 
	C255.248978,239.319901 255.812759,234.383942 256.726959,229.218994 
	C259.311005,240.686737 258.562073,251.987289 252.287598,262.798157 
z"/>
<path fill="#FD9197" opacity="1.000000" stroke="none" 
	d="
M245.403015,273.012268 
	C244.586227,271.724030 244.044266,270.393646 243.638733,269.022888 
	C243.249435,267.706970 243.001526,266.349213 242.691452,265.009827 
	C244.041428,264.930878 245.391098,264.797302 246.741470,264.789673 
	C247.882645,264.783234 249.024658,264.922821 250.576355,264.996735 
	C249.236786,267.647919 247.487137,270.300171 245.403015,273.012268 
z"/>
<path fill="#FD9197" opacity="1.000000" stroke="none" 
	d="
M241.312469,278.860992 
	C240.061218,276.586853 239.113846,274.160431 237.876434,270.991150 
	C240.527740,271.829926 242.408646,272.424957 244.683624,273.044312 
	C243.923904,274.948608 242.770126,276.828644 241.312469,278.860992 
z"/>
<path fill="#FD9197" opacity="1.000000" stroke="none" 
	d="
M138.949158,272.752472 
	C136.475342,270.135712 133.852798,267.225952 131.622940,264.041260 
	C128.598358,259.721649 125.874519,255.191422 122.982803,250.396942 
	C124.726570,249.861526 126.509232,249.680710 128.869781,249.441269 
	C128.784561,250.919266 128.372299,252.395218 128.700668,253.682205 
	C129.214127,255.694611 129.901947,257.816650 131.101257,259.466888 
	C133.388580,262.614288 136.221100,265.363953 138.534073,268.495331 
	C139.197983,269.394165 138.856110,271.035889 138.949158,272.752472 
z"/>
<path fill="#FD9197" opacity="1.000000" stroke="none" 
	d="
M172.225632,289.138916 
	C174.195557,288.027100 176.119049,287.301697 178.751694,286.308807 
	C177.109528,291.740448 176.127121,292.050964 172.225632,289.138916 
z"/>
<path fill="#FD9197" opacity="1.000000" stroke="none" 
	d="
M188.112579,294.998718 
	C186.657639,294.838165 185.605972,294.677124 184.554321,294.516083 
	C184.523972,294.035797 184.493622,293.555511 184.463272,293.075226 
	C186.808731,292.721252 189.154175,292.367249 191.499619,292.013275 
	C191.652344,292.647675 191.805054,293.282074 191.957764,293.916473 
	C190.810471,294.277069 189.663177,294.637665 188.112579,294.998718 
z"/>
<path fill="#FD9197" opacity="1.000000" stroke="none" 
	d="
M145.046402,257.036285 
	C145.956833,256.449188 146.843826,256.236786 147.730820,256.024384 
	C147.399597,257.145142 147.068359,258.265930 146.737122,259.386688 
	C146.165726,258.728119 145.594345,258.069550 145.046402,257.036285 
z"/>
<path fill="#FD9197" opacity="1.000000" stroke="none" 
	d="
M224.550339,287.715424 
	C224.279266,288.576843 223.801636,289.191925 223.324005,289.807007 
	C223.018112,289.511932 222.712219,289.216858 222.406326,288.921783 
	C223.052155,288.437561 223.697968,287.953339 224.550339,287.715424 
z"/>
<path fill="#FD9197" opacity="1.000000" stroke="none" 
	d="
M229.401062,281.476624 
	C229.962616,282.029633 230.227997,282.716583 230.493393,283.403564 
	C229.922058,283.468719 229.350723,283.533844 228.779388,283.598999 
	C228.887894,282.936157 228.996414,282.273346 229.401062,281.476624 
z"/>
<path fill="#FD9197" opacity="1.000000" stroke="none" 
	d="
M124.808701,226.202209 
	C125.054070,226.764038 125.000374,227.264496 124.946686,227.764938 
	C124.497452,227.651108 124.048233,227.537277 123.599014,227.423431 
	C123.902565,226.995911 124.206100,226.568375 124.808701,226.202209 
z"/>
<path fill="#FECAC9" opacity="1.000000" stroke="none" 
	d="
M177.012161,302.988281 
	C176.292984,302.934723 175.563217,302.889343 174.833450,302.843964 
	C174.857956,302.636505 174.882462,302.429077 174.906967,302.221649 
	C175.497696,302.322693 176.088409,302.423737 176.834854,302.772278 
	C176.990570,303.019745 177.001572,302.996429 177.012161,302.988281 
z"/>
<path fill="#FCFBF7" opacity="1.000000" stroke="none" 
	d="
M305.777954,292.851227 
	C322.736877,272.324860 346.204620,282.967072 353.420441,302.082367 
	C355.817352,308.432007 351.972290,316.118073 344.837311,319.107391 
	C334.657288,323.372437 324.852295,320.548370 315.312378,316.731354 
	C312.291260,315.522552 309.416656,313.547272 306.976105,311.362823 
	C299.642181,304.798553 299.460083,301.014618 305.777954,292.851227 
z"/>
<path fill="#FBF9F5" opacity="1.000000" stroke="none" 
	d="
M453.676849,298.989685 
	C455.852509,294.672028 457.475922,290.387726 460.144623,286.904205 
	C465.456940,279.970001 474.541229,279.328918 479.738647,286.383087 
	C483.920654,292.058990 486.063354,299.280121 488.763885,305.956024 
	C489.140167,306.886200 487.882202,309.109436 486.781494,309.905670 
	C477.591980,316.553528 457.924316,310.238037 453.676849,298.989685 
z"/>
</svg>