<svg version="1.1" id="Layer_1" xmlns="http://www.w3.org/2000/svg" xmlns:xlink="http://www.w3.org/1999/xlink" x="0px" y="0px"
	 width="100%" viewBox="0 0 754 780" enable-background="new 0 0 754 780" xml:space="preserve">
<path fill="#FFFFFF" opacity="1.000000" stroke="none" 
	d="
M398.000000,781.000000 
	C265.333344,781.000000 133.166672,781.000000 1.000000,781.000000 
	C1.000000,521.000000 1.000000,261.000000 1.000000,1.000000 
	C252.333328,1.000000 503.666656,1.000000 755.000000,1.000000 
	C755.000000,261.000000 755.000000,521.000000 755.000000,781.000000 
	C636.166687,781.000000 517.333313,781.000000 398.000000,781.000000 
M602.139343,394.308411 
	C603.361389,391.137787 604.583496,387.967194 606.635010,384.806458 
	C610.758118,383.243835 615.024414,381.973877 618.968445,380.045105 
	C623.982300,377.593109 628.490845,373.978455 633.648315,371.974762 
	C646.759827,366.880920 658.924988,360.575989 663.453979,346.200897 
	C666.723511,335.823517 672.926514,327.775543 679.630737,319.631714 
	C686.803345,310.918884 693.569336,301.760559 695.624817,290.145142 
	C697.608215,278.936646 692.352173,271.326141 681.229248,270.032135 
	C677.088806,269.550415 672.845276,269.954163 668.645996,269.954163 
	C668.750732,269.712524 669.004639,268.770874 669.516296,268.000397 
	C675.313599,259.271393 679.094971,249.796127 680.322571,239.344223 
	C681.832275,226.490448 683.851990,213.673798 684.756592,200.778336 
	C685.608704,188.631027 684.506714,176.503204 679.773621,165.030731 
	C673.674072,150.246048 661.088562,145.050430 647.010559,151.730728 
	C638.133911,155.942856 632.456055,162.939713 629.937439,172.595139 
	C626.789856,184.661652 622.273438,196.296326 611.598206,203.644257 
	C606.538452,207.127014 599.854248,208.150864 594.297668,211.041611 
	C589.712036,213.427261 584.706909,216.154449 581.668945,220.101349 
	C576.980713,226.192307 573.813904,233.454330 569.380005,239.897034 
	C557.425781,230.132416 546.116272,219.409943 533.366516,210.827103 
	C514.114075,197.866760 492.892395,188.587677 470.589600,181.805771 
	C428.140656,168.897766 384.974823,165.691071 341.187988,172.279907 
	C293.457489,179.462143 250.178604,197.107635 212.882660,227.938797 
	C211.112976,225.675232 209.296219,221.467239 207.582336,221.508743 
	C202.206619,221.638885 200.262192,218.014542 197.303787,214.986252 
	C194.798767,212.422043 191.848083,209.862030 188.591095,208.552200 
	C181.525818,205.710800 174.276917,202.994553 166.847931,201.472824 
	C157.532700,199.564713 151.765442,194.322952 148.367599,185.868637 
	C146.135712,180.315369 144.185196,174.638519 141.725861,169.189774 
	C138.453140,161.938858 134.343872,155.321152 125.911247,153.017456 
	C113.988731,149.760376 101.295593,155.353333 95.455170,166.285461 
	C88.553650,179.203766 90.387451,191.897629 95.898949,204.688385 
	C99.540520,213.139481 101.949059,221.597290 99.429398,231.226242 
	C98.026596,236.587082 98.852509,242.720261 99.595978,248.384354 
	C100.059357,251.914581 102.243454,255.218933 103.837021,259.062927 
	C102.457924,258.955688 101.633736,259.001465 100.865555,258.815674 
	C85.272125,255.044373 72.927605,262.866302 69.948555,278.549469 
	C68.218170,287.659058 66.642708,296.798706 65.061394,305.935852 
	C63.004562,317.820648 65.355499,328.420441 75.918945,335.330719 
	C86.130661,342.010925 92.216698,350.695679 94.799500,362.744385 
	C97.008682,373.050171 104.204674,379.997223 114.654396,382.380249 
	C119.266022,383.431946 124.327896,382.363129 129.050735,383.109192 
	C135.375778,384.108307 142.093399,384.887085 147.683884,387.679504 
	C154.195862,390.932220 160.112854,392.941254 167.298309,390.626312 
	C170.643509,397.393066 173.988708,404.159851 176.778595,411.549957 
	C167.042191,414.987823 159.298141,410.988800 152.205643,404.848206 
	C146.871216,400.229675 141.249832,396.326752 134.209229,394.596069 
	C121.106689,391.375336 106.995872,402.053375 106.864754,415.436340 
	C106.788315,423.238647 109.207771,430.118591 113.869041,436.321594 
	C118.055145,441.892303 122.942909,447.133301 126.072128,453.259827 
	C132.747681,466.329590 143.732910,471.182831 157.433945,472.943390 
	C166.740906,474.139343 175.912399,476.571869 185.047394,478.842041 
	C189.211624,479.876923 193.028763,482.347076 197.201111,483.302643 
	C205.609894,485.228455 213.773300,484.348419 219.312515,476.910889 
	C222.277985,472.929199 223.897690,467.945160 226.691376,463.835846 
	C244.458847,477.289093 264.361389,486.828125 285.884949,495.779175 
	C284.104431,497.143250 282.413422,497.878143 281.581329,499.167358 
	C276.202606,507.500641 269.619659,515.407898 266.052185,524.484863 
	C258.913574,542.648010 264.392883,559.907959 273.793091,575.907898 
	C280.713013,587.686157 291.242188,594.967834 304.897247,597.161987 
	C310.635742,598.084045 316.472198,598.389587 322.219025,599.269958 
	C324.188568,599.571655 326.288208,600.417664 327.871185,601.617981 
	C336.596039,608.233948 345.107727,615.131592 353.851318,621.721924 
	C356.794708,623.940369 360.203979,625.540833 363.417328,627.433716 
	C362.961578,628.096069 362.822357,628.419495 362.582581,628.626282 
	C361.448212,629.604736 360.320251,630.595764 359.129028,631.502258 
	C347.386780,640.437378 343.751373,652.789124 344.504974,666.828064 
	C344.887451,673.953552 348.065063,679.911560 354.729523,682.859863 
	C367.195984,688.374939 379.479675,688.714600 391.145447,680.248047 
	C399.183777,674.414124 405.109894,667.085999 408.431549,656.957397 
	C409.268341,658.440613 409.873566,659.213135 410.173340,660.090027 
	C414.132782,671.672974 422.378540,679.343079 432.935181,684.774658 
	C447.173981,692.100708 464.727142,684.825989 467.835876,670.399536 
	C469.745300,661.538635 469.414551,652.633667 465.593048,644.465881 
	C462.357880,637.551270 457.809448,631.251099 453.701416,624.445801 
	C467.930786,616.878784 481.115417,606.403442 491.809448,592.911072 
	C492.369415,592.204529 493.375488,591.641602 494.269379,591.444153 
	C499.618103,590.262878 504.968384,589.051208 510.367340,588.141479 
	C525.240601,585.635071 536.219421,578.151611 543.851196,564.800903 
	C556.885071,542.000000 551.376282,508.170410 531.036865,491.503113 
	C526.764648,488.002228 522.097229,484.983582 518.029297,482.044281 
	C529.740234,473.833923 541.307007,465.724609 553.598267,457.780609 
	C556.950806,460.526154 559.917847,464.156006 563.740723,465.822418 
	C570.489014,468.763977 576.049133,464.025818 581.884399,461.374298 
	C587.270325,458.926941 592.692688,456.117889 598.403625,454.917542 
	C611.339478,452.198639 622.882935,447.214081 633.392090,439.020996 
	C649.995300,426.076965 652.706909,406.600433 657.306946,388.416412 
	C659.875732,378.261902 650.316101,371.433807 639.914368,373.924866 
	C630.239685,376.241821 623.818848,383.646149 616.409790,389.377411 
	C611.981018,392.803192 607.484863,394.953308 602.139343,394.308411 
M178.587936,117.867645 
	C180.520462,120.763321 182.363052,123.724594 184.412979,126.534630 
	C186.162384,128.932678 188.052429,131.246567 190.059692,133.432938 
	C192.068939,135.621429 193.873367,135.118240 195.063553,132.497482 
	C195.680206,131.139603 196.406174,129.726379 196.563644,128.281586 
	C197.827957,116.681976 204.330536,107.660881 210.710266,98.473167 
	C214.277359,93.336029 217.279388,87.782616 220.240707,82.258476 
	C221.803421,79.343384 220.890808,76.714340 218.576263,74.131531 
	C214.378677,69.447388 210.179947,64.660950 206.749817,59.414970 
	C200.580475,49.979664 195.034195,40.138744 189.078552,30.559973 
	C188.204575,29.154339 186.633606,27.636681 185.154526,27.346567 
	C184.186661,27.156721 182.318130,28.844240 181.688095,30.107412 
	C178.655594,36.187149 176.000671,42.453888 173.037430,48.569790 
	C167.472809,60.054680 161.992203,71.588020 156.084320,82.896233 
	C151.895447,90.914093 152.203384,90.966347 159.095825,97.133125 
	C165.959793,103.274429 171.808334,110.550659 178.587936,117.867645 
M619.424011,485.157196 
	C616.687256,488.812561 618.781189,491.712646 621.037842,494.434021 
	C622.397705,496.073914 624.226990,497.317474 625.649780,498.913513 
	C630.941895,504.849762 636.057861,510.945312 641.427673,516.809204 
	C645.050537,520.765442 647.778198,520.455872 650.162720,516.498962 
	C653.988586,510.150177 657.739502,503.730865 662.005798,497.682587 
	C664.483765,494.169556 664.908020,490.764160 662.659973,487.563049 
	C657.531799,480.260925 652.197205,473.075256 646.501160,466.211853 
	C643.388000,462.460754 639.006165,463.159882 635.815491,466.830902 
	C630.600464,472.830902 625.236572,478.701447 619.424011,485.157196 
M192.823456,524.686951 
	C188.304291,519.337891 184.617371,518.671753 182.224747,522.815369 
	C179.164169,528.115784 175.968948,533.355103 173.265747,538.834839 
	C172.485397,540.416748 172.382339,543.396118 173.362350,544.604919 
	C178.468552,550.902832 184.083282,556.785095 189.397385,562.919250 
	C191.821411,565.717346 194.130997,565.454529 195.779968,562.586731 
	C198.912003,557.139832 201.962585,551.594055 204.353271,545.802979 
	C205.114838,543.958130 204.305222,540.811462 203.127396,538.947327 
	C200.129883,534.202942 196.518326,529.846558 192.823456,524.686951 
z"/>
<path fill="#81333A" opacity="1.000000" stroke="none" 
	d="
M552.873779,457.615295 
	C541.307007,465.724609 529.740234,473.833923 518.029297,482.044281 
	C522.097229,484.983582 526.764648,488.002228 531.036865,491.503113 
	C551.376282,508.170410 556.885071,542.000000 543.851196,564.800903 
	C536.219421,578.151611 525.240601,585.635071 510.367340,588.141479 
	C504.968384,589.051208 499.618103,590.262878 494.269379,591.444153 
	C493.375488,591.641602 492.369415,592.204529 491.809448,592.911072 
	C481.115417,606.403442 467.930786,616.878784 453.701416,624.445801 
	C457.809448,631.251099 462.357880,637.551270 465.593048,644.465881 
	C469.414551,652.633667 469.745300,661.538635 467.835876,670.399536 
	C464.727142,684.825989 447.173981,692.100708 432.935181,684.774658 
	C422.378540,679.343079 414.132782,671.672974 410.173340,660.090027 
	C409.873566,659.213135 409.268341,658.440613 408.431549,656.957397 
	C405.109894,667.085999 399.183777,674.414124 391.145447,680.248047 
	C379.479675,688.714600 367.195984,688.374939 354.729523,682.859863 
	C348.065063,679.911560 344.887451,673.953552 344.504974,666.828064 
	C343.751373,652.789124 347.386780,640.437378 359.129028,631.502258 
	C360.320251,630.595764 361.448212,629.604736 362.582581,628.626282 
	C362.822357,628.419495 362.961578,628.096069 363.417328,627.433716 
	C360.203979,625.540833 356.794708,623.940369 353.851318,621.721924 
	C345.107727,615.131592 336.596039,608.233948 327.871185,601.617981 
	C326.288208,600.417664 324.188568,599.571655 322.219025,599.269958 
	C316.472198,598.389587 310.635742,598.084045 304.897247,597.161987 
	C291.242188,594.967834 280.713013,587.686157 273.793091,575.907898 
	C264.392883,559.907959 258.913574,542.648010 266.052185,524.484863 
	C269.619659,515.407898 276.202606,507.500641 281.581329,499.167358 
	C282.413422,497.878143 284.104431,497.143250 285.884949,495.779175 
	C264.361389,486.828125 244.458847,477.289093 226.292816,463.386536 
	C225.258087,462.305267 224.621933,461.673309 224.018829,460.614136 
	C223.032349,456.154968 222.012802,452.122955 221.103058,447.971741 
	C221.212875,447.852539 221.354828,447.561096 221.708221,447.482208 
	C223.838577,448.058167 225.833679,448.391510 227.354736,449.423523 
	C233.954453,453.901306 240.262634,458.820129 246.956863,463.145111 
	C265.832184,475.340240 286.413666,483.775726 307.955536,489.910126 
	C310.816986,490.724945 311.797180,491.978424 311.422333,494.766113 
	C310.870209,498.872772 310.024994,502.995972 310.024475,507.112213 
	C310.019104,549.346436 325.625702,583.476135 362.254242,606.438477 
	C382.431610,619.087585 404.536011,622.049011 427.071167,615.838928 
	C463.445587,605.815063 485.595642,580.699280 497.191345,545.478943 
	C503.441803,526.494019 502.045624,507.016632 501.032471,487.572479 
	C500.924286,485.496826 500.186493,483.139374 498.958252,481.498322 
	C495.825043,477.312225 498.167267,475.972107 501.691895,474.248138 
	C511.189545,469.602631 520.819702,465.110535 529.832947,459.629639 
	C536.896240,455.334564 543.068665,449.588623 549.749329,444.639130 
	C551.225525,443.545502 553.175537,443.091431 554.902405,442.524658 
	C554.897461,442.706451 555.050598,443.036957 555.018433,443.452576 
	C554.775391,447.673462 554.564514,451.478729 554.245239,455.544739 
	C553.715820,456.408752 553.294800,457.012024 552.873779,457.615295 
M513.342346,498.760986 
	C513.365601,499.091858 513.371277,499.425049 513.414734,499.753265 
	C515.022644,511.902924 518.436218,524.093140 514.674561,536.300293 
	C511.609161,546.247864 507.646332,555.917358 504.147888,565.733826 
	C502.984894,568.997131 502.028015,572.333862 500.854034,576.023193 
	C522.567871,575.578552 535.856384,561.044373 537.620178,542.346863 
	C539.307800,524.457092 532.673950,509.043457 517.415527,498.312500 
	C516.489563,497.661285 514.821655,498.065094 513.342346,498.760986 
M295.865356,537.559692 
	C294.725891,527.804382 293.586426,518.049072 292.446960,508.293762 
	C291.996063,508.051636 291.545166,507.809509 291.094238,507.567383 
	C287.061096,514.884460 281.864410,521.810791 279.247925,529.603577 
	C274.466034,543.845581 279.072235,557.075867 286.790375,569.329102 
	C292.667328,578.659302 301.540100,582.903992 312.205017,583.825562 
	C313.485229,583.936157 315.470947,583.458069 316.002899,582.574463 
	C316.562378,581.645142 316.184204,579.628418 315.487640,578.562866 
	C313.310883,575.233337 310.438293,572.329224 308.480316,568.892761 
	C304.982086,562.752869 301.658569,556.473206 298.847870,549.997681 
	C297.284912,546.396729 296.905243,542.282104 295.865356,537.559692 
M431.512054,667.025940 
	C434.284851,668.822754 436.885010,671.007874 439.867279,672.333496 
	C445.655731,674.906616 452.201630,673.023743 453.661469,668.560120 
	C458.002777,655.285950 449.594208,630.898621 429.778259,632.636292 
	C423.467804,633.189697 421.149475,634.432739 421.065155,640.888123 
	C420.937256,650.677979 423.568054,659.578064 431.512054,667.025940 
M394.175751,653.351196 
	C395.011902,648.853943 397.159882,643.765991 393.048859,640.275635 
	C389.134094,636.951965 385.087799,632.985535 378.576324,635.390503 
	C366.332764,639.912598 357.671814,652.425293 359.161377,665.293274 
	C359.394592,667.307800 361.665771,670.096313 363.592712,670.742065 
	C376.667297,675.123169 388.293915,668.609131 394.175751,653.351196 
z"/>
<path fill="#FC8B95" opacity="1.000000" stroke="none" 
	d="
M167.022797,389.954590 
	C160.112854,392.941254 154.195862,390.932220 147.683884,387.679504 
	C142.093399,384.887085 135.375778,384.108307 129.050735,383.109192 
	C124.327896,382.363129 119.266022,383.431946 114.654396,382.380249 
	C104.204674,379.997223 97.008682,373.050171 94.799500,362.744385 
	C92.216698,350.695679 86.130661,342.010925 75.918945,335.330719 
	C65.355499,328.420441 63.004562,317.820648 65.061394,305.935852 
	C66.642708,296.798706 68.218170,287.659058 69.948555,278.549469 
	C72.927605,262.866302 85.272125,255.044373 100.865555,258.815674 
	C101.633736,259.001465 102.457924,258.955688 103.837021,259.062927 
	C102.243454,255.218933 100.059357,251.914581 99.595978,248.384354 
	C98.852509,242.720261 98.026596,236.587082 99.429398,231.226242 
	C101.949059,221.597290 99.540520,213.139481 95.898949,204.688385 
	C90.387451,191.897629 88.553650,179.203766 95.455170,166.285461 
	C101.295593,155.353333 113.988731,149.760376 125.911247,153.017456 
	C134.343872,155.321152 138.453140,161.938858 141.725861,169.189774 
	C144.185196,174.638519 146.135712,180.315369 148.367599,185.868637 
	C151.765442,194.322952 157.532700,199.564713 166.847931,201.472824 
	C174.276917,202.994553 181.525818,205.710800 188.591095,208.552200 
	C191.848083,209.862030 194.798767,212.422043 197.303787,214.986252 
	C200.262192,218.014542 202.206619,221.638885 207.582336,221.508743 
	C209.296219,221.467239 211.112976,225.675232 213.006226,228.529694 
	C212.993973,229.368484 212.866257,229.620483 212.428787,229.948578 
	C209.896255,232.017258 207.752625,234.102310 205.432007,235.967133 
	C204.504135,236.712784 203.134613,237.487473 202.053284,237.379150 
	C172.596207,234.428223 152.749176,218.160751 139.936203,192.263855 
	C136.404144,185.125061 133.446594,177.646835 129.334335,170.864685 
	C124.543381,162.963211 116.639572,163.190262 112.004082,171.221481 
	C109.921722,174.829269 108.644196,179.218842 108.169807,183.386673 
	C104.738892,213.529556 113.138878,240.703629 130.326843,265.182678 
	C135.020645,271.867615 141.217499,277.772583 147.640427,282.884796 
	C153.230652,287.334229 160.112762,290.160553 166.584747,293.794342 
	C166.391495,294.954041 166.149796,296.404419 165.721481,297.962677 
	C165.250931,298.387421 164.967010,298.704285 164.192200,299.026459 
	C159.540146,298.291473 154.432404,298.816132 151.409744,296.554352 
	C144.574921,291.440002 138.251236,285.392914 132.695572,278.891296 
	C127.486572,272.795349 120.299629,271.321106 113.696388,268.089813 
	C115.724403,273.343689 118.318314,278.112823 120.455673,283.078430 
	C123.772774,290.784821 129.621826,295.198273 137.251511,298.340729 
	C143.280487,300.823914 148.684158,304.797455 154.463806,307.927673 
	C156.731308,309.155762 159.266495,309.889587 161.761337,311.230042 
	C161.827957,312.390045 161.813004,313.168488 161.527344,314.194214 
	C160.475525,317.212982 159.694443,319.984497 158.831085,323.047943 
	C154.869797,321.923157 151.215912,321.320496 147.929764,319.879333 
	C131.309692,312.590363 117.440178,302.299988 110.778008,284.505859 
	C109.074036,279.954712 106.098137,276.382629 101.081871,276.453796 
	C95.668106,276.530640 90.508057,279.086243 88.939407,284.447845 
	C86.645546,292.288116 84.379303,300.494720 84.343132,308.555267 
	C84.285553,321.384460 89.596184,333.139832 95.828178,344.169678 
	C109.612946,368.567017 131.554825,380.728485 158.538727,385.127045 
	C161.490631,385.608246 164.288345,387.035339 167.149033,388.347900 
	C167.101273,389.099579 167.062042,389.527069 167.022797,389.954590 
z"/>
<path fill="#FD8B94" opacity="1.000000" stroke="none" 
	d="
M570.001831,240.219635 
	C573.813904,233.454330 576.980713,226.192307 581.668945,220.101349 
	C584.706909,216.154449 589.712036,213.427261 594.297668,211.041611 
	C599.854248,208.150864 606.538452,207.127014 611.598206,203.644257 
	C622.273438,196.296326 626.789856,184.661652 629.937439,172.595139 
	C632.456055,162.939713 638.133911,155.942856 647.010559,151.730728 
	C661.088562,145.050430 673.674072,150.246048 679.773621,165.030731 
	C684.506714,176.503204 685.608704,188.631027 684.756592,200.778336 
	C683.851990,213.673798 681.832275,226.490448 680.322571,239.344223 
	C679.094971,249.796127 675.313599,259.271393 669.516296,268.000397 
	C669.004639,268.770874 668.750732,269.712524 668.645996,269.954163 
	C672.845276,269.954163 677.088806,269.550415 681.229248,270.032135 
	C692.352173,271.326141 697.608215,278.936646 695.624817,290.145142 
	C693.569336,301.760559 686.803345,310.918884 679.630737,319.631714 
	C672.926514,327.775543 666.723511,335.823517 663.453979,346.200897 
	C658.924988,360.575989 646.759827,366.880920 633.648315,371.974762 
	C628.490845,373.978455 623.982300,377.593109 618.968445,380.045105 
	C615.024414,381.973877 610.758118,383.243835 606.154602,384.535950 
	C605.659851,383.901642 605.645508,383.537781 605.869507,382.859283 
	C608.235046,379.134857 607.581665,374.399872 613.143433,372.675751 
	C644.047913,363.095459 663.151184,341.322144 674.113098,311.728485 
	C676.100098,306.364410 677.182922,300.565094 677.944275,294.867950 
	C679.626709,282.279663 674.113647,273.876434 658.802979,280.043823 
	C657.989807,280.371887 657.492432,280.695709 656.762268,281.124695 
	C656.349060,281.507080 656.168701,281.784332 655.994629,282.028870 
	C656.000854,281.996124 656.065002,282.014069 655.712280,281.971252 
	C654.651489,281.981659 653.943420,282.034851 652.971191,282.142395 
	C652.469971,282.454498 652.232727,282.712158 651.996704,282.987427 
	C651.997864,283.005035 651.968140,282.985870 651.663879,283.011108 
	C650.918640,283.404388 650.477661,283.772461 649.923828,284.343140 
	C649.597351,284.785706 649.333313,284.938507 648.801025,285.094879 
	C648.307800,285.362030 648.116882,285.604767 647.753967,286.095428 
	C646.363525,287.193909 645.229492,288.110870 643.850830,289.120209 
	C643.408020,289.490936 643.209900,289.769287 642.864624,290.336517 
	C641.497314,291.455231 640.277100,292.285065 638.885742,292.864746 
	C638.196167,293.126373 637.677795,293.638153 637.126587,294.150330 
	C637.093750,294.150757 637.128113,294.094727 636.862000,294.205444 
	C636.393127,294.831848 636.190308,295.347504 635.718506,296.066040 
	C632.345093,298.860626 629.240662,301.452332 625.887817,304.123047 
	C625.426208,304.467621 625.213074,304.733154 625.000000,304.999329 
	C625.000000,305.000000 624.998596,304.999390 624.601929,305.003998 
	C619.169373,308.198700 613.790039,306.740234 608.335754,306.240417 
	C608.195129,306.309784 607.895935,306.403656 607.932068,305.990112 
	C606.236572,301.219391 607.889771,299.038940 612.024414,296.852234 
	C623.120300,290.983826 633.378723,283.525482 640.672058,273.279114 
	C659.479919,246.856201 669.542053,217.790665 665.063049,184.791290 
	C663.974060,176.768585 658.837585,170.324890 651.881775,169.164124 
	C646.847595,168.324020 641.809265,172.126465 638.146484,179.555008 
	C637.190002,181.494843 636.295288,183.465042 635.350403,185.410721 
	C630.636658,195.116867 626.434937,205.121323 621.026978,214.424271 
	C616.975891,221.392899 612.151489,228.323944 606.227966,233.673340 
	C600.575500,238.777985 593.174316,242.036804 586.324097,245.699814 
	C579.107971,249.558517 579.005310,249.337433 573.307312,243.833786 
	C572.608826,243.159134 571.733887,242.667145 570.827881,241.850403 
	C570.477295,241.146759 570.239563,240.683212 570.001831,240.219635 
z"/>
<path fill="#82353C" opacity="1.000000" stroke="none" 
	d="
M569.690918,240.058350 
	C570.239563,240.683212 570.477295,241.146759 570.761108,242.248260 
	C571.202393,248.589478 571.597534,254.292755 571.698486,259.837524 
	C568.910583,256.803345 566.536011,253.813461 563.904907,251.069580 
	C534.105713,219.993622 497.327515,201.019974 456.225891,190.059830 
	C421.918488,180.911423 386.958221,178.898453 351.673248,182.929779 
	C318.549316,186.714188 287.197113,196.189774 257.865967,212.170883 
	C240.202271,221.794952 224.385986,233.872559 210.050079,247.508438 
	C210.965363,241.364410 211.856003,235.620499 212.746658,229.876587 
	C212.866257,229.620483 212.993973,229.368484 213.126068,228.908752 
	C250.178604,197.107635 293.457489,179.462143 341.187988,172.279907 
	C384.974823,165.691071 428.140656,168.897766 470.589600,181.805771 
	C492.892395,188.587677 514.114075,197.866760 533.366516,210.827103 
	C546.116272,219.409943 557.425781,230.132416 569.690918,240.058350 
z"/>
<path fill="#FCFB78" opacity="1.000000" stroke="none" 
	d="
M178.345016,117.598450 
	C171.808334,110.550659 165.959793,103.274429 159.095825,97.133125 
	C152.203384,90.966347 151.895447,90.914093 156.084320,82.896233 
	C161.992203,71.588020 167.472809,60.054680 173.037430,48.569790 
	C176.000671,42.453888 178.655594,36.187149 181.688095,30.107412 
	C182.318130,28.844240 184.186661,27.156721 185.154526,27.346567 
	C186.633606,27.636681 188.204575,29.154339 189.078552,30.559973 
	C195.034195,40.138744 200.580475,49.979664 206.749817,59.414970 
	C210.179947,64.660950 214.378677,69.447388 218.576263,74.131531 
	C220.890808,76.714340 221.803421,79.343384 220.240707,82.258476 
	C217.279388,87.782616 214.277359,93.336029 210.710266,98.473167 
	C204.330536,107.660881 197.827957,116.681976 196.563644,128.281586 
	C196.406174,129.726379 195.680206,131.139603 195.063553,132.497482 
	C193.873367,135.118240 192.068939,135.621429 190.059692,133.432938 
	C188.052429,131.246567 186.162384,128.932678 184.412979,126.534630 
	C182.363052,123.724594 180.520462,120.763321 178.345016,117.598450 
z"/>
<path fill="#FC8B95" opacity="1.000000" stroke="none" 
	d="
M223.985779,461.041321 
	C224.621933,461.673309 225.258087,462.305267 226.009491,463.175354 
	C223.897690,467.945160 222.277985,472.929199 219.312515,476.910889 
	C213.773300,484.348419 205.609894,485.228455 197.201111,483.302643 
	C193.028763,482.347076 189.211624,479.876923 185.047394,478.842041 
	C175.912399,476.571869 166.740906,474.139343 157.433945,472.943390 
	C143.732910,471.182831 132.747681,466.329590 126.072128,453.259827 
	C122.942909,447.133301 118.055145,441.892303 113.869041,436.321594 
	C109.207771,430.118591 106.788315,423.238647 106.864754,415.436340 
	C106.995872,402.053375 121.106689,391.375336 134.209229,394.596069 
	C141.249832,396.326752 146.871216,400.229675 152.205643,404.848206 
	C159.298141,410.988800 167.042191,414.987823 177.305664,411.393921 
	C178.503098,412.219147 179.173477,413.200378 179.913162,414.517456 
	C181.137863,417.047943 182.293259,419.242645 183.669724,421.857300 
	C181.074036,421.471527 179.271317,421.289581 177.505554,420.927399 
	C164.614014,418.283478 151.691711,415.984314 143.721497,403.438049 
	C140.707657,398.693817 134.066574,398.698273 130.850021,403.133728 
	C129.124084,405.513672 128.170425,408.934509 128.063141,411.928467 
	C127.421432,429.836365 141.661667,448.781281 157.877548,457.074921 
	C174.468231,465.560272 192.269485,464.156311 210.008148,462.493103 
	C214.671738,462.055847 219.326797,461.527740 223.985779,461.041321 
z"/>
<path fill="#FB8C96" opacity="1.000000" stroke="none" 
	d="
M553.236023,457.697937 
	C553.294800,457.012024 553.715820,456.408752 554.622314,455.462158 
	C557.052368,454.739349 558.981506,454.208496 560.944458,454.006378 
	C569.667603,453.108337 578.462708,452.710907 587.117859,451.387360 
	C609.564087,447.954773 625.897217,434.701874 638.932373,417.145294 
	C643.295105,411.269287 646.538025,404.250824 646.028381,396.305969 
	C645.388916,386.339233 637.141296,381.308685 628.661987,386.223602 
	C622.071350,390.043762 616.032227,394.803650 609.560242,398.845123 
	C606.189758,400.949890 602.413208,402.404541 597.763916,404.666779 
	C598.864136,401.147400 599.498901,399.116943 600.342285,396.895203 
	C601.017090,396.136017 601.483154,395.568115 601.949219,395.000244 
	C607.484863,394.953308 611.981018,392.803192 616.409790,389.377411 
	C623.818848,383.646149 630.239685,376.241821 639.914368,373.924866 
	C650.316101,371.433807 659.875732,378.261902 657.306946,388.416412 
	C652.706909,406.600433 649.995300,426.076965 633.392090,439.020996 
	C622.882935,447.214081 611.339478,452.198639 598.403625,454.917542 
	C592.692688,456.117889 587.270325,458.926941 581.884399,461.374298 
	C576.049133,464.025818 570.489014,468.763977 563.740723,465.822418 
	C559.917847,464.156006 556.950806,460.526154 553.236023,457.697937 
z"/>
<path fill="#CFFC93" opacity="1.000000" stroke="none" 
	d="
M619.679749,484.891907 
	C625.236572,478.701447 630.600464,472.830902 635.815491,466.830902 
	C639.006165,463.159882 643.388000,462.460754 646.501160,466.211853 
	C652.197205,473.075256 657.531799,480.260925 662.659973,487.563049 
	C664.908020,490.764160 664.483765,494.169556 662.005798,497.682587 
	C657.739502,503.730865 653.988586,510.150177 650.162720,516.498962 
	C647.778198,520.455872 645.050537,520.765442 641.427673,516.809204 
	C636.057861,510.945312 630.941895,504.849762 625.649780,498.913513 
	C624.226990,497.317474 622.397705,496.073914 621.037842,494.434021 
	C618.781189,491.712646 616.687256,488.812561 619.679749,484.891907 
z"/>
<path fill="#DCC2FB" opacity="1.000000" stroke="none" 
	d="
M192.988007,525.010864 
	C196.518326,529.846558 200.129883,534.202942 203.127396,538.947327 
	C204.305222,540.811462 205.114838,543.958130 204.353271,545.802979 
	C201.962585,551.594055 198.912003,557.139832 195.779968,562.586731 
	C194.130997,565.454529 191.821411,565.717346 189.397385,562.919250 
	C184.083282,556.785095 178.468552,550.902832 173.362350,544.604919 
	C172.382339,543.396118 172.485397,540.416748 173.265747,538.834839 
	C175.968948,533.355103 179.164169,528.115784 182.224747,522.815369 
	C184.617371,518.671753 188.304291,519.337891 192.988007,525.010864 
z"/>
<path fill="#84343B" opacity="1.000000" stroke="none" 
	d="
M179.843857,414.181641 
	C179.173477,413.200378 178.503098,412.219147 177.583313,411.082275 
	C173.988708,404.159851 170.643509,397.393066 167.160553,390.290466 
	C167.062042,389.527069 167.101273,389.099579 167.483017,388.310303 
	C170.202499,384.612671 172.579468,381.276855 175.155975,377.996643 
	C175.355515,378.052307 175.768448,378.085938 175.865540,378.447876 
	C181.277832,389.798370 186.601700,400.782745 191.901398,411.778778 
	C193.042114,414.145599 194.095657,416.554443 194.864044,418.829376 
	C190.597321,414.101898 185.929550,411.843597 179.843857,414.181641 
z"/>
<path fill="#86343B" opacity="1.000000" stroke="none" 
	d="
M602.044312,394.654327 
	C601.483154,395.568115 601.017090,396.136017 599.940186,396.891388 
	C594.981262,397.678741 590.633301,398.278656 586.393799,398.563049 
	C589.479187,391.257843 592.455994,384.268097 595.621826,377.234802 
	C595.810913,377.191254 596.150330,376.999329 596.425049,377.177032 
	C599.676819,379.294495 602.653992,381.234222 605.631104,383.173950 
	C605.645508,383.537781 605.659851,383.901642 605.739868,384.531036 
	C604.583496,387.967194 603.361389,391.137787 602.044312,394.654327 
z"/>
<path fill="#FFCCCB" opacity="1.000000" stroke="none" 
	d="
M595.432739,377.278320 
	C592.455994,384.268097 589.479187,391.257843 586.228394,398.825348 
	C585.636414,399.932190 585.318481,400.461243 584.653931,401.009216 
	C583.026245,402.046906 581.673523,402.988281 580.475159,404.096466 
	C568.900024,414.800049 561.951477,428.604858 554.907349,442.342834 
	C553.175537,443.091431 551.225525,443.545502 549.749329,444.639130 
	C543.068665,449.588623 536.896240,455.334564 529.832947,459.629639 
	C520.819702,465.110535 511.189545,469.602631 501.691895,474.248138 
	C498.167267,475.972107 495.825043,477.312225 498.958252,481.498322 
	C500.186493,483.139374 500.924286,485.496826 501.032471,487.572479 
	C502.045624,507.016632 503.441803,526.494019 497.191345,545.478943 
	C485.595642,580.699280 463.445587,605.815063 427.071167,615.838928 
	C404.536011,622.049011 382.431610,619.087585 362.254242,606.438477 
	C325.625702,583.476135 310.019104,549.346436 310.024475,507.112213 
	C310.024994,502.995972 310.870209,498.872772 311.422333,494.766113 
	C311.797180,491.978424 310.816986,490.724945 307.955536,489.910126 
	C286.413666,483.775726 265.832184,475.340240 246.956863,463.145111 
	C240.262634,458.820129 233.954453,453.901306 227.354736,449.423523 
	C225.833679,448.391510 223.838577,448.058167 221.425125,447.212372 
	C219.771591,445.524597 218.941162,443.848938 217.706528,442.560547 
	C210.823181,435.377289 203.841980,428.287750 196.657211,420.996521 
	C196.009933,420.199219 195.599655,419.571564 195.189362,418.943939 
	C194.095657,416.554443 193.042114,414.145599 191.901398,411.778778 
	C186.601700,400.782745 181.277832,389.798370 175.922455,377.999268 
	C176.158127,374.579163 176.461014,371.972229 176.705200,369.359772 
	C177.856827,357.038208 176.071075,345.205566 170.800568,333.533081 
	C170.678253,331.684601 170.522751,330.268158 170.536301,328.523193 
	C170.726654,326.989685 170.497208,325.715302 170.808258,324.590424 
	C173.712967,314.086212 176.710403,303.607605 179.899445,292.866211 
	C180.857361,291.499268 181.596817,290.387665 182.672745,289.228821 
	C186.997650,285.287781 191.267258,281.638580 194.913589,277.447144 
	C201.626770,269.730408 206.868286,261.126495 208.826477,250.527557 
	C209.313538,249.459000 209.669479,248.683777 210.025421,247.908554 
	C224.385986,233.872559 240.202271,221.794952 257.865967,212.170883 
	C287.197113,196.189774 318.549316,186.714188 351.673248,182.929779 
	C386.958221,178.898453 421.918488,180.911423 456.225891,190.059830 
	C497.327515,201.019974 534.105713,219.993622 563.904907,251.069580 
	C566.536011,253.813461 568.910583,256.803345 571.775513,260.083496 
	C572.440674,260.651978 572.734558,260.815948 573.034180,261.376892 
	C575.073486,273.118134 581.269287,282.491455 587.437988,291.844086 
	C588.541626,293.517426 590.405029,294.689636 592.012573,296.406738 
	C592.792786,297.839783 593.478088,298.959320 594.193726,300.449951 
	C595.885986,307.181335 597.547791,313.541626 599.100830,320.268433 
	C597.116333,327.609314 594.915955,334.515656 593.437378,341.573242 
	C590.918762,353.595398 589.333923,365.684753 595.432739,377.278320 
M496.758698,372.092468 
	C500.034485,372.092468 503.310303,372.092468 507.107605,372.092468 
	C507.107605,365.664276 506.918152,359.866699 507.148346,354.085846 
	C507.581818,343.199615 503.502075,333.802368 497.368225,325.316315 
	C486.503876,310.285706 467.858704,309.876068 456.894897,324.644135 
	C443.963257,342.062897 443.043640,361.524780 449.127228,381.654633 
	C450.913483,387.565247 453.227753,393.404694 458.054993,397.486084 
	C460.211029,393.123840 462.186401,389.127136 464.813721,384.953796 
	C468.198059,382.628784 471.299255,379.558441 475.028625,378.141663 
	C481.757721,375.585327 488.862579,374.018036 496.758698,372.092468 
M314.660004,391.151245 
	C315.994659,394.766907 317.329346,398.382568 318.908173,402.659668 
	C328.085480,392.900970 332.259857,381.967957 333.252014,369.682526 
	C334.491089,354.339630 333.592316,339.429718 324.620300,326.057678 
	C312.459778,307.933502 292.502258,307.259979 279.679840,324.806335 
	C270.902161,336.817810 269.082184,350.746857 269.526031,365.130066 
	C269.635468,368.677917 270.339020,372.207458 270.784607,375.870117 
	C274.741943,374.728546 277.924194,373.810547 281.997070,372.964600 
	C285.781921,373.294739 289.665710,373.194885 293.332275,374.038879 
	C302.815613,376.221741 309.126770,382.768860 314.660004,391.151245 
M420.044220,422.916626 
	C407.246155,422.946930 394.447906,423.027710 381.650177,422.974640 
	C378.126251,422.960052 376.516022,424.174988 377.788574,427.761108 
	C379.385376,432.260925 380.562988,437.018005 382.864563,441.137207 
	C388.037018,450.394409 398.081696,454.061584 406.558716,450.418518 
	C415.532135,446.562073 423.382812,431.605011 420.044220,422.916626 
z"/>
<path fill="#D54653" opacity="1.000000" stroke="none" 
	d="
M194.864059,418.829376 
	C195.599655,419.571564 196.009933,420.199219 196.681122,421.426819 
	C197.305450,432.793854 195.995926,434.300995 185.323212,434.029510 
	C172.644638,433.707001 160.380798,431.279236 148.772064,425.954956 
	C147.612793,425.423248 146.262329,425.308350 144.960892,424.843414 
	C144.825226,424.632446 144.729279,424.578064 144.633331,424.523651 
	C144.755341,424.682434 144.877350,424.841217 145.032089,425.354126 
	C153.155853,440.449097 165.331940,449.451782 182.334671,449.810822 
	C195.203018,450.082581 208.105804,448.723999 220.993256,448.090973 
	C222.012802,452.122955 223.032349,456.154968 224.018829,460.614136 
	C219.326797,461.527740 214.671738,462.055847 210.008148,462.493103 
	C192.269485,464.156311 174.468231,465.560272 157.877548,457.074921 
	C141.661667,448.781281 127.421432,429.836365 128.063141,411.928467 
	C128.170425,408.934509 129.124084,405.513672 130.850021,403.133728 
	C134.066574,398.698273 140.707657,398.693817 143.721497,403.438049 
	C151.691711,415.984314 164.614014,418.283478 177.505554,420.927399 
	C179.271317,421.289581 181.074036,421.471527 183.669724,421.857300 
	C182.293259,419.242645 181.137863,417.047943 179.913162,414.517456 
	C185.929550,411.843597 190.597321,414.101898 194.864059,418.829376 
z"/>
<path fill="#D54753" opacity="1.000000" stroke="none" 
	d="
M585.000549,400.990326 
	C585.318481,400.461243 585.636414,399.932190 586.119812,399.140808 
	C590.633301,398.278656 594.981262,397.678741 599.731445,397.082703 
	C599.498901,399.116943 598.864136,401.147400 597.763916,404.666779 
	C602.413208,402.404541 606.189758,400.949890 609.560242,398.845123 
	C616.032227,394.803650 622.071350,390.043762 628.661987,386.223602 
	C637.141296,381.308685 645.388916,386.339233 646.028381,396.305969 
	C646.538025,404.250824 643.295105,411.269287 638.932373,417.145294 
	C625.897217,434.701874 609.564087,447.954773 587.117859,451.387360 
	C578.462708,452.710907 569.667603,453.108337 560.944458,454.006378 
	C558.981506,454.208496 557.052368,454.739349 554.730591,455.201416 
	C554.564514,451.478729 554.775391,447.673462 555.445801,443.428101 
	C560.800171,442.315155 565.680237,441.496796 570.592896,440.998810 
	C581.862610,439.856354 593.188354,437.959656 602.874939,432.221069 
	C610.547852,427.675446 617.231812,421.156677 623.527344,414.706299 
	C627.188049,410.955536 629.216858,405.612091 632.117859,400.933472 
	C632.175964,400.928192 632.096130,400.974670 631.658386,401.026917 
	C629.757446,401.956970 628.163940,402.807007 626.679688,403.817535 
	C616.826904,410.526062 607.087524,417.309418 594.677429,418.697357 
	C588.223206,419.419159 584.223267,416.934723 584.008362,410.576202 
	C583.900879,407.395721 584.642822,404.186523 585.000549,400.990326 
z"/>
<path fill="#FCC7C7" opacity="1.000000" stroke="none" 
	d="
M513.420654,498.369507 
	C514.821655,498.065094 516.489563,497.661285 517.415527,498.312500 
	C532.673950,509.043457 539.307800,524.457092 537.620178,542.346863 
	C535.856384,561.044373 522.567871,575.578552 500.854034,576.023193 
	C502.028015,572.333862 502.984894,568.997131 504.147888,565.733826 
	C507.646332,555.917358 511.609161,546.247864 514.674561,536.300293 
	C518.436218,524.093140 515.022644,511.902924 513.414734,499.753265 
	C513.371277,499.425049 513.365601,499.091858 513.420654,498.369507 
z"/>
<path fill="#FD7882" opacity="1.000000" stroke="none" 
	d="
M584.653931,401.009216 
	C584.642822,404.186523 583.900879,407.395721 584.008362,410.576202 
	C584.223267,416.934723 588.223206,419.419159 594.677429,418.697357 
	C607.087524,417.309418 616.826904,410.526062 626.679688,403.817535 
	C628.163940,402.807007 629.757446,401.956970 631.650208,401.016907 
	C632.000000,401.001160 631.979980,400.985291 631.979980,400.985291 
	C629.216858,405.612091 627.188049,410.955536 623.527344,414.706299 
	C617.231812,421.156677 610.547852,427.675446 602.874939,432.221069 
	C593.188354,437.959656 581.862610,439.856354 570.592896,440.998810 
	C565.680237,441.496796 560.800171,442.315155 555.477905,443.012482 
	C555.050598,443.036957 554.897461,442.706451 554.902405,442.524628 
	C561.951477,428.604858 568.900024,414.800049 580.475159,404.096466 
	C581.673523,402.988281 583.026245,402.046906 584.653931,401.009216 
z"/>
<path fill="#FBC7C6" opacity="1.000000" stroke="none" 
	d="
M295.928833,537.979370 
	C296.905243,542.282104 297.284912,546.396729 298.847870,549.997681 
	C301.658569,556.473206 304.982086,562.752869 308.480316,568.892761 
	C310.438293,572.329224 313.310883,575.233337 315.487640,578.562866 
	C316.184204,579.628418 316.562378,581.645142 316.002899,582.574463 
	C315.470947,583.458069 313.485229,583.936157 312.205017,583.825562 
	C301.540100,582.903992 292.667328,578.659302 286.790375,569.329102 
	C279.072235,557.075867 274.466034,543.845581 279.247925,529.603577 
	C281.864410,521.810791 287.061096,514.884460 291.094238,507.567383 
	C291.545166,507.809509 291.996063,508.051636 292.446960,508.293762 
	C293.586426,518.049072 294.725891,527.804382 295.928833,537.979370 
z"/>
<path fill="#FD7881" opacity="1.000000" stroke="none" 
	d="
M221.103058,447.971741 
	C208.105804,448.723999 195.203018,450.082581 182.334671,449.810822 
	C165.331940,449.451782 153.155853,440.449097 145.032410,425.354126 
	C145.000000,425.000000 145.000610,425.000000 145.000610,425.000000 
	C146.262329,425.308350 147.612793,425.423248 148.772064,425.954956 
	C160.380798,431.279236 172.644638,433.707001 185.323212,434.029510 
	C195.995926,434.300995 197.305450,432.793854 196.918121,421.596466 
	C203.841980,428.287750 210.823181,435.377289 217.706528,442.560547 
	C218.941162,443.848938 219.771591,445.524597 221.071732,447.291260 
	C221.354828,447.561096 221.212875,447.852539 221.103058,447.971741 
z"/>
<path fill="#FCC8C8" opacity="1.000000" stroke="none" 
	d="
M431.258484,666.773926 
	C423.568054,659.578064 420.937256,650.677979 421.065155,640.888123 
	C421.149475,634.432739 423.467804,633.189697 429.778259,632.636292 
	C449.594208,630.898621 458.002777,655.285950 453.661469,668.560120 
	C452.201630,673.023743 445.655731,674.906616 439.867279,672.333496 
	C436.885010,671.007874 434.284851,668.822754 431.258484,666.773926 
z"/>
<path fill="#FCC8C8" opacity="1.000000" stroke="none" 
	d="
M394.105072,653.753418 
	C388.293915,668.609131 376.667297,675.123169 363.592712,670.742065 
	C361.665771,670.096313 359.394592,667.307800 359.161377,665.293274 
	C357.671814,652.425293 366.332764,639.912598 378.576324,635.390503 
	C385.087799,632.985535 389.134094,636.951965 393.048859,640.275635 
	C397.159882,643.765991 395.011902,648.853943 394.105072,653.753418 
z"/>
<path fill="#D54753" opacity="1.000000" stroke="none" 
	d="
M182.336288,289.276093 
	C181.596817,290.387665 180.857361,291.499268 179.560425,292.907593 
	C174.638016,294.754486 170.273071,296.304657 165.908112,297.854858 
	C166.149796,296.404419 166.391495,294.954041 166.584747,293.794342 
	C160.112762,290.160553 153.230652,287.334229 147.640427,282.884796 
	C141.217499,277.772583 135.020645,271.867615 130.326843,265.182678 
	C113.138878,240.703629 104.738892,213.529556 108.169807,183.386673 
	C108.644196,179.218842 109.921722,174.829269 112.004082,171.221481 
	C116.639572,163.190262 124.543381,162.963211 129.334335,170.864685 
	C133.446594,177.646835 136.404144,185.125061 139.936203,192.263855 
	C152.749176,218.160751 172.596207,234.428223 202.053284,237.379150 
	C203.134613,237.487473 204.504135,236.712784 205.432007,235.967133 
	C207.752625,234.102310 209.896255,232.017258 212.428787,229.948578 
	C211.856003,235.620499 210.965363,241.364410 210.050064,247.508438 
	C209.669479,248.683777 209.313538,249.459000 208.494873,250.612610 
	C205.196182,254.160065 202.042297,254.123199 198.191772,252.696533 
	C192.772385,250.688568 187.093079,249.392090 181.562454,247.670670 
	C178.087875,246.589203 174.435684,245.736450 171.285370,244.010468 
	C150.965302,232.877548 135.689453,217.050415 126.972603,195.319427 
	C124.797852,189.897781 122.735542,184.431046 120.621559,178.985031 
	C119.931129,179.034821 119.240700,179.084610 118.550270,179.134399 
	C118.033455,182.898636 116.732689,186.753021 117.153160,190.409470 
	C118.228500,199.760818 118.813362,209.469681 121.913391,218.213348 
	C126.090698,229.995453 131.848587,241.341415 138.010117,252.264221 
	C145.640976,265.791809 156.484604,275.844391 172.053513,280.445282 
	C176.005829,281.613251 178.936295,286.239105 182.336288,289.276093 
z"/>
<path fill="#D54753" opacity="1.000000" stroke="none" 
	d="
M170.367233,328.851685 
	C170.522751,330.268158 170.678253,331.684601 170.364532,333.541016 
	C164.299805,334.166168 158.471481,335.426910 153.164688,334.278259 
	C145.665970,332.655121 137.993851,330.216187 131.397919,326.395844 
	C119.799614,319.678192 108.584396,312.052124 102.900291,298.933105 
	C102.187508,297.287994 100.970589,295.861298 99.409401,293.435547 
	C98.846725,298.401428 98.196022,302.143250 98.042168,305.905396 
	C97.687103,314.587341 100.762070,322.456940 104.187660,330.228149 
	C109.176796,341.546265 116.404755,350.978882 126.620224,358.144745 
	C139.664963,367.295258 154.582809,370.838501 169.973633,372.790558 
	C173.639648,373.255554 175.028336,374.536194 174.956436,377.941010 
	C172.579468,381.276855 170.202499,384.612671 167.491547,387.986115 
	C164.288345,387.035339 161.490631,385.608246 158.538727,385.127045 
	C131.554825,380.728485 109.612946,368.567017 95.828178,344.169678 
	C89.596184,333.139832 84.285553,321.384460 84.343132,308.555267 
	C84.379303,300.494720 86.645546,292.288116 88.939407,284.447845 
	C90.508057,279.086243 95.668106,276.530640 101.081871,276.453796 
	C106.098137,276.382629 109.074036,279.954712 110.778008,284.505859 
	C117.440178,302.299988 131.309692,312.590363 147.929764,319.879333 
	C151.215912,321.320496 154.869797,321.923157 158.831085,323.047943 
	C159.694443,319.984497 160.475525,317.212982 161.868118,314.327850 
	C163.609406,315.780884 164.952042,317.238403 165.823288,318.937622 
	C167.480301,322.169342 168.867798,325.539185 170.367233,328.851685 
z"/>
<path fill="#FEF6F6" opacity="1.000000" stroke="none" 
	d="
M161.679779,310.848480 
	C159.266495,309.889587 156.731308,309.155762 154.463806,307.927673 
	C148.684158,304.797455 143.280487,300.823914 137.251511,298.340729 
	C129.621826,295.198273 123.772774,290.784821 120.455673,283.078430 
	C118.318314,278.112823 115.724403,273.343689 113.696388,268.089813 
	C120.299629,271.321106 127.486572,272.795349 132.695572,278.891296 
	C138.251236,285.392914 144.574921,291.440002 151.409744,296.554352 
	C154.432404,298.816132 159.540146,298.291473 164.110794,299.431549 
	C163.573441,303.503723 162.626602,307.176086 161.679779,310.848480 
z"/>
<path fill="#85333A" opacity="1.000000" stroke="none" 
	d="
M161.761337,311.230042 
	C162.626602,307.176086 163.573441,303.503723 164.601685,299.426239 
	C164.967010,298.704285 165.250931,298.387421 165.721497,297.962708 
	C170.273071,296.304657 174.638016,294.754486 179.341980,293.162964 
	C176.710403,303.607605 173.712967,314.086212 170.808258,324.590424 
	C170.497208,325.715302 170.726654,326.989685 170.536301,328.523193 
	C168.867798,325.539185 167.480301,322.169342 165.823288,318.937622 
	C164.952042,317.238403 163.609406,315.780884 162.138855,314.080566 
	C161.813004,313.168488 161.827957,312.390045 161.761337,311.230042 
z"/>
<path fill="#D54653" opacity="1.000000" stroke="none" 
	d="
M573.028442,260.979889 
	C572.734558,260.815948 572.440674,260.651978 572.069702,260.242035 
	C571.597534,254.292755 571.202393,248.589478 570.873962,242.488342 
	C571.733887,242.667145 572.608826,243.159134 573.307312,243.833786 
	C579.005310,249.337433 579.107971,249.558517 586.324097,245.699814 
	C593.174316,242.036804 600.575500,238.777985 606.227966,233.673340 
	C612.151489,228.323944 616.975891,221.392899 621.026978,214.424271 
	C626.434937,205.121323 630.636658,195.116867 635.350403,185.410721 
	C636.295288,183.465042 637.190002,181.494843 638.146484,179.555008 
	C641.809265,172.126465 646.847595,168.324020 651.881775,169.164124 
	C658.837585,170.324890 663.974060,176.768585 665.063049,184.791290 
	C669.542053,217.790665 659.479919,246.856201 640.672058,273.279114 
	C633.378723,283.525482 623.120300,290.983826 612.024414,296.852234 
	C607.889771,299.038940 606.236572,301.219391 607.693115,306.162201 
	C602.999756,304.524811 598.581604,302.301849 594.163391,300.078888 
	C593.478088,298.959320 592.792786,297.839783 592.060791,296.028076 
	C592.780945,294.180817 593.294067,292.652496 594.355469,291.930695 
	C601.638245,286.978546 609.370850,282.624542 616.292236,277.223938 
	C621.984009,272.782776 627.699951,267.815277 631.756470,261.942352 
	C642.931396,245.763565 650.520813,227.876907 652.657104,208.136734 
	C653.514771,200.211517 653.882141,192.104874 650.968262,182.996384 
	C649.833862,185.227615 649.284363,186.331055 648.715210,187.424255 
	C641.665466,200.965454 635.187805,214.846603 627.404358,227.952209 
	C619.119385,241.902206 606.891846,251.379181 591.198669,256.719543 
	C585.170410,258.770935 579.543701,261.431213 573.028442,260.979889 
z"/>
<path fill="#D54753" opacity="1.000000" stroke="none" 
	d="
M605.869507,382.859283 
	C602.653992,381.234222 599.676819,379.294495 596.391479,376.785339 
	C596.876160,372.837585 597.465027,369.391571 598.552856,366.111023 
	C599.055664,364.594452 600.256531,362.810883 601.620056,362.173859 
	C605.353394,360.429657 609.338379,359.222229 613.228394,357.815369 
	C626.998230,352.835480 639.000366,344.923737 647.231995,332.926636 
	C653.464417,323.843323 657.737061,313.392914 662.616455,303.421021 
	C663.708862,301.188660 663.693298,298.414185 664.456604,294.516571 
	C659.321960,299.057159 655.250366,302.616791 651.223511,306.226318 
	C639.279175,316.932709 625.695984,324.596405 609.976990,328.130463 
	C603.450928,329.597626 600.008850,326.645233 600.243835,319.864624 
	C603.336609,317.092926 606.174561,314.543304 609.282898,312.203064 
	C610.425232,313.181000 611.711731,314.787079 612.106628,314.591644 
	C617.508667,311.917969 622.787598,308.995483 628.316162,306.074158 
	C628.535461,306.014069 628.981201,305.923859 629.363647,305.943848 
	C630.797363,305.252930 631.848572,304.542084 632.936462,303.869019 
	C632.973206,303.906830 632.868469,303.894501 633.239014,303.931763 
	C634.388916,303.277557 635.168335,302.586060 635.971313,301.930847 
	C635.994812,301.967133 635.912354,301.941101 636.288391,301.968079 
	C642.601074,300.311249 646.387146,296.273712 648.918640,290.866028 
	C648.950806,290.904114 648.862915,290.951233 649.131897,290.838470 
	C649.577698,290.390076 649.754517,290.054443 649.995117,289.524963 
	C650.219421,289.083527 650.446838,288.949554 651.017212,288.847351 
	C651.506042,288.458496 651.718994,288.151489 651.919189,287.889709 
	C651.906494,287.934875 651.828308,287.882904 652.180664,287.877686 
	C652.958008,287.169159 653.382996,286.465881 653.841309,285.811920 
	C653.874634,285.861206 653.756714,285.877808 654.032471,285.797943 
	C654.553772,285.226776 654.799377,284.735443 655.093140,283.934875 
	C655.449158,283.088470 655.757080,282.551270 656.065002,282.014069 
	C656.065002,282.014069 656.000854,281.996124 656.222839,281.992798 
	C656.444824,281.989471 656.892578,281.876526 657.195068,281.846497 
	C658.037964,281.224182 658.578369,280.631866 659.118774,280.039551 
	C674.113647,273.876434 679.626709,282.279663 677.944275,294.867950 
	C677.182922,300.565094 676.100098,306.364410 674.113098,311.728485 
	C663.151184,341.322144 644.047913,363.095459 613.143433,372.675751 
	C607.581665,374.399872 608.235046,379.134857 605.869507,382.859283 
z"/>
<path fill="#89343A" opacity="1.000000" stroke="none" 
	d="
M609.012512,311.993713 
	C606.174561,314.543304 603.336609,317.092926 600.052368,319.803406 
	C599.606079,319.964264 599.209656,319.901947 599.209656,319.901947 
	C597.547791,313.541626 595.885986,307.181335 594.193726,300.449951 
	C598.581604,302.301849 602.999756,304.524811 607.656982,306.575745 
	C607.895935,306.403656 608.195129,306.309784 608.375854,306.581848 
	C608.708496,308.567169 608.860535,310.280426 609.012512,311.993713 
z"/>
<path fill="#FCE6E7" opacity="1.000000" stroke="none" 
	d="
M628.981201,305.923889 
	C628.981201,305.923859 628.535461,306.014069 627.970215,306.006104 
	C626.602905,305.665253 625.800720,305.332336 624.998596,304.999390 
	C624.998596,304.999390 625.000000,305.000000 625.245728,304.916962 
	C625.706421,304.570618 625.921326,304.307312 626.136230,304.044006 
	C629.240662,301.452332 632.345093,298.860626 635.983704,295.955139 
	C636.721313,295.125824 636.924683,294.610260 637.128113,294.094727 
	C637.128113,294.094727 637.093750,294.150757 637.411133,294.135559 
	C638.171265,293.785217 638.614075,293.450043 639.056885,293.114868 
	C640.277100,292.285065 641.497314,291.455231 643.100830,290.232971 
	C643.687927,289.569641 643.891724,289.298737 644.095459,289.027863 
	C645.229492,288.110870 646.363525,287.193909 647.982422,286.023682 
	C648.749451,285.585754 648.933289,285.330292 649.018738,285.004059 
	C649.333313,284.938507 649.597351,284.785706 650.214417,284.286743 
	C651.067993,283.680450 651.518066,283.333160 651.968140,282.985901 
	C651.968140,282.985870 651.997864,283.005035 652.250244,282.917786 
	C652.746826,282.583038 652.991028,282.335510 653.235291,282.088013 
	C653.943420,282.034851 654.651489,281.981659 655.712280,281.971252 
	C655.757080,282.551270 655.449158,283.088470 654.834656,284.035431 
	C654.270874,284.922729 654.013794,285.400269 653.756714,285.877808 
	C653.756714,285.877808 653.874634,285.861206 653.552673,285.909302 
	C652.763245,286.599213 652.295776,287.241058 651.828308,287.882904 
	C651.828308,287.882904 651.906494,287.934875 651.649902,287.978912 
	C651.175903,288.325043 650.958557,288.627136 650.741211,288.929260 
	C650.446838,288.949554 650.219421,289.083527 649.733276,289.649841 
	C649.226013,290.296082 649.044495,290.623657 648.862915,290.951233 
	C648.862915,290.951233 648.950806,290.904114 648.591125,290.953369 
	C644.125061,294.648773 640.018738,298.294922 635.912354,301.941101 
	C635.912354,301.941101 635.994812,301.967133 635.653320,301.976868 
	C634.497375,302.622589 633.682922,303.258545 632.868469,303.894501 
	C632.868469,303.894501 632.973206,303.906830 632.608093,303.918457 
	C631.155762,304.594696 630.068481,305.259308 628.981201,305.923889 
z"/>
<path fill="#F5939C" opacity="1.000000" stroke="none" 
	d="
M624.601929,305.003998 
	C625.800720,305.332336 626.602905,305.665253 627.750916,306.066193 
	C622.787598,308.995483 617.508667,311.917969 612.106628,314.591644 
	C611.711731,314.787079 610.425232,313.181000 609.282898,312.203064 
	C608.860535,310.280426 608.708496,308.567169 608.516479,306.512451 
	C613.790039,306.740234 619.169373,308.198700 624.601929,305.003998 
z"/>
<path fill="#F5939C" opacity="1.000000" stroke="none" 
	d="
M638.885742,292.864746 
	C638.614075,293.450043 638.171265,293.785217 637.443970,294.135162 
	C637.677795,293.638153 638.196167,293.126373 638.885742,292.864746 
z"/>
<path fill="#F5939C" opacity="1.000000" stroke="none" 
	d="
M658.802979,280.043823 
	C658.578369,280.631866 658.037964,281.224182 657.211243,281.631195 
	C656.924927,281.445923 656.995117,281.019501 656.995117,281.019501 
	C657.492432,280.695709 657.989807,280.371887 658.802979,280.043823 
z"/>
<path fill="#F5939C" opacity="1.000000" stroke="none" 
	d="
M636.862000,294.205444 
	C636.924683,294.610260 636.721313,295.125824 636.252686,295.752258 
	C636.190308,295.347504 636.393127,294.831848 636.862000,294.205444 
z"/>
<path fill="#F5939C" opacity="1.000000" stroke="none" 
	d="
M651.663879,283.011108 
	C651.518066,283.333160 651.067993,283.680450 650.327271,284.084167 
	C650.477661,283.772461 650.918640,283.404388 651.663879,283.011108 
z"/>
<path fill="#F5939C" opacity="1.000000" stroke="none" 
	d="
M652.971191,282.142395 
	C652.991028,282.335510 652.746826,282.583038 652.249023,282.900177 
	C652.232727,282.712158 652.469971,282.454498 652.971191,282.142395 
z"/>
<path fill="#F5939C" opacity="1.000000" stroke="none" 
	d="
M648.801025,285.094879 
	C648.933289,285.330292 648.749451,285.585754 648.238831,285.842194 
	C648.116882,285.604767 648.307800,285.362030 648.801025,285.094879 
z"/>
<path fill="#F5939C" opacity="1.000000" stroke="none" 
	d="
M643.850830,289.120209 
	C643.891724,289.298737 643.687927,289.569641 643.247986,289.944092 
	C643.209900,289.769287 643.408020,289.490936 643.850830,289.120209 
z"/>
<path fill="#FCE6E7" opacity="1.000000" stroke="none" 
	d="
M656.762268,281.124695 
	C656.995117,281.019501 656.924927,281.445923 656.908752,281.661224 
	C656.892578,281.876526 656.444824,281.989471 656.216553,282.025513 
	C656.168701,281.784332 656.349060,281.507080 656.762268,281.124695 
z"/>
<path fill="#F5939C" opacity="1.000000" stroke="none" 
	d="
M625.887817,304.123047 
	C625.921326,304.307312 625.706421,304.570618 625.245728,304.916321 
	C625.213074,304.733154 625.426208,304.467621 625.887817,304.123047 
z"/>
<path fill="#FE7882" opacity="1.000000" stroke="none" 
	d="
M175.155975,377.996643 
	C175.028336,374.536194 173.639648,373.255554 169.973633,372.790558 
	C154.582809,370.838501 139.664963,367.295258 126.620224,358.144745 
	C116.404755,350.978882 109.176796,341.546265 104.187660,330.228149 
	C100.762070,322.456940 97.687103,314.587341 98.042168,305.905396 
	C98.196022,302.143250 98.846725,298.401428 99.409401,293.435547 
	C100.970589,295.861298 102.187508,297.287994 102.900291,298.933105 
	C108.584396,312.052124 119.799614,319.678192 131.397919,326.395844 
	C137.993851,330.216187 145.665970,332.655121 153.164688,334.278259 
	C158.471481,335.426910 164.299805,334.166168 170.331360,333.973022 
	C176.071075,345.205566 177.856827,357.038208 176.705200,369.359772 
	C176.461014,371.972229 176.158127,374.579163 175.825378,377.637299 
	C175.768448,378.085938 175.355515,378.052307 175.155975,377.996643 
z"/>
<path fill="#FE7982" opacity="1.000000" stroke="none" 
	d="
M599.100830,320.268433 
	C599.209656,319.901947 599.606079,319.964264 599.797546,320.025513 
	C600.008850,326.645233 603.450928,329.597626 609.976990,328.130463 
	C625.695984,324.596405 639.279175,316.932709 651.223511,306.226318 
	C655.250366,302.616791 659.321960,299.057159 664.456604,294.516571 
	C663.693298,298.414185 663.708862,301.188660 662.616455,303.421021 
	C657.737061,313.392914 653.464417,323.843323 647.231995,332.926636 
	C639.000366,344.923737 626.998230,352.835480 613.228394,357.815369 
	C609.338379,359.222229 605.353394,360.429657 601.620056,362.173859 
	C600.256531,362.810883 599.055664,364.594452 598.552856,366.111023 
	C597.465027,369.391571 596.876160,372.837585 596.116760,376.607605 
	C596.150330,376.999329 595.810913,377.191254 595.621826,377.234802 
	C589.333923,365.684753 590.918762,353.595398 593.437378,341.573242 
	C594.915955,334.515656 597.116333,327.609314 599.100830,320.268433 
z"/>
<path fill="#FE7882" opacity="1.000000" stroke="none" 
	d="
M182.672745,289.228821 
	C178.936295,286.239105 176.005829,281.613251 172.053513,280.445282 
	C156.484604,275.844391 145.640976,265.791809 138.010117,252.264221 
	C131.848587,241.341415 126.090698,229.995453 121.913391,218.213348 
	C118.813362,209.469681 118.228500,199.760818 117.153160,190.409470 
	C116.732689,186.753021 118.033455,182.898636 118.550270,179.134399 
	C119.240700,179.084610 119.931129,179.034821 120.621559,178.985031 
	C122.735542,184.431046 124.797852,189.897781 126.972603,195.319427 
	C135.689453,217.050415 150.965302,232.877548 171.285370,244.010468 
	C174.435684,245.736450 178.087875,246.589203 181.562454,247.670670 
	C187.093079,249.392090 192.772385,250.688568 198.191772,252.696533 
	C202.042297,254.123199 205.196182,254.160065 208.363739,250.905945 
	C206.868286,261.126495 201.626770,269.730408 194.913589,277.447144 
	C191.267258,281.638580 186.997650,285.287781 182.672745,289.228821 
z"/>
<path fill="#FE7881" opacity="1.000000" stroke="none" 
	d="
M573.034180,261.376892 
	C579.543701,261.431213 585.170410,258.770935 591.198669,256.719543 
	C606.891846,251.379181 619.119385,241.902206 627.404358,227.952209 
	C635.187805,214.846603 641.665466,200.965454 648.715210,187.424255 
	C649.284363,186.331055 649.833862,185.227615 650.968262,182.996384 
	C653.882141,192.104874 653.514771,200.211517 652.657104,208.136734 
	C650.520813,227.876907 642.931396,245.763565 631.756470,261.942352 
	C627.699951,267.815277 621.984009,272.782776 616.292236,277.223938 
	C609.370850,282.624542 601.638245,286.978546 594.355469,291.930695 
	C593.294067,292.652496 592.780945,294.180817 591.965942,295.714600 
	C590.405029,294.689636 588.541626,293.517426 587.437988,291.844086 
	C581.269287,282.491455 575.073486,273.118134 573.034180,261.376892 
z"/>
<path fill="#964A50" opacity="1.000000" stroke="none" 
	d="
M281.106445,372.892548 
	C277.924194,373.810547 274.741943,374.728546 270.784607,375.870117 
	C270.339020,372.207458 269.635468,368.677917 269.526031,365.130066 
	C269.082184,350.746857 270.902161,336.817810 279.679840,324.806335 
	C292.502258,307.259979 312.459778,307.933502 324.620300,326.057678 
	C333.592316,339.429718 334.491089,354.339630 333.252014,369.682526 
	C332.259857,381.967957 328.085480,392.900970 318.908173,402.659668 
	C317.329346,398.382568 315.994659,394.766907 314.819458,390.464783 
	C320.245361,382.513153 320.412445,379.804260 315.747620,374.372833 
	C312.935455,371.098511 310.037872,367.895905 307.125549,364.709625 
	C301.526031,358.583313 294.608093,355.644836 286.256927,355.968048 
	C281.178894,356.164642 279.604034,357.928619 280.223602,362.992859 
	C280.625671,366.279572 280.819397,369.591766 281.106445,372.892548 
M288.993286,341.566956 
	C295.747711,344.204071 302.340729,347.516571 309.326385,349.186310 
	C312.693726,349.991150 316.800629,347.701813 320.572662,346.813599 
	C319.820557,343.658630 319.601379,340.243256 318.211884,337.399780 
	C314.691864,330.196747 310.075836,323.149109 301.095306,323.358337 
	C292.550537,323.557404 288.596863,330.612488 285.243164,337.531250 
	C285.181274,337.658936 285.266052,337.857727 285.318268,338.387054 
	C286.216797,339.183868 287.317078,340.159576 288.993286,341.566956 
z"/>
<path fill="#964A50" opacity="1.000000" stroke="none" 
	d="
M464.161743,385.130432 
	C462.186401,389.127136 460.211029,393.123840 458.054993,397.486084 
	C453.227753,393.404694 450.913483,387.565247 449.127228,381.654633 
	C443.043640,361.524780 443.963257,342.062897 456.894897,324.644135 
	C467.858704,309.876068 486.503876,310.285706 497.368225,325.316315 
	C503.502075,333.802368 507.581818,343.199615 507.148346,354.085846 
	C506.918152,359.866699 507.107605,365.664276 507.107605,372.092468 
	C503.310303,372.092468 500.034485,372.092468 496.303955,371.615601 
	C495.865845,370.310883 495.893311,369.483124 495.897430,368.655243 
	C495.933014,361.498474 495.490570,360.516510 488.337708,361.227966 
	C480.195465,362.037842 472.100311,363.764526 464.145966,365.741638 
	C461.847321,366.312988 458.152466,369.588470 458.448456,370.816833 
	C459.639557,375.759918 462.143127,380.386719 464.161743,385.130432 
M483.314362,327.896301 
	C477.748779,324.750610 473.382904,324.372101 469.337402,328.958160 
	C465.194580,333.654572 462.456421,339.638824 459.485168,345.261139 
	C459.093140,346.002930 460.618866,348.552094 461.831482,349.219666 
	C469.963684,353.696472 483.536163,351.742279 490.286743,345.453888 
	C492.459534,343.429871 493.624634,341.260712 491.646973,338.535919 
	C489.140289,335.082184 486.523224,331.708557 483.314362,327.896301 
z"/>
<path fill="#95494E" opacity="1.000000" stroke="none" 
	d="
M420.488190,422.975494 
	C423.382812,431.605011 415.532135,446.562073 406.558716,450.418518 
	C398.081696,454.061584 388.037018,450.394409 382.864563,441.137207 
	C380.562988,437.018005 379.385376,432.260925 377.788574,427.761108 
	C376.516022,424.174988 378.126251,422.960052 381.650177,422.974640 
	C394.447906,423.027710 407.246155,422.946930 420.488190,422.975494 
z"/>
<path fill="#F7466E" opacity="1.000000" stroke="none" 
	d="
M281.551758,372.928589 
	C280.819397,369.591766 280.625671,366.279572 280.223602,362.992859 
	C279.604034,357.928619 281.178894,356.164642 286.256927,355.968048 
	C294.608093,355.644836 301.526031,358.583313 307.125549,364.709625 
	C310.037872,367.895905 312.935455,371.098511 315.747620,374.372833 
	C320.412445,379.804260 320.245361,382.513153 314.731781,390.100281 
	C309.126770,382.768860 302.815613,376.221741 293.332275,374.038879 
	C289.665710,373.194885 285.781921,373.294739 281.551758,372.928589 
z"/>
<path fill="#F7466E" opacity="1.000000" stroke="none" 
	d="
M464.487732,385.042114 
	C462.143127,380.386719 459.639557,375.759918 458.448456,370.816833 
	C458.152466,369.588470 461.847321,366.312988 464.145966,365.741638 
	C472.100311,363.764526 480.195465,362.037842 488.337708,361.227966 
	C495.490570,360.516510 495.933014,361.498474 495.897430,368.655243 
	C495.893311,369.483124 495.865845,370.310883 495.829834,371.588196 
	C488.862579,374.018036 481.757721,375.585327 475.028625,378.141663 
	C471.299255,379.558441 468.198059,382.628784 464.487732,385.042114 
z"/>
<path fill="#FD7881" opacity="1.000000" stroke="none" 
	d="
M144.999695,425.000000 
	C144.877350,424.841217 144.755341,424.682434 144.633331,424.523651 
	C144.729279,424.578064 144.825226,424.632446 144.960892,424.843414 
	C145.000610,425.000000 145.000000,425.000000 144.999695,425.000000 
z"/>
<path fill="#FD7882" opacity="1.000000" stroke="none" 
	d="
M632.008179,401.011169 
	C632.096130,400.974670 632.175964,400.928192 632.117859,400.933472 
	C631.979980,400.985291 632.000000,401.001160 632.008179,401.011169 
z"/>
<path fill="#A8525A" opacity="1.000000" stroke="none" 
	d="
M636.288391,301.968079 
	C640.018738,298.294922 644.125061,294.648773 648.558960,290.915283 
	C646.387146,296.273712 642.601074,300.311249 636.288391,301.968079 
z"/>
<path fill="#A8525A" opacity="1.000000" stroke="none" 
	d="
M629.363647,305.943848 
	C630.068481,305.259308 631.155762,304.594696 632.571350,303.880676 
	C631.848572,304.542084 630.797363,305.252930 629.363647,305.943848 
z"/>
<path fill="#A8525A" opacity="1.000000" stroke="none" 
	d="
M633.239014,303.931763 
	C633.682922,303.258545 634.497375,302.622589 635.629761,301.940582 
	C635.168335,302.586060 634.388916,303.277557 633.239014,303.931763 
z"/>
<path fill="#A8525A" opacity="1.000000" stroke="none" 
	d="
M652.180664,287.877686 
	C652.295776,287.241058 652.763245,286.599213 653.519287,285.859985 
	C653.382996,286.465881 652.958008,287.169159 652.180664,287.877686 
z"/>
<path fill="#A8525A" opacity="1.000000" stroke="none" 
	d="
M654.032471,285.797943 
	C654.013794,285.400269 654.270874,284.922729 654.786499,284.344666 
	C654.799377,284.735443 654.553772,285.226776 654.032471,285.797943 
z"/>
<path fill="#A8525A" opacity="1.000000" stroke="none" 
	d="
M651.017212,288.847351 
	C650.958557,288.627136 651.175903,288.325043 651.662598,287.933716 
	C651.718994,288.151489 651.506042,288.458496 651.017212,288.847351 
z"/>
<path fill="#A8525A" opacity="1.000000" stroke="none" 
	d="
M649.131958,290.838501 
	C649.044495,290.623657 649.226013,290.296082 649.669434,289.843628 
	C649.754517,290.054443 649.577698,290.390076 649.131958,290.838501 
z"/>
<path fill="#FBF9F4" opacity="1.000000" stroke="none" 
	d="
M288.705322,341.351135 
	C287.317078,340.159576 286.216797,339.183868 285.318268,338.387054 
	C285.266052,337.857727 285.181274,337.658936 285.243164,337.531250 
	C288.596863,330.612488 292.550537,323.557404 301.095306,323.358337 
	C310.075836,323.149109 314.691864,330.196747 318.211884,337.399780 
	C319.601379,340.243256 319.820557,343.658630 320.572662,346.813599 
	C316.800629,347.701813 312.693726,349.991150 309.326385,349.186310 
	C302.340729,347.516571 295.747711,344.204071 288.705322,341.351135 
z"/>
<path fill="#FBF9F5" opacity="1.000000" stroke="none" 
	d="
M483.634033,328.098358 
	C486.523224,331.708557 489.140289,335.082184 491.646973,338.535919 
	C493.624634,341.260712 492.459534,343.429871 490.286743,345.453888 
	C483.536163,351.742279 469.963684,353.696472 461.831482,349.219666 
	C460.618866,348.552094 459.093140,346.002930 459.485168,345.261139 
	C462.456421,339.638824 465.194580,333.654572 469.337402,328.958160 
	C473.382904,324.372101 477.748779,324.750610 483.634033,328.098358 
z"/>
</svg>