<svg version="1.1" id="Layer_1" xmlns="http://www.w3.org/2000/svg" xmlns:xlink="http://www.w3.org/1999/xlink" x="0px" y="0px"
	 width="100%" viewBox="0 0 586 684" enable-background="new 0 0 586 684" xml:space="preserve">
<path fill="#FFFEFE" opacity="1.000000" stroke="none" 
	d="
M587.000000,266.000000 
	C587.000000,405.999969 587.000000,545.499939 587.000000,684.999878 
	C391.666779,684.999939 196.333572,684.999939 1.000269,685.000000 
	C1.000180,457.000214 1.000180,229.000397 1.000090,1.000453 
	C196.333069,1.000302 391.666138,1.000302 586.999634,1.000151 
	C587.000000,89.166664 587.000000,177.333328 587.000000,266.000000 
M96.872482,400.760681 
	C95.898079,402.075592 94.994087,403.450256 93.937485,404.695435 
	C88.411209,411.208191 88.666092,422.952637 95.381836,428.171783 
	C102.711708,433.868225 109.915558,440.690094 120.632462,438.812531 
	C122.055092,438.563293 123.602089,439.140808 125.086380,439.107513 
	C133.806580,438.911896 142.525238,438.648621 151.924637,438.631195 
	C152.627151,438.706024 153.329651,438.780884 154.577179,439.283142 
	C172.613312,446.396210 190.649445,453.509308 208.882629,460.700104 
	C207.320221,465.872559 205.424667,472.147919 203.537567,478.395294 
	C187.893402,476.192749 173.482361,472.066315 160.913834,462.786255 
	C157.846008,460.521118 154.534988,458.493835 151.108307,456.824036 
	C142.190475,452.478455 133.095093,455.092651 129.474060,463.430878 
	C128.016479,466.787262 127.656189,470.880737 127.760437,474.611847 
	C128.364517,496.231598 138.992798,513.325439 153.380035,528.293762 
	C168.152985,543.663269 187.257782,549.426819 207.948822,550.674072 
	C211.415283,550.883057 213.189072,551.864746 214.728409,555.054565 
	C217.031784,559.827637 219.889725,564.404480 223.017639,568.696106 
	C238.174713,589.492371 257.755646,603.880432 283.324463,609.124084 
	C289.360840,610.362000 295.563904,610.787170 301.929688,611.617432 
	C289.924622,622.037659 298.374359,639.175903 310.769440,640.748962 
	C316.205109,641.438904 321.662933,642.773071 327.078827,642.627625 
	C337.990387,642.334595 348.773407,640.725281 357.284637,632.869812 
	C366.775635,624.110107 364.910400,611.677734 353.280792,605.904114 
	C349.768829,604.160522 346.008331,602.917603 341.917084,601.265869 
	C342.929413,600.558472 343.660217,599.950256 344.475464,599.492371 
	C362.389313,589.430054 376.145172,575.180664 385.735626,557.151306 
	C388.291504,552.346436 391.290894,550.254639 396.397156,549.127808 
	C411.218903,545.856812 421.776611,536.842529 425.711609,522.203918 
	C431.628204,500.193634 420.525696,471.668579 401.901031,458.460236 
	C399.243378,456.575470 395.947510,455.612457 393.037323,454.054199 
	C391.102081,453.017975 389.327454,451.681763 386.986572,450.158020 
	C388.543823,449.165588 388.936218,448.841187 389.384521,448.643646 
	C390.753632,448.040375 392.143341,447.483734 393.526611,446.912659 
	C432.501984,430.821594 466.160187,407.749908 490.211182,372.385162 
	C505.139343,350.434631 514.154541,326.412018 513.928223,299.452484 
	C513.882080,293.957550 513.960266,288.461517 514.666748,282.854889 
	C525.044983,276.869080 530.831726,267.151306 534.849121,256.492004 
	C538.000854,248.129700 540.827881,239.392944 541.938721,230.587875 
	C542.952759,222.550095 542.434692,213.998672 540.801880,206.040909 
	C539.287598,198.660248 533.253052,195.275375 526.926819,197.296616 
	C523.434265,198.412506 520.236267,201.497299 517.744202,204.411682 
	C515.096313,207.508316 512.412903,209.624527 508.295868,210.145157 
	C501.626556,210.988571 495.877808,213.731750 491.251892,218.842758 
	C487.023651,212.932495 482.795441,207.022217 479.280792,200.908417 
	C488.038361,191.991287 490.571014,180.573456 490.648682,168.848068 
	C490.715363,158.781906 493.179016,150.046555 498.429443,141.547501 
	C508.079102,125.927246 508.508545,110.276596 495.077789,95.363884 
	C485.827179,85.092476 479.379272,73.292656 476.375122,59.511726 
	C475.216675,54.197586 472.236084,48.993385 469.043671,44.475342 
	C463.890656,37.182514 454.388702,36.097462 446.780365,40.774776 
	C441.007721,44.323551 438.036743,49.677002 435.954773,55.799377 
	C429.548981,74.636932 425.983063,94.012779 425.057953,113.866524 
	C424.658722,122.434288 422.683350,130.184265 416.251282,136.455750 
	C412.294159,140.314102 410.394440,145.276871 410.151367,150.850601 
	C401.880432,147.373749 393.736145,143.549393 385.316162,140.481583 
	C352.836243,128.647552 319.240021,123.070984 284.683777,122.571632 
	C246.478455,122.019531 209.538040,128.139725 173.472885,142.063293 
	C173.303833,142.058640 173.134766,142.054001 172.701096,141.433777 
	C164.253693,132.961502 155.908890,124.383347 147.318192,116.058968 
	C142.598938,111.486038 140.436218,105.946320 139.959961,99.637939 
	C139.459229,93.005157 139.124130,86.355804 138.894836,79.707542 
	C138.545883,69.589928 136.471664,59.981544 131.611710,50.982380 
	C127.754593,43.840183 124.245773,36.509262 120.611206,29.247677 
	C115.920715,19.876432 106.643753,15.848832 96.702873,19.251152 
	C85.339241,23.140409 77.204178,30.474695 73.537498,42.213799 
	C68.236694,59.184628 63.645256,76.367966 54.738537,92.047737 
	C50.444103,99.607841 49.701237,108.468040 51.378757,116.892258 
	C55.352890,136.849640 57.727989,156.914688 58.126389,177.258850 
	C58.258011,183.979904 60.392998,189.839310 65.336868,195.195160 
	C69.286560,199.474014 71.159164,205.670181 73.401657,211.414688 
	C72.464363,212.018051 71.527061,212.621399 70.146477,212.819824 
	C69.737152,211.929596 69.327835,211.039383 68.971909,209.422577 
	C68.337662,208.606369 67.703415,207.790161 66.532333,206.566025 
	C63.758430,204.124191 61.276348,201.141983 58.107845,199.430817 
	C56.001591,198.293320 52.759262,199.485336 50.295956,198.740265 
	C43.217178,196.599213 38.797581,200.246811 35.011482,205.247894 
	C26.531544,216.449142 26.883619,229.031952 29.553307,241.944977 
	C32.876755,258.020172 36.228504,273.928528 33.480042,290.700043 
	C31.910587,300.277069 34.293354,310.069305 41.533070,317.512909 
	C44.972260,321.048950 49.169861,323.847351 53.071236,327.552094 
	C53.369072,328.010315 53.666904,328.468567 54.133762,329.689972 
	C61.578167,357.329865 76.696953,380.295532 96.872482,400.760681 
M190.504257,603.985168 
	C196.091385,621.229065 212.806061,634.067810 230.867859,634.583618 
	C238.271561,634.795105 244.767975,632.177063 248.511749,625.365601 
	C251.882370,619.233032 249.074570,613.797791 245.492233,608.728455 
	C241.358551,602.878906 237.305893,596.935425 229.952133,594.579712 
	C229.266632,594.360046 228.752243,593.522705 228.221268,592.917175 
	C222.692535,586.611267 215.778397,582.374146 207.738861,580.376892 
	C197.380997,577.803711 189.086899,584.644043 189.213760,595.327148 
	C189.244995,597.956238 189.902496,600.577942 190.504257,603.985168 
M514.116577,526.775146 
	C525.172974,520.243103 526.985901,507.179871 517.807495,499.600800 
	C516.443726,498.474701 514.707581,497.354523 513.025330,497.133942 
	C504.341309,495.994995 495.634064,494.857666 486.899261,494.398560 
	C484.587616,494.277069 481.921509,496.275360 479.897461,497.898102 
	C479.218750,498.442230 479.495117,501.193817 480.246796,502.336700 
	C484.339233,508.559113 488.694275,514.609924 493.001404,520.689758 
	C498.086121,527.867126 504.970764,529.998596 514.116577,526.775146 
M530.132080,602.301819 
	C529.854187,598.625549 530.847656,594.089844 529.054871,591.437622 
	C524.104431,584.114014 516.843994,579.289490 507.885986,577.860535 
	C506.810303,577.689026 504.169159,579.949219 504.303223,580.730835 
	C505.497467,587.693726 506.323639,594.915649 508.954987,601.369385 
	C510.803497,605.903137 515.225281,609.735229 520.914185,609.881653 
	C525.417419,609.997559 528.058777,606.885010 530.132080,602.301819 
z"/>
<path fill="#813239" opacity="1.000000" stroke="none" 
	d="
M513.981079,282.966003 
	C513.960266,288.461517 513.882080,293.957550 513.928223,299.452484 
	C514.154541,326.412018 505.139343,350.434631 490.211182,372.385162 
	C466.160187,407.749908 432.501984,430.821594 393.526611,446.912659 
	C392.143341,447.483734 390.753632,448.040375 389.384521,448.643646 
	C388.936218,448.841187 388.543823,449.165588 386.986572,450.158020 
	C389.327454,451.681763 391.102081,453.017975 393.037323,454.054199 
	C395.947510,455.612457 399.243378,456.575470 401.901031,458.460236 
	C420.525696,471.668579 431.628204,500.193634 425.711609,522.203918 
	C421.776611,536.842529 411.218903,545.856812 396.397156,549.127808 
	C391.290894,550.254639 388.291504,552.346436 385.735626,557.151306 
	C376.145172,575.180664 362.389313,589.430054 344.475464,599.492371 
	C343.660217,599.950256 342.929413,600.558472 341.917084,601.265869 
	C346.008331,602.917603 349.768829,604.160522 353.280792,605.904114 
	C364.910400,611.677734 366.775635,624.110107 357.284637,632.869812 
	C348.773407,640.725281 337.990387,642.334595 327.078827,642.627625 
	C321.662933,642.773071 316.205109,641.438904 310.769440,640.748962 
	C298.374359,639.175903 289.924622,622.037659 301.929688,611.617432 
	C295.563904,610.787170 289.360840,610.362000 283.324463,609.124084 
	C257.755646,603.880432 238.174713,589.492371 223.017639,568.696106 
	C219.889725,564.404480 217.031784,559.827637 214.728409,555.054565 
	C213.189072,551.864746 211.415283,550.883057 207.948822,550.674072 
	C187.257782,549.426819 168.152985,543.663269 153.380035,528.293762 
	C138.992798,513.325439 128.364517,496.231598 127.760437,474.611847 
	C127.656189,470.880737 128.016479,466.787262 129.474060,463.430878 
	C133.095093,455.092651 142.190475,452.478455 151.108307,456.824036 
	C154.534988,458.493835 157.846008,460.521118 160.913834,462.786255 
	C173.482361,472.066315 187.893402,476.192749 203.537567,478.395294 
	C205.424667,472.147919 207.320221,465.872559 208.882629,460.700104 
	C190.649445,453.509308 172.613312,446.396210 154.490234,438.776978 
	C156.042923,437.532837 157.745193,436.907166 159.309952,436.034851 
	C163.259903,433.832916 167.147980,431.519958 171.375702,429.222656 
	C172.320801,429.196198 172.951004,429.198578 173.852356,429.456055 
	C175.972260,430.464355 177.779312,431.349335 179.676361,431.950134 
	C195.382858,436.924591 211.135101,441.756592 226.809311,446.830048 
	C232.788757,448.765503 233.880310,451.543488 230.692673,457.275482 
	C225.589493,466.452026 223.117432,476.220825 221.654083,486.586884 
	C217.192764,518.190063 225.495865,545.771240 247.365494,568.810791 
	C259.952301,582.070984 275.506531,590.640320 294.199402,592.052490 
	C318.605316,593.896057 338.875824,584.871887 355.557709,567.515259 
	C360.515717,562.356812 364.475342,556.238770 369.288818,550.050903 
	C364.711243,548.439331 361.391693,547.400146 358.171661,546.112122 
	C349.530487,542.655640 341.793701,538.060120 336.606171,529.875549 
	C331.305756,521.512939 332.108063,507.700409 343.205048,502.337769 
	C346.201050,500.889923 349.107330,499.152832 352.242462,498.115875 
	C361.166443,495.164215 367.848846,489.215271 373.457245,482.102203 
	C375.423096,479.608856 377.118958,475.735962 376.709747,472.804016 
	C376.059723,468.146606 373.494324,463.766724 371.824463,459.238007 
	C370.660431,456.081116 368.801483,455.621796 365.611481,456.575745 
	C359.078857,458.529297 352.411743,460.052246 345.762787,461.591766 
	C340.758575,462.750427 336.665100,460.535400 335.490845,456.303833 
	C334.211670,451.694183 336.795898,446.668945 341.336212,445.104218 
	C342.746033,444.618347 344.261658,444.448181 345.694092,444.017822 
	C358.353973,440.214569 371.498749,437.518524 383.538818,432.283905 
	C399.505310,425.342224 415.272400,417.452209 429.921112,408.086426 
	C450.729492,394.782410 468.193542,377.541321 480.560944,355.811523 
	C502.006775,318.130737 503.629028,279.576965 484.065613,240.757416 
	C466.395691,205.695129 436.541931,183.445847 402.456329,166.312881 
	C377.102173,153.568726 349.988464,146.235458 321.883362,142.433212 
	C296.164886,138.953888 270.457275,138.553284 244.676590,141.735168 
	C222.910614,144.421555 201.862396,149.918106 180.948013,157.036102 
	C178.418045,151.941971 176.190353,147.068863 173.962662,142.195755 
	C209.538040,128.139725 246.478455,122.019531 284.683777,122.571632 
	C319.240021,123.070984 352.836243,128.647552 385.316162,140.481583 
	C393.736145,143.549393 401.880432,147.373749 410.796692,151.126282 
	C412.587067,151.826660 413.732178,152.251328 414.985840,152.956909 
	C418.669220,155.192200 422.244019,157.146606 426.041687,159.364487 
	C436.102173,166.408401 445.960968,173.158478 455.764130,179.988358 
	C458.582977,181.952286 461.241425,184.146484 463.998657,186.568298 
	C466.953278,189.617020 469.882690,192.332520 472.885956,195.382950 
	C474.828949,197.515900 476.698090,199.313934 478.567200,201.111954 
	C482.795441,207.022217 487.023651,212.932495 491.583282,219.402039 
	C494.230896,223.378082 496.547150,226.794830 498.896057,230.568085 
	C500.573456,233.957520 502.218201,236.990463 503.867188,240.423431 
	C505.625702,246.172821 507.379913,251.522171 509.134399,257.259521 
	C510.592407,263.227142 512.050110,268.806793 513.439453,274.755493 
	C513.574341,277.738312 513.777710,280.352173 513.981079,282.966003 
M207.211243,537.233459 
	C207.399307,535.802979 208.195587,534.090454 207.682861,532.985046 
	C201.473709,519.597656 202.440872,505.762360 204.466583,491.229645 
	C183.220413,489.819580 163.742981,482.472046 146.435242,469.385712 
	C145.448669,468.639740 142.731476,468.344849 142.509583,468.754791 
	C141.701477,470.247620 141.227066,472.148682 141.313522,473.861176 
	C141.863892,484.760437 145.486267,494.706512 151.420944,503.772614 
	C159.889343,516.709351 170.199326,527.674683 185.507614,532.351746 
	C192.320267,534.433105 199.422653,535.566162 207.211243,537.233459 
M410.603516,491.297546 
	C405.803772,484.459045 401.003998,477.620544 396.051727,470.564758 
	C394.999268,471.688293 394.694550,471.892609 394.561676,472.177155 
	C394.070862,473.228729 393.675110,474.325134 393.175568,475.372223 
	C385.502014,491.456909 375.084412,504.793518 357.525574,510.997559 
	C355.961395,511.550201 354.447174,512.262085 352.950226,512.983948 
	C346.904022,515.899597 346.076141,519.513611 350.432709,524.671509 
	C351.694641,526.165588 353.267303,527.530823 354.955872,528.509277 
	C365.413574,534.568970 376.452332,537.702515 388.779541,536.215088 
	C401.995331,534.620300 415.374176,524.262390 412.939911,508.367371 
	C412.110748,502.953125 411.517914,497.502655 410.603516,491.297546 
M341.126007,626.789429 
	C343.625427,625.517578 346.358307,624.540100 348.511871,622.832214 
	C349.400391,622.127502 349.690643,618.792480 349.151581,618.464600 
	C345.337067,616.144409 341.173096,612.517334 337.239990,612.657471 
	C328.529572,612.967773 319.638611,614.549683 312.407471,620.333862 
	C311.251740,621.258362 309.792725,623.245850 310.105377,624.216492 
	C310.543213,625.576050 312.352112,626.995972 313.851898,627.428833 
	C322.692535,629.980408 331.565826,629.817932 341.126007,626.789429 
z"/>
<path fill="#D54653" opacity="1.000000" stroke="none" 
	d="
M173.717773,142.129517 
	C176.190353,147.068863 178.418045,151.941971 180.880234,157.226593 
	C181.114731,157.638077 180.887070,157.973114 180.518326,157.980194 
	C172.799316,161.206924 165.449051,164.426605 157.211151,168.035080 
	C159.684692,170.034882 161.016678,171.243347 162.478287,172.266678 
	C165.743134,174.552505 169.079239,176.736282 172.374557,178.978928 
	C182.394119,185.797836 189.891235,194.119934 193.935593,206.188232 
	C198.990128,221.270859 197.361420,234.961807 189.333710,248.048294 
	C183.537552,257.497040 174.054337,263.097198 165.007523,269.009552 
	C163.934708,269.710693 162.547501,270.436432 162.092407,271.490326 
	C160.017517,276.295258 156.590927,276.816193 152.313370,274.943420 
	C149.135284,273.552032 145.749252,272.402802 142.932968,270.455627 
	C124.487823,257.702667 109.836716,241.409866 98.538376,222.067215 
	C96.175613,218.022171 94.966141,217.962479 92.174667,221.701508 
	C88.853912,226.149460 85.543060,230.604828 81.904335,234.856262 
	C79.784195,228.483032 77.987633,222.310516 76.258270,215.799438 
	C76.791611,214.581528 77.159782,213.630707 77.740341,212.834808 
	C80.749687,208.709198 85.752869,204.870255 86.315430,200.454239 
	C86.884209,195.989410 82.834984,191.045776 81.221352,186.175201 
	C72.550980,160.004776 69.211388,133.122513 72.151894,105.718369 
	C73.816895,90.201347 76.683510,74.703728 85.063988,61.115749 
	C88.038826,56.292385 92.242027,52.097172 96.423820,48.192875 
	C99.242279,45.561447 103.661758,44.766514 106.374672,47.892242 
	C109.258224,51.214569 111.891685,55.462261 112.752945,59.689224 
	C114.764145,69.560005 115.288704,79.724609 117.060837,89.655022 
	C121.085678,112.208878 130.035095,132.813370 142.941101,151.688751 
	C143.816605,152.969193 146.371826,154.520218 147.338013,154.097778 
	C155.983749,150.317581 164.448029,146.122421 172.965714,142.049362 
	C173.134766,142.054001 173.303833,142.058640 173.717773,142.129517 
M95.771729,184.738724 
	C102.745560,202.671494 111.588455,219.685379 124.156296,234.245285 
	C131.700684,242.985489 140.950531,250.276276 149.658569,257.963959 
	C150.913208,259.071594 153.873184,259.627167 155.280334,258.919586 
	C159.252731,256.922058 162.893509,254.227295 166.548248,251.642273 
	C183.427917,239.703232 187.885330,223.934647 179.571960,205.886169 
	C179.299866,205.295456 178.968567,204.601151 179.043488,204.002502 
	C179.560150,199.874008 177.175156,197.532013 174.079620,195.531525 
	C171.018051,193.552979 167.929916,191.601105 164.992340,189.448044 
	C157.257690,183.779083 148.774597,178.825211 142.092148,172.094727 
	C130.533203,160.452667 122.687347,146.062759 116.070549,131.083191 
	C108.652145,114.288872 103.112724,96.999237 101.908112,78.508751 
	C101.617729,74.051384 100.662529,69.637337 100.013062,65.203369 
	C99.492500,65.136070 98.971931,65.068764 98.451370,65.001465 
	C97.568405,66.473404 96.561310,67.885750 95.821617,69.426468 
	C88.133850,85.439545 85.214066,102.513969 85.035225,120.096489 
	C84.957672,127.721329 85.308601,135.385620 86.043251,142.976013 
	C87.404655,157.041931 90.083984,170.860291 95.771729,184.738724 
z"/>
<path fill="#FD8B94" opacity="1.000000" stroke="none" 
	d="
M172.833405,141.741577 
	C164.448029,146.122421 155.983749,150.317581 147.338013,154.097778 
	C146.371826,154.520218 143.816605,152.969193 142.941101,151.688751 
	C130.035095,132.813370 121.085678,112.208878 117.060837,89.655022 
	C115.288704,79.724609 114.764145,69.560005 112.752945,59.689224 
	C111.891685,55.462261 109.258224,51.214569 106.374672,47.892242 
	C103.661758,44.766514 99.242279,45.561447 96.423820,48.192875 
	C92.242027,52.097172 88.038826,56.292385 85.063988,61.115749 
	C76.683510,74.703728 73.816895,90.201347 72.151894,105.718369 
	C69.211388,133.122513 72.550980,160.004776 81.221352,186.175201 
	C82.834984,191.045776 86.884209,195.989410 86.315430,200.454239 
	C85.752869,204.870255 80.749687,208.709198 77.740341,212.834808 
	C77.159782,213.630707 76.791611,214.581528 76.020706,215.824524 
	C75.715950,216.188141 75.240425,216.164688 75.173660,215.772247 
	C74.722488,213.924988 74.338097,212.470154 73.953705,211.015320 
	C71.159164,205.670181 69.286560,199.474014 65.336868,195.195160 
	C60.392998,189.839310 58.258011,183.979904 58.126389,177.258850 
	C57.727989,156.914688 55.352890,136.849640 51.378757,116.892258 
	C49.701237,108.468040 50.444103,99.607841 54.738537,92.047737 
	C63.645256,76.367966 68.236694,59.184628 73.537498,42.213799 
	C77.204178,30.474695 85.339241,23.140409 96.702873,19.251152 
	C106.643753,15.848832 115.920715,19.876432 120.611206,29.247677 
	C124.245773,36.509262 127.754593,43.840183 131.611710,50.982380 
	C136.471664,59.981544 138.545883,69.589928 138.894836,79.707542 
	C139.124130,86.355804 139.459229,93.005157 139.959961,99.637939 
	C140.436218,105.946320 142.598938,111.486038 147.318192,116.058968 
	C155.908890,124.383347 164.253693,132.961502 172.833405,141.741577 
z"/>
<path fill="#FC8B95" opacity="1.000000" stroke="none" 
	d="
M414.877258,152.676025 
	C413.732178,152.251328 412.587067,151.826660 411.145874,151.175446 
	C410.394440,145.276871 412.294159,140.314102 416.251282,136.455750 
	C422.683350,130.184265 424.658722,122.434288 425.057953,113.866524 
	C425.983063,94.012779 429.548981,74.636932 435.954773,55.799377 
	C438.036743,49.677002 441.007721,44.323551 446.780365,40.774776 
	C454.388702,36.097462 463.890656,37.182514 469.043671,44.475342 
	C472.236084,48.993385 475.216675,54.197586 476.375122,59.511726 
	C479.379272,73.292656 485.827179,85.092476 495.077789,95.363884 
	C508.508545,110.276596 508.079102,125.927246 498.429443,141.547501 
	C493.179016,150.046555 490.715363,158.781906 490.648682,168.848068 
	C490.571014,180.573456 488.038361,191.991287 478.924011,201.010193 
	C476.698090,199.313934 474.828949,197.515900 473.214508,195.242065 
	C484.313568,181.039551 486.764191,164.638550 487.883850,147.990341 
	C489.114258,129.695511 484.780457,112.014313 480.153229,94.552650 
	C477.668915,85.177628 473.967072,76.033386 469.914429,67.197922 
	C467.188263,61.254436 461.277405,57.767754 454.815338,58.507088 
	C448.548065,59.224129 445.537018,64.665520 444.675507,70.632034 
	C442.951416,82.572189 441.403595,94.543999 440.107269,106.537781 
	C439.024963,116.551582 437.452057,126.389229 430.911438,134.463867 
	C425.824799,140.743622 420.240448,146.620239 414.877258,152.676025 
z"/>
<path fill="#D54652" opacity="1.000000" stroke="none" 
	d="
M171.060837,429.251465 
	C167.147980,431.519958 163.259903,433.832916 159.309952,436.034851 
	C157.745193,436.907166 156.042923,437.532837 154.217712,438.563263 
	C153.329651,438.780884 152.627151,438.706024 151.443542,438.234192 
	C144.829056,433.591522 138.316544,431.480438 130.576569,431.726837 
	C124.594452,431.917267 118.331635,430.631317 112.573051,428.805206 
	C103.625031,425.967621 100.397621,417.400360 108.586685,412.343628 
	C108.809082,412.206299 108.840652,411.759949 108.782913,411.904724 
	C105.107185,407.912323 101.560349,404.059906 98.366806,400.109680 
	C103.843445,397.668091 108.966774,395.324249 114.314430,392.998535 
	C114.538757,393.016632 114.956085,393.188843 115.125008,393.473175 
	C118.530403,396.292175 121.880577,398.696869 124.970001,401.399597 
	C127.818085,403.891144 130.371384,403.828125 133.033585,401.317596 
	C138.062454,396.575256 143.090286,391.831787 148.451935,387.025055 
	C149.812851,386.187317 150.779907,385.311859 151.878525,384.657227 
	C156.238831,382.058929 160.640244,379.529633 165.412872,376.992249 
	C166.932266,377.215881 168.230026,377.134003 169.172516,377.673187 
	C177.848923,382.636688 184.270309,389.788666 187.763535,399.087128 
	C190.612900,406.671661 189.717026,408.536743 182.745743,413.068481 
	C176.712173,416.990692 170.442871,420.550232 164.020859,424.425110 
	C166.520401,426.138702 168.790619,427.695099 171.060837,429.251465 
M159.315369,411.832397 
	C164.801651,409.089569 170.287933,406.346741 176.597855,403.192108 
	C172.972046,398.126892 169.673477,393.518829 166.477097,389.053497 
	C155.150360,399.168304 144.392181,408.775360 133.363693,418.623840 
	C142.503265,418.625793 150.800034,416.333282 159.315369,411.832397 
z"/>
<path fill="#FD8B95" opacity="1.000000" stroke="none" 
	d="
M53.023888,326.979919 
	C49.169861,323.847351 44.972260,321.048950 41.533070,317.512909 
	C34.293354,310.069305 31.910587,300.277069 33.480042,290.700043 
	C36.228504,273.928528 32.876755,258.020172 29.553307,241.944977 
	C26.883619,229.031952 26.531544,216.449142 35.011482,205.247894 
	C38.797581,200.246811 43.217178,196.599213 50.295956,198.740265 
	C52.759262,199.485336 56.001591,198.293320 58.107845,199.430817 
	C61.276348,201.141983 63.758430,204.124191 66.815369,207.090271 
	C67.705116,208.459381 68.311813,209.304276 68.918510,210.149155 
	C69.327835,211.039383 69.737152,211.929596 70.477905,213.468140 
	C71.362915,215.889771 71.916489,217.663116 72.509476,219.674225 
	C72.415428,220.594391 72.281967,221.276810 71.814140,222.087494 
	C68.850510,226.513672 66.221245,230.811569 63.414967,235.398804 
	C61.990955,234.194168 61.114117,233.469513 60.255802,232.723541 
	C54.570396,227.782394 47.426743,229.720871 46.627514,237.135971 
	C45.744678,245.326721 46.017349,253.721039 46.600449,261.969177 
	C47.217869,270.702820 49.571312,279.351379 49.766167,288.068390 
	C50.056252,301.045563 50.036888,313.967224 53.326332,326.707458 
	C53.225372,326.798096 53.023888,326.979919 53.023888,326.979919 
z"/>
<path fill="#81353C" opacity="1.000000" stroke="none" 
	d="
M190.388184,603.594116 
	C189.902496,600.577942 189.244995,597.956238 189.213760,595.327148 
	C189.086899,584.644043 197.380997,577.803711 207.738861,580.376892 
	C215.778397,582.374146 222.692535,586.611267 228.221268,592.917175 
	C228.752243,593.522705 229.266632,594.360046 229.952133,594.579712 
	C237.305893,596.935425 241.358551,602.878906 245.492233,608.728455 
	C249.074570,613.797791 251.882370,619.233032 248.511749,625.365601 
	C244.767975,632.177063 238.271561,634.795105 230.867859,634.583618 
	C212.806061,634.067810 196.091385,621.229065 190.388184,603.594116 
M228.226074,621.373047 
	C231.269104,621.243042 234.312149,621.112976 237.355179,620.982910 
	C237.490616,620.389832 237.626053,619.796753 237.761490,619.203674 
	C236.171402,616.720215 234.752808,614.104675 232.960159,611.777283 
	C226.741898,603.704224 218.602722,598.016541 209.478012,593.742981 
	C207.515686,592.823914 205.082855,592.909546 202.866760,592.532349 
	C202.730896,595.072083 201.872818,597.835938 202.579697,600.114197 
	C206.356979,612.288025 215.248947,618.737183 228.226074,621.373047 
z"/>
<path fill="#FB8C95" opacity="1.000000" stroke="none" 
	d="
M514.323914,282.910461 
	C513.777710,280.352173 513.574341,277.738312 513.734436,274.620087 
	C514.731873,273.587128 515.578247,273.182281 515.968689,272.511841 
	C524.773804,257.393982 531.523438,241.618546 531.108582,223.649460 
	C530.915710,215.292801 523.497925,211.020508 516.583557,215.772247 
	C510.324982,220.073380 504.743439,225.359665 498.863373,230.211578 
	C496.547150,226.794830 494.230896,223.378082 491.836700,219.629852 
	C495.877808,213.731750 501.626556,210.988571 508.295868,210.145157 
	C512.412903,209.624527 515.096313,207.508316 517.744202,204.411682 
	C520.236267,201.497299 523.434265,198.412506 526.926819,197.296616 
	C533.253052,195.275375 539.287598,198.660248 540.801880,206.040909 
	C542.434692,213.998672 542.952759,222.550095 541.938721,230.587875 
	C540.827881,239.392944 538.000854,248.129700 534.849121,256.492004 
	C530.831726,267.151306 525.044983,276.869080 514.323914,282.910461 
z"/>
<path fill="#43DAFA" opacity="1.000000" stroke="none" 
	d="
M513.769165,526.924805 
	C504.970764,529.998596 498.086121,527.867126 493.001404,520.689758 
	C488.694275,514.609924 484.339233,508.559113 480.246796,502.336700 
	C479.495117,501.193817 479.218750,498.442230 479.897461,497.898102 
	C481.921509,496.275360 484.587616,494.277069 486.899261,494.398560 
	C495.634064,494.857666 504.341309,495.994995 513.025330,497.133942 
	C514.707581,497.354523 516.443726,498.474701 517.807495,499.600800 
	C526.985901,507.179871 525.172974,520.243103 513.769165,526.924805 
z"/>
<path fill="#82333A" opacity="1.000000" stroke="none" 
	d="
M114.090103,392.980438 
	C108.966774,395.324249 103.843445,397.668091 98.120354,400.046783 
	C97.352066,400.085938 97.183548,400.090210 97.015030,400.094482 
	C76.696953,380.295532 61.578167,357.329865 54.142143,328.999908 
	C54.165440,327.878571 54.180359,327.447266 54.457672,327.205688 
	C57.746506,332.117523 60.636456,336.934418 63.831413,341.539673 
	C68.618942,348.440521 73.049866,355.725067 78.733521,361.819611 
	C82.475212,365.831787 88.153259,368.038147 93.215446,371.193665 
	C94.457886,372.236023 95.449104,373.137848 96.590088,374.371338 
	C102.523277,380.795471 108.306694,386.887970 114.090103,392.980438 
z"/>
<path fill="#FB8C96" opacity="1.000000" stroke="none" 
	d="
M96.943756,400.427582 
	C97.183548,400.090210 97.352066,400.085938 97.767044,400.144592 
	C101.560349,404.059906 105.107185,407.912323 108.782913,411.904724 
	C108.840652,411.759949 108.809082,412.206299 108.586685,412.343628 
	C100.397621,417.400360 103.625031,425.967621 112.573051,428.805206 
	C118.331635,430.631317 124.594452,431.917267 130.576569,431.726837 
	C138.316544,431.480438 144.829056,433.591522 151.103424,438.122681 
	C142.525238,438.648621 133.806580,438.911896 125.086380,439.107513 
	C123.602089,439.140808 122.055092,438.563293 120.632462,438.812531 
	C109.915558,440.690094 102.711708,433.868225 95.381836,428.171783 
	C88.666092,422.952637 88.411209,411.208191 93.937485,404.695435 
	C94.994087,403.450256 95.898079,402.075592 96.943756,400.427582 
z"/>
<path fill="#47DAF9" opacity="1.000000" stroke="none" 
	d="
M529.979614,602.663330 
	C528.058777,606.885010 525.417419,609.997559 520.914185,609.881653 
	C515.225281,609.735229 510.803497,605.903137 508.954987,601.369385 
	C506.323639,594.915649 505.497467,587.693726 504.303223,580.730835 
	C504.169159,579.949219 506.810303,577.689026 507.885986,577.860535 
	C516.843994,579.289490 524.104431,584.114014 529.054871,591.437622 
	C530.847656,594.089844 529.854187,598.625549 529.979614,602.663330 
z"/>
<path fill="#FFEEEE" opacity="1.000000" stroke="none" 
	d="
M72.470055,219.436432 
	C71.916489,217.663116 71.362915,215.889771 70.699554,213.670593 
	C71.527061,212.621399 72.464363,212.018051 73.677681,211.214996 
	C74.338097,212.470154 74.722488,213.924988 75.013962,216.094452 
	C74.104034,217.684860 73.287041,218.560654 72.470055,219.436432 
z"/>
<path fill="#FFEEEE" opacity="1.000000" stroke="none" 
	d="
M68.945206,209.785858 
	C68.311813,209.304276 67.705116,208.459381 67.083786,207.294220 
	C67.703415,207.790161 68.337662,208.606369 68.945206,209.785858 
z"/>
<path fill="#FD8B95" opacity="1.000000" stroke="none" 
	d="
M54.195274,327.015991 
	C54.180359,327.447266 54.165440,327.878571 54.057632,328.618317 
	C53.666904,328.468567 53.369072,328.010315 53.047562,327.265991 
	C53.023888,326.979919 53.225372,326.798096 53.505745,326.830750 
	C53.786121,326.863373 54.195278,327.015991 54.195274,327.015991 
z"/>
<path fill="#FECCCB" opacity="1.000000" stroke="none" 
	d="
M180.887070,157.973114 
	C180.887070,157.973114 181.114731,157.638077 181.182510,157.447601 
	C201.862396,149.918106 222.910614,144.421555 244.676590,141.735168 
	C270.457275,138.553284 296.164886,138.953888 321.883362,142.433212 
	C349.988464,146.235458 377.102173,153.568726 402.456329,166.312881 
	C436.541931,183.445847 466.395691,205.695129 484.065613,240.757416 
	C503.629028,279.576965 502.006775,318.130737 480.560944,355.811523 
	C468.193542,377.541321 450.729492,394.782410 429.921112,408.086426 
	C415.272400,417.452209 399.505310,425.342224 383.538818,432.283905 
	C371.498749,437.518524 358.353973,440.214569 345.694092,444.017822 
	C344.261658,444.448181 342.746033,444.618347 341.336212,445.104218 
	C336.795898,446.668945 334.211670,451.694183 335.490845,456.303833 
	C336.665100,460.535400 340.758575,462.750427 345.762787,461.591766 
	C352.411743,460.052246 359.078857,458.529297 365.611481,456.575745 
	C368.801483,455.621796 370.660431,456.081116 371.824463,459.238007 
	C373.494324,463.766724 376.059723,468.146606 376.709747,472.804016 
	C377.118958,475.735962 375.423096,479.608856 373.457245,482.102203 
	C367.848846,489.215271 361.166443,495.164215 352.242462,498.115875 
	C349.107330,499.152832 346.201050,500.889923 343.205048,502.337769 
	C332.108063,507.700409 331.305756,521.512939 336.606171,529.875549 
	C341.793701,538.060120 349.530487,542.655640 358.171661,546.112122 
	C361.391693,547.400146 364.711243,548.439331 369.288818,550.050903 
	C364.475342,556.238770 360.515717,562.356812 355.557709,567.515259 
	C338.875824,584.871887 318.605316,593.896057 294.199402,592.052490 
	C275.506531,590.640320 259.952301,582.070984 247.365494,568.810791 
	C225.495865,545.771240 217.192764,518.190063 221.654083,486.586884 
	C223.117432,476.220825 225.589493,466.452026 230.692673,457.275482 
	C233.880310,451.543488 232.788757,448.765503 226.809311,446.830048 
	C211.135101,441.756592 195.382858,436.924591 179.676361,431.950134 
	C177.779312,431.349335 175.972260,430.464355 174.226379,429.327393 
	C180.032089,426.725861 185.676971,424.342072 191.450500,422.326752 
	C201.721069,418.741791 206.995544,407.946014 202.857590,397.794891 
	C197.212769,383.947113 189.494278,371.835419 174.800919,366.952026 
	C177.446152,357.324249 180.514084,348.055054 182.489502,338.558563 
	C186.178436,320.824768 177.299576,305.718140 159.957443,300.664032 
	C153.388062,298.749481 146.199539,299.045319 139.349869,297.972046 
	C135.667389,297.395081 131.598801,296.840454 128.584534,294.905060 
	C120.053291,289.427307 114.181778,281.257141 108.674080,272.899536 
	C108.390724,272.469543 108.875931,271.533081 109.282608,271.040070 
	C111.853172,272.897491 115.133316,274.051849 116.253723,276.288208 
	C119.889122,283.544525 126.959831,286.161774 133.246902,289.420288 
	C154.530884,300.451508 185.215683,292.469177 201.102768,270.523285 
	C207.795685,261.277893 211.434982,250.721893 212.372162,239.009872 
	C213.980042,218.916153 211.086807,200.802475 195.711838,185.994095 
	C187.891571,178.462036 181.633514,169.526459 180.887070,157.973114 
M288.975922,315.806396 
	C301.605957,315.405304 314.234650,314.948059 326.867035,314.645386 
	C329.771851,314.575775 330.972290,313.661804 330.955688,310.561462 
	C330.882416,296.877411 326.910400,284.673981 317.539673,274.528229 
	C306.047241,262.085236 288.844910,261.833130 276.856384,273.671143 
	C265.821228,284.567780 262.212494,298.172180 262.034210,313.127563 
	C261.990601,316.785309 263.712219,317.431458 267.596436,316.615204 
	C274.419525,316.297760 281.242584,315.980316 288.975922,315.806396 
M369.905060,390.309387 
	C372.415558,383.787354 375.255493,377.369202 377.352722,370.716858 
	C379.948120,362.484375 376.048706,355.303772 368.449432,353.408783 
	C359.311737,351.130249 351.076050,353.029877 344.663818,359.977386 
	C334.030701,371.498108 328.474060,385.427917 327.020203,400.934265 
	C326.470917,406.792969 327.958435,407.661957 335.105011,406.258881 
	C337.597443,406.166870 340.190491,405.616852 342.548828,406.135040 
	C344.280396,406.515503 346.514496,407.969391 347.133575,409.505493 
	C351.067688,419.267242 359.324646,423.460876 369.678101,420.524994 
	C377.091766,418.422791 380.021881,412.881012 378.662201,405.198547 
	C377.565247,399.000458 373.617432,395.021912 369.905060,390.309387 
M427.299591,266.625305 
	C422.226807,269.608307 416.181335,271.656525 412.255310,275.741638 
	C397.882111,290.697540 394.778564,319.284515 404.515839,339.526398 
	C408.035645,346.843414 412.487152,353.548309 419.814087,357.477386 
	C432.485199,364.272278 447.293121,358.957855 455.617310,345.381989 
	C462.482971,334.184814 463.355591,321.999573 463.200989,309.319611 
	C463.085968,299.886780 461.415741,291.073395 456.411774,283.111328 
	C449.896240,272.744110 441.661346,264.980194 427.299591,266.625305 
z"/>
<path fill="#FD7A83" opacity="1.000000" stroke="none" 
	d="
M109.003311,270.832397 
	C108.875931,271.533081 108.390724,272.469543 108.674080,272.899536 
	C114.181778,281.257141 120.053291,289.427307 128.584534,294.905060 
	C131.598801,296.840454 135.667389,297.395081 139.349869,297.972046 
	C146.199539,299.045319 153.388062,298.749481 159.957443,300.664032 
	C177.299576,305.718140 186.178436,320.824768 182.489502,338.558563 
	C180.514084,348.055054 177.446152,357.324249 174.800919,366.952026 
	C189.494278,371.835419 197.212769,383.947113 202.857590,397.794891 
	C206.995544,407.946014 201.721069,418.741791 191.450500,422.326752 
	C185.676971,424.342072 180.032089,426.725861 173.955231,429.072296 
	C172.951004,429.198578 172.320801,429.196198 171.375702,429.222656 
	C168.790619,427.695099 166.520401,426.138702 164.020859,424.425110 
	C170.442871,420.550232 176.712173,416.990692 182.745743,413.068481 
	C189.717026,408.536743 190.612900,406.671661 187.763535,399.087128 
	C184.270309,389.788666 177.848923,382.636688 169.172516,377.673187 
	C168.230026,377.134003 166.932266,377.215881 165.440796,376.649597 
	C167.342041,373.479736 169.601791,370.669922 172.320007,367.290009 
	C155.994522,365.354858 148.726318,377.721893 138.310944,385.345245 
	C141.940933,385.990570 145.029739,386.539703 148.118546,387.088806 
	C143.090286,391.831787 138.062454,396.575256 133.033585,401.317596 
	C130.371384,403.828125 127.818085,403.891144 124.970001,401.399597 
	C121.880577,398.696869 118.530403,396.292175 115.550682,393.431458 
	C122.695061,392.741760 128.697159,390.074097 134.889862,386.474670 
	C128.384064,384.134949 122.701645,381.912048 116.902679,380.052612 
	C110.135040,377.882568 103.265594,376.030029 96.440323,374.039703 
	C95.449104,373.137848 94.457886,372.236023 93.197037,370.839508 
	C84.778976,358.676666 77.147675,346.739288 72.898758,332.726257 
	C73.678688,332.805023 74.079033,332.721741 74.256310,332.883301 
	C75.484421,334.002197 76.612183,335.234894 77.871117,336.315796 
	C89.576302,346.365692 101.025345,356.972534 115.814346,362.307953 
	C125.676224,365.865784 135.958450,368.298767 146.139114,370.895782 
	C147.987747,371.367371 150.379089,370.505157 152.304153,369.725769 
	C156.970383,367.836639 158.392166,363.722839 160.160477,359.232117 
	C163.964279,349.572144 166.225296,339.967133 164.033127,329.673096 
	C163.173691,325.637329 161.260590,321.689056 161.153656,317.665649 
	C161.028458,312.954010 159.096375,310.471069 154.911438,309.447021 
	C152.061890,308.749756 149.117981,308.200470 146.195618,308.078217 
	C131.195847,307.450592 117.517746,303.081482 105.475571,294.003876 
	C92.531151,284.246124 84.625397,270.625061 76.851135,256.838989 
	C74.317589,252.346252 75.665215,249.147079 78.732841,246.227203 
	C82.315140,258.916718 88.190720,264.037750 100.017471,265.010315 
	C100.002678,264.998840 99.973763,264.975037 100.027771,265.323944 
	C101.088737,266.123383 102.095688,266.573914 103.424850,267.173706 
	C104.942429,267.523468 106.137794,267.723969 107.554642,267.961639 
	C107.554642,265.996826 107.554642,264.637970 107.554642,262.292755 
	C109.421501,263.375092 110.574104,264.043335 111.726707,264.711578 
	C111.156876,265.547394 110.444252,266.322052 110.053352,267.234497 
	C109.564957,268.374542 109.341278,269.627930 109.003311,270.832397 
z"/>
<path fill="#D54753" opacity="1.000000" stroke="none" 
	d="
M414.985840,152.956909 
	C420.240448,146.620239 425.824799,140.743622 430.911438,134.463867 
	C437.452057,126.389229 439.024963,116.551582 440.107269,106.537781 
	C441.403595,94.543999 442.951416,82.572189 444.675507,70.632034 
	C445.537018,64.665520 448.548065,59.224129 454.815338,58.507088 
	C461.277405,57.767754 467.188263,61.254436 469.914429,67.197922 
	C473.967072,76.033386 477.668915,85.177628 480.153229,94.552650 
	C484.780457,112.014313 489.114258,129.695511 487.883850,147.990341 
	C486.764191,164.638550 484.313568,181.039551 473.140625,194.907135 
	C469.882690,192.332520 466.953278,189.617020 464.017517,186.179016 
	C473.710571,167.884140 476.195099,148.692581 473.515137,129.408127 
	C470.895203,110.555672 467.681061,91.474541 457.974731,74.271225 
	C456.002075,82.332153 454.055847,90.306908 454.175598,98.250526 
	C454.553040,123.285950 444.573578,143.153885 425.818817,159.101013 
	C422.244019,157.146606 418.669220,155.192200 414.985840,152.956909 
z"/>
<path fill="#FD7881" opacity="1.000000" stroke="none" 
	d="
M426.041687,159.364502 
	C444.573578,143.153885 454.553040,123.285950 454.175598,98.250526 
	C454.055847,90.306908 456.002075,82.332153 457.974731,74.271225 
	C467.681061,91.474541 470.895203,110.555672 473.515137,129.408127 
	C476.195099,148.692581 473.710571,167.884140 463.992279,185.845810 
	C461.241425,184.146484 458.582977,181.952286 455.764130,179.988358 
	C445.960968,173.158478 436.102173,166.408401 426.041687,159.364502 
z"/>
<path fill="#FDC9C8" opacity="1.000000" stroke="none" 
	d="
M206.802383,537.181519 
	C199.422653,535.566162 192.320267,534.433105 185.507614,532.351746 
	C170.199326,527.674683 159.889343,516.709351 151.420944,503.772614 
	C145.486267,494.706512 141.863892,484.760437 141.313522,473.861176 
	C141.227066,472.148682 141.701477,470.247620 142.509583,468.754791 
	C142.731476,468.344849 145.448669,468.639740 146.435242,469.385712 
	C163.742981,482.472046 183.220413,489.819580 204.466583,491.229645 
	C202.440872,505.762360 201.473709,519.597656 207.682861,532.985046 
	C208.195587,534.090454 207.399307,535.802979 206.802383,537.181519 
z"/>
<path fill="#FDC9C9" opacity="1.000000" stroke="none" 
	d="
M410.710327,491.683167 
	C411.517914,497.502655 412.110748,502.953125 412.939911,508.367371 
	C415.374176,524.262390 401.995331,534.620300 388.779541,536.215088 
	C376.452332,537.702515 365.413574,534.568970 354.955872,528.509277 
	C353.267303,527.530823 351.694641,526.165588 350.432709,524.671509 
	C346.076141,519.513611 346.904022,515.899597 352.950226,512.983948 
	C354.447174,512.262085 355.961395,511.550201 357.525574,510.997559 
	C375.084412,504.793518 385.502014,491.456909 393.175568,475.372223 
	C393.675110,474.325134 394.070862,473.228729 394.561676,472.177155 
	C394.694550,471.892609 394.999268,471.688293 396.051727,470.564758 
	C401.003998,477.620544 405.803772,484.459045 410.710327,491.683167 
z"/>
<path fill="#D44753" opacity="1.000000" stroke="none" 
	d="
M498.896057,230.568085 
	C504.743439,225.359665 510.324982,220.073380 516.583557,215.772247 
	C523.497925,211.020508 530.915710,215.292801 531.108582,223.649460 
	C531.523438,241.618546 524.773804,257.393982 515.968689,272.511841 
	C515.578247,273.182281 514.731873,273.587128 513.802856,274.251099 
	C512.050110,268.806793 510.592407,263.227142 509.392365,257.054169 
	C512.707642,248.385620 515.765259,240.310364 518.822937,232.235123 
	C518.296021,231.950668 517.769165,231.666214 517.242310,231.381744 
	C515.341492,232.905380 513.553345,234.605911 511.510681,235.906860 
	C509.075348,237.457932 506.421875,238.666458 503.862915,240.023376 
	C502.218201,236.990463 500.573456,233.957520 498.896057,230.568085 
z"/>
<path fill="#FBC7C6" opacity="1.000000" stroke="none" 
	d="
M340.742035,626.894287 
	C331.565826,629.817932 322.692535,629.980408 313.851898,627.428833 
	C312.352112,626.995972 310.543213,625.576050 310.105377,624.216492 
	C309.792725,623.245850 311.251740,621.258362 312.407471,620.333862 
	C319.638611,614.549683 328.529572,612.967773 337.239990,612.657471 
	C341.173096,612.517334 345.337067,616.144409 349.151581,618.464600 
	C349.690643,618.792480 349.400391,622.127502 348.511871,622.832214 
	C346.358307,624.540100 343.625427,625.517578 340.742035,626.894287 
z"/>
<path fill="#F9757F" opacity="1.000000" stroke="none" 
	d="
M503.867188,240.423431 
	C506.421875,238.666458 509.075348,237.457932 511.510681,235.906860 
	C513.553345,234.605911 515.341492,232.905380 517.242310,231.381744 
	C517.769165,231.666214 518.296021,231.950668 518.822937,232.235123 
	C515.765259,240.310364 512.707642,248.385620 509.392090,256.666199 
	C507.379913,251.522171 505.625702,246.172821 503.867188,240.423431 
z"/>
<path fill="#FE7982" opacity="1.000000" stroke="none" 
	d="
M95.617203,184.384735 
	C90.083984,170.860291 87.404655,157.041931 86.043251,142.976013 
	C85.308601,135.385620 84.957672,127.721329 85.035225,120.096489 
	C85.214066,102.513969 88.133850,85.439545 95.821617,69.426468 
	C96.561310,67.885750 97.568405,66.473404 98.451370,65.001465 
	C98.971931,65.068764 99.492500,65.136070 100.013062,65.203369 
	C100.662529,69.637337 101.617729,74.051384 101.908112,78.508751 
	C103.112724,96.999237 108.652145,114.288872 116.070549,131.083191 
	C122.687347,146.062759 130.533203,160.452667 142.092148,172.094727 
	C148.774597,178.825211 157.257690,183.779083 164.992340,189.448044 
	C167.929916,191.601105 171.018051,193.552979 174.079620,195.531525 
	C177.175156,197.532013 179.560150,199.874008 179.043488,204.002502 
	C178.968567,204.601151 179.299866,205.295456 179.571960,205.886169 
	C187.885330,223.934647 183.427917,239.703232 166.548248,251.642273 
	C162.893509,254.227295 159.252731,256.922058 155.280334,258.919586 
	C153.873184,259.627167 150.913208,259.071594 149.658569,257.963959 
	C140.950531,250.276276 131.700684,242.985489 124.156296,234.245285 
	C111.588455,219.685379 102.745560,202.671494 95.617203,184.384735 
z"/>
<path fill="#FD7B84" opacity="1.000000" stroke="none" 
	d="
M109.282616,271.040070 
	C109.341278,269.627930 109.564957,268.374542 110.053352,267.234497 
	C110.444252,266.322052 111.156876,265.547394 111.726707,264.711578 
	C110.574104,264.043335 109.421501,263.375092 107.554642,262.292755 
	C107.554642,264.637970 107.554642,265.996826 107.554642,267.961639 
	C106.137794,267.723969 104.942429,267.523468 103.242874,266.897949 
	C101.817047,265.973663 100.895409,265.474365 99.973763,264.975037 
	C99.973763,264.975037 100.002678,264.998840 99.875511,264.705017 
	C92.998886,257.583282 87.201180,250.120850 83.746277,241.017609 
	C83.423851,240.168076 82.107941,239.695587 81.226349,238.701172 
	C81.542213,237.255203 81.885063,236.156097 82.227913,235.056992 
	C85.543060,230.604828 88.853912,226.149460 92.174667,221.701508 
	C94.966141,217.962479 96.175613,218.022171 98.538376,222.067215 
	C109.836716,241.409866 124.487823,257.702667 142.932968,270.455627 
	C145.749252,272.402802 149.135284,273.552032 152.313370,274.943420 
	C156.590927,276.816193 160.017517,276.295258 162.092407,271.490326 
	C162.547501,270.436432 163.934708,269.710693 165.007523,269.009552 
	C174.054337,263.097198 183.537552,257.497040 189.333710,248.048294 
	C197.361420,234.961807 198.990128,221.270859 193.935593,206.188232 
	C189.891235,194.119934 182.394119,185.797836 172.374557,178.978928 
	C169.079239,176.736282 165.743134,174.552505 162.478287,172.266678 
	C161.016678,171.243347 159.684692,170.034882 157.211151,168.035080 
	C165.449051,164.426605 172.799316,161.206924 180.518326,157.980194 
	C181.633514,169.526459 187.891571,178.462036 195.711838,185.994095 
	C211.086807,200.802475 213.980042,218.916153 212.372162,239.009872 
	C211.434982,250.721893 207.795685,261.277893 201.102768,270.523285 
	C185.215683,292.469177 154.530884,300.451508 133.246902,289.420288 
	C126.959831,286.161774 119.889122,283.544525 116.253723,276.288208 
	C115.133316,274.051849 111.853172,272.897491 109.282616,271.040070 
z"/>
<path fill="#913239" opacity="1.000000" stroke="none" 
	d="
M81.904335,234.856262 
	C81.885063,236.156097 81.542213,237.255203 81.038521,238.979340 
	C80.196686,240.733246 79.515694,241.862091 78.536392,242.780182 
	C77.157120,237.951874 76.204132,233.298981 74.942055,228.731506 
	C74.296478,226.395157 73.097412,224.211746 72.148499,221.959213 
	C72.281967,221.276810 72.415428,220.594391 72.509468,219.674210 
	C73.287041,218.560654 74.104034,217.684860 75.080727,216.486877 
	C75.240425,216.164688 75.715950,216.188141 75.953506,216.163071 
	C77.987633,222.310516 79.784195,228.483032 81.904335,234.856262 
z"/>
<path fill="#FD7680" opacity="1.000000" stroke="none" 
	d="
M158.973083,411.987427 
	C150.800034,416.333282 142.503265,418.625793 133.363693,418.623840 
	C144.392181,408.775360 155.150360,399.168304 166.477097,389.053497 
	C169.673477,393.518829 172.972046,398.126892 176.597855,403.192108 
	C170.287933,406.346741 164.801651,409.089569 158.973083,411.987427 
z"/>
<path fill="#FDC6C5" opacity="1.000000" stroke="none" 
	d="
M96.590088,374.371338 
	C103.265594,376.030029 110.135040,377.882568 116.902679,380.052612 
	C122.701645,381.912048 128.384064,384.134949 134.889862,386.474670 
	C128.697159,390.074097 122.695061,392.741760 115.381760,393.147156 
	C114.956085,393.188843 114.538757,393.016632 114.314430,392.998535 
	C108.306694,386.887970 102.523277,380.795471 96.590088,374.371338 
z"/>
<path fill="#FC5F6C" opacity="1.000000" stroke="none" 
	d="
M148.451935,387.025055 
	C145.029739,386.539703 141.940933,385.990570 138.310944,385.345245 
	C148.726318,377.721893 155.994522,365.354858 172.320007,367.290009 
	C169.601791,370.669922 167.342041,373.479736 165.054352,376.632172 
	C160.640244,379.529633 156.238831,382.058929 151.878525,384.657227 
	C150.779907,385.311859 149.812851,386.187317 148.451935,387.025055 
z"/>
<path fill="#D54652" opacity="1.000000" stroke="none" 
	d="
M71.814148,222.087494 
	C73.097412,224.211746 74.296478,226.395157 74.942055,228.731506 
	C76.204132,233.298981 77.157120,237.951874 78.563187,243.138916 
	C78.781364,244.423187 78.674431,245.137970 78.567497,245.852737 
	C75.665215,249.147079 74.317589,252.346252 76.851135,256.838989 
	C84.625397,270.625061 92.531151,284.246124 105.475571,294.003876 
	C117.517746,303.081482 131.195847,307.450592 146.195618,308.078217 
	C149.117981,308.200470 152.061890,308.749756 154.911438,309.447021 
	C159.096375,310.471069 161.028458,312.954010 161.153656,317.665649 
	C161.260590,321.689056 163.173691,325.637329 164.033127,329.673096 
	C166.225296,339.967133 163.964279,349.572144 160.160477,359.232117 
	C158.392166,363.722839 156.970383,367.836639 152.304153,369.725769 
	C150.379089,370.505157 147.987747,371.367371 146.139114,370.895782 
	C135.958450,368.298767 125.676224,365.865784 115.814346,362.307953 
	C101.025345,356.972534 89.576302,346.365692 77.871117,336.315796 
	C76.612183,335.234894 75.484421,334.002197 74.256310,332.883301 
	C74.079033,332.721741 73.678688,332.805023 72.898758,332.726257 
	C77.147675,346.739288 84.778976,358.676666 92.945816,370.698975 
	C88.153259,368.038147 82.475212,365.831787 78.733521,361.819611 
	C73.049866,355.725067 68.618942,348.440521 63.831413,341.539673 
	C60.636456,336.934418 57.746506,332.117523 54.457672,327.205688 
	C54.195278,327.015991 53.786121,326.863373 53.606709,326.740082 
	C50.036888,313.967224 50.056252,301.045563 49.766167,288.068390 
	C49.571312,279.351379 47.217869,270.702820 46.600449,261.969177 
	C46.017349,253.721039 45.744678,245.326721 46.627514,237.135971 
	C47.426743,229.720871 54.570396,227.782394 60.255802,232.723541 
	C61.114117,233.469513 61.990955,234.194168 63.414967,235.398804 
	C66.221245,230.811569 68.850510,226.513672 71.814148,222.087494 
M131.170273,319.542664 
	C123.246254,316.674316 115.045792,314.393005 107.454498,310.818146 
	C90.511055,302.839172 79.843987,288.397095 70.448868,272.893005 
	C67.321022,267.731354 64.415062,262.435272 60.695511,255.961136 
	C60.286507,258.216034 59.927929,258.993500 60.053020,259.683258 
	C61.912258,269.935181 62.660580,280.575470 65.983749,290.336761 
	C73.316879,311.876709 87.078522,328.675842 106.278618,341.340546 
	C116.980698,348.399780 128.122391,352.984558 140.820541,354.096313 
	C147.746170,354.702698 148.741348,354.807709 149.900253,348.002258 
	C151.052078,341.238434 150.772079,334.154694 150.443695,327.243408 
	C150.246628,323.095459 147.976746,320.348724 142.882187,320.757416 
	C139.305893,321.044342 135.636429,320.170135 131.170273,319.542664 
z"/>
<path fill="#FBC6C6" opacity="1.000000" stroke="none" 
	d="
M227.819077,621.280396 
	C215.248947,618.737183 206.356979,612.288025 202.579697,600.114197 
	C201.872818,597.835938 202.730896,595.072083 202.866760,592.532349 
	C205.082855,592.909546 207.515686,592.823914 209.478012,593.742981 
	C218.602722,598.016541 226.741898,603.704224 232.960159,611.777283 
	C234.752808,614.104675 236.171402,616.720215 237.761490,619.203674 
	C237.626053,619.796753 237.490616,620.389832 237.355179,620.982910 
	C234.312149,621.112976 231.269104,621.243042 227.819077,621.280396 
z"/>
<path fill="#974B51" opacity="1.000000" stroke="none" 
	d="
M427.702698,266.502502 
	C441.661346,264.980194 449.896240,272.744110 456.411774,283.111328 
	C461.415741,291.073395 463.085968,299.886780 463.200989,309.319611 
	C463.355591,321.999573 462.482971,334.184814 455.617310,345.381989 
	C447.293121,358.957855 432.485199,364.272278 419.814087,357.477386 
	C412.487152,353.548309 408.035645,346.843414 404.515839,339.526398 
	C394.778564,319.284515 397.882111,290.697540 412.255310,275.741638 
	C416.181335,271.656525 422.226807,269.608307 427.702698,266.502502 
M413.054962,283.651886 
	C408.298065,291.614716 405.373169,300.100037 405.381134,309.969513 
	C409.912354,309.969513 414.170471,310.263336 418.375153,309.913971 
	C430.587799,308.899323 441.529114,304.865753 449.243195,294.813599 
	C450.839417,292.733551 452.191162,289.025757 451.441650,286.820679 
	C446.768585,273.071747 430.803406,268.304688 419.326691,276.959991 
	C417.103424,278.636688 415.395264,280.996399 413.054962,283.651886 
M452.491180,323.798645 
	C440.379181,320.126221 428.877930,321.815247 418.052521,328.073273 
	C411.007782,332.145782 409.452362,338.955688 414.112213,344.502991 
	C419.225342,350.589874 424.806549,355.974426 433.802124,354.203552 
	C444.449860,352.107391 455.434387,339.713379 455.862030,328.954834 
	C455.924255,327.388885 454.144806,325.749756 452.491180,323.798645 
z"/>
<path fill="#95484E" opacity="1.000000" stroke="none" 
	d="
M334.227325,406.326874 
	C327.958435,407.661957 326.470917,406.792969 327.020203,400.934265 
	C328.474060,385.427917 334.030701,371.498108 344.663818,359.977386 
	C351.076050,353.029877 359.311737,351.130249 368.449432,353.408783 
	C376.048706,355.303772 379.948120,362.484375 377.352722,370.716858 
	C375.255493,377.369202 372.415558,383.787354 369.279175,390.662628 
	C365.488739,391.002838 362.313965,391.149872 359.161499,390.948212 
	C347.476624,390.200684 338.853546,395.650513 331.566437,404.116791 
	C332.561493,404.943268 333.394409,405.635071 334.227325,406.326874 
z"/>
<path fill="#974F54" opacity="1.000000" stroke="none" 
	d="
M266.756592,316.341034 
	C263.712219,317.431458 261.990601,316.785309 262.034210,313.127563 
	C262.212494,298.172180 265.821228,284.567780 276.856384,273.671143 
	C288.844910,261.833130 306.047241,262.085236 317.539673,274.528229 
	C326.910400,284.673981 330.882416,296.877411 330.955688,310.561462 
	C330.972290,313.661804 329.771851,314.575775 326.867035,314.645386 
	C314.234650,314.948059 301.605957,315.405304 288.512329,315.363159 
	C286.416840,312.203278 285.372681,308.024536 283.027710,307.081879 
	C278.497101,305.260681 273.232727,305.265015 268.272522,304.512573 
	C267.767212,308.455383 267.261902,312.398224 266.756592,316.341034 
M287.242706,271.478455 
	C280.663177,274.619110 276.449799,280.006714 272.686371,286.056396 
	C270.236237,289.994965 270.605988,292.934204 274.867706,294.215607 
	C285.456451,297.399475 296.138123,300.330627 306.905334,302.834961 
	C310.869171,303.756927 315.204681,303.541504 319.322815,303.224152 
	C324.612396,302.816559 326.422791,300.373749 324.378204,295.605804 
	C321.854950,289.721710 318.983429,283.764313 315.101959,278.734009 
	C308.127960,269.695770 298.873199,267.538177 287.242706,271.478455 
z"/>
<path fill="#D34854" opacity="1.000000" stroke="none" 
	d="
M334.666168,406.292877 
	C333.394409,405.635071 332.561493,404.943268 331.566437,404.116791 
	C338.853546,395.650513 347.476624,390.200684 359.161499,390.948212 
	C362.313965,391.149872 365.488739,391.002838 369.079834,390.990997 
	C373.617432,395.021912 377.565247,399.000458 378.662201,405.198547 
	C380.021881,412.881012 377.091766,418.422791 369.678101,420.524994 
	C359.324646,423.460876 351.067688,419.267242 347.133575,409.505493 
	C346.514496,407.969391 344.280396,406.515503 342.548828,406.135040 
	C340.190491,405.616852 337.597443,406.166870 334.666168,406.292877 
z"/>
<path fill="#F2486D" opacity="1.000000" stroke="none" 
	d="
M267.176514,316.478119 
	C267.261902,312.398224 267.767212,308.455383 268.272522,304.512573 
	C273.232727,305.265015 278.497101,305.260681 283.027710,307.081879 
	C285.372681,308.024536 286.416840,312.203278 288.057190,315.291382 
	C281.242584,315.980316 274.419525,316.297760 267.176514,316.478119 
z"/>
<path fill="#FDC2C3" opacity="1.000000" stroke="none" 
	d="
M78.732841,246.227203 
	C78.674431,245.137970 78.781364,244.423187 78.861504,243.349686 
	C79.515694,241.862091 80.196686,240.733246 81.065491,239.326218 
	C82.107941,239.695587 83.423851,240.168076 83.746277,241.017609 
	C87.201180,250.120850 92.998886,257.583282 99.890305,264.716492 
	C88.190720,264.037750 82.315140,258.916718 78.732841,246.227203 
z"/>
<path fill="#FDC2C3" opacity="1.000000" stroke="none" 
	d="
M100.027771,265.323944 
	C100.895409,265.474365 101.817047,265.973663 102.920662,266.748718 
	C102.095688,266.573914 101.088737,266.123383 100.027771,265.323944 
z"/>
<path fill="#FE7982" opacity="1.000000" stroke="none" 
	d="
M131.589417,319.678558 
	C135.636429,320.170135 139.305893,321.044342 142.882187,320.757416 
	C147.976746,320.348724 150.246628,323.095459 150.443695,327.243408 
	C150.772079,334.154694 151.052078,341.238434 149.900253,348.002258 
	C148.741348,354.807709 147.746170,354.702698 140.820541,354.096313 
	C128.122391,352.984558 116.980698,348.399780 106.278618,341.340546 
	C87.078522,328.675842 73.316879,311.876709 65.983749,290.336761 
	C62.660580,280.575470 61.912258,269.935181 60.053020,259.683258 
	C59.927929,258.993500 60.286507,258.216034 60.695511,255.961136 
	C64.415062,262.435272 67.321022,267.731354 70.448868,272.893005 
	C79.843987,288.397095 90.511055,302.839172 107.454498,310.818146 
	C115.045792,314.393005 123.246254,316.674316 131.589417,319.678558 
z"/>
<path fill="#FBFAF6" opacity="1.000000" stroke="none" 
	d="
M413.252228,283.346497 
	C415.395264,280.996399 417.103424,278.636688 419.326691,276.959991 
	C430.803406,268.304688 446.768585,273.071747 451.441650,286.820679 
	C452.191162,289.025757 450.839417,292.733551 449.243195,294.813599 
	C441.529114,304.865753 430.587799,308.899323 418.375153,309.913971 
	C414.170471,310.263336 409.912354,309.969513 405.381134,309.969513 
	C405.373169,300.100037 408.298065,291.614716 413.252228,283.346497 
z"/>
<path fill="#F9446D" opacity="1.000000" stroke="none" 
	d="
M452.854370,323.971558 
	C454.144806,325.749756 455.924255,327.388885 455.862030,328.954834 
	C455.434387,339.713379 444.449860,352.107391 433.802124,354.203552 
	C424.806549,355.974426 419.225342,350.589874 414.112213,344.502991 
	C409.452362,338.955688 411.007782,332.145782 418.052521,328.073273 
	C428.877930,321.815247 440.379181,320.126221 452.854370,323.971558 
z"/>
<path fill="#FBFAF6" opacity="1.000000" stroke="none" 
	d="
M287.591553,271.311127 
	C298.873199,267.538177 308.127960,269.695770 315.101959,278.734009 
	C318.983429,283.764313 321.854950,289.721710 324.378204,295.605804 
	C326.422791,300.373749 324.612396,302.816559 319.322815,303.224152 
	C315.204681,303.541504 310.869171,303.756927 306.905334,302.834961 
	C296.138123,300.330627 285.456451,297.399475 274.867706,294.215607 
	C270.605988,292.934204 270.236237,289.994965 272.686371,286.056396 
	C276.449799,280.006714 280.663177,274.619110 287.591553,271.311127 
z"/>
</svg>