<svg version="1.1" id="Layer_1" xmlns="http://www.w3.org/2000/svg" xmlns:xlink="http://www.w3.org/1999/xlink" x="0px" y="0px"
	 width="100%" viewBox="0 0 755 618" enable-background="new 0 0 755 618" xml:space="preserve">
<path fill="#FFFFFF" opacity="1.000000" stroke="none" 
	d="
M453.000000,619.000000 
	C302.000000,619.000000 151.500000,619.000000 1.000000,619.000000 
	C1.000000,413.000000 1.000000,207.000000 1.000000,1.000000 
	C252.666672,1.000000 504.333344,1.000000 756.000000,1.000000 
	C756.000000,207.000000 756.000000,413.000000 756.000000,619.000000 
	C655.166687,619.000000 554.333313,619.000000 453.000000,619.000000 
M665.000000,233.000000 
	C665.000000,233.000000 665.001953,232.997971 665.601562,232.723740 
	C666.731140,231.147415 667.860657,229.571075 669.460938,227.752258 
	C669.698425,227.293976 669.935974,226.835693 670.802185,226.098221 
	C672.870300,223.400497 674.938477,220.702789 677.000000,218.000000 
	C677.000000,218.000000 677.005188,218.005890 677.607605,217.707031 
	C680.902466,211.291733 685.219299,205.185715 687.274292,198.395203 
	C691.253479,185.246490 682.271545,171.063019 668.916016,167.646957 
	C663.023926,166.139877 656.857544,168.206818 653.030029,172.847290 
	C652.663330,173.178375 652.296570,173.509460 651.393555,173.928284 
	C651.047913,174.031708 650.702271,174.135132 649.705566,174.084549 
	C649.188110,172.726868 648.670654,171.369202 648.117920,169.346909 
	C648.139221,168.904022 648.160461,168.461151 648.319458,167.766632 
	C648.319458,167.766632 648.295837,167.480728 648.818848,167.016144 
	C652.864441,161.004196 656.910034,154.992249 661.664856,148.892715 
	C662.097168,147.901672 662.529480,146.910629 662.984558,145.425888 
	C662.984558,145.425888 662.975220,144.931763 663.589355,144.675049 
	C669.071594,136.402359 674.996643,128.383148 679.916565,119.788567 
	C685.261658,110.451035 685.796387,100.478531 680.276611,90.824989 
	C676.659058,84.498367 674.736145,77.975693 674.594849,70.555679 
	C674.491821,65.148193 673.598389,59.285137 668.122803,55.803631 
	C668.122803,55.803631 668.154724,55.875248 668.053528,55.330032 
	C667.737793,55.169476 667.422058,55.008919 667.182861,54.909260 
	C667.182861,54.909260 667.197449,54.812523 667.109192,54.127331 
	C664.385315,49.539513 659.724976,48.256023 655.086365,48.370571 
	C642.188538,48.689072 628.860046,57.719055 626.842285,71.286987 
	C625.591309,79.698624 623.026917,88.201164 615.860840,93.651283 
	C609.704041,98.333725 602.796509,102.044250 596.142395,106.054199 
	C584.779297,112.901871 572.330444,118.533249 570.674561,134.417786 
	C570.462158,136.454651 565.510071,139.855667 563.255188,139.494385 
	C554.282959,138.056808 549.559570,142.928665 544.793213,148.955429 
	C532.617615,136.979660 518.850586,127.010689 504.234619,118.372314 
	C468.743500,97.396233 430.098846,86.618385 389.030243,84.544456 
	C344.004578,82.270691 300.895172,90.075684 260.149323,109.821999 
	C238.825760,120.155861 220.031204,134.018005 203.029434,149.550507 
	C203.040771,145.933762 204.127518,141.872513 202.852371,138.787537 
	C199.630951,130.993835 195.865921,122.983574 186.692215,120.449875 
	C180.040588,118.612747 178.074432,113.630768 177.027161,107.894928 
	C175.360062,98.764610 170.496231,91.817429 162.566177,87.366005 
	C150.882111,80.807327 140.445755,73.286110 135.270599,60.182568 
	C134.140793,57.321880 131.915848,54.825161 129.918243,52.387863 
	C122.084145,42.829430 108.975853,40.718964 99.161469,48.234470 
	C94.545357,51.769321 90.111725,56.486019 87.633652,61.646027 
	C84.004028,69.203857 82.300598,77.672981 79.606056,85.696579 
	C74.457474,101.027672 76.974838,115.363274 85.614296,128.607910 
	C91.645775,137.854431 97.076622,147.284454 100.490105,157.840057 
	C102.073540,162.736557 103.989304,167.550613 106.130066,172.230194 
	C107.050423,174.242081 108.631248,176.222549 110.418335,177.519806 
	C117.682602,182.792969 125.293091,187.595505 132.474701,192.973801 
	C136.726746,196.158127 140.415710,200.094330 144.357880,203.692459 
	C141.076920,204.157227 138.569565,203.574615 136.053513,203.032288 
	C125.696480,200.799911 115.413971,198.946899 107.132591,191.055679 
	C100.947647,185.162125 87.119919,185.687775 80.440704,191.193695 
	C72.963303,197.357590 70.231102,205.758194 70.661255,215.184296 
	C71.196777,226.919083 78.148407,234.559036 87.873840,239.732269 
	C94.594666,243.307266 97.697426,248.757446 99.147148,255.800705 
	C100.046814,260.171600 100.770218,264.753937 102.682724,268.703949 
	C106.411285,276.404694 114.094833,278.915466 121.705109,279.779602 
	C131.000122,280.835052 138.746048,284.676727 146.279022,289.697357 
	C151.242798,293.005676 156.684326,294.940521 163.009811,293.835571 
	C163.800476,296.218994 164.591156,298.602386 164.857407,301.563873 
	C164.229309,301.673523 163.516968,302.033813 162.985733,301.855286 
	C154.720123,299.077087 146.437653,297.723480 137.555420,298.649048 
	C133.904633,299.029480 129.738342,296.520782 126.139763,294.676147 
	C123.388550,293.265930 121.218712,290.756531 118.690605,288.869598 
	C110.629074,282.852692 103.841789,282.171387 97.101814,286.604767 
	C90.334694,291.056000 87.069893,299.945251 88.745682,308.553406 
	C90.335609,316.720520 95.419968,322.292175 102.160950,326.311218 
	C110.149323,331.073975 115.325974,337.601105 118.105675,346.487305 
	C120.113991,352.907562 123.574699,358.677063 129.802612,362.081848 
	C136.988266,366.010254 144.733109,367.411469 152.890869,367.075562 
	C155.670349,366.961121 158.722351,366.826447 161.221359,367.800385 
	C168.332138,370.571655 175.340622,373.671906 182.171280,377.079773 
	C192.382217,382.174072 200.574524,378.324860 202.957245,367.071106 
	C203.269135,365.598083 204.255997,364.268005 205.430695,363.333527 
	C219.041702,373.563293 232.342056,384.247284 246.381653,393.850464 
	C254.640915,399.499817 264.074249,403.432739 273.009033,408.816040 
	C272.999237,409.494843 272.989410,410.173645 272.263092,410.779816 
	C266.507965,408.902191 260.866150,406.477692 254.974884,405.257233 
	C241.428665,402.451019 225.504562,413.387299 230.699997,430.955170 
	C233.532776,440.533966 239.241577,447.716125 246.883530,453.705566 
	C261.427673,465.104675 277.604401,472.246307 296.372192,472.120972 
	C299.707855,472.098694 300.096100,474.025696 300.967438,476.148987 
	C307.516357,492.107788 316.655426,506.260071 330.339661,517.048218 
	C351.211945,533.503235 373.942963,537.000122 398.057434,525.181946 
	C417.302948,515.750000 429.517944,499.460022 438.316895,480.456909 
	C440.008972,476.802582 441.963257,475.464478 445.966339,475.021667 
	C464.085358,473.017426 481.178925,468.068634 495.422363,455.882996 
	C503.220642,449.211334 509.381744,441.611420 510.376801,430.868652 
	C511.417603,419.631836 505.199493,410.668518 494.117767,408.779602 
	C489.684113,408.023834 484.951080,409.024200 479.685181,409.012207 
	C479.132477,408.391815 478.579742,407.771393 478.773560,406.942780 
	C485.128052,403.792053 491.608063,400.869080 497.814148,397.448975 
	C518.594055,385.997437 537.234375,371.804169 553.422241,354.088989 
	C560.931885,360.086060 564.833313,360.440582 572.344604,355.703247 
	C573.886902,354.730499 575.196045,353.355591 576.795959,352.514801 
	C578.894043,351.412140 581.100098,350.213318 583.389221,349.831055 
	C590.905762,348.575958 598.565552,348.062378 605.994690,346.453278 
	C609.301575,345.737000 612.189209,343.084717 615.926697,341.127075 
	C618.230774,339.071411 620.850708,337.271973 622.770996,334.904938 
	C626.390686,330.443024 629.607300,325.654144 633.000000,321.001221 
	C633.000000,321.001221 633.002136,320.993225 633.685791,320.902618 
	C636.169189,318.640381 638.652649,316.378143 641.015991,314.016663 
	C641.015991,314.016663 641.111084,314.139984 641.753418,314.040680 
	C642.833313,313.025970 643.913208,312.011292 645.000000,311.000000 
	C645.000000,311.000000 644.996704,310.992737 645.661987,310.880371 
	C646.841064,309.317261 648.020142,307.754120 649.190735,306.122406 
	C649.190735,306.122406 649.127258,306.149841 649.637878,305.999664 
	C649.803406,305.696625 649.968933,305.393616 650.062744,305.138916 
	C650.062744,305.138916 650.146851,305.159119 650.806763,305.004333 
	C652.459412,302.762726 654.312561,300.640259 655.728149,298.257812 
	C660.485901,290.250946 658.641235,279.791168 647.733826,273.798065 
	C647.733826,273.798065 647.425964,273.804321 647.034485,273.161804 
	C643.704285,272.503113 640.374146,271.844391 636.322449,271.111664 
	C635.848328,271.193146 635.374207,271.274628 635.157288,270.659485 
	C648.621948,263.041473 655.472778,250.149536 662.447815,236.777313 
	C662.623962,236.500671 662.800049,236.224030 663.559692,235.705505 
	C664.039368,234.804276 664.519043,233.903046 665.000000,233.000000 
M266.881897,557.623108 
	C272.404938,561.751160 277.390320,567.150452 283.556305,569.758484 
	C299.289093,576.412903 313.771210,566.686707 313.973938,549.540283 
	C314.277222,523.885986 299.221527,503.610107 273.781555,497.016296 
	C263.797729,494.428558 256.945801,498.421875 253.623932,508.208984 
	C252.829865,510.548492 252.234039,513.008728 251.952271,515.460022 
	C250.092896,531.636230 256.667999,544.917358 266.881897,557.623108 
M434.765259,528.265686 
	C429.574432,534.700623 427.163300,542.239502 426.235352,550.298279 
	C424.869263,562.162292 432.966705,568.703735 446.676788,566.919128 
	C471.415375,563.698914 486.302979,548.592896 494.360229,526.178467 
	C499.265961,512.531189 488.317413,500.778137 474.425110,504.056366 
	C469.045502,505.325836 463.751495,507.070099 458.551117,508.962494 
	C448.691345,512.550415 441.035095,519.022827 434.765259,528.265686 
z"/>
<path fill="#813239" opacity="1.000000" stroke="none" 
	d="
M552.777222,353.742035 
	C537.234375,371.804169 518.594055,385.997437 497.814148,397.448975 
	C491.608063,400.869080 485.128052,403.792053 478.037903,407.062531 
	C470.151062,409.835785 463.133179,412.978271 455.803314,414.976196 
	C450.652832,416.380035 450.236389,419.056671 451.401001,423.564972 
	C456.175293,420.914825 460.697083,418.179596 465.417725,415.846680 
	C470.295990,413.435913 475.367401,411.416046 480.354340,409.225159 
	C484.951080,409.024200 489.684113,408.023834 494.117767,408.779602 
	C505.199493,410.668518 511.417603,419.631836 510.376801,430.868652 
	C509.381744,441.611420 503.220642,449.211334 495.422363,455.882996 
	C481.178925,468.068634 464.085358,473.017426 445.966339,475.021667 
	C441.963257,475.464478 440.008972,476.802582 438.316895,480.456909 
	C429.517944,499.460022 417.302948,515.750000 398.057434,525.181946 
	C373.942963,537.000122 351.211945,533.503235 330.339661,517.048218 
	C316.655426,506.260071 307.516357,492.107788 300.967438,476.148987 
	C300.096100,474.025696 299.707855,472.098694 296.372192,472.120972 
	C277.604401,472.246307 261.427673,465.104675 246.883530,453.705566 
	C239.241577,447.716125 233.532776,440.533966 230.699997,430.955170 
	C225.504562,413.387299 241.428665,402.451019 254.974884,405.257233 
	C260.866150,406.477692 266.507965,408.902191 272.973083,410.928558 
	C278.700592,412.944031 283.718109,414.810760 288.735626,416.677460 
	C289.000153,416.079437 289.264709,415.481415 289.529266,414.883392 
	C285.142700,410.353607 278.597229,410.182068 272.979492,408.137665 
	C264.074249,403.432739 254.640915,399.499817 246.381653,393.850464 
	C232.342056,384.247284 219.041702,373.563293 205.067139,362.831116 
	C204.148300,362.139099 203.593018,361.949493 203.040726,361.330994 
	C202.730133,357.224335 202.416565,353.546539 202.551910,349.865906 
	C205.493881,349.885651 208.090912,350.365997 210.456680,349.828552 
	C214.459534,348.919159 217.137650,350.069183 220.198990,352.825134 
	C239.565811,370.259949 261.341248,383.934845 285.675293,393.392059 
	C288.490356,394.486115 291.722198,394.618134 294.397675,395.934387 
	C298.111023,397.761322 301.544373,400.195221 304.959961,402.567383 
	C306.030243,403.310730 307.460114,404.772217 307.362030,405.771088 
	C306.360352,415.968750 307.609528,425.849396 309.457245,435.934174 
	C312.211884,450.969025 315.835266,465.557739 323.173370,479.027100 
	C330.085571,491.714722 339.163879,502.403961 352.404449,508.892273 
	C370.024200,517.526489 390.981903,512.351135 405.761353,496.103668 
	C420.442963,479.963745 427.737366,460.508972 430.894104,439.405975 
	C432.539673,428.404999 432.855682,417.200897 433.647247,406.079651 
	C433.825043,403.581970 434.547455,402.291962 437.265259,401.744934 
	C442.638214,400.663605 448.040619,399.450287 453.201508,397.638306 
	C486.742889,385.862000 516.805481,368.682831 540.055664,341.060303 
	C542.509827,338.144592 545.227539,335.450684 547.853699,333.132629 
	C548.088745,340.200714 547.581970,346.992584 553.059570,352.336487 
	C552.913147,352.990875 552.845215,353.366455 552.777222,353.742035 
M259.508759,445.050232 
	C270.104401,452.171356 281.441315,457.196167 294.624664,457.852905 
	C293.759064,453.176422 292.580719,448.974915 292.303589,444.714783 
	C292.016205,440.296753 292.601715,435.821930 292.796417,431.569275 
	C281.027222,427.718292 269.538727,423.908630 258.007385,420.233307 
	C255.970276,419.584045 253.762329,419.265656 251.619644,419.192413 
	C245.877747,418.996002 243.494919,422.136658 244.899490,427.683014 
	C246.895721,435.565674 253.105118,439.926727 259.508759,445.050232 
M483.133911,446.653229 
	C488.453613,442.787628 493.355011,438.535828 495.381531,431.965546 
	C497.461914,425.220490 494.402130,421.384125 487.471222,422.227814 
	C484.530396,422.585785 481.467804,423.226471 478.822021,424.493530 
	C469.537598,428.939880 460.400757,433.695709 451.244995,438.406189 
	C450.624664,438.725342 450.176575,439.584320 449.877930,440.289459 
	C448.326111,443.953125 446.692719,447.594513 445.396271,451.350159 
	C444.408844,454.210510 443.881989,457.229858 442.912445,461.136505 
	C457.709137,458.339569 471.280396,456.035217 483.133911,446.653229 
z"/>
<path fill="#FD8B95" opacity="1.000000" stroke="none" 
	d="
M162.803711,293.119843 
	C156.684326,294.940521 151.242798,293.005676 146.279022,289.697357 
	C138.746048,284.676727 131.000122,280.835052 121.705109,279.779602 
	C114.094833,278.915466 106.411285,276.404694 102.682724,268.703949 
	C100.770218,264.753937 100.046814,260.171600 99.147148,255.800705 
	C97.697426,248.757446 94.594666,243.307266 87.873840,239.732269 
	C78.148407,234.559036 71.196777,226.919083 70.661255,215.184296 
	C70.231102,205.758194 72.963303,197.357590 80.440704,191.193695 
	C87.119919,185.687775 100.947647,185.162125 107.132591,191.055679 
	C115.413971,198.946899 125.696480,200.799911 136.053513,203.032288 
	C138.569565,203.574615 141.076920,204.157227 144.357880,203.692459 
	C140.415710,200.094330 136.726746,196.158127 132.474701,192.973801 
	C125.293091,187.595505 117.682602,182.792969 110.418335,177.519806 
	C108.631248,176.222549 107.050423,174.242081 106.130066,172.230194 
	C103.989304,167.550613 102.073540,162.736557 100.490105,157.840057 
	C97.076622,147.284454 91.645775,137.854431 85.614296,128.607910 
	C76.974838,115.363274 74.457474,101.027672 79.606056,85.696579 
	C82.300598,77.672981 84.004028,69.203857 87.633652,61.646027 
	C90.111725,56.486019 94.545357,51.769321 99.161469,48.234470 
	C108.975853,40.718964 122.084145,42.829430 129.918243,52.387863 
	C131.915848,54.825161 134.140793,57.321880 135.270599,60.182568 
	C140.445755,73.286110 150.882111,80.807327 162.566177,87.366005 
	C170.496231,91.817429 175.360062,98.764610 177.027161,107.894928 
	C178.074432,113.630768 180.040588,118.612747 186.692215,120.449875 
	C195.865921,122.983574 199.630951,130.993835 202.852371,138.787537 
	C204.127518,141.872513 203.040771,145.933762 203.018188,150.288971 
	C202.403625,151.454468 201.800293,151.881531 200.817169,152.151550 
	C184.468124,148.163696 172.843567,137.528046 162.122330,126.203529 
	C149.165604,112.517754 139.189102,96.626381 130.571167,79.774887 
	C127.599579,73.964279 122.320122,68.987335 117.185562,64.725021 
	C111.836693,60.284801 103.152573,62.214535 99.969238,68.435425 
	C97.471199,73.317116 95.194405,79.067162 95.288368,84.387833 
	C95.671173,106.061234 101.132210,126.587288 110.612686,146.199203 
	C117.454659,160.352966 126.427895,172.642380 137.828720,183.369156 
	C146.304352,191.343674 155.188644,198.376495 167.119522,200.283569 
	C167.691360,200.374969 168.181107,200.979919 168.735779,201.364197 
	C167.818436,204.348907 166.950089,207.174179 165.893707,210.089844 
	C165.705643,210.180252 165.295029,210.112488 164.826233,210.122437 
	C160.862396,209.960846 157.367371,209.789307 153.872330,209.617752 
	C153.681854,210.050034 153.491364,210.482315 153.300873,210.914581 
	C156.861694,212.274780 160.422516,213.634964 164.066284,215.211121 
	C164.149246,215.427063 164.231979,215.882294 164.020905,216.205353 
	C162.861603,220.528152 160.912170,223.059967 156.241089,222.016983 
	C142.136414,218.867630 128.009476,215.874176 116.850212,205.571686 
	C114.444626,203.350784 111.643089,201.341431 108.681610,199.978470 
	C97.279243,194.730759 90.410133,202.630783 89.206383,210.566803 
	C88.770432,213.440857 89.170456,216.535507 89.680115,219.443436 
	C92.239357,234.045609 100.602463,245.747177 109.659721,256.763702 
	C120.661362,270.145142 134.582977,279.715668 151.724976,283.632538 
	C156.695465,284.768280 161.827957,284.705414 163.109070,291.405457 
	C162.984192,292.208557 162.893951,292.664215 162.803711,293.119843 
z"/>
<path fill="#81333A" opacity="1.000000" stroke="none" 
	d="
M201.196976,152.308594 
	C201.800293,151.881531 202.403625,151.454468 203.037308,150.745514 
	C220.031204,134.018005 238.825760,120.155861 260.149323,109.821999 
	C300.895172,90.075684 344.004578,82.270691 389.030243,84.544456 
	C430.098846,86.618385 468.743500,97.396233 504.234619,118.372314 
	C518.850586,127.010689 532.617615,136.979660 545.019653,149.297577 
	C545.236267,149.829590 545.251587,150.017410 545.181641,150.558380 
	C545.670959,159.827988 546.270569,168.742355 546.591553,177.440063 
	C543.024841,173.466217 539.889587,169.561340 536.423706,165.976089 
	C515.475891,144.306747 490.586060,128.578873 462.514984,117.931381 
	C415.065704,99.933670 366.463440,97.437233 317.154236,108.486374 
	C281.255768,116.530449 248.830719,131.906708 222.037689,157.523438 
	C214.858551,164.387405 207.345108,165.563828 198.511780,164.137939 
	C198.546234,164.114243 198.540649,164.022659 198.703522,163.709808 
	C199.643250,159.700821 200.420120,156.004715 201.196976,152.308594 
z"/>
<path fill="#FE8892" opacity="1.000000" stroke="none" 
	d="
M662.975220,144.931763 
	C662.975220,144.931763 662.984558,145.425888 662.725830,145.691605 
	C662.467163,145.957321 661.972473,145.996964 661.753906,146.114838 
	C661.264465,146.452118 661.101624,146.733932 661.069702,147.070282 
	C661.092651,147.062378 661.116516,147.107071 660.742065,147.082062 
	C659.550171,147.671570 658.652100,148.204376 657.930786,148.916245 
	C655.915527,150.905121 653.973389,152.968109 651.875977,154.766907 
	C651.456238,154.336288 651.162903,154.140594 650.931030,153.595123 
	C652.286316,150.815048 653.580078,148.384750 655.217712,145.930298 
	C656.942688,144.774536 659.296082,143.779434 656.130005,141.644363 
	C657.129456,138.512512 658.107971,135.742722 659.304077,132.835938 
	C659.655701,132.387741 659.789734,132.076523 659.904419,131.418793 
	C659.937866,130.380875 659.990601,129.689453 660.367859,128.949799 
	C660.762817,127.918282 660.833374,126.935036 660.916809,125.537125 
	C661.620605,112.748238 662.311523,100.374001 663.343201,87.942780 
	C665.173584,82.373940 662.497742,76.917938 657.586182,75.886391 
	C654.528015,74.130798 651.762512,72.538048 648.932556,70.603134 
	C647.130798,68.330124 645.772827,68.260941 644.648193,71.116379 
	C634.350403,75.350075 628.657288,83.209900 624.957581,92.987190 
	C624.355225,94.578934 622.321899,95.629166 620.901489,96.805176 
	C620.771667,96.639793 620.690430,96.598930 620.609131,96.558067 
	C620.717712,96.690559 620.826355,96.823044 621.090576,97.272766 
	C618.875977,103.076912 616.505737,108.563820 613.792725,114.060028 
	C613.020691,115.075623 612.591492,116.081902 612.087280,117.421417 
	C610.420105,119.866417 608.827759,121.978188 606.855713,124.104202 
	C606.008362,125.137367 605.540833,126.156288 605.028259,127.521698 
	C601.324402,132.912964 597.665649,137.957733 593.632690,143.009277 
	C592.516113,144.025375 591.773743,145.034714 591.015686,146.022217 
	C591.000000,146.000366 591.043884,146.031372 590.664978,146.025330 
	C586.866333,146.678345 583.867859,147.769073 583.873291,152.401428 
	C581.503357,153.856232 579.303467,155.021561 576.909790,155.908463 
	C574.163025,157.139801 571.610046,158.649567 568.797607,160.406067 
	C560.854614,162.985977 555.610229,161.253784 550.903259,154.897079 
	C549.931885,153.585220 548.797852,152.393784 548.074707,150.978210 
	C548.966736,149.672958 549.240967,148.190659 550.131653,147.464050 
	C552.906494,145.200333 556.359314,141.064606 558.745789,141.556076 
	C564.867004,142.816650 569.006592,140.876297 573.296387,137.122955 
	C574.312927,137.200714 575.033081,137.155518 575.753296,137.110321 
	C575.168884,136.073349 574.584412,135.036362 574.000000,133.587372 
	C574.697632,122.702667 578.575684,118.357224 586.187988,120.547035 
	C583.187988,116.992996 584.700256,115.153259 587.811096,113.460747 
	C592.881042,110.702301 597.496216,106.928566 602.792725,104.802673 
	C614.573364,100.074257 622.424133,91.631096 627.869690,80.591499 
	C628.939514,78.422546 629.922668,75.895012 629.885803,73.549545 
	C629.707336,62.218971 636.420532,55.090019 647.771729,54.999378 
	C654.247009,54.947670 660.722229,54.875484 667.197449,54.812523 
	C667.197449,54.812523 667.182861,54.909260 667.221680,55.135002 
	C667.558594,55.532249 667.856628,55.703751 668.154724,55.875252 
	C668.154724,55.875248 668.122803,55.803631 668.129028,56.206230 
	C669.434021,60.373997 670.892639,64.092896 671.998901,67.913780 
	C674.448425,76.373589 673.731445,85.521179 679.239197,93.435944 
	C681.703369,96.977028 682.254822,102.774811 681.687622,107.299446 
	C680.634338,115.702309 676.112793,122.985054 671.585999,130.111374 
	C668.524841,134.930252 665.832520,139.983398 662.975220,144.931763 
z"/>
<path fill="#FD8B95" opacity="1.000000" stroke="none" 
	d="
M203.037735,361.759888 
	C203.593018,361.949493 204.148300,362.139099 204.816895,362.600220 
	C204.255997,364.268005 203.269135,365.598083 202.957245,367.071106 
	C200.574524,378.324860 192.382217,382.174072 182.171280,377.079773 
	C175.340622,373.671906 168.332138,370.571655 161.221359,367.800385 
	C158.722351,366.826447 155.670349,366.961121 152.890869,367.075562 
	C144.733109,367.411469 136.988266,366.010254 129.802612,362.081848 
	C123.574699,358.677063 120.113991,352.907562 118.105675,346.487305 
	C115.325974,337.601105 110.149323,331.073975 102.160950,326.311218 
	C95.419968,322.292175 90.335609,316.720520 88.745682,308.553406 
	C87.069893,299.945251 90.334694,291.056000 97.101814,286.604767 
	C103.841789,282.171387 110.629074,282.852692 118.690605,288.869598 
	C121.218712,290.756531 123.388550,293.265930 126.139763,294.676147 
	C129.738342,296.520782 133.904633,299.029480 137.555420,298.649048 
	C146.437653,297.723480 154.720123,299.077087 162.985733,301.855286 
	C163.516968,302.033813 164.229309,301.673523 165.349274,301.473755 
	C166.285950,302.551056 166.730743,303.718506 167.147858,305.261475 
	C168.438217,309.108002 169.756271,312.578979 171.300125,316.644653 
	C167.364594,316.204895 164.255325,315.959595 161.179199,315.494965 
	C151.113800,313.974701 142.300842,309.369843 133.613022,304.365112 
	C129.621994,302.066010 124.621292,301.407074 121.488487,304.706482 
	C118.948502,307.381561 117.982704,311.900818 117.230171,315.778961 
	C116.842934,317.774597 118.226257,320.256775 119.186264,322.345978 
	C123.234642,331.156464 129.784988,337.963562 137.121063,344.070221 
	C149.082245,354.026947 163.668228,358.461578 178.173981,362.654022 
	C186.269333,364.993683 194.879700,365.535248 203.037735,361.759888 
z"/>
<path fill="#FE8892" opacity="1.000000" stroke="none" 
	d="
M662.976196,235.947388 
	C662.800049,236.224030 662.623962,236.500671 661.869751,236.921997 
	C659.549866,238.946640 657.136475,240.538635 656.185059,242.757538 
	C652.498352,251.355682 648.190308,259.460571 639.881592,264.382935 
	C634.077881,267.821198 629.342468,273.048035 622.193481,274.393646 
	C619.918457,274.821899 618.051331,277.417023 615.725830,279.182587 
	C614.346741,279.918854 613.239441,280.493195 611.812744,281.061768 
	C611.019531,281.409576 610.545654,281.763214 610.033203,282.081482 
	C609.994629,282.046082 610.093567,282.080170 609.852661,282.164062 
	C609.436646,282.529083 609.261597,282.810272 609.080078,283.040497 
	C609.073547,282.989532 609.118286,283.082306 608.847534,283.205261 
	C608.374512,283.867676 608.172180,284.407104 607.978577,284.976074 
	C607.987366,285.005615 607.936707,284.970520 607.619141,285.025208 
	C607.012024,285.845703 606.722351,286.611572 606.432739,287.377411 
	C606.962158,287.237396 607.491638,287.097351 608.345947,286.944092 
	C609.104431,286.932037 609.537903,286.933197 610.168213,287.201324 
	C611.240417,286.959015 612.115845,286.449738 613.268066,285.886047 
	C613.920105,285.825256 614.295471,285.818939 615.088135,285.870300 
	C618.390198,286.279236 620.159790,285.308105 620.209534,281.837738 
	C621.554260,280.706238 622.733215,279.837891 624.154114,278.880280 
	C624.591553,278.516724 624.786987,278.242432 624.988770,277.977020 
	C624.995056,277.985870 624.968994,277.970490 625.338745,277.976685 
	C628.772339,275.773987 631.836182,273.565063 634.900085,271.356140 
	C635.374207,271.274628 635.848328,271.193146 636.938660,271.391907 
	C640.845215,272.382874 644.135620,273.093597 647.425964,273.804321 
	C647.425964,273.804321 647.733826,273.798065 647.896973,274.224731 
	C649.167236,276.060150 650.165710,277.573120 651.399963,278.859833 
	C656.880188,284.572906 657.589172,288.614502 654.256165,296.069824 
	C652.899109,299.105286 651.517334,302.129669 650.146851,305.159119 
	C650.146851,305.159119 650.062744,305.138916 649.845581,305.196533 
	C649.461365,305.552734 649.294312,305.851288 649.127258,306.149841 
	C649.127258,306.149841 649.190735,306.122406 648.839233,306.129639 
	C647.324097,307.755493 646.160400,309.374115 644.996704,310.992737 
	C644.996704,310.992737 645.000000,311.000000 644.628052,310.998718 
	C643.207825,312.044922 642.159424,313.092438 641.111084,314.139984 
	C641.111084,314.139984 641.015991,314.016663 640.698975,314.029907 
	C637.922058,316.359863 635.462097,318.676544 633.002136,320.993225 
	C633.002136,320.993225 633.000000,321.001221 632.641235,320.990173 
	C631.504150,320.581573 630.725830,320.183990 630.102112,319.504456 
	C635.515564,313.546539 639.809753,307.394989 641.340088,299.545807 
	C642.829041,291.908630 637.604797,284.625214 629.944397,285.170166 
	C625.648987,285.475739 621.404480,287.315430 617.269653,288.826843 
	C613.129028,290.340363 609.153564,292.305573 604.794861,293.930267 
	C603.652771,292.852692 602.821533,291.917664 602.149902,290.680389 
	C603.066162,289.508118 603.822693,288.638092 604.399292,287.975037 
	C599.036621,286.936554 593.974243,285.956207 588.935425,284.600098 
	C590.050537,282.935272 590.932068,281.326843 592.285828,280.436371 
	C594.060608,279.268921 596.294861,278.827118 598.181763,277.798553 
	C616.962524,267.561249 634.471802,255.621262 648.379700,239.099045 
	C656.468811,229.489410 663.555298,219.245483 664.701904,206.182266 
	C665.537964,196.657227 660.182068,185.624710 646.402893,188.305359 
	C644.878052,188.602005 643.246643,188.350540 641.994629,188.135254 
	C642.850830,186.581177 643.377014,185.245148 643.895996,183.940567 
	C643.888794,183.972031 643.880127,183.903610 644.239868,183.887512 
	C645.007019,183.124344 645.414490,182.377258 645.824829,181.467987 
	C645.827759,181.305786 645.957520,181.008469 646.201172,180.880188 
	C646.601929,180.428818 646.759033,180.105759 646.945068,179.585693 
	C646.973938,179.388702 647.143616,179.028503 647.506470,179.017014 
	C649.222900,177.283875 650.576355,175.562210 651.929871,173.840546 
	C652.296570,173.509460 652.663330,173.178375 653.693604,172.862045 
	C660.241394,169.027618 667.032166,167.452484 672.859375,171.194763 
	C684.309998,178.548355 690.542358,189.542816 682.943726,204.648392 
	C680.756592,208.996429 678.973572,213.547791 677.005249,218.005890 
	C677.005188,218.005890 677.000000,218.000000 676.654785,218.031296 
	C673.356262,220.164139 669.723511,221.764267 670.173523,226.377411 
	C669.935974,226.835693 669.698425,227.293976 668.871582,227.908508 
	C667.188721,229.709167 666.095337,231.353561 665.001953,232.997955 
	C665.001953,232.997971 665.000000,233.000000 664.656799,233.047791 
	C663.867798,234.046188 663.421997,234.996780 662.976196,235.947388 
z"/>
<path fill="#81343B" opacity="1.000000" stroke="none" 
	d="
M266.665192,557.342529 
	C256.667999,544.917358 250.092896,531.636230 251.952271,515.460022 
	C252.234039,513.008728 252.829865,510.548492 253.623932,508.208984 
	C256.945801,498.421875 263.797729,494.428558 273.781555,497.016296 
	C299.221527,503.610107 314.277222,523.885986 313.973938,549.540283 
	C313.771210,566.686707 299.289093,576.412903 283.556305,569.758484 
	C277.390320,567.150452 272.404938,561.751160 266.665192,557.342529 
M280.326141,512.980164 
	C278.349640,512.136780 276.421478,511.146423 274.387634,510.477386 
	C268.022339,508.383484 266.651581,509.062012 265.818329,515.727356 
	C263.764832,532.153748 271.843567,544.193848 283.533386,554.273682 
	C287.042542,557.299500 291.761383,559.726807 296.409393,556.838928 
	C300.979156,553.999695 300.863647,548.828430 300.201416,544.177795 
	C298.343414,531.129639 291.736664,520.931763 280.326141,512.980164 
z"/>
<path fill="#81343B" opacity="1.000000" stroke="none" 
	d="
M434.977600,527.976807 
	C441.035095,519.022827 448.691345,512.550415 458.551117,508.962494 
	C463.751495,507.070099 469.045502,505.325836 474.425110,504.056366 
	C488.317413,500.778137 499.265961,512.531189 494.360229,526.178467 
	C486.302979,548.592896 471.415375,563.698914 446.676788,566.919128 
	C432.966705,568.703735 424.869263,562.162292 426.235352,550.298279 
	C427.163300,542.239502 429.574432,534.700623 434.977600,527.976807 
M455.616821,551.250122 
	C469.673767,546.401550 477.154846,535.207520 482.800140,522.506226 
	C484.685059,518.265442 481.722595,515.652283 476.920013,516.600952 
	C473.530518,517.270447 470.104706,517.760376 466.724213,518.469299 
	C464.313965,518.974792 461.786072,519.373962 459.616974,520.442444 
	C457.583832,521.443970 455.836304,523.140869 454.165771,524.743042 
	C446.858826,531.750916 440.881683,539.510437 439.453247,550.018372 
	C438.996796,553.375977 440.347260,554.426392 443.215302,553.957642 
	C447.128815,553.318054 450.989105,552.352844 455.616821,551.250122 
z"/>
<path fill="#843239" opacity="1.000000" stroke="none" 
	d="
M167.175537,304.885925 
	C166.730743,303.718506 166.285950,302.551056 165.611481,301.184723 
	C164.591156,298.602386 163.800476,296.218994 162.906769,293.477722 
	C162.893951,292.664215 162.984192,292.208557 163.465912,291.414886 
	C171.408905,287.984344 172.039490,280.706329 174.270050,274.222229 
	C174.507736,274.192261 174.967850,274.058594 175.300446,274.188110 
	C176.106552,274.750031 176.910309,275.119843 177.005768,275.623840 
	C180.172989,292.345398 186.081314,307.997833 194.917908,322.564240 
	C195.212341,323.049591 193.953430,324.477203 193.102722,325.233490 
	C191.765839,323.509766 190.884766,321.894196 189.695419,320.551666 
	C187.008728,317.518890 184.578339,314.006836 181.291611,311.820221 
	C176.963974,308.941040 171.914597,307.146698 167.175537,304.885925 
z"/>
<path fill="#FB8D97" opacity="1.000000" stroke="none" 
	d="
M573.000000,137.000000 
	C569.006592,140.876297 564.867004,142.816650 558.745789,141.556076 
	C556.359314,141.064606 552.906494,145.200333 550.131653,147.464050 
	C549.240967,148.190659 548.966736,149.672958 547.759521,150.902039 
	C546.503052,150.730774 545.897522,150.466980 545.291992,150.203171 
	C545.251587,150.017410 545.236267,149.829590 545.306152,149.512390 
	C549.559570,142.928665 554.282959,138.056808 563.255188,139.494385 
	C565.510071,139.855667 570.462158,136.454651 570.674561,134.417786 
	C572.330444,118.533249 584.779297,112.901871 596.142395,106.054199 
	C602.796509,102.044250 609.704041,98.333725 615.860840,93.651283 
	C623.026917,88.201164 625.591309,79.698624 626.842285,71.286987 
	C628.860046,57.719055 642.188538,48.689072 655.086365,48.370571 
	C659.724976,48.256023 664.385315,49.539513 667.153320,54.469925 
	C660.722229,54.875484 654.247009,54.947670 647.771729,54.999378 
	C636.420532,55.090019 629.707336,62.218971 629.885803,73.549545 
	C629.922668,75.895012 628.939514,78.422546 627.869690,80.591499 
	C622.424133,91.631096 614.573364,100.074257 602.792725,104.802673 
	C597.496216,106.928566 592.881042,110.702301 587.811096,113.460747 
	C584.700256,115.153259 583.187988,116.992996 586.187988,120.547035 
	C578.575684,118.357224 574.697632,122.702667 573.737488,133.792923 
	C573.316650,135.273651 573.158325,136.136826 573.000000,137.000000 
z"/>
<path fill="#F8949E" opacity="1.000000" stroke="none" 
	d="
M553.099731,353.915527 
	C552.845215,353.366455 552.913147,352.990875 553.367065,352.202209 
	C557.002808,347.921509 560.280579,344.289551 565.968872,347.949982 
	C566.688110,348.412750 567.948303,348.205414 568.924988,348.070496 
	C576.594177,347.010925 584.255371,345.893280 592.184814,345.126709 
	C600.618713,347.288849 607.798523,344.183258 615.033447,341.041504 
	C615.113403,341.129547 615.267090,341.311157 615.267090,341.311157 
	C612.189209,343.084717 609.301575,345.737000 605.994690,346.453278 
	C598.565552,348.062378 590.905762,348.575958 583.389221,349.831055 
	C581.100098,350.213318 578.894043,351.412140 576.795959,352.514801 
	C575.196045,353.355591 573.886902,354.730499 572.344604,355.703247 
	C564.833313,360.440582 560.931885,360.086060 553.099731,353.915527 
z"/>
<path fill="#FEEEEF" opacity="1.000000" stroke="none" 
	d="
M645.957520,181.008453 
	C645.957520,181.008469 645.827759,181.305786 645.526367,181.592621 
	C644.776672,182.554184 644.328430,183.228897 643.880127,183.903610 
	C643.880127,183.903610 643.888794,183.972031 643.601379,184.099869 
	C642.624084,185.558853 641.934143,186.890015 641.030640,188.362030 
	C640.606873,188.769531 640.396729,189.036194 639.923706,189.282227 
	C639.502502,189.550964 639.344116,189.840317 638.999146,190.410522 
	C634.909546,193.847305 631.006409,197.003235 626.694580,200.097168 
	C625.640808,200.146301 624.996704,200.262695 624.350769,200.367783 
	C616.861877,201.586044 609.372742,202.802612 602.003357,203.687988 
	C606.051819,201.203583 609.980652,199.050812 614.299744,196.974258 
	C619.004761,195.427216 623.863281,194.574600 627.508545,192.002548 
	C633.169495,188.008209 638.004456,182.843246 643.468079,177.967255 
	C645.215454,175.177170 646.684326,172.594345 648.153198,170.011520 
	C648.670654,171.369202 649.188110,172.726868 649.920593,174.466064 
	C649.138306,176.241211 648.140991,177.634872 647.143616,179.028503 
	C647.143616,179.028503 646.973938,179.388702 646.716064,179.730896 
	C646.291321,180.384872 646.124390,180.696655 645.957520,181.008453 
z"/>
<path fill="#FB8D97" opacity="1.000000" stroke="none" 
	d="
M663.282288,144.803406 
	C665.832520,139.983398 668.524841,134.930252 671.585999,130.111374 
	C676.112793,122.985054 680.634338,115.702309 681.687622,107.299446 
	C682.254822,102.774811 681.703369,96.977028 679.239197,93.435944 
	C673.731445,85.521179 674.448425,76.373589 671.998901,67.913780 
	C670.892639,64.092896 669.434021,60.373997 668.168091,56.202972 
	C673.598389,59.285137 674.491821,65.148193 674.594849,70.555679 
	C674.736145,77.975693 676.659058,84.498367 680.276611,90.824989 
	C685.796387,100.478531 685.261658,110.451035 679.916565,119.788567 
	C674.996643,128.383148 669.071594,136.402359 663.282288,144.803406 
z"/>
<path fill="#F8949E" opacity="1.000000" stroke="none" 
	d="
M677.306396,217.856476 
	C678.973572,213.547791 680.756592,208.996429 682.943726,204.648392 
	C690.542358,189.542816 684.309998,178.548355 672.859375,171.194763 
	C667.032166,167.452484 660.241394,169.027618 653.950317,172.838257 
	C656.857544,168.206818 663.023926,166.139877 668.916016,167.646957 
	C682.271545,171.063019 691.253479,185.246490 687.274292,198.395203 
	C685.219299,205.185715 680.902466,211.291733 677.306396,217.856476 
z"/>
<path fill="#F8949E" opacity="1.000000" stroke="none" 
	d="
M615.997559,279.020630 
	C618.051331,277.417023 619.918457,274.821899 622.193481,274.393646 
	C629.342468,273.048035 634.077881,267.821198 639.881592,264.382935 
	C648.190308,259.460571 652.498352,251.355682 656.185059,242.757538 
	C657.136475,240.538635 659.549866,238.946640 661.645386,237.032715 
	C655.472778,250.149536 648.621948,263.041473 635.028687,271.007812 
	C631.836182,273.565063 628.772339,275.773987 625.464600,277.691101 
	C625.666687,276.769196 626.112732,276.139069 627.335510,274.411499 
	C622.765015,276.269501 619.381287,277.645050 615.997559,279.020630 
z"/>
<path fill="#F3E1E1" opacity="1.000000" stroke="none" 
	d="
M480.019775,409.118683 
	C475.367401,411.416046 470.295990,413.435913 465.417725,415.846680 
	C460.697083,418.179596 456.175293,420.914825 451.401001,423.564972 
	C450.236389,419.056671 450.652832,416.380035 455.803314,414.976196 
	C463.133179,412.978271 470.151062,409.835785 477.664642,407.166626 
	C478.579742,407.771393 479.132477,408.391815 480.019775,409.118683 
z"/>
<path fill="#F8949E" opacity="1.000000" stroke="none" 
	d="
M650.476807,305.081726 
	C651.517334,302.129669 652.899109,299.105286 654.256165,296.069824 
	C657.589172,288.614502 656.880188,284.572906 651.399963,278.859833 
	C650.165710,277.573120 649.167236,276.060150 648.031677,274.299286 
	C658.641235,279.791168 660.485901,290.250946 655.728149,298.257812 
	C654.312561,300.640259 652.459412,302.762726 650.476807,305.081726 
z"/>
<path fill="#F8949E" opacity="1.000000" stroke="none" 
	d="
M629.947571,319.786438 
	C630.725830,320.183990 631.504150,320.581573 632.636963,320.990143 
	C629.607300,325.654144 626.390686,330.443024 622.770996,334.904938 
	C620.850708,337.271973 618.230774,339.071411 615.596924,341.219116 
	C615.267090,341.311157 615.113403,341.129547 615.087524,340.699707 
	C616.166687,339.114929 617.475525,338.094238 618.340576,336.781189 
	C621.600098,331.833984 624.715271,326.791687 627.971130,321.491547 
	C628.687744,320.727539 629.317688,320.256989 629.947571,319.786438 
z"/>
<path fill="#F3E1E1" opacity="1.000000" stroke="none" 
	d="
M272.994263,408.476868 
	C278.597229,410.182068 285.142700,410.353607 289.529266,414.883392 
	C289.264709,415.481415 289.000153,416.079437 288.735626,416.677460 
	C283.718109,414.810760 278.700592,412.944031 273.331360,410.964874 
	C272.989410,410.173645 272.999237,409.494843 272.994263,408.476868 
z"/>
<path fill="#FB8D97" opacity="1.000000" stroke="none" 
	d="
M652.002380,155.001831 
	C653.973389,152.968109 655.915527,150.905121 657.930786,148.916245 
	C658.652100,148.204376 659.550171,147.671570 660.723816,147.394470 
	C661.038574,148.148026 660.997131,148.564163 660.955627,148.980286 
	C656.910034,154.992249 652.864441,161.004196 648.465942,166.804550 
	C648.741943,164.395096 649.370972,162.197235 650.306519,159.842468 
	C651.075378,158.457047 651.537659,157.228516 652.000610,155.750458 
	C652.001160,155.500916 652.002380,155.001831 652.002380,155.001831 
z"/>
<path fill="#FE8891" opacity="1.000000" stroke="none" 
	d="
M650.000000,159.999390 
	C649.370972,162.197235 648.741943,164.395096 648.204407,167.036835 
	C648.295837,167.480728 648.319458,167.766632 647.846924,167.889603 
	C645.839783,168.244232 644.305176,168.475891 642.784546,168.361450 
	C644.805237,164.640518 646.811890,161.265671 649.094177,158.063904 
	C649.579834,158.824448 649.789917,159.411911 650.000000,159.999390 
z"/>
<path fill="#FB8D97" opacity="1.000000" stroke="none" 
	d="
M642.770630,168.707565 
	C644.305176,168.475891 645.839783,168.244232 647.778015,168.015411 
	C648.160461,168.461151 648.139221,168.904022 648.135559,169.679214 
	C646.684326,172.594345 645.215454,175.177170 643.405579,177.909943 
	C643.064514,178.059860 642.944580,177.945114 642.962830,177.498001 
	C642.938721,174.322800 642.896362,171.594696 642.827393,168.829834 
	C642.800781,168.793076 642.770630,168.707565 642.770630,168.707565 
z"/>
<path fill="#F8949E" opacity="1.000000" stroke="none" 
	d="
M633.343994,320.947937 
	C635.462097,318.676544 637.922058,316.359863 640.759033,314.079529 
	C638.652649,316.378143 636.169189,318.640381 633.343994,320.947937 
z"/>
<path fill="#F8949E" opacity="1.000000" stroke="none" 
	d="
M670.487854,226.237823 
	C669.723511,221.764267 673.356262,220.164139 676.658081,218.033844 
	C674.938477,220.702789 672.870300,223.400497 670.487854,226.237823 
z"/>
<path fill="#F8949E" opacity="1.000000" stroke="none" 
	d="
M647.230225,273.483063 
	C644.135620,273.093597 640.845215,272.382874 637.299438,271.428955 
	C640.374146,271.844391 643.704285,272.503113 647.230225,273.483063 
z"/>
<path fill="#F8949E" opacity="1.000000" stroke="none" 
	d="
M647.506470,179.017029 
	C648.140991,177.634872 649.138306,176.241211 650.246094,174.543060 
	C650.702271,174.135132 651.047913,174.031708 651.661743,173.884415 
	C650.576355,175.562210 649.222900,177.283875 647.506470,179.017029 
z"/>
<path fill="#F8949E" opacity="1.000000" stroke="none" 
	d="
M645.329346,310.936554 
	C646.160400,309.374115 647.324097,307.755493 648.843506,306.163940 
	C648.020142,307.754120 646.841064,309.317261 645.329346,310.936554 
z"/>
<path fill="#F8949E" opacity="1.000000" stroke="none" 
	d="
M665.301758,232.860840 
	C666.095337,231.353561 667.188721,229.709167 668.636169,228.029755 
	C667.860657,229.571075 666.731140,231.147415 665.301758,232.860840 
z"/>
<path fill="#F8949E" opacity="1.000000" stroke="none" 
	d="
M641.432251,314.090332 
	C642.159424,313.092438 643.207825,312.044922 644.624634,310.997009 
	C643.913208,312.011292 642.833313,313.025970 641.432251,314.090332 
z"/>
<path fill="#FEEEEF" opacity="1.000000" stroke="none" 
	d="
M661.310242,148.936493 
	C660.997131,148.564163 661.038574,148.148026 661.098267,147.419495 
	C661.116516,147.107071 661.092651,147.062378 661.302551,146.968750 
	C661.665771,146.582382 661.819092,146.289673 661.972473,145.996964 
	C661.972473,145.996964 662.467163,145.957321 662.714478,145.938446 
	C662.529480,146.910629 662.097168,147.901672 661.310242,148.936493 
z"/>
<path fill="#F8949E" opacity="1.000000" stroke="none" 
	d="
M663.267944,235.826447 
	C663.421997,234.996780 663.867798,234.046188 664.656128,233.048706 
	C664.519043,233.903046 664.039368,234.804276 663.267944,235.826447 
z"/>
<path fill="#F8949E" opacity="1.000000" stroke="none" 
	d="
M649.382568,306.074768 
	C649.294312,305.851288 649.461365,305.552734 649.881470,305.172394 
	C649.968933,305.393616 649.803406,305.696625 649.382568,306.074768 
z"/>
<path fill="#FB8D97" opacity="1.000000" stroke="none" 
	d="
M668.104126,55.602642 
	C667.856628,55.703751 667.558594,55.532249 667.183411,55.104553 
	C667.422058,55.008919 667.737793,55.169476 668.104126,55.602642 
z"/>
<path fill="#FFCCCB" opacity="1.000000" stroke="none" 
	d="
M193.418579,325.465576 
	C193.953430,324.477203 195.212341,323.049591 194.917908,322.564240 
	C186.081314,307.997833 180.172989,292.345398 177.005768,275.623840 
	C176.910309,275.119843 176.106552,274.750031 175.278961,273.723572 
	C176.200180,260.320984 175.635345,247.602814 173.334091,234.805237 
	C177.048645,232.225174 178.741959,228.955780 179.729797,224.826889 
	C181.037842,219.359711 182.859238,213.927841 185.207748,208.824936 
	C187.076599,204.764206 187.668045,201.070068 185.858932,196.650558 
	C185.901459,195.520691 185.898895,194.765656 186.205383,193.844666 
	C190.502045,183.839691 194.489685,174.000671 198.477310,164.161652 
	C207.345108,165.563828 214.858551,164.387405 222.037689,157.523438 
	C248.830719,131.906708 281.255768,116.530449 317.154236,108.486374 
	C366.463440,97.437233 415.065704,99.933670 462.514984,117.931381 
	C490.586060,128.578873 515.475891,144.306747 536.423706,165.976089 
	C539.889587,169.561340 543.024841,173.466217 546.633545,177.739532 
	C547.751770,179.765533 548.549377,181.275421 549.268127,183.169830 
	C549.857544,185.760147 550.256592,188.095367 551.243225,190.148117 
	C554.558167,197.044968 557.089966,204.506622 563.935059,209.413559 
	C564.670898,210.498367 565.353699,211.266510 566.057678,212.413269 
	C568.046814,218.560623 570.014771,224.329361 572.033203,230.515259 
	C572.134277,232.606750 572.184814,234.281113 571.902710,236.188354 
	C568.386292,249.676071 571.012207,262.871399 571.844177,276.430664 
	C570.929443,280.799286 570.146729,284.821014 569.166016,289.050720 
	C568.879517,289.428528 568.791138,289.598328 568.402100,289.893677 
	C565.040100,293.908569 561.698669,297.612457 558.975586,301.725769 
	C553.268372,310.346588 548.963074,319.584808 548.210938,330.452454 
	C548.027344,331.393494 547.925110,332.023712 547.822937,332.653900 
	C545.227539,335.450684 542.509827,338.144592 540.055664,341.060303 
	C516.805481,368.682831 486.742889,385.862000 453.201508,397.638306 
	C448.040619,399.450287 442.638214,400.663605 437.265259,401.744934 
	C434.547455,402.291962 433.825043,403.581970 433.647247,406.079651 
	C432.855682,417.200897 432.539673,428.404999 430.894104,439.405975 
	C427.737366,460.508972 420.442963,479.963745 405.761353,496.103668 
	C390.981903,512.351135 370.024200,517.526489 352.404449,508.892273 
	C339.163879,502.403961 330.085571,491.714722 323.173370,479.027100 
	C315.835266,465.557739 312.211884,450.969025 309.457245,435.934174 
	C307.609528,425.849396 306.360352,415.968750 307.362030,405.771088 
	C307.460114,404.772217 306.030243,403.310730 304.959961,402.567383 
	C301.544373,400.195221 298.111023,397.761322 294.397675,395.934387 
	C291.722198,394.618134 288.490356,394.486115 285.675293,393.392059 
	C261.341248,383.934845 239.565811,370.259949 220.198990,352.825134 
	C217.137650,350.069183 214.459534,348.919159 210.456680,349.828552 
	C208.090912,350.365997 205.493881,349.885651 202.521881,349.661743 
	C202.042923,349.460480 201.834061,349.104858 201.741928,348.746185 
	C198.823654,340.942841 195.997513,333.498138 193.260574,325.918030 
	C193.349777,325.782562 193.418579,325.465576 193.418579,325.465576 
M449.812866,274.656433 
	C460.213013,270.058655 470.613129,265.460876 481.742035,260.820740 
	C484.626556,259.627045 487.587982,258.583832 490.358307,257.166840 
	C491.491394,256.587280 492.961884,255.229385 493.004089,254.174606 
	C493.498291,241.818176 493.274445,229.885941 485.648285,218.837173 
	C471.649597,198.555771 448.169342,200.143829 436.535889,221.221222 
	C428.262177,236.211426 427.021240,252.518005 433.322327,268.463440 
	C438.878662,282.524109 437.293274,279.984161 449.812866,274.656433 
M266.394287,253.954239 
	C279.173492,262.331055 291.952698,270.707886 305.189758,279.617859 
	C311.824310,284.202423 312.317780,284.105713 316.593079,277.371368 
	C316.771149,277.090851 316.925415,276.795074 317.087433,276.504517 
	C327.992493,256.946106 326.845428,236.881149 318.899139,216.881851 
	C313.809753,204.072800 290.205017,195.543365 276.680115,205.254288 
	C264.904694,213.709076 260.377594,225.501434 257.840302,239.071274 
	C256.362671,246.973999 259.347565,250.908112 266.394287,253.954239 
M407.256348,309.508545 
	C406.555176,304.085968 405.907440,298.655731 405.131836,293.243835 
	C404.701660,290.242310 402.821930,289.252014 399.820190,289.329254 
	C389.329071,289.599060 378.829712,289.574738 368.342194,289.923920 
	C366.898132,289.972015 364.604340,291.204010 364.221588,292.381287 
	C359.186584,307.867340 359.229645,323.059113 369.369720,336.622070 
	C377.885559,348.012573 390.119904,348.040588 399.402344,337.165039 
	C405.934662,329.511597 407.604523,320.257446 407.256348,309.508545 
z"/>
<path fill="#D54653" opacity="1.000000" stroke="none" 
	d="
M549.346985,182.785309 
	C548.549377,181.275421 547.751770,179.765533 546.912231,177.956192 
	C546.270569,168.742355 545.670959,159.827988 545.181641,150.558380 
	C545.897522,150.466980 546.503052,150.730774 547.423706,151.070724 
	C548.797852,152.393784 549.931885,153.585220 550.903259,154.897079 
	C555.610229,161.253784 560.854614,162.985977 569.161865,160.365387 
	C572.224915,158.780930 574.664246,157.483902 577.103516,156.186890 
	C579.303467,155.021561 581.503357,153.856232 584.208130,152.333405 
	C586.823303,149.994415 588.933594,148.012909 591.043884,146.031372 
	C591.043884,146.031372 591.000000,146.000366 591.298767,145.893524 
	C592.400635,144.858643 593.203735,143.930573 594.006836,143.002502 
	C597.665649,137.957733 601.324402,132.912964 605.305603,127.349609 
	C606.163879,125.917336 606.699646,125.003632 607.235474,124.089951 
	C608.827759,121.978188 610.420105,119.866417 612.351074,117.254562 
	C613.171631,115.853226 613.653564,114.951965 614.135498,114.050720 
	C616.505737,108.563820 618.875977,103.076912 621.125977,97.290161 
	C621.005676,96.990318 620.949951,96.929680 620.949951,96.929688 
	C622.321899,95.629166 624.355225,94.578934 624.957581,92.987190 
	C628.657288,83.209900 634.350403,75.350075 645.048584,71.122177 
	C646.864441,71.022713 647.930664,70.984024 648.996948,70.945312 
	C651.762512,72.538048 654.528015,74.130798 657.746460,76.201096 
	C659.800476,80.452347 661.401489,84.226051 663.002441,87.999756 
	C662.311523,100.374001 661.620605,112.748238 660.682251,125.768936 
	C660.304382,127.276283 660.173889,128.137177 660.043457,128.998047 
	C659.990601,129.689453 659.937866,130.380875 659.700562,131.572968 
	C659.372803,132.373428 659.229614,132.673172 659.086426,132.972916 
	C658.107971,135.742722 657.129456,138.512512 655.955261,141.949295 
	C655.464355,143.729019 655.169128,144.841751 654.873901,145.954468 
	C653.580078,148.384750 652.286316,150.815048 650.699463,153.775635 
	C650.219177,154.855865 650.031982,155.405792 649.620361,156.130112 
	C649.203552,156.833282 649.011108,157.362061 648.818604,157.890839 
	C646.811890,161.265671 644.805237,164.640518 642.784546,168.361450 
	C642.770630,168.707565 642.800781,168.793076 642.475220,168.819824 
	C639.073364,172.177551 635.997131,175.508545 632.650146,178.988052 
	C631.552917,180.041336 630.726379,180.946106 629.575562,181.942139 
	C626.818970,184.348969 624.386780,186.664551 621.625977,189.050568 
	C618.834717,191.713348 616.372070,194.305710 613.909485,196.898056 
	C609.980652,199.050812 606.051819,201.203583 601.669312,203.679779 
	C599.787231,204.965881 598.358887,205.928543 596.569458,206.958435 
	C593.469727,208.076645 590.745483,209.167358 587.988586,210.168121 
	C584.811646,211.321350 583.771912,213.099121 586.083862,216.388382 
	C587.665161,223.391922 587.667053,223.399612 594.188354,221.780319 
	C596.589661,221.184052 599.000549,220.612762 601.371094,219.908798 
	C612.463928,216.614700 620.462524,209.266205 627.103333,200.159180 
	C631.006409,197.003235 634.909546,193.847305 639.214722,190.335571 
	C639.917297,189.847122 640.107239,189.621490 640.186584,189.302856 
	C640.396729,189.036194 640.606873,188.769531 641.130493,188.408844 
	C641.443909,188.314804 641.664612,188.353271 641.664612,188.353271 
	C643.246643,188.350540 644.878052,188.602005 646.402893,188.305359 
	C660.182068,185.624710 665.537964,196.657227 664.701904,206.182266 
	C663.555298,219.245483 656.468811,229.489410 648.379700,239.099045 
	C634.471802,255.621262 616.962524,267.561249 598.181763,277.798553 
	C596.294861,278.827118 594.060608,279.268921 592.285828,280.436371 
	C590.932068,281.326843 590.050537,282.935272 588.714844,284.611359 
	C588.470825,284.998383 588.028809,285.028717 587.593384,285.019958 
	C583.888977,284.734772 580.619995,284.458405 577.351013,284.182037 
	C577.098206,284.728058 576.845337,285.274048 576.592529,285.820068 
	C578.327515,287.237213 580.034424,288.690765 581.806580,290.059784 
	C583.194458,291.131989 584.663269,292.099426 586.092529,293.527466 
	C586.790588,294.647705 587.548828,296.011749 588.185120,295.957062 
	C593.837585,295.471680 599.468445,294.735199 605.105713,294.072815 
	C609.153564,292.305573 613.129028,290.340363 617.269653,288.826843 
	C621.404480,287.315430 625.648987,285.475739 629.944397,285.170166 
	C637.604797,284.625214 642.829041,291.908630 641.340088,299.545807 
	C639.809753,307.394989 635.515564,313.546539 630.102112,319.504486 
	C629.317688,320.256989 628.687744,320.727539 627.646729,321.595459 
	C622.971497,325.599396 619.053589,329.762115 614.362610,332.683441 
	C607.160645,337.168457 599.427002,340.799866 591.919006,344.793518 
	C584.255371,345.893280 576.594177,347.010925 568.924988,348.070496 
	C567.948303,348.205414 566.688110,348.412750 565.968872,347.949982 
	C560.280579,344.289551 557.002808,347.921509 553.445557,351.923401 
	C547.581970,346.992584 548.088745,340.200714 547.853699,333.132629 
	C547.925110,332.023712 548.027344,331.393494 548.535095,330.377014 
	C550.293823,330.103302 551.766663,329.907501 552.980652,330.378754 
	C560.530945,333.309723 568.250977,335.133575 576.353394,333.652649 
	C593.601074,330.500214 608.117371,322.292511 619.963257,309.408508 
	C622.122253,307.060303 623.892395,304.354614 626.755127,300.624023 
	C624.383606,301.193756 623.535522,301.203674 622.904175,301.578522 
	C614.590942,306.514252 605.421936,308.389496 595.991211,309.908264 
	C585.272705,311.634430 576.666321,306.315308 567.559448,302.566650 
	C566.722351,302.222076 566.254395,299.719574 566.465637,298.350311 
	C566.914062,295.443726 567.923340,292.623657 568.702698,289.768127 
	C568.791138,289.598328 568.879517,289.428528 569.477905,289.023865 
	C574.174683,286.540649 575.968323,283.507141 573.441711,278.867706 
	C573.005371,278.066498 573.127441,276.961121 573.033386,275.651306 
	C576.061890,273.039154 578.827637,270.368500 582.080322,268.586884 
	C589.344055,264.608337 596.972046,261.294647 604.234192,257.313385 
	C621.464722,247.867188 635.298706,234.664749 646.135925,218.320557 
	C649.297180,213.552887 650.805969,208.248581 650.850342,200.977188 
	C647.784973,202.655167 645.512268,203.488312 643.755615,204.944168 
	C639.792358,208.228668 635.791931,211.553482 632.327576,215.338699 
	C622.066101,226.550613 609.734802,233.867096 594.546326,235.565521 
	C587.169006,236.390472 579.728821,239.850952 572.235352,235.955460 
	C572.184814,234.281113 572.134277,232.606750 572.381348,230.421783 
	C574.939575,225.863632 577.200134,221.816101 579.212036,218.213837 
	C574.832336,216.159805 570.434448,214.097229 566.036499,212.034637 
	C565.353699,211.266510 564.670898,210.498367 564.022461,209.062286 
	C568.946899,205.142487 573.449646,200.847946 578.808228,198.857361 
	C589.737854,194.797256 599.298706,188.743515 608.400024,181.744003 
	C621.065002,172.003754 631.576172,160.355026 638.907227,146.078354 
	C647.900330,128.564896 649.707642,109.678017 648.926331,90.385803 
	C648.863525,88.835686 647.750427,87.328110 646.527832,84.340553 
	C643.986633,88.387398 642.052917,91.004753 640.594788,93.864578 
	C631.841370,111.032898 622.660828,127.895935 611.350891,143.608093 
	C600.812317,158.248611 587.679626,168.842361 570.411804,174.412491 
	C564.301208,176.383606 558.532166,179.407639 552.585510,181.899216 
	C551.561951,182.328079 550.429260,182.496552 549.346985,182.785309 
z"/>
<path fill="#D54653" opacity="1.000000" stroke="none" 
	d="
M201.834061,349.104858 
	C201.834061,349.104858 202.042923,349.460480 202.072952,349.664612 
	C202.416565,353.546539 202.730133,357.224335 203.040726,361.330994 
	C194.879700,365.535248 186.269333,364.993683 178.173981,362.654022 
	C163.668228,358.461578 149.082245,354.026947 137.121063,344.070221 
	C129.784988,337.963562 123.234642,331.156464 119.186264,322.345978 
	C118.226257,320.256775 116.842934,317.774597 117.230171,315.778961 
	C117.982704,311.900818 118.948502,307.381561 121.488487,304.706482 
	C124.621292,301.407074 129.621994,302.066010 133.613022,304.365112 
	C142.300842,309.369843 151.113800,313.974701 161.179199,315.494965 
	C164.255325,315.959595 167.364594,316.204895 171.300125,316.644653 
	C169.756271,312.578979 168.438217,309.108002 167.147858,305.261475 
	C171.914597,307.146698 176.963974,308.941040 181.291611,311.820221 
	C184.578339,314.006836 187.008728,317.518890 189.695419,320.551666 
	C190.884766,321.894196 191.765839,323.509766 193.102707,325.233490 
	C193.418579,325.465576 193.349777,325.782562 192.850555,325.897583 
	C173.790558,332.503815 155.633301,330.534302 136.551010,322.191101 
	C143.012589,332.623535 151.651825,337.774475 160.950958,341.761719 
	C173.952362,347.336365 187.249420,352.009705 201.834061,349.104858 
z"/>
<path fill="#FCC8C8" opacity="1.000000" stroke="none" 
	d="
M259.225281,444.829590 
	C253.105118,439.926727 246.895721,435.565674 244.899490,427.683014 
	C243.494919,422.136658 245.877747,418.996002 251.619644,419.192413 
	C253.762329,419.265656 255.970276,419.584045 258.007385,420.233307 
	C269.538727,423.908630 281.027222,427.718292 292.796417,431.569275 
	C292.601715,435.821930 292.016205,440.296753 292.303589,444.714783 
	C292.580719,448.974915 293.759064,453.176422 294.624664,457.852905 
	C281.441315,457.196167 270.104401,452.171356 259.225281,444.829590 
z"/>
<path fill="#FCC7C7" opacity="1.000000" stroke="none" 
	d="
M482.844086,446.864685 
	C471.280396,456.035217 457.709137,458.339569 442.912445,461.136505 
	C443.881989,457.229858 444.408844,454.210510 445.396271,451.350159 
	C446.692719,447.594513 448.326111,443.953125 449.877930,440.289459 
	C450.176575,439.584320 450.624664,438.725342 451.244995,438.406189 
	C460.400757,433.695709 469.537598,428.939880 478.822021,424.493530 
	C481.467804,423.226471 484.530396,422.585785 487.471222,422.227814 
	C494.402130,421.384125 497.461914,425.220490 495.381531,431.965546 
	C493.355011,438.535828 488.453613,442.787628 482.844086,446.864685 
z"/>
<path fill="#D54653" opacity="1.000000" stroke="none" 
	d="
M185.896332,194.010635 
	C185.898895,194.765656 185.901459,195.520691 185.528580,196.693802 
	C184.277451,197.818665 183.167511,198.366776 182.563965,199.257858 
	C178.561234,205.167542 172.824677,208.336960 166.081757,209.999451 
	C166.950089,207.174179 167.818436,204.348907 168.735779,201.364197 
	C168.181107,200.979919 167.691360,200.374969 167.119522,200.283569 
	C155.188644,198.376495 146.304352,191.343674 137.828720,183.369156 
	C126.427895,172.642380 117.454659,160.352966 110.612686,146.199203 
	C101.132210,126.587288 95.671173,106.061234 95.288368,84.387833 
	C95.194405,79.067162 97.471199,73.317116 99.969238,68.435425 
	C103.152573,62.214535 111.836693,60.284801 117.185562,64.725021 
	C122.320122,68.987335 127.599579,73.964279 130.571167,79.774887 
	C139.189102,96.626381 149.165604,112.517754 162.122330,126.203529 
	C172.843567,137.528046 184.468124,148.163696 200.817169,152.151550 
	C200.420120,156.004715 199.643250,159.700821 198.238373,163.707596 
	C192.751328,162.562866 187.602066,161.712936 183.083664,159.546967 
	C163.795456,150.300903 150.102692,134.552689 137.323578,118.146400 
	C131.356674,110.485878 127.077370,101.509987 122.042351,93.124779 
	C118.961212,87.993507 115.897484,82.851776 112.825943,77.714745 
	C112.191902,77.891747 111.557854,78.068748 110.923805,78.245758 
	C110.597633,80.039101 110.011147,81.828781 109.985817,83.626373 
	C109.748482,100.467766 113.525238,116.419006 120.015205,131.946106 
	C128.027588,151.115524 139.925476,167.156342 156.304199,179.885651 
	C157.991928,181.197342 159.793121,182.543259 161.763535,183.279633 
	C170.031372,186.369461 179.177917,187.435349 185.896332,194.010635 
z"/>
<path fill="#D54653" opacity="1.000000" stroke="none" 
	d="
M174.032349,274.252167 
	C172.039490,280.706329 171.408905,287.984344 163.500549,291.067383 
	C161.827957,284.705414 156.695465,284.768280 151.724976,283.632538 
	C134.582977,279.715668 120.661362,270.145142 109.659721,256.763702 
	C100.602463,245.747177 92.239357,234.045609 89.680115,219.443436 
	C89.170456,216.535507 88.770432,213.440857 89.206383,210.566803 
	C90.410133,202.630783 97.279243,194.730759 108.681610,199.978470 
	C111.643089,201.341431 114.444626,203.350784 116.850212,205.571686 
	C128.009476,215.874176 142.136414,218.867630 156.241089,222.016983 
	C160.912170,223.059967 162.861603,220.528152 164.350296,216.283676 
	C169.960419,221.206421 171.562653,227.727997 171.705826,234.754425 
	C146.052597,237.795883 124.131096,229.741974 103.811821,214.851181 
	C104.482132,218.841171 104.973663,222.965836 106.953880,226.170685 
	C112.249199,234.740799 117.375969,243.641953 124.057106,251.074554 
	C133.542633,261.626953 145.625763,268.366486 160.179764,270.178192 
	C164.893295,270.764954 169.420120,272.851593 174.032349,274.252167 
z"/>
<path fill="#843138" opacity="1.000000" stroke="none" 
	d="
M172.156158,234.643494 
	C171.562653,227.727997 169.960419,221.206421 164.561371,215.960617 
	C164.231979,215.882294 164.149246,215.427063 164.207886,214.875183 
	C164.609360,212.919693 164.952194,211.516098 165.295013,210.112488 
	C165.295029,210.112488 165.705643,210.180252 165.893707,210.089844 
	C172.824677,208.336960 178.561234,205.167542 182.563965,199.257858 
	C183.167511,198.366776 184.277451,197.818665 185.483490,197.068649 
	C187.668045,201.070068 187.076599,204.764206 185.207748,208.824936 
	C182.859238,213.927841 181.037842,219.359711 179.729797,224.826889 
	C178.741959,228.955780 177.048645,232.225174 173.115555,234.705139 
	C172.615173,234.783539 172.156158,234.643494 172.156158,234.643494 
z"/>
<path fill="#FFE4E8" opacity="1.000000" stroke="none" 
	d="
M164.826233,210.122437 
	C164.952194,211.516098 164.609360,212.919693 164.124939,214.659241 
	C160.422516,213.634964 156.861694,212.274780 153.300873,210.914581 
	C153.491364,210.482315 153.681854,210.050034 153.872330,209.617752 
	C157.367371,209.789307 160.862396,209.960846 164.826233,210.122437 
z"/>
<path fill="#FE7881" opacity="1.000000" stroke="none" 
	d="
M186.205383,193.844666 
	C179.177917,187.435349 170.031372,186.369461 161.763535,183.279633 
	C159.793121,182.543259 157.991928,181.197342 156.304199,179.885651 
	C139.925476,167.156342 128.027588,151.115524 120.015205,131.946106 
	C113.525238,116.419006 109.748482,100.467766 109.985817,83.626373 
	C110.011147,81.828781 110.597633,80.039101 110.923805,78.245758 
	C111.557854,78.068748 112.191902,77.891747 112.825943,77.714745 
	C115.897484,82.851776 118.961212,87.993507 122.042351,93.124779 
	C127.077370,101.509987 131.356674,110.485878 137.323578,118.146400 
	C150.102692,134.552689 163.795456,150.300903 183.083664,159.546967 
	C187.602066,161.712936 192.751328,162.562866 198.075500,164.020447 
	C198.540649,164.022659 198.546234,164.114243 198.511780,164.137939 
	C194.489685,174.000671 190.502045,183.839691 186.205383,193.844666 
z"/>
<path fill="#FE8891" opacity="1.000000" stroke="none" 
	d="
M663.343262,87.942780 
	C661.401489,84.226051 659.800476,80.452347 658.039124,76.363937 
	C662.497742,76.917938 665.173584,82.373940 663.343262,87.942780 
z"/>
<path fill="#FE8891" opacity="1.000000" stroke="none" 
	d="
M590.664978,146.025330 
	C588.933594,148.012909 586.823303,149.994415 584.378174,152.043945 
	C583.867859,147.769073 586.866333,146.678345 590.664978,146.025330 
z"/>
<path fill="#FE8891" opacity="1.000000" stroke="none" 
	d="
M576.909790,155.908447 
	C574.664246,157.483902 572.224915,158.780930 569.421387,160.118652 
	C571.610046,158.649567 574.163025,157.139801 576.909790,155.908447 
z"/>
<path fill="#FE8891" opacity="1.000000" stroke="none" 
	d="
M573.296387,137.122955 
	C573.158325,136.136826 573.316650,135.273651 573.737488,134.204926 
	C574.584412,135.036362 575.168884,136.073349 575.753296,137.110321 
	C575.033081,137.155518 574.312927,137.200714 573.296387,137.122955 
z"/>
<path fill="#FE8891" opacity="1.000000" stroke="none" 
	d="
M655.217773,145.930313 
	C655.169128,144.841751 655.464355,143.729019 655.934326,142.311356 
	C659.296082,143.779434 656.942688,144.774536 655.217773,145.930313 
z"/>
<path fill="#FE8891" opacity="1.000000" stroke="none" 
	d="
M648.932556,70.603142 
	C647.930664,70.984024 646.864441,71.022713 645.397705,71.055618 
	C645.772827,68.260941 647.130798,68.330124 648.932556,70.603142 
z"/>
<path fill="#FE8891" opacity="1.000000" stroke="none" 
	d="
M613.792725,114.060028 
	C613.653564,114.951965 613.171631,115.853226 612.425964,116.921333 
	C612.591492,116.081902 613.020691,115.075623 613.792725,114.060028 
z"/>
<path fill="#FE8891" opacity="1.000000" stroke="none" 
	d="
M593.632690,143.009277 
	C593.203735,143.930573 592.400635,144.858643 591.314453,145.915375 
	C591.773743,145.034714 592.516113,144.025375 593.632690,143.009277 
z"/>
<path fill="#FE8891" opacity="1.000000" stroke="none" 
	d="
M660.367920,128.949799 
	C660.173889,128.137177 660.304382,127.276283 660.669434,126.183594 
	C660.833374,126.935036 660.762817,127.918282 660.367920,128.949799 
z"/>
<path fill="#FE8891" opacity="1.000000" stroke="none" 
	d="
M606.855652,124.104187 
	C606.699646,125.003632 606.163879,125.917336 605.350708,127.003128 
	C605.540833,126.156288 606.008362,125.137367 606.855652,124.104187 
z"/>
<path fill="#FE8891" opacity="1.000000" stroke="none" 
	d="
M649.844849,155.955719 
	C650.031982,155.405792 650.219177,154.855865 650.637939,154.125427 
	C651.162903,154.140594 651.456238,154.336288 651.875977,154.766907 
	C652.002380,155.001831 652.001160,155.500916 651.641968,155.748627 
	C650.803528,155.982803 650.324158,155.969269 649.844849,155.955719 
z"/>
<path fill="#FE8891" opacity="1.000000" stroke="none" 
	d="
M659.304077,132.835938 
	C659.229614,132.673172 659.372803,132.373428 659.719849,131.919495 
	C659.789734,132.076523 659.655701,132.387741 659.304077,132.835938 
z"/>
<path fill="#FB8D97" opacity="1.000000" stroke="none" 
	d="
M661.753906,146.114838 
	C661.819092,146.289673 661.665771,146.582382 661.279541,146.976639 
	C661.101624,146.733932 661.264465,146.452118 661.753906,146.114838 
z"/>
<path fill="#FB8D97" opacity="1.000000" stroke="none" 
	d="
M620.970337,96.972931 
	C620.826355,96.823044 620.717712,96.690559 620.609131,96.558067 
	C620.690430,96.598930 620.771667,96.639793 620.901489,96.805168 
	C620.949951,96.929680 621.005676,96.990318 620.970337,96.972931 
z"/>
<path fill="#FC6976" opacity="1.000000" stroke="none" 
	d="
M588.028809,285.028717 
	C588.028809,285.028717 588.470825,284.998383 588.691406,284.987122 
	C593.974243,285.956207 599.036621,286.936554 604.399292,287.975037 
	C603.822693,288.638092 603.066162,289.508118 601.793701,290.836426 
	C596.503296,291.846069 591.728699,292.397400 586.975037,292.551514 
	C587.340210,289.779114 587.684509,287.403931 588.028809,285.028717 
z"/>
<path fill="#FFE4E8" opacity="1.000000" stroke="none" 
	d="
M615.725830,279.182587 
	C619.381287,277.645050 622.765015,276.269501 627.335510,274.411499 
	C626.112732,276.139069 625.666687,276.769196 625.094849,277.684906 
	C624.968994,277.970490 624.995056,277.985870 624.751709,278.073547 
	C624.309631,278.430634 624.110840,278.700073 623.912109,278.969543 
	C622.733215,279.837891 621.554260,280.706238 619.896973,281.932556 
	C617.835938,283.464539 616.253357,284.638550 614.670776,285.812622 
	C614.295471,285.818939 613.920105,285.825256 612.933716,285.888947 
	C611.538879,286.275665 610.755127,286.605011 609.971436,286.934387 
	C609.537903,286.933197 609.104431,286.932037 608.332825,286.613342 
	C607.975403,285.854065 607.956055,285.412292 607.936707,284.970520 
	C607.936707,284.970520 607.987366,285.005615 608.241943,284.844849 
	C608.703796,284.150146 608.911011,283.616211 609.118286,283.082306 
	C609.118286,283.082306 609.073547,282.989532 609.323059,282.960632 
	C609.746216,282.647858 609.919861,282.364014 610.093567,282.080170 
	C610.093567,282.080170 609.994629,282.046082 610.335571,282.058472 
	C611.161743,281.736420 611.646912,281.401978 612.132080,281.067505 
	C613.239441,280.493195 614.346741,279.918854 615.725830,279.182587 
z"/>
<path fill="#FD858E" opacity="1.000000" stroke="none" 
	d="
M586.954163,292.948730 
	C591.728699,292.397400 596.503296,291.846069 601.634033,291.138672 
	C602.821533,291.917664 603.652771,292.852692 604.794861,293.930267 
	C599.468445,294.735199 593.837585,295.471680 588.185120,295.957062 
	C587.548828,296.011749 586.790588,294.647705 586.306580,293.485596 
	C586.524231,293.029694 586.954163,292.948730 586.954163,292.948730 
z"/>
<path fill="#F8949E" opacity="1.000000" stroke="none" 
	d="
M615.088135,285.870300 
	C616.253357,284.638550 617.835938,283.464539 619.731079,282.195679 
	C620.159790,285.308105 618.390198,286.279236 615.088135,285.870300 
z"/>
<path fill="#F8949E" opacity="1.000000" stroke="none" 
	d="
M641.994629,188.135239 
	C641.664612,188.353271 641.443909,188.314804 641.344116,188.267975 
	C641.934143,186.890015 642.624084,185.558853 643.608582,184.068405 
	C643.377014,185.245148 642.850830,186.581177 641.994629,188.135239 
z"/>
<path fill="#F8949E" opacity="1.000000" stroke="none" 
	d="
M610.168213,287.201355 
	C610.755127,286.605011 611.538879,286.275665 612.656921,285.943359 
	C612.115845,286.449738 611.240417,286.959015 610.168213,287.201355 
z"/>
<path fill="#F8949E" opacity="1.000000" stroke="none" 
	d="
M607.619141,285.025208 
	C607.956055,285.412292 607.975403,285.854065 608.007935,286.626587 
	C607.491638,287.097351 606.962158,287.237396 606.432739,287.377411 
	C606.722351,286.611572 607.012024,285.845703 607.619141,285.025208 
z"/>
<path fill="#F8949E" opacity="1.000000" stroke="none" 
	d="
M644.239868,183.887512 
	C644.328430,183.228897 644.776672,182.554184 645.523438,181.754822 
	C645.414490,182.377258 645.007019,183.124344 644.239868,183.887512 
z"/>
<path fill="#F8949E" opacity="1.000000" stroke="none" 
	d="
M608.847534,283.205261 
	C608.911011,283.616211 608.703796,284.150146 608.233154,284.815308 
	C608.172180,284.407104 608.374512,283.867676 608.847534,283.205261 
z"/>
<path fill="#F8949E" opacity="1.000000" stroke="none" 
	d="
M611.812744,281.061737 
	C611.646912,281.401978 611.161743,281.736420 610.374146,282.093872 
	C610.545654,281.763214 611.019531,281.409576 611.812744,281.061737 
z"/>
<path fill="#F8949E" opacity="1.000000" stroke="none" 
	d="
M646.201172,180.880173 
	C646.124390,180.696655 646.291321,180.384872 646.687134,179.927887 
	C646.759033,180.105759 646.601929,180.428818 646.201172,180.880173 
z"/>
<path fill="#F8949E" opacity="1.000000" stroke="none" 
	d="
M609.852661,282.164062 
	C609.919861,282.364014 609.746216,282.647858 609.329590,283.011597 
	C609.261597,282.810272 609.436646,282.529083 609.852661,282.164062 
z"/>
<path fill="#F8949E" opacity="1.000000" stroke="none" 
	d="
M624.154114,278.880280 
	C624.110840,278.700073 624.309631,278.430634 624.745422,278.064697 
	C624.786987,278.242432 624.591553,278.516724 624.154114,278.880280 
z"/>
<path fill="#FCC7C7" opacity="1.000000" stroke="none" 
	d="
M280.593628,513.237915 
	C291.736664,520.931763 298.343414,531.129639 300.201416,544.177795 
	C300.863647,548.828430 300.979156,553.999695 296.409393,556.838928 
	C291.761383,559.726807 287.042542,557.299500 283.533386,554.273682 
	C271.843567,544.193848 263.764832,532.153748 265.818329,515.727356 
	C266.651581,509.062012 268.022339,508.383484 274.387634,510.477386 
	C276.421478,511.146423 278.349640,512.136780 280.593628,513.237915 
z"/>
<path fill="#FBC7C7" opacity="1.000000" stroke="none" 
	d="
M455.244507,551.388672 
	C450.989105,552.352844 447.128815,553.318054 443.215302,553.957642 
	C440.347260,554.426392 438.996796,553.375977 439.453247,550.018372 
	C440.881683,539.510437 446.858826,531.750916 454.165771,524.743042 
	C455.836304,523.140869 457.583832,521.443970 459.616974,520.442444 
	C461.786072,519.373962 464.313965,518.974792 466.724213,518.469299 
	C470.104706,517.760376 473.530518,517.270447 476.920013,516.600952 
	C481.722595,515.652283 484.685059,518.265442 482.800140,522.506226 
	C477.154846,535.207520 469.673767,546.401550 455.244507,551.388672 
z"/>
<path fill="#FE7882" opacity="1.000000" stroke="none" 
	d="
M171.705826,234.754425 
	C172.156158,234.643494 172.615173,234.783539 172.833710,234.883636 
	C175.635345,247.602814 176.200180,260.320984 174.946365,273.594055 
	C174.967850,274.058594 174.507736,274.192261 174.270050,274.222229 
	C169.420120,272.851593 164.893295,270.764954 160.179764,270.178192 
	C145.625763,268.366486 133.542633,261.626953 124.057106,251.074554 
	C117.375969,243.641953 112.249199,234.740799 106.953880,226.170685 
	C104.973663,222.965836 104.482132,218.841171 103.811821,214.851181 
	C124.131096,229.741974 146.052597,237.795883 171.705826,234.754425 
z"/>
<path fill="#FC8690" opacity="1.000000" stroke="none" 
	d="
M592.184814,345.126678 
	C599.427002,340.799866 607.160645,337.168457 614.362610,332.683441 
	C619.053589,329.762115 622.971497,325.599396 627.560059,321.888885 
	C624.715271,326.791687 621.600098,331.833984 618.340576,336.781189 
	C617.475525,338.094238 616.166687,339.114929 615.007568,340.611633 
	C607.798523,344.183258 600.618713,347.288849 592.184814,345.126678 
z"/>
<path fill="#FC8A93" opacity="1.000000" stroke="none" 
	d="
M626.694580,200.097168 
	C620.462524,209.266205 612.463928,216.614700 601.371094,219.908798 
	C599.000549,220.612762 596.589661,221.184052 594.188354,221.780319 
	C587.667053,223.399612 587.665161,223.391922 586.444336,216.386093 
	C591.828613,214.780411 595.110291,211.647079 596.930542,206.891205 
	C598.358887,205.928543 599.787231,204.965881 601.549622,204.011414 
	C609.372742,202.802612 616.861877,201.586044 624.350769,200.367783 
	C624.996704,200.262695 625.640808,200.146301 626.694580,200.097168 
z"/>
<path fill="#FB8D97" opacity="1.000000" stroke="none" 
	d="
M614.299744,196.974274 
	C616.372070,194.305710 618.834717,191.713348 622.014893,189.057632 
	C628.751831,187.636581 631.017090,185.378891 629.899902,181.850876 
	C630.726379,180.946106 631.552917,180.041336 632.833618,179.281204 
	C635.341125,181.951385 637.361938,182.303619 639.711182,179.654175 
	C640.468384,178.800217 641.849121,178.499115 642.944580,177.945099 
	C642.944580,177.945114 643.064514,178.059860 643.127014,178.117188 
	C638.004456,182.843246 633.169495,188.008209 627.508545,192.002548 
	C623.863281,194.574600 619.004761,195.427216 614.299744,196.974274 
z"/>
<path fill="#F8949E" opacity="1.000000" stroke="none" 
	d="
M639.923706,189.282227 
	C640.107239,189.621490 639.917297,189.847122 639.401245,190.054718 
	C639.344116,189.840317 639.502502,189.550964 639.923706,189.282227 
z"/>
<path fill="#FE8892" opacity="1.000000" stroke="none" 
	d="
M649.620422,156.130127 
	C650.324158,155.969269 650.803528,155.982803 651.641418,155.998169 
	C651.537659,157.228516 651.075378,158.457047 650.306519,159.842468 
	C649.789917,159.411911 649.579834,158.824448 649.094177,158.063904 
	C649.011108,157.362061 649.203552,156.833282 649.620422,156.130127 
z"/>
<path fill="#FE8891" opacity="1.000000" stroke="none" 
	d="
M642.962830,177.497986 
	C641.849121,178.499115 640.468384,178.800217 639.711182,179.654175 
	C637.361938,182.303619 635.341125,181.951385 633.104370,179.132675 
	C635.997131,175.508545 639.073364,172.177551 642.501831,168.856583 
	C642.896362,171.594696 642.938721,174.322800 642.962830,177.497986 
z"/>
<path fill="#FE7881" opacity="1.000000" stroke="none" 
	d="
M549.268127,183.169830 
	C550.429260,182.496552 551.561951,182.328079 552.585510,181.899216 
	C558.532166,179.407639 564.301208,176.383606 570.411804,174.412491 
	C587.679626,168.842361 600.812317,158.248611 611.350891,143.608093 
	C622.660828,127.895935 631.841370,111.032898 640.594788,93.864578 
	C642.052917,91.004753 643.986633,88.387398 646.527832,84.340553 
	C647.750427,87.328110 648.863525,88.835686 648.926331,90.385803 
	C649.707642,109.678017 647.900330,128.564896 638.907227,146.078354 
	C631.576172,160.355026 621.065002,172.003754 608.400024,181.744003 
	C599.298706,188.743515 589.737854,194.797256 578.808228,198.857361 
	C573.449646,200.847946 568.946899,205.142487 563.969421,208.745605 
	C557.089966,204.506622 554.558167,197.044968 551.243225,190.148117 
	C550.256592,188.095367 549.857544,185.760147 549.268127,183.169830 
z"/>
<path fill="#954A50" opacity="1.000000" stroke="none" 
	d="
M266.012909,253.470627 
	C259.347565,250.908112 256.362671,246.973999 257.840302,239.071274 
	C260.377594,225.501434 264.904694,213.709076 276.680115,205.254288 
	C290.205017,195.543365 313.809753,204.072800 318.899139,216.881851 
	C326.845428,236.881149 327.992493,256.946106 317.087433,276.504517 
	C316.925415,276.795074 316.771149,277.090851 316.593079,277.371368 
	C312.317780,284.105713 311.824310,284.202423 305.059448,279.002838 
	C311.560394,268.610107 311.560303,268.610199 302.706146,260.206329 
	C302.464813,259.977264 302.266327,259.681946 301.989197,259.514893 
	C292.083038,253.542877 282.342590,247.262817 272.176239,241.771362 
	C267.862366,239.441162 266.189697,241.070374 266.065125,245.984665 
	C266.001892,248.478821 266.027466,250.975235 266.012909,253.470627 
M309.459930,237.345596 
	C315.320526,234.889542 315.732941,234.185745 313.105438,228.544266 
	C311.569916,225.247437 309.665222,222.081985 307.607269,219.076096 
	C298.846069,206.279327 282.605438,206.837112 274.349030,220.139252 
	C280.184082,230.207962 297.406189,238.954727 309.459930,237.345596 
z"/>
<path fill="#964A50" opacity="1.000000" stroke="none" 
	d="
M449.161987,274.825378 
	C437.293274,279.984161 438.878662,282.524109 433.322327,268.463440 
	C427.021240,252.518005 428.262177,236.211426 436.535889,221.221222 
	C448.169342,200.143829 471.649597,198.555771 485.648285,218.837173 
	C493.274445,229.885941 493.498291,241.818176 493.004089,254.174606 
	C492.961884,255.229385 491.491394,256.587280 490.358307,257.166840 
	C487.587982,258.583832 484.626556,259.627045 481.397705,260.435303 
	C481.345764,257.763153 481.841644,255.480850 481.891022,253.188934 
	C482.021240,247.145935 481.261688,246.297348 475.416718,247.110580 
	C465.618713,248.473831 456.458496,251.615387 448.640839,257.970886 
	C443.158508,262.427795 442.902649,264.055511 446.631897,270.047119 
	C447.581909,271.573486 448.324219,273.229126 449.161987,274.825378 
M467.579865,217.670166 
	C463.904175,217.551300 459.742065,216.259583 456.647919,217.542877 
	C448.727295,220.827896 444.851135,227.883942 443.212769,236.050461 
	C442.992065,237.150681 444.184113,239.233337 445.268402,239.782883 
	C452.286865,243.339935 471.426575,240.417053 477.018250,234.818619 
	C478.162994,233.672485 478.968567,230.479477 478.230927,229.461441 
	C475.270966,225.376404 471.642883,221.775436 467.579865,217.670166 
z"/>
<path fill="#94484D" opacity="1.000000" stroke="none" 
	d="
M407.257019,309.999939 
	C407.604523,320.257446 405.934662,329.511597 399.402344,337.165039 
	C390.119904,348.040588 377.885559,348.012573 369.369720,336.622070 
	C359.229645,323.059113 359.186584,307.867340 364.221588,292.381287 
	C364.604340,291.204010 366.898132,289.972015 368.342194,289.923920 
	C378.829712,289.574738 389.329071,289.599060 399.820190,289.329254 
	C402.821930,289.252014 404.701660,290.242310 405.131836,293.243835 
	C405.907440,298.655731 406.555176,304.085968 407.257019,309.999939 
z"/>
<path fill="#FE7882" opacity="1.000000" stroke="none" 
	d="
M571.902710,236.188354 
	C579.728821,239.850952 587.169006,236.390472 594.546326,235.565521 
	C609.734802,233.867096 622.066101,226.550613 632.327576,215.338699 
	C635.791931,211.553482 639.792358,208.228668 643.755615,204.944168 
	C645.512268,203.488312 647.784973,202.655167 650.850342,200.977188 
	C650.805969,208.248581 649.297180,213.552887 646.135925,218.320557 
	C635.298706,234.664749 621.464722,247.867188 604.234192,257.313385 
	C596.972046,261.294647 589.344055,264.608337 582.080322,268.586884 
	C578.827637,270.368500 576.061890,273.039154 572.779785,275.675415 
	C572.315002,276.057556 572.145569,276.070679 571.976196,276.083771 
	C571.012207,262.871399 568.386292,249.676071 571.902710,236.188354 
z"/>
<path fill="#FD7882" opacity="1.000000" stroke="none" 
	d="
M568.402100,289.893677 
	C567.923340,292.623657 566.914062,295.443726 566.465637,298.350311 
	C566.254395,299.719574 566.722351,302.222076 567.559448,302.566650 
	C576.666321,306.315308 585.272705,311.634430 595.991211,309.908264 
	C605.421936,308.389496 614.590942,306.514252 622.904175,301.578522 
	C623.535522,301.203674 624.383606,301.193756 626.755127,300.624023 
	C623.892395,304.354614 622.122253,307.060303 619.963257,309.408508 
	C608.117371,322.292511 593.601074,330.500214 576.353394,333.652649 
	C568.250977,335.133575 560.530945,333.309723 552.980652,330.378754 
	C551.766663,329.907501 550.293823,330.103302 548.616455,330.066193 
	C548.963074,319.584808 553.268372,310.346588 558.975586,301.725769 
	C561.698669,297.612457 565.040100,293.908569 568.402100,289.893677 
z"/>
<path fill="#FD7881" opacity="1.000000" stroke="none" 
	d="
M201.741928,348.746185 
	C187.249420,352.009705 173.952362,347.336365 160.950958,341.761719 
	C151.651825,337.774475 143.012589,332.623535 136.551010,322.191101 
	C155.633301,330.534302 173.790558,332.503815 192.761353,326.033020 
	C195.997513,333.498138 198.823654,340.942841 201.741928,348.746185 
z"/>
<path fill="#F8476F" opacity="1.000000" stroke="none" 
	d="
M266.203613,253.712433 
	C266.027466,250.975235 266.001892,248.478821 266.065125,245.984665 
	C266.189697,241.070374 267.862366,239.441162 272.176239,241.771362 
	C282.342590,247.262817 292.083038,253.542877 301.989197,259.514893 
	C302.266327,259.681946 302.464813,259.977264 302.706146,260.206329 
	C311.560303,268.610199 311.560394,268.610107 304.830505,278.736267 
	C291.952698,270.707886 279.173492,262.331055 266.203613,253.712433 
z"/>
<path fill="#F8466E" opacity="1.000000" stroke="none" 
	d="
M449.487427,274.740906 
	C448.324219,273.229126 447.581909,271.573486 446.631897,270.047119 
	C442.902649,264.055511 443.158508,262.427795 448.640839,257.970886 
	C456.458496,251.615387 465.618713,248.473831 475.416718,247.110580 
	C481.261688,246.297348 482.021240,247.145935 481.891022,253.188934 
	C481.841644,255.480850 481.345764,257.763153 481.033325,260.456482 
	C470.613129,265.460876 460.213013,270.058655 449.487427,274.740906 
z"/>
<path fill="#8C343A" opacity="1.000000" stroke="none" 
	d="
M566.057678,212.413269 
	C570.434448,214.097229 574.832336,216.159805 579.212036,218.213837 
	C577.200134,221.816101 574.939575,225.863632 572.330872,230.004639 
	C570.014771,224.329361 568.046814,218.560623 566.057678,212.413269 
z"/>
<path fill="#94484D" opacity="1.000000" stroke="none" 
	d="
M571.844177,276.430664 
	C572.145569,276.070679 572.315002,276.057556 572.737976,276.020355 
	C573.127441,276.961121 573.005371,278.066498 573.441711,278.867706 
	C575.968323,283.507141 574.174683,286.540649 569.675964,288.815857 
	C570.146729,284.821014 570.929443,280.799286 571.844177,276.430664 
z"/>
<path fill="#EC4E5C" opacity="1.000000" stroke="none" 
	d="
M586.975037,292.551514 
	C586.954163,292.948730 586.524231,293.029694 586.310181,293.071533 
	C584.663269,292.099426 583.194458,291.131989 581.806580,290.059784 
	C580.034424,288.690765 578.327515,287.237213 576.592529,285.820068 
	C576.845337,285.274048 577.098206,284.728058 577.351013,284.182037 
	C580.619995,284.458405 583.888977,284.734772 587.593384,285.019958 
	C587.684509,287.403931 587.340210,289.779114 586.975037,292.551514 
z"/>
<path fill="#FD7881" opacity="1.000000" stroke="none" 
	d="
M596.569458,206.958435 
	C595.110291,211.647079 591.828613,214.780411 586.460205,215.999527 
	C583.771912,213.099121 584.811646,211.321350 587.988586,210.168121 
	C590.745483,209.167358 593.469727,208.076645 596.569458,206.958435 
z"/>
<path fill="#FD858E" opacity="1.000000" stroke="none" 
	d="
M629.575562,181.942139 
	C631.017090,185.378891 628.751831,187.636581 622.343506,188.987213 
	C624.386780,186.664551 626.818970,184.348969 629.575562,181.942139 
z"/>
<path fill="#FBF8F4" opacity="1.000000" stroke="none" 
	d="
M309.067474,237.459152 
	C297.406189,238.954727 280.184082,230.207962 274.349030,220.139252 
	C282.605438,206.837112 298.846069,206.279327 307.607269,219.076096 
	C309.665222,222.081985 311.569916,225.247437 313.105438,228.544266 
	C315.732941,234.185745 315.320526,234.889542 309.067474,237.459152 
z"/>
<path fill="#FAF8F4" opacity="1.000000" stroke="none" 
	d="
M467.920837,217.832825 
	C471.642883,221.775436 475.270966,225.376404 478.230927,229.461441 
	C478.968567,230.479477 478.162994,233.672485 477.018250,234.818619 
	C471.426575,240.417053 452.286865,243.339935 445.268402,239.782883 
	C444.184113,239.233337 442.992065,237.150681 443.212769,236.050461 
	C444.851135,227.883942 448.727295,220.827896 456.647919,217.542877 
	C459.742065,216.259583 463.904175,217.551300 467.920837,217.832825 
z"/>
</svg>