<svg xmlns="http://www.w3.org/2000/svg" xmlns:xlink="http://www.w3.org/1999/xlink" width="1600" zoomAndPan="magnify" viewBox="0 0 1200 675.000002" height="900" preserveAspectRatio="xMidYMid meet" version="1.0"><defs><g/><clipPath id="93421159a5"><path d="M 0.886719 120.6875 L 394.0625 120.6875 L 394.0625 513.863281 L 0.886719 513.863281 Z M 0.886719 120.6875 " clip-rule="nonzero"/></clipPath><clipPath id="2ccc6eac64"><path d="M 197.476562 120.6875 C 88.902344 120.6875 0.886719 208.703125 0.886719 317.277344 C 0.886719 425.847656 88.902344 513.863281 197.476562 513.863281 C 306.046875 513.863281 394.0625 425.847656 394.0625 317.277344 C 394.0625 208.703125 306.046875 120.6875 197.476562 120.6875 Z M 197.476562 120.6875 " clip-rule="nonzero"/></clipPath><linearGradient x1="0.000000000000110869" gradientTransform="matrix(1.535846, 0, 0, 1.535846, 0.887572, 120.688043)" y1="0" x2="256.000003" gradientUnits="userSpaceOnUse" y2="0" id="3e856245b9"><stop stop-opacity="1" stop-color="rgb(41.999817%, 39.199829%, 95.698547%)" offset="0"/><stop stop-opacity="1" stop-color="rgb(42.195129%, 39.224243%, 95.6604%)" offset="0.00390625"/><stop stop-opacity="1" stop-color="rgb(42.391968%, 39.248657%, 95.622253%)" offset="0.0078125"/><stop stop-opacity="1" stop-color="rgb(42.58728%, 39.273071%, 95.584106%)" offset="0.0117188"/><stop stop-opacity="1" stop-color="rgb(42.784119%, 39.297485%, 95.545959%)" offset="0.015625"/><stop stop-opacity="1" stop-color="rgb(42.979431%, 39.321899%, 95.507812%)" offset="0.0195312"/><stop stop-opacity="1" stop-color="rgb(43.17627%, 39.346313%, 95.469666%)" offset="0.0234375"/><stop stop-opacity="1" stop-color="rgb(43.371582%, 39.370728%, 95.431519%)" offset="0.0273438"/><stop stop-opacity="1" stop-color="rgb(43.56842%, 39.396667%, 95.393372%)" offset="0.03125"/><stop stop-opacity="1" stop-color="rgb(43.763733%, 39.421082%, 95.355225%)" offset="0.0351563"/><stop stop-opacity="1" stop-color="rgb(43.960571%, 39.445496%, 95.317078%)" offset="0.0390625"/><stop stop-opacity="1" stop-color="rgb(44.155884%, 39.46991%, 95.277405%)" offset="0.0429688"/><stop stop-opacity="1" stop-color="rgb(44.352722%, 39.494324%, 95.239258%)" offset="0.046875"/><stop stop-opacity="1" stop-color="rgb(44.548035%, 39.518738%, 95.201111%)" offset="0.0507813"/><stop stop-opacity="1" stop-color="rgb(44.744873%, 39.543152%, 95.162964%)" offset="0.0546875"/><stop stop-opacity="1" stop-color="rgb(44.940186%, 39.567566%, 95.124817%)" offset="0.0585938"/><stop stop-opacity="1" stop-color="rgb(45.137024%, 39.593506%, 95.08667%)" offset="0.0625"/><stop stop-opacity="1" stop-color="rgb(45.332336%, 39.61792%, 95.048523%)" offset="0.0664063"/><stop stop-opacity="1" stop-color="rgb(45.529175%, 39.642334%, 95.010376%)" offset="0.0703125"/><stop stop-opacity="1" stop-color="rgb(45.724487%, 39.666748%, 94.972229%)" offset="0.0742188"/><stop stop-opacity="1" stop-color="rgb(45.921326%, 39.691162%, 94.934082%)" offset="0.078125"/><stop stop-opacity="1" stop-color="rgb(46.116638%, 39.715576%, 94.895935%)" offset="0.0820313"/><stop stop-opacity="1" stop-color="rgb(46.313477%, 39.73999%, 94.857788%)" offset="0.0859375"/><stop stop-opacity="1" stop-color="rgb(46.508789%, 39.764404%, 94.818115%)" offset="0.0898438"/><stop stop-opacity="1" stop-color="rgb(46.705627%, 39.790344%, 94.779968%)" offset="0.09375"/><stop stop-opacity="1" stop-color="rgb(46.90094%, 39.814758%, 94.741821%)" offset="0.0976563"/><stop stop-opacity="1" stop-color="rgb(47.097778%, 39.839172%, 94.703674%)" offset="0.101563"/><stop stop-opacity="1" stop-color="rgb(47.293091%, 39.863586%, 94.665527%)" offset="0.105469"/><stop stop-opacity="1" stop-color="rgb(47.489929%, 39.888%, 94.62738%)" offset="0.109375"/><stop stop-opacity="1" stop-color="rgb(47.685242%, 39.912415%, 94.589233%)" offset="0.113281"/><stop stop-opacity="1" stop-color="rgb(47.88208%, 39.936829%, 94.551086%)" offset="0.117188"/><stop stop-opacity="1" stop-color="rgb(48.077393%, 39.961243%, 94.512939%)" offset="0.121094"/><stop stop-opacity="1" stop-color="rgb(48.274231%, 39.987183%, 94.474792%)" offset="0.125"/><stop stop-opacity="1" stop-color="rgb(48.469543%, 40.011597%, 94.43512%)" offset="0.128906"/><stop stop-opacity="1" stop-color="rgb(48.666382%, 40.036011%, 94.396973%)" offset="0.132812"/><stop stop-opacity="1" stop-color="rgb(48.861694%, 40.060425%, 94.358826%)" offset="0.136719"/><stop stop-opacity="1" stop-color="rgb(49.058533%, 40.084839%, 94.320679%)" offset="0.140625"/><stop stop-opacity="1" stop-color="rgb(49.253845%, 40.109253%, 94.282532%)" offset="0.144531"/><stop stop-opacity="1" stop-color="rgb(49.450684%, 40.133667%, 94.244385%)" offset="0.148438"/><stop stop-opacity="1" stop-color="rgb(49.645996%, 40.158081%, 94.206238%)" offset="0.152344"/><stop stop-opacity="1" stop-color="rgb(49.842834%, 40.184021%, 94.168091%)" offset="0.15625"/><stop stop-opacity="1" stop-color="rgb(50.038147%, 40.208435%, 94.129944%)" offset="0.160156"/><stop stop-opacity="1" stop-color="rgb(50.234985%, 40.232849%, 94.091797%)" offset="0.164062"/><stop stop-opacity="1" stop-color="rgb(50.430298%, 40.257263%, 94.05365%)" offset="0.167969"/><stop stop-opacity="1" stop-color="rgb(50.627136%, 40.281677%, 94.015503%)" offset="0.171875"/><stop stop-opacity="1" stop-color="rgb(50.822449%, 40.306091%, 93.97583%)" offset="0.175781"/><stop stop-opacity="1" stop-color="rgb(51.019287%, 40.332031%, 93.937683%)" offset="0.179687"/><stop stop-opacity="1" stop-color="rgb(51.2146%, 40.356445%, 93.899536%)" offset="0.183594"/><stop stop-opacity="1" stop-color="rgb(51.411438%, 40.380859%, 93.861389%)" offset="0.1875"/><stop stop-opacity="1" stop-color="rgb(51.60675%, 40.405273%, 93.823242%)" offset="0.191406"/><stop stop-opacity="1" stop-color="rgb(51.803589%, 40.429688%, 93.785095%)" offset="0.195313"/><stop stop-opacity="1" stop-color="rgb(51.998901%, 40.454102%, 93.746948%)" offset="0.199219"/><stop stop-opacity="1" stop-color="rgb(52.19574%, 40.478516%, 93.708801%)" offset="0.203125"/><stop stop-opacity="1" stop-color="rgb(52.391052%, 40.50293%, 93.670654%)" offset="0.207031"/><stop stop-opacity="1" stop-color="rgb(52.587891%, 40.52887%, 93.632507%)" offset="0.210938"/><stop stop-opacity="1" stop-color="rgb(52.783203%, 40.553284%, 93.59436%)" offset="0.214844"/><stop stop-opacity="1" stop-color="rgb(52.980042%, 40.577698%, 93.556213%)" offset="0.21875"/><stop stop-opacity="1" stop-color="rgb(53.175354%, 40.602112%, 93.516541%)" offset="0.222656"/><stop stop-opacity="1" stop-color="rgb(53.372192%, 40.626526%, 93.478394%)" offset="0.226562"/><stop stop-opacity="1" stop-color="rgb(53.567505%, 40.65094%, 93.440247%)" offset="0.230469"/><stop stop-opacity="1" stop-color="rgb(53.764343%, 40.675354%, 93.4021%)" offset="0.234375"/><stop stop-opacity="1" stop-color="rgb(53.959656%, 40.699768%, 93.363953%)" offset="0.238281"/><stop stop-opacity="1" stop-color="rgb(54.156494%, 40.725708%, 93.325806%)" offset="0.242188"/><stop stop-opacity="1" stop-color="rgb(54.351807%, 40.750122%, 93.287659%)" offset="0.246094"/><stop stop-opacity="1" stop-color="rgb(54.548645%, 40.774536%, 93.249512%)" offset="0.25"/><stop stop-opacity="1" stop-color="rgb(54.743958%, 40.79895%, 93.211365%)" offset="0.253906"/><stop stop-opacity="1" stop-color="rgb(54.940796%, 40.823364%, 93.173218%)" offset="0.257812"/><stop stop-opacity="1" stop-color="rgb(55.136108%, 40.847778%, 93.133545%)" offset="0.261719"/><stop stop-opacity="1" stop-color="rgb(55.332947%, 40.872192%, 93.095398%)" offset="0.265625"/><stop stop-opacity="1" stop-color="rgb(55.528259%, 40.896606%, 93.057251%)" offset="0.269531"/><stop stop-opacity="1" stop-color="rgb(55.725098%, 40.922546%, 93.019104%)" offset="0.273438"/><stop stop-opacity="1" stop-color="rgb(55.92041%, 40.94696%, 92.980957%)" offset="0.277344"/><stop stop-opacity="1" stop-color="rgb(56.117249%, 40.971375%, 92.94281%)" offset="0.28125"/><stop stop-opacity="1" stop-color="rgb(56.314087%, 40.995789%, 92.904663%)" offset="0.285156"/><stop stop-opacity="1" stop-color="rgb(56.510925%, 41.020203%, 92.866516%)" offset="0.289062"/><stop stop-opacity="1" stop-color="rgb(56.706238%, 41.044617%, 92.828369%)" offset="0.292969"/><stop stop-opacity="1" stop-color="rgb(56.903076%, 41.069031%, 92.790222%)" offset="0.296875"/><stop stop-opacity="1" stop-color="rgb(57.098389%, 41.093445%, 92.752075%)" offset="0.300781"/><stop stop-opacity="1" stop-color="rgb(57.295227%, 41.119385%, 92.713928%)" offset="0.304688"/><stop stop-opacity="1" stop-color="rgb(57.49054%, 41.143799%, 92.674255%)" offset="0.308594"/><stop stop-opacity="1" stop-color="rgb(57.687378%, 41.168213%, 92.636108%)" offset="0.3125"/><stop stop-opacity="1" stop-color="rgb(57.88269%, 41.192627%, 92.597961%)" offset="0.316406"/><stop stop-opacity="1" stop-color="rgb(58.079529%, 41.217041%, 92.559814%)" offset="0.320312"/><stop stop-opacity="1" stop-color="rgb(58.274841%, 41.241455%, 92.521667%)" offset="0.324219"/><stop stop-opacity="1" stop-color="rgb(58.47168%, 41.265869%, 92.483521%)" offset="0.328125"/><stop stop-opacity="1" stop-color="rgb(58.666992%, 41.290283%, 92.445374%)" offset="0.332031"/><stop stop-opacity="1" stop-color="rgb(58.863831%, 41.316223%, 92.407227%)" offset="0.335938"/><stop stop-opacity="1" stop-color="rgb(59.059143%, 41.340637%, 92.36908%)" offset="0.339844"/><stop stop-opacity="1" stop-color="rgb(59.255981%, 41.365051%, 92.330933%)" offset="0.34375"/><stop stop-opacity="1" stop-color="rgb(59.451294%, 41.389465%, 92.292786%)" offset="0.347656"/><stop stop-opacity="1" stop-color="rgb(59.648132%, 41.413879%, 92.254639%)" offset="0.351562"/><stop stop-opacity="1" stop-color="rgb(59.843445%, 41.438293%, 92.214966%)" offset="0.355469"/><stop stop-opacity="1" stop-color="rgb(60.040283%, 41.462708%, 92.176819%)" offset="0.359375"/><stop stop-opacity="1" stop-color="rgb(60.235596%, 41.487122%, 92.138672%)" offset="0.363281"/><stop stop-opacity="1" stop-color="rgb(60.432434%, 41.513062%, 92.100525%)" offset="0.367188"/><stop stop-opacity="1" stop-color="rgb(60.627747%, 41.537476%, 92.062378%)" offset="0.371094"/><stop stop-opacity="1" stop-color="rgb(60.824585%, 41.56189%, 92.024231%)" offset="0.375"/><stop stop-opacity="1" stop-color="rgb(61.019897%, 41.586304%, 91.986084%)" offset="0.378906"/><stop stop-opacity="1" stop-color="rgb(61.216736%, 41.610718%, 91.947937%)" offset="0.382812"/><stop stop-opacity="1" stop-color="rgb(61.412048%, 41.635132%, 91.90979%)" offset="0.386719"/><stop stop-opacity="1" stop-color="rgb(61.608887%, 41.659546%, 91.871643%)" offset="0.390625"/><stop stop-opacity="1" stop-color="rgb(61.804199%, 41.68396%, 91.83197%)" offset="0.394531"/><stop stop-opacity="1" stop-color="rgb(62.001038%, 41.7099%, 91.793823%)" offset="0.398438"/><stop stop-opacity="1" stop-color="rgb(62.19635%, 41.734314%, 91.755676%)" offset="0.402344"/><stop stop-opacity="1" stop-color="rgb(62.393188%, 41.758728%, 91.717529%)" offset="0.40625"/><stop stop-opacity="1" stop-color="rgb(62.588501%, 41.783142%, 91.679382%)" offset="0.410156"/><stop stop-opacity="1" stop-color="rgb(62.785339%, 41.807556%, 91.641235%)" offset="0.414062"/><stop stop-opacity="1" stop-color="rgb(62.980652%, 41.83197%, 91.603088%)" offset="0.417969"/><stop stop-opacity="1" stop-color="rgb(63.17749%, 41.856384%, 91.564941%)" offset="0.421875"/><stop stop-opacity="1" stop-color="rgb(63.372803%, 41.880798%, 91.526794%)" offset="0.425781"/><stop stop-opacity="1" stop-color="rgb(63.569641%, 41.906738%, 91.488647%)" offset="0.429688"/><stop stop-opacity="1" stop-color="rgb(63.764954%, 41.931152%, 91.4505%)" offset="0.433594"/><stop stop-opacity="1" stop-color="rgb(63.961792%, 41.955566%, 91.412354%)" offset="0.4375"/><stop stop-opacity="1" stop-color="rgb(64.157104%, 41.97998%, 91.372681%)" offset="0.441406"/><stop stop-opacity="1" stop-color="rgb(64.353943%, 42.004395%, 91.334534%)" offset="0.445312"/><stop stop-opacity="1" stop-color="rgb(64.549255%, 42.028809%, 91.296387%)" offset="0.449219"/><stop stop-opacity="1" stop-color="rgb(64.746094%, 42.053223%, 91.25824%)" offset="0.453125"/><stop stop-opacity="1" stop-color="rgb(64.941406%, 42.077637%, 91.220093%)" offset="0.457031"/><stop stop-opacity="1" stop-color="rgb(65.138245%, 42.103577%, 91.181946%)" offset="0.460938"/><stop stop-opacity="1" stop-color="rgb(65.333557%, 42.127991%, 91.143799%)" offset="0.464844"/><stop stop-opacity="1" stop-color="rgb(65.530396%, 42.152405%, 91.105652%)" offset="0.46875"/><stop stop-opacity="1" stop-color="rgb(65.725708%, 42.176819%, 91.067505%)" offset="0.472656"/><stop stop-opacity="1" stop-color="rgb(65.922546%, 42.201233%, 91.029358%)" offset="0.476562"/><stop stop-opacity="1" stop-color="rgb(66.117859%, 42.225647%, 90.991211%)" offset="0.480469"/><stop stop-opacity="1" stop-color="rgb(66.314697%, 42.250061%, 90.953064%)" offset="0.484375"/><stop stop-opacity="1" stop-color="rgb(66.51001%, 42.274475%, 90.913391%)" offset="0.488281"/><stop stop-opacity="1" stop-color="rgb(66.706848%, 42.300415%, 90.875244%)" offset="0.492188"/><stop stop-opacity="1" stop-color="rgb(66.902161%, 42.324829%, 90.837097%)" offset="0.496094"/><stop stop-opacity="1" stop-color="rgb(67.098999%, 42.349243%, 90.79895%)" offset="0.5"/><stop stop-opacity="1" stop-color="rgb(67.294312%, 42.373657%, 90.760803%)" offset="0.503906"/><stop stop-opacity="1" stop-color="rgb(67.49115%, 42.398071%, 90.722656%)" offset="0.507812"/><stop stop-opacity="1" stop-color="rgb(67.686462%, 42.422485%, 90.684509%)" offset="0.511719"/><stop stop-opacity="1" stop-color="rgb(67.883301%, 42.448425%, 90.646362%)" offset="0.515625"/><stop stop-opacity="1" stop-color="rgb(68.078613%, 42.472839%, 90.608215%)" offset="0.519531"/><stop stop-opacity="1" stop-color="rgb(68.275452%, 42.497253%, 90.570068%)" offset="0.523437"/><stop stop-opacity="1" stop-color="rgb(68.470764%, 42.521667%, 90.530396%)" offset="0.527344"/><stop stop-opacity="1" stop-color="rgb(68.667603%, 42.546082%, 90.492249%)" offset="0.53125"/><stop stop-opacity="1" stop-color="rgb(68.862915%, 42.570496%, 90.454102%)" offset="0.535156"/><stop stop-opacity="1" stop-color="rgb(69.059753%, 42.59491%, 90.415955%)" offset="0.539062"/><stop stop-opacity="1" stop-color="rgb(69.255066%, 42.619324%, 90.377808%)" offset="0.542969"/><stop stop-opacity="1" stop-color="rgb(69.451904%, 42.645264%, 90.339661%)" offset="0.546875"/><stop stop-opacity="1" stop-color="rgb(69.647217%, 42.669678%, 90.301514%)" offset="0.550781"/><stop stop-opacity="1" stop-color="rgb(69.844055%, 42.694092%, 90.263367%)" offset="0.554688"/><stop stop-opacity="1" stop-color="rgb(70.039368%, 42.718506%, 90.22522%)" offset="0.558594"/><stop stop-opacity="1" stop-color="rgb(70.236206%, 42.74292%, 90.187073%)" offset="0.5625"/><stop stop-opacity="1" stop-color="rgb(70.431519%, 42.767334%, 90.148926%)" offset="0.566406"/><stop stop-opacity="1" stop-color="rgb(70.628357%, 42.791748%, 90.110779%)" offset="0.570312"/><stop stop-opacity="1" stop-color="rgb(70.823669%, 42.816162%, 90.071106%)" offset="0.574219"/><stop stop-opacity="1" stop-color="rgb(71.020508%, 42.842102%, 90.032959%)" offset="0.578125"/><stop stop-opacity="1" stop-color="rgb(71.21582%, 42.866516%, 89.994812%)" offset="0.582031"/><stop stop-opacity="1" stop-color="rgb(71.412659%, 42.89093%, 89.956665%)" offset="0.585938"/><stop stop-opacity="1" stop-color="rgb(71.607971%, 42.915344%, 89.918518%)" offset="0.589844"/><stop stop-opacity="1" stop-color="rgb(71.80481%, 42.939758%, 89.880371%)" offset="0.59375"/><stop stop-opacity="1" stop-color="rgb(72.000122%, 42.964172%, 89.842224%)" offset="0.597656"/><stop stop-opacity="1" stop-color="rgb(72.19696%, 42.988586%, 89.804077%)" offset="0.601563"/><stop stop-opacity="1" stop-color="rgb(72.392273%, 43.013%, 89.76593%)" offset="0.605469"/><stop stop-opacity="1" stop-color="rgb(72.589111%, 43.03894%, 89.727783%)" offset="0.609375"/><stop stop-opacity="1" stop-color="rgb(72.78595%, 43.063354%, 89.689636%)" offset="0.613281"/><stop stop-opacity="1" stop-color="rgb(72.982788%, 43.087769%, 89.651489%)" offset="0.617188"/><stop stop-opacity="1" stop-color="rgb(73.178101%, 43.112183%, 89.611816%)" offset="0.621094"/><stop stop-opacity="1" stop-color="rgb(73.374939%, 43.136597%, 89.573669%)" offset="0.625"/><stop stop-opacity="1" stop-color="rgb(73.570251%, 43.161011%, 89.535522%)" offset="0.628906"/><stop stop-opacity="1" stop-color="rgb(73.76709%, 43.185425%, 89.497375%)" offset="0.632813"/><stop stop-opacity="1" stop-color="rgb(73.962402%, 43.209839%, 89.459229%)" offset="0.636719"/><stop stop-opacity="1" stop-color="rgb(74.159241%, 43.235779%, 89.421082%)" offset="0.640625"/><stop stop-opacity="1" stop-color="rgb(74.354553%, 43.260193%, 89.382935%)" offset="0.644531"/><stop stop-opacity="1" stop-color="rgb(74.551392%, 43.284607%, 89.344788%)" offset="0.648438"/><stop stop-opacity="1" stop-color="rgb(74.746704%, 43.309021%, 89.306641%)" offset="0.652344"/><stop stop-opacity="1" stop-color="rgb(74.943542%, 43.333435%, 89.268494%)" offset="0.65625"/><stop stop-opacity="1" stop-color="rgb(75.138855%, 43.357849%, 89.228821%)" offset="0.660156"/><stop stop-opacity="1" stop-color="rgb(75.335693%, 43.382263%, 89.190674%)" offset="0.664063"/><stop stop-opacity="1" stop-color="rgb(75.531006%, 43.406677%, 89.152527%)" offset="0.667969"/><stop stop-opacity="1" stop-color="rgb(75.727844%, 43.432617%, 89.11438%)" offset="0.671875"/><stop stop-opacity="1" stop-color="rgb(75.923157%, 43.457031%, 89.076233%)" offset="0.675781"/><stop stop-opacity="1" stop-color="rgb(76.119995%, 43.481445%, 89.038086%)" offset="0.679687"/><stop stop-opacity="1" stop-color="rgb(76.315308%, 43.505859%, 88.999939%)" offset="0.683594"/><stop stop-opacity="1" stop-color="rgb(76.512146%, 43.530273%, 88.961792%)" offset="0.6875"/><stop stop-opacity="1" stop-color="rgb(76.707458%, 43.554688%, 88.923645%)" offset="0.691406"/><stop stop-opacity="1" stop-color="rgb(76.904297%, 43.579102%, 88.885498%)" offset="0.695312"/><stop stop-opacity="1" stop-color="rgb(77.099609%, 43.603516%, 88.847351%)" offset="0.699219"/><stop stop-opacity="1" stop-color="rgb(77.296448%, 43.629456%, 88.809204%)" offset="0.703125"/><stop stop-opacity="1" stop-color="rgb(77.49176%, 43.65387%, 88.769531%)" offset="0.707031"/><stop stop-opacity="1" stop-color="rgb(77.688599%, 43.678284%, 88.731384%)" offset="0.710937"/><stop stop-opacity="1" stop-color="rgb(77.883911%, 43.702698%, 88.693237%)" offset="0.714844"/><stop stop-opacity="1" stop-color="rgb(78.08075%, 43.727112%, 88.65509%)" offset="0.71875"/><stop stop-opacity="1" stop-color="rgb(78.276062%, 43.751526%, 88.616943%)" offset="0.722656"/><stop stop-opacity="1" stop-color="rgb(78.4729%, 43.77594%, 88.578796%)" offset="0.726562"/><stop stop-opacity="1" stop-color="rgb(78.668213%, 43.800354%, 88.540649%)" offset="0.730469"/><stop stop-opacity="1" stop-color="rgb(78.865051%, 43.826294%, 88.502502%)" offset="0.734375"/><stop stop-opacity="1" stop-color="rgb(79.060364%, 43.850708%, 88.464355%)" offset="0.738281"/><stop stop-opacity="1" stop-color="rgb(79.257202%, 43.875122%, 88.426208%)" offset="0.742188"/><stop stop-opacity="1" stop-color="rgb(79.452515%, 43.899536%, 88.388062%)" offset="0.746094"/><stop stop-opacity="1" stop-color="rgb(79.649353%, 43.92395%, 88.349915%)" offset="0.75"/><stop stop-opacity="1" stop-color="rgb(79.844666%, 43.948364%, 88.310242%)" offset="0.753906"/><stop stop-opacity="1" stop-color="rgb(80.041504%, 43.972778%, 88.272095%)" offset="0.757812"/><stop stop-opacity="1" stop-color="rgb(80.236816%, 43.997192%, 88.233948%)" offset="0.761719"/><stop stop-opacity="1" stop-color="rgb(80.433655%, 44.023132%, 88.195801%)" offset="0.765625"/><stop stop-opacity="1" stop-color="rgb(80.628967%, 44.047546%, 88.157654%)" offset="0.769531"/><stop stop-opacity="1" stop-color="rgb(80.825806%, 44.07196%, 88.119507%)" offset="0.773438"/><stop stop-opacity="1" stop-color="rgb(81.021118%, 44.096375%, 88.08136%)" offset="0.777344"/><stop stop-opacity="1" stop-color="rgb(81.217957%, 44.120789%, 88.043213%)" offset="0.78125"/><stop stop-opacity="1" stop-color="rgb(81.413269%, 44.145203%, 88.005066%)" offset="0.785156"/><stop stop-opacity="1" stop-color="rgb(81.610107%, 44.169617%, 87.966919%)" offset="0.789063"/><stop stop-opacity="1" stop-color="rgb(81.80542%, 44.194031%, 87.927246%)" offset="0.792969"/><stop stop-opacity="1" stop-color="rgb(82.002258%, 44.219971%, 87.889099%)" offset="0.796875"/><stop stop-opacity="1" stop-color="rgb(82.197571%, 44.244385%, 87.850952%)" offset="0.800781"/><stop stop-opacity="1" stop-color="rgb(82.394409%, 44.268799%, 87.812805%)" offset="0.804688"/><stop stop-opacity="1" stop-color="rgb(82.589722%, 44.293213%, 87.774658%)" offset="0.808594"/><stop stop-opacity="1" stop-color="rgb(82.78656%, 44.317627%, 87.736511%)" offset="0.8125"/><stop stop-opacity="1" stop-color="rgb(82.981873%, 44.342041%, 87.698364%)" offset="0.816406"/><stop stop-opacity="1" stop-color="rgb(83.178711%, 44.366455%, 87.660217%)" offset="0.820313"/><stop stop-opacity="1" stop-color="rgb(83.374023%, 44.390869%, 87.62207%)" offset="0.824219"/><stop stop-opacity="1" stop-color="rgb(83.570862%, 44.416809%, 87.583923%)" offset="0.828125"/><stop stop-opacity="1" stop-color="rgb(83.766174%, 44.441223%, 87.545776%)" offset="0.832031"/><stop stop-opacity="1" stop-color="rgb(83.963013%, 44.465637%, 87.507629%)" offset="0.835937"/><stop stop-opacity="1" stop-color="rgb(84.158325%, 44.490051%, 87.467957%)" offset="0.839844"/><stop stop-opacity="1" stop-color="rgb(84.355164%, 44.514465%, 87.42981%)" offset="0.84375"/><stop stop-opacity="1" stop-color="rgb(84.550476%, 44.538879%, 87.391663%)" offset="0.847656"/><stop stop-opacity="1" stop-color="rgb(84.747314%, 44.564819%, 87.353516%)" offset="0.851562"/><stop stop-opacity="1" stop-color="rgb(84.942627%, 44.589233%, 87.315369%)" offset="0.855469"/><stop stop-opacity="1" stop-color="rgb(85.139465%, 44.613647%, 87.277222%)" offset="0.859375"/><stop stop-opacity="1" stop-color="rgb(85.334778%, 44.638062%, 87.239075%)" offset="0.863281"/><stop stop-opacity="1" stop-color="rgb(85.531616%, 44.662476%, 87.200928%)" offset="0.867187"/><stop stop-opacity="1" stop-color="rgb(85.726929%, 44.68689%, 87.162781%)" offset="0.871094"/><stop stop-opacity="1" stop-color="rgb(85.923767%, 44.711304%, 87.124634%)" offset="0.875"/><stop stop-opacity="1" stop-color="rgb(86.11908%, 44.735718%, 87.086487%)" offset="0.878906"/><stop stop-opacity="1" stop-color="rgb(86.315918%, 44.761658%, 87.04834%)" offset="0.882812"/><stop stop-opacity="1" stop-color="rgb(86.51123%, 44.786072%, 87.008667%)" offset="0.886719"/><stop stop-opacity="1" stop-color="rgb(86.708069%, 44.810486%, 86.97052%)" offset="0.890625"/><stop stop-opacity="1" stop-color="rgb(86.903381%, 44.8349%, 86.932373%)" offset="0.894531"/><stop stop-opacity="1" stop-color="rgb(87.10022%, 44.859314%, 86.894226%)" offset="0.898437"/><stop stop-opacity="1" stop-color="rgb(87.295532%, 44.883728%, 86.856079%)" offset="0.902344"/><stop stop-opacity="1" stop-color="rgb(87.492371%, 44.908142%, 86.817932%)" offset="0.90625"/><stop stop-opacity="1" stop-color="rgb(87.687683%, 44.932556%, 86.779785%)" offset="0.910156"/><stop stop-opacity="1" stop-color="rgb(87.884521%, 44.958496%, 86.741638%)" offset="0.914062"/><stop stop-opacity="1" stop-color="rgb(88.079834%, 44.98291%, 86.703491%)" offset="0.917969"/><stop stop-opacity="1" stop-color="rgb(88.276672%, 45.007324%, 86.665344%)" offset="0.921875"/><stop stop-opacity="1" stop-color="rgb(88.471985%, 45.031738%, 86.627197%)" offset="0.925781"/><stop stop-opacity="1" stop-color="rgb(88.668823%, 45.056152%, 86.58905%)" offset="0.929688"/><stop stop-opacity="1" stop-color="rgb(88.865662%, 45.080566%, 86.549377%)" offset="0.933594"/><stop stop-opacity="1" stop-color="rgb(89.0625%, 45.10498%, 86.51123%)" offset="0.9375"/><stop stop-opacity="1" stop-color="rgb(89.257812%, 45.129395%, 86.473083%)" offset="0.941406"/><stop stop-opacity="1" stop-color="rgb(89.454651%, 45.155334%, 86.434937%)" offset="0.945312"/><stop stop-opacity="1" stop-color="rgb(89.649963%, 45.179749%, 86.39679%)" offset="0.949219"/><stop stop-opacity="1" stop-color="rgb(89.846802%, 45.204163%, 86.358643%)" offset="0.953125"/><stop stop-opacity="1" stop-color="rgb(90.042114%, 45.228577%, 86.320496%)" offset="0.957031"/><stop stop-opacity="1" stop-color="rgb(90.238953%, 45.252991%, 86.282349%)" offset="0.960938"/><stop stop-opacity="1" stop-color="rgb(90.434265%, 45.277405%, 86.244202%)" offset="0.964844"/><stop stop-opacity="1" stop-color="rgb(90.631104%, 45.301819%, 86.206055%)" offset="0.96875"/><stop stop-opacity="1" stop-color="rgb(90.826416%, 45.326233%, 86.166382%)" offset="0.972656"/><stop stop-opacity="1" stop-color="rgb(91.023254%, 45.352173%, 86.128235%)" offset="0.976563"/><stop stop-opacity="1" stop-color="rgb(91.218567%, 45.376587%, 86.090088%)" offset="0.980469"/><stop stop-opacity="1" stop-color="rgb(91.415405%, 45.401001%, 86.051941%)" offset="0.984375"/><stop stop-opacity="1" stop-color="rgb(91.610718%, 45.425415%, 86.013794%)" offset="0.988281"/><stop stop-opacity="1" stop-color="rgb(91.807556%, 45.449829%, 85.975647%)" offset="0.992188"/><stop stop-opacity="1" stop-color="rgb(92.002869%, 45.474243%, 85.9375%)" offset="0.996094"/><stop stop-opacity="1" stop-color="rgb(92.199707%, 45.498657%, 85.899353%)" offset="1"/></linearGradient><clipPath id="34a15e1d9c"><path d="M 18.765625 92.921875 L 411.941406 92.921875 L 411.941406 486.097656 L 18.765625 486.097656 Z M 18.765625 92.921875 " clip-rule="nonzero"/></clipPath><clipPath id="991547f2cc"><path d="M 215.351562 92.921875 C 106.78125 92.921875 18.765625 180.9375 18.765625 289.511719 C 18.765625 398.082031 106.78125 486.097656 215.351562 486.097656 C 323.925781 486.097656 411.941406 398.082031 411.941406 289.511719 C 411.941406 180.9375 323.925781 92.921875 215.351562 92.921875 Z M 215.351562 92.921875 " clip-rule="nonzero"/></clipPath><clipPath id="15481f2737"><path d="M 152.949219 90.617188 L 359 90.617188 L 359 513.863281 L 152.949219 513.863281 Z M 152.949219 90.617188 " clip-rule="nonzero"/></clipPath><clipPath id="d51e9d7cc7"><path d="M 152.949219 513.863281 L 152.949219 90.617188 L 264.773438 90.617188 C 288.183594 90.617188 306.738281 95.828125 320.449219 106.25 C 334.15625 116.671875 343.980469 131.5 349.910156 150.738281 C 355.839844 169.972656 358.808594 192.90625 358.808594 219.511719 C 358.808594 245.160156 356.324219 267.488281 351.359375 286.488281 C 346.382812 305.488281 337.53125 320.195312 324.78125 330.617188 C 312.035156 341.039062 293.960938 346.25 270.554688 346.25 L 236.15625 346.25 L 236.15625 513.863281 Z M 236.15625 270.261719 L 240.96875 270.261719 C 256.679688 270.261719 266.296875 265.851562 269.824219 257.027344 C 273.351562 248.214844 275.113281 235.230469 275.113281 218.074219 C 275.113281 202.042969 273.390625 189.664062 269.9375 180.914062 C 266.488281 172.175781 258.351562 167.808594 245.527344 167.808594 L 236.148438 167.808594 L 236.148438 270.261719 Z M 236.15625 270.261719 " clip-rule="nonzero"/></clipPath></defs><g clip-path="url(#93421159a5)"><g clip-path="url(#2ccc6eac64)"><path fill="url(#3e856245b9)" d="M 0.886719 120.6875 L 0.886719 513.863281 L 394.0625 513.863281 L 394.0625 120.6875 Z M 0.886719 120.6875 " fill-rule="nonzero"/></g></g><g clip-path="url(#34a15e1d9c)"><g clip-path="url(#991547f2cc)"><path fill="#4fc0e8" d="M 18.765625 92.921875 L 411.941406 92.921875 L 411.941406 486.097656 L 18.765625 486.097656 Z M 18.765625 92.921875 " fill-opacity="1" fill-rule="nonzero"/></g></g><g clip-path="url(#15481f2737)"><g clip-path="url(#d51e9d7cc7)"><path fill="#ffffff" d="M 152.949219 90.617188 L 358.800781 90.617188 L 358.800781 513.863281 L 152.949219 513.863281 Z M 152.949219 90.617188 " fill-opacity="1" fill-rule="nonzero"/></g></g><g fill="#141414" fill-opacity="1"><g transform="translate(431.619482, 385.135474)"><g><path d="M 58.234375 2.296875 C 49.671875 2.296875 42.332031 1.226562 36.21875 -0.90625 C 30.113281 -3.050781 25.148438 -5.648438 21.328125 -8.703125 C 17.503906 -11.765625 14.632812 -14.820312 12.71875 -17.875 C 10.8125 -20.9375 9.78125 -23.382812 9.625 -25.21875 C 9.476562 -26.90625 10.015625 -28.207031 11.234375 -29.125 C 12.453125 -30.039062 13.675781 -30.5 14.90625 -30.5 L 25.21875 -30.5 C 25.988281 -30.5 26.640625 -30.382812 27.171875 -30.15625 C 27.703125 -29.925781 28.425781 -29.273438 29.34375 -28.203125 C 31.332031 -26.054688 33.550781 -23.914062 36 -21.78125 C 38.445312 -19.644531 41.460938 -17.882812 45.046875 -16.5 C 48.640625 -15.125 53.113281 -14.4375 58.46875 -14.4375 C 66.257812 -14.4375 72.675781 -15.925781 77.71875 -18.90625 C 82.769531 -21.894531 85.296875 -26.289062 85.296875 -32.09375 C 85.296875 -35.914062 84.265625 -38.972656 82.203125 -41.265625 C 80.140625 -43.554688 76.46875 -45.617188 71.1875 -47.453125 C 65.914062 -49.296875 58.695312 -51.207031 49.53125 -53.1875 C 40.351562 -55.332031 33.085938 -57.96875 27.734375 -61.09375 C 22.390625 -64.226562 18.570312 -67.972656 16.28125 -72.328125 C 13.988281 -76.691406 12.84375 -81.625 12.84375 -87.125 C 12.84375 -92.78125 14.519531 -98.242188 17.875 -103.515625 C 21.238281 -108.796875 26.171875 -113.113281 32.671875 -116.46875 C 39.171875 -119.832031 47.3125 -121.515625 57.09375 -121.515625 C 65.039062 -121.515625 71.84375 -120.519531 77.5 -118.53125 C 83.15625 -116.550781 87.816406 -114.066406 91.484375 -111.078125 C 95.148438 -108.097656 97.898438 -105.15625 99.734375 -102.25 C 101.566406 -99.351562 102.5625 -96.910156 102.71875 -94.921875 C 102.875 -93.390625 102.414062 -92.128906 101.34375 -91.140625 C 100.269531 -90.148438 99.046875 -89.65625 97.671875 -89.65625 L 88.046875 -89.65625 C 86.972656 -89.65625 86.09375 -89.882812 85.40625 -90.34375 C 84.71875 -90.800781 84.066406 -91.332031 83.453125 -91.9375 C 81.929688 -93.925781 80.132812 -95.914062 78.0625 -97.90625 C 76 -99.894531 73.320312 -101.535156 70.03125 -102.828125 C 66.75 -104.128906 62.4375 -104.78125 57.09375 -104.78125 C 49.445312 -104.78125 43.710938 -103.175781 39.890625 -99.96875 C 36.066406 -96.757812 34.15625 -92.707031 34.15625 -87.8125 C 34.15625 -84.90625 34.992188 -82.304688 36.671875 -80.015625 C 38.359375 -77.722656 41.570312 -75.660156 46.3125 -73.828125 C 51.050781 -71.992188 58.082031 -70.007812 67.40625 -67.875 C 77.5 -65.882812 85.445312 -63.207031 91.25 -59.84375 C 97.0625 -56.476562 101.1875 -52.578125 103.625 -48.140625 C 106.070312 -43.710938 107.296875 -38.59375 107.296875 -32.78125 C 107.296875 -26.363281 105.460938 -20.476562 101.796875 -15.125 C 98.128906 -9.78125 92.625 -5.539062 85.28125 -2.40625 C 77.945312 0.726562 68.929688 2.296875 58.234375 2.296875 Z M 58.234375 2.296875 "/></g></g></g><g fill="#141414" fill-opacity="1"><g transform="translate(548.551179, 385.135474)"><g><path d="M 37.828125 43.5625 C 36.609375 43.5625 35.539062 43.101562 34.625 42.1875 C 33.707031 41.269531 33.25 40.203125 33.25 38.984375 C 33.25 38.367188 33.320312 37.753906 33.46875 37.140625 C 33.625 36.523438 33.929688 35.757812 34.390625 34.84375 L 52.046875 -7.109375 L 8.25 -110.515625 C 7.488281 -112.347656 7.109375 -113.644531 7.109375 -114.40625 C 7.109375 -115.78125 7.566406 -116.925781 8.484375 -117.84375 C 9.398438 -118.757812 10.546875 -119.21875 11.921875 -119.21875 L 23.15625 -119.21875 C 24.832031 -119.21875 26.050781 -118.835938 26.8125 -118.078125 C 27.582031 -117.316406 28.195312 -116.398438 28.65625 -115.328125 L 63.515625 -31.875 L 99.28125 -115.328125 C 99.738281 -116.398438 100.382812 -117.316406 101.21875 -118.078125 C 102.0625 -118.835938 103.328125 -119.21875 105.015625 -119.21875 L 115.78125 -119.21875 C 117.15625 -119.21875 118.300781 -118.757812 119.21875 -117.84375 C 120.144531 -116.925781 120.609375 -115.859375 120.609375 -114.640625 C 120.609375 -113.878906 120.222656 -112.503906 119.453125 -110.515625 L 54.34375 39.671875 C 53.882812 40.734375 53.234375 41.644531 52.390625 42.40625 C 51.546875 43.175781 50.285156 43.5625 48.609375 43.5625 Z M 37.828125 43.5625 "/></g></g></g><g fill="#141414" fill-opacity="1"><g transform="translate(675.112549, 385.135474)"><g><path d="M 22.234375 0 C 20.710938 0 19.453125 -0.492188 18.453125 -1.484375 C 17.460938 -2.484375 16.96875 -3.75 16.96875 -5.28125 L 16.96875 -113.953125 C 16.96875 -115.484375 17.460938 -116.742188 18.453125 -117.734375 C 19.453125 -118.722656 20.710938 -119.21875 22.234375 -119.21875 L 33.015625 -119.21875 C 34.546875 -119.21875 35.804688 -118.722656 36.796875 -117.734375 C 37.796875 -116.742188 38.296875 -115.484375 38.296875 -113.953125 L 38.296875 -103.859375 C 42.265625 -109.054688 47.265625 -113.296875 53.296875 -116.578125 C 59.335938 -119.867188 67.097656 -121.515625 76.578125 -121.515625 C 86.515625 -121.515625 94.957031 -119.335938 101.90625 -114.984375 C 108.863281 -110.628906 114.140625 -104.59375 117.734375 -96.875 C 121.328125 -89.15625 123.125 -80.175781 123.125 -69.9375 L 123.125 -5.28125 C 123.125 -3.75 122.625 -2.484375 121.625 -1.484375 C 120.632812 -0.492188 119.375 0 117.84375 0 L 106.390625 0 C 104.859375 0 103.59375 -0.492188 102.59375 -1.484375 C 101.601562 -2.484375 101.109375 -3.75 101.109375 -5.28125 L 101.109375 -68.78125 C 101.109375 -79.476562 98.507812 -87.847656 93.3125 -93.890625 C 88.113281 -99.929688 80.472656 -102.953125 70.390625 -102.953125 C 60.910156 -102.953125 53.304688 -99.929688 47.578125 -93.890625 C 41.847656 -87.847656 38.984375 -79.476562 38.984375 -68.78125 L 38.984375 -5.28125 C 38.984375 -3.75 38.484375 -2.484375 37.484375 -1.484375 C 36.492188 -0.492188 35.234375 0 33.703125 0 Z M 22.234375 0 "/></g></g></g><g fill="#141414" fill-opacity="1"><g transform="translate(814.05495, 385.135474)"><g><path d="M 64.65625 2.296875 C 48.757812 2.296875 36.148438 -2.554688 26.828125 -12.265625 C 17.503906 -21.972656 12.382812 -35.234375 11.46875 -52.046875 C 11.3125 -54.035156 11.234375 -56.59375 11.234375 -59.71875 C 11.234375 -62.851562 11.3125 -65.414062 11.46875 -67.40625 C 12.070312 -78.257812 14.585938 -87.773438 19.015625 -95.953125 C 23.453125 -104.128906 29.53125 -110.429688 37.25 -114.859375 C 44.976562 -119.296875 54.035156 -121.515625 64.421875 -121.515625 C 76.046875 -121.515625 85.789062 -119.066406 93.65625 -114.171875 C 101.53125 -109.285156 107.53125 -102.332031 111.65625 -93.3125 C 115.78125 -84.300781 117.84375 -73.753906 117.84375 -61.671875 L 117.84375 -57.78125 C 117.84375 -56.09375 117.347656 -54.789062 116.359375 -53.875 C 115.367188 -52.957031 114.109375 -52.5 112.578125 -52.5 L 33.25 -52.5 C 33.25 -52.351562 33.25 -52.050781 33.25 -51.59375 C 33.25 -51.132812 33.25 -50.75 33.25 -50.4375 C 33.550781 -44.175781 34.925781 -38.332031 37.375 -32.90625 C 39.820312 -27.476562 43.375 -23.082031 48.03125 -19.71875 C 52.695312 -16.351562 58.160156 -14.671875 64.421875 -14.671875 C 69.929688 -14.671875 74.519531 -15.507812 78.1875 -17.1875 C 81.851562 -18.875 84.832031 -20.75 87.125 -22.8125 C 89.414062 -24.875 90.945312 -26.519531 91.71875 -27.75 C 93.09375 -29.582031 94.160156 -30.6875 94.921875 -31.0625 C 95.679688 -31.445312 96.90625 -31.640625 98.59375 -31.640625 L 109.828125 -31.640625 C 111.203125 -31.640625 112.382812 -31.21875 113.375 -30.375 C 114.375 -29.539062 114.796875 -28.359375 114.640625 -26.828125 C 114.484375 -24.535156 113.257812 -21.742188 110.96875 -18.453125 C 108.675781 -15.171875 105.425781 -11.921875 101.21875 -8.703125 C 97.019531 -5.492188 91.820312 -2.859375 85.625 -0.796875 C 79.4375 1.265625 72.445312 2.296875 64.65625 2.296875 Z M 33.25 -68.328125 L 96.0625 -68.328125 L 96.0625 -69.015625 C 96.0625 -75.890625 94.800781 -82 92.28125 -87.34375 C 89.757812 -92.695312 86.128906 -96.941406 81.390625 -100.078125 C 76.648438 -103.210938 70.992188 -104.78125 64.421875 -104.78125 C 57.847656 -104.78125 52.226562 -103.210938 47.5625 -100.078125 C 42.90625 -96.941406 39.351562 -92.695312 36.90625 -87.34375 C 34.46875 -82 33.25 -75.890625 33.25 -69.015625 Z M 33.25 -68.328125 "/></g></g></g><g fill="#141414" fill-opacity="1"><g transform="translate(942.450551, 385.135474)"><g><path d="M 58.234375 2.296875 C 49.671875 2.296875 42.332031 1.226562 36.21875 -0.90625 C 30.113281 -3.050781 25.148438 -5.648438 21.328125 -8.703125 C 17.503906 -11.765625 14.632812 -14.820312 12.71875 -17.875 C 10.8125 -20.9375 9.78125 -23.382812 9.625 -25.21875 C 9.476562 -26.90625 10.015625 -28.207031 11.234375 -29.125 C 12.453125 -30.039062 13.675781 -30.5 14.90625 -30.5 L 25.21875 -30.5 C 25.988281 -30.5 26.640625 -30.382812 27.171875 -30.15625 C 27.703125 -29.925781 28.425781 -29.273438 29.34375 -28.203125 C 31.332031 -26.054688 33.550781 -23.914062 36 -21.78125 C 38.445312 -19.644531 41.460938 -17.882812 45.046875 -16.5 C 48.640625 -15.125 53.113281 -14.4375 58.46875 -14.4375 C 66.257812 -14.4375 72.675781 -15.925781 77.71875 -18.90625 C 82.769531 -21.894531 85.296875 -26.289062 85.296875 -32.09375 C 85.296875 -35.914062 84.265625 -38.972656 82.203125 -41.265625 C 80.140625 -43.554688 76.46875 -45.617188 71.1875 -47.453125 C 65.914062 -49.296875 58.695312 -51.207031 49.53125 -53.1875 C 40.351562 -55.332031 33.085938 -57.96875 27.734375 -61.09375 C 22.390625 -64.226562 18.570312 -67.972656 16.28125 -72.328125 C 13.988281 -76.691406 12.84375 -81.625 12.84375 -87.125 C 12.84375 -92.78125 14.519531 -98.242188 17.875 -103.515625 C 21.238281 -108.796875 26.171875 -113.113281 32.671875 -116.46875 C 39.171875 -119.832031 47.3125 -121.515625 57.09375 -121.515625 C 65.039062 -121.515625 71.84375 -120.519531 77.5 -118.53125 C 83.15625 -116.550781 87.816406 -114.066406 91.484375 -111.078125 C 95.148438 -108.097656 97.898438 -105.15625 99.734375 -102.25 C 101.566406 -99.351562 102.5625 -96.910156 102.71875 -94.921875 C 102.875 -93.390625 102.414062 -92.128906 101.34375 -91.140625 C 100.269531 -90.148438 99.046875 -89.65625 97.671875 -89.65625 L 88.046875 -89.65625 C 86.972656 -89.65625 86.09375 -89.882812 85.40625 -90.34375 C 84.71875 -90.800781 84.066406 -91.332031 83.453125 -91.9375 C 81.929688 -93.925781 80.132812 -95.914062 78.0625 -97.90625 C 76 -99.894531 73.320312 -101.535156 70.03125 -102.828125 C 66.75 -104.128906 62.4375 -104.78125 57.09375 -104.78125 C 49.445312 -104.78125 43.710938 -103.175781 39.890625 -99.96875 C 36.066406 -96.757812 34.15625 -92.707031 34.15625 -87.8125 C 34.15625 -84.90625 34.992188 -82.304688 36.671875 -80.015625 C 38.359375 -77.722656 41.570312 -75.660156 46.3125 -73.828125 C 51.050781 -71.992188 58.082031 -70.007812 67.40625 -67.875 C 77.5 -65.882812 85.445312 -63.207031 91.25 -59.84375 C 97.0625 -56.476562 101.1875 -52.578125 103.625 -48.140625 C 106.070312 -43.710938 107.296875 -38.59375 107.296875 -32.78125 C 107.296875 -26.363281 105.460938 -20.476562 101.796875 -15.125 C 98.128906 -9.78125 92.625 -5.539062 85.28125 -2.40625 C 77.945312 0.726562 68.929688 2.296875 58.234375 2.296875 Z M 58.234375 2.296875 "/></g></g></g><g fill="#141414" fill-opacity="1"><g transform="translate(1059.382227, 385.135474)"><g><path d="M 58.234375 2.296875 C 49.671875 2.296875 42.332031 1.226562 36.21875 -0.90625 C 30.113281 -3.050781 25.148438 -5.648438 21.328125 -8.703125 C 17.503906 -11.765625 14.632812 -14.820312 12.71875 -17.875 C 10.8125 -20.9375 9.78125 -23.382812 9.625 -25.21875 C 9.476562 -26.90625 10.015625 -28.207031 11.234375 -29.125 C 12.453125 -30.039062 13.675781 -30.5 14.90625 -30.5 L 25.21875 -30.5 C 25.988281 -30.5 26.640625 -30.382812 27.171875 -30.15625 C 27.703125 -29.925781 28.425781 -29.273438 29.34375 -28.203125 C 31.332031 -26.054688 33.550781 -23.914062 36 -21.78125 C 38.445312 -19.644531 41.460938 -17.882812 45.046875 -16.5 C 48.640625 -15.125 53.113281 -14.4375 58.46875 -14.4375 C 66.257812 -14.4375 72.675781 -15.925781 77.71875 -18.90625 C 82.769531 -21.894531 85.296875 -26.289062 85.296875 -32.09375 C 85.296875 -35.914062 84.265625 -38.972656 82.203125 -41.265625 C 80.140625 -43.554688 76.46875 -45.617188 71.1875 -47.453125 C 65.914062 -49.296875 58.695312 -51.207031 49.53125 -53.1875 C 40.351562 -55.332031 33.085938 -57.96875 27.734375 -61.09375 C 22.390625 -64.226562 18.570312 -67.972656 16.28125 -72.328125 C 13.988281 -76.691406 12.84375 -81.625 12.84375 -87.125 C 12.84375 -92.78125 14.519531 -98.242188 17.875 -103.515625 C 21.238281 -108.796875 26.171875 -113.113281 32.671875 -116.46875 C 39.171875 -119.832031 47.3125 -121.515625 57.09375 -121.515625 C 65.039062 -121.515625 71.84375 -120.519531 77.5 -118.53125 C 83.15625 -116.550781 87.816406 -114.066406 91.484375 -111.078125 C 95.148438 -108.097656 97.898438 -105.15625 99.734375 -102.25 C 101.566406 -99.351562 102.5625 -96.910156 102.71875 -94.921875 C 102.875 -93.390625 102.414062 -92.128906 101.34375 -91.140625 C 100.269531 -90.148438 99.046875 -89.65625 97.671875 -89.65625 L 88.046875 -89.65625 C 86.972656 -89.65625 86.09375 -89.882812 85.40625 -90.34375 C 84.71875 -90.800781 84.066406 -91.332031 83.453125 -91.9375 C 81.929688 -93.925781 80.132812 -95.914062 78.0625 -97.90625 C 76 -99.894531 73.320312 -101.535156 70.03125 -102.828125 C 66.75 -104.128906 62.4375 -104.78125 57.09375 -104.78125 C 49.445312 -104.78125 43.710938 -103.175781 39.890625 -99.96875 C 36.066406 -96.757812 34.15625 -92.707031 34.15625 -87.8125 C 34.15625 -84.90625 34.992188 -82.304688 36.671875 -80.015625 C 38.359375 -77.722656 41.570312 -75.660156 46.3125 -73.828125 C 51.050781 -71.992188 58.082031 -70.007812 67.40625 -67.875 C 77.5 -65.882812 85.445312 -63.207031 91.25 -59.84375 C 97.0625 -56.476562 101.1875 -52.578125 103.625 -48.140625 C 106.070312 -43.710938 107.296875 -38.59375 107.296875 -32.78125 C 107.296875 -26.363281 105.460938 -20.476562 101.796875 -15.125 C 98.128906 -9.78125 92.625 -5.539062 85.28125 -2.40625 C 77.945312 0.726562 68.929688 2.296875 58.234375 2.296875 Z M 58.234375 2.296875 "/></g></g></g></svg>