<svg xmlns="http://www.w3.org/2000/svg" xmlns:xlink="http://www.w3.org/1999/xlink" width="1600" zoomAndPan="magnify" viewBox="0 0 1200 675.000002" height="900" preserveAspectRatio="xMidYMid meet" version="1.0"><defs><g/></defs><g fill="#373636" fill-opacity="1"><g transform="translate(0.887572, 441.557196)"><g><path d="M 94.1875 -104.828125 C 103.21875 -104.828125 110.148438 -106.921875 114.984375 -111.109375 C 119.828125 -115.304688 122.25 -121.707031 122.25 -130.3125 C 122.25 -138.476562 119.71875 -144.765625 114.65625 -149.171875 C 109.601562 -153.585938 102.242188 -155.796875 92.578125 -155.796875 C 89.128906 -155.796875 86.273438 -155.738281 84.015625 -155.625 C 81.765625 -155.519531 79.457031 -155.253906 77.09375 -154.828125 L 77.09375 -104.828125 Z M 77.40625 -1.296875 C 75.039062 -0.648438 71.332031 -0.00390625 66.28125 0.640625 C 61.226562 1.285156 56.226562 1.609375 51.28125 1.609375 C 46.332031 1.609375 41.976562 1.234375 38.21875 0.484375 C 34.457031 -0.265625 31.285156 -1.609375 28.703125 -3.546875 C 26.128906 -5.484375 24.195312 -8.171875 22.90625 -11.609375 C 21.613281 -15.046875 20.96875 -19.5625 20.96875 -25.15625 L 20.96875 -177.078125 C 20.96875 -181.597656 22.203125 -185.09375 24.671875 -187.5625 C 27.148438 -190.03125 30.535156 -192.019531 34.828125 -193.53125 C 42.140625 -196.113281 50.472656 -197.992188 59.828125 -199.171875 C 69.179688 -200.359375 78.59375 -200.953125 88.0625 -200.953125 C 117.726562 -200.953125 140.410156 -194.609375 156.109375 -181.921875 C 171.804688 -169.234375 179.65625 -152.03125 179.65625 -130.3125 C 179.65625 -119.769531 177.988281 -110.25 174.65625 -101.75 C 171.320312 -93.257812 166.375 -85.953125 159.8125 -79.828125 C 153.257812 -73.703125 144.984375 -68.972656 134.984375 -65.640625 C 124.984375 -62.304688 113.425781 -60.640625 100.3125 -60.640625 L 77.40625 -60.640625 Z M 77.40625 -1.296875 "/></g></g></g><g fill="#373636" fill-opacity="1"><g transform="translate(188.276163, 441.557196)"><g><path d="M 149.015625 -46.765625 C 149.015625 -30.421875 142.882812 -17.625 130.625 -8.375 C 118.375 0.863281 100.3125 5.484375 76.4375 5.484375 C 67.40625 5.484375 59.019531 4.835938 51.28125 3.546875 C 43.539062 2.253906 36.925781 0.265625 31.4375 -2.421875 C 25.957031 -5.109375 21.660156 -8.492188 18.546875 -12.578125 C 15.429688 -16.660156 13.875 -21.5 13.875 -27.09375 C 13.875 -32.25 14.945312 -36.601562 17.09375 -40.15625 C 19.25 -43.707031 21.832031 -46.664062 24.84375 -49.03125 C 31.070312 -45.582031 38.21875 -42.515625 46.28125 -39.828125 C 54.34375 -37.140625 63.644531 -35.796875 74.1875 -35.796875 C 80.851562 -35.796875 85.957031 -36.765625 89.5 -38.703125 C 93.050781 -40.640625 94.828125 -43.222656 94.828125 -46.453125 C 94.828125 -49.460938 93.535156 -51.828125 90.953125 -53.546875 C 88.378906 -55.265625 84.082031 -56.660156 78.0625 -57.734375 L 68.375 -59.671875 C 49.664062 -63.328125 35.742188 -69.078125 26.609375 -76.921875 C 17.472656 -84.773438 12.90625 -96.015625 12.90625 -110.640625 C 12.90625 -118.585938 14.625 -125.785156 18.0625 -132.234375 C 21.5 -138.691406 26.335938 -144.070312 32.578125 -148.375 C 38.816406 -152.675781 46.289062 -156.007812 55 -158.375 C 63.707031 -160.738281 73.328125 -161.921875 83.859375 -161.921875 C 91.816406 -161.921875 99.289062 -161.328125 106.28125 -160.140625 C 113.269531 -158.960938 119.34375 -157.191406 124.5 -154.828125 C 129.664062 -152.460938 133.753906 -149.394531 136.765625 -145.625 C 139.773438 -141.863281 141.28125 -137.40625 141.28125 -132.25 C 141.28125 -127.300781 140.363281 -123.050781 138.53125 -119.5 C 136.707031 -115.957031 134.394531 -113.003906 131.59375 -110.640625 C 129.875 -111.710938 127.296875 -112.835938 123.859375 -114.015625 C 120.421875 -115.203125 116.65625 -116.28125 112.5625 -117.25 C 108.476562 -118.21875 104.335938 -119.019531 100.140625 -119.65625 C 95.953125 -120.300781 92.140625 -120.625 88.703125 -120.625 C 81.609375 -120.625 76.125 -119.816406 72.25 -118.203125 C 68.375 -116.597656 66.4375 -114.078125 66.4375 -110.640625 C 66.4375 -108.265625 67.507812 -106.320312 69.65625 -104.8125 C 71.8125 -103.3125 75.898438 -101.921875 81.921875 -100.640625 L 91.921875 -98.375 C 112.566406 -93.644531 127.242188 -87.140625 135.953125 -78.859375 C 144.660156 -70.578125 149.015625 -59.878906 149.015625 -46.765625 Z M 149.015625 -46.765625 "/></g></g></g><g fill="#373636" fill-opacity="1"><g transform="translate(346.959805, 441.557196)"><g><path d="M 41.28125 -40 C 38.914062 -45.375 36.390625 -51.394531 33.703125 -58.0625 C 31.015625 -64.726562 28.21875 -72.359375 25.3125 -80.953125 C 22.414062 -89.554688 19.40625 -99.394531 16.28125 -110.46875 C 13.164062 -121.539062 9.890625 -134.28125 6.453125 -148.6875 C 9.460938 -151.695312 13.492188 -154.332031 18.546875 -156.59375 C 23.597656 -158.851562 29.132812 -159.984375 35.15625 -159.984375 C 42.6875 -159.984375 48.921875 -158.421875 53.859375 -155.296875 C 58.804688 -152.179688 62.460938 -146.328125 64.828125 -137.734375 L 90.3125 -49.03125 L 91.609375 -49.03125 C 94.179688 -56.34375 96.703125 -64.296875 99.171875 -72.890625 C 101.648438 -81.492188 104.070312 -90.363281 106.4375 -99.5 C 108.800781 -108.644531 111.003906 -117.785156 113.046875 -126.921875 C 115.085938 -136.054688 116.863281 -145.035156 118.375 -153.859375 C 126.113281 -157.941406 134.609375 -159.984375 143.859375 -159.984375 C 151.378906 -159.984375 157.613281 -158.367188 162.5625 -155.140625 C 167.507812 -151.921875 169.984375 -146.332031 169.984375 -138.375 C 169.984375 -132.5625 169.226562 -125.835938 167.71875 -118.203125 C 166.21875 -110.578125 164.226562 -102.460938 161.75 -93.859375 C 159.28125 -85.253906 156.378906 -76.382812 153.046875 -67.25 C 149.710938 -58.113281 146.21875 -49.132812 142.5625 -40.3125 C 138.90625 -31.5 135.140625 -23.164062 131.265625 -15.3125 C 127.398438 -7.46875 123.640625 -0.425781 119.984375 5.8125 C 113.960938 16.34375 108.367188 24.941406 103.203125 31.609375 C 98.046875 38.273438 93.101562 43.488281 88.375 47.25 C 83.644531 51.007812 78.914062 53.585938 74.1875 54.984375 C 69.457031 56.390625 64.507812 57.09375 59.34375 57.09375 C 50.3125 57.09375 43 54.40625 37.40625 49.03125 C 31.820312 43.65625 28.492188 36.664062 27.421875 28.0625 C 34.296875 22.6875 41.171875 16.71875 48.046875 10.15625 C 54.929688 3.601562 61.171875 -3.113281 66.765625 -10 C 63.109375 -11.070312 59.179688 -13.597656 54.984375 -17.578125 C 50.796875 -21.554688 46.226562 -29.03125 41.28125 -40 Z M 41.28125 -40 "/></g></g></g><g fill="#373636" fill-opacity="1"><g transform="translate(524.672586, 441.557196)"><g><path d="M 116.109375 -99.34375 C 116.109375 -106.007812 114.226562 -110.898438 110.46875 -114.015625 C 106.707031 -117.140625 101.601562 -118.703125 95.15625 -118.703125 C 90.851562 -118.703125 86.601562 -118.160156 82.40625 -117.078125 C 78.21875 -116.003906 74.617188 -114.394531 71.609375 -112.25 L 71.609375 -0.328125 C 69.453125 0.316406 66.0625 0.960938 61.4375 1.609375 C 56.820312 2.253906 52.039062 2.578125 47.09375 2.578125 C 42.363281 2.578125 38.113281 2.253906 34.34375 1.609375 C 30.582031 0.960938 27.410156 -0.320312 24.828125 -2.25 C 22.253906 -4.1875 20.265625 -6.820312 18.859375 -10.15625 C 17.460938 -13.488281 16.765625 -17.84375 16.765625 -23.21875 L 16.765625 -119.984375 C 16.765625 -125.796875 18 -130.523438 20.46875 -134.171875 C 22.945312 -137.828125 26.335938 -141.160156 30.640625 -144.171875 C 37.953125 -149.335938 47.144531 -153.53125 58.21875 -156.75 C 69.289062 -159.976562 81.601562 -161.59375 95.15625 -161.59375 C 119.445312 -161.59375 138.148438 -156.269531 151.265625 -145.625 C 164.390625 -134.976562 170.953125 -120.195312 170.953125 -101.28125 L 170.953125 -0.328125 C 168.796875 0.316406 165.40625 0.960938 160.78125 1.609375 C 156.164062 2.253906 151.382812 2.578125 146.4375 2.578125 C 141.707031 2.578125 137.457031 2.253906 133.6875 1.609375 C 129.925781 0.960938 126.753906 -0.320312 124.171875 -2.25 C 121.597656 -4.1875 119.609375 -6.820312 118.203125 -10.15625 C 116.804688 -13.488281 116.109375 -17.84375 116.109375 -23.21875 Z M 116.109375 -99.34375 "/></g></g></g><g fill="#373636" fill-opacity="1"><g transform="translate(712.706287, 441.557196)"><g><path d="M 99.671875 5.15625 C 86.984375 5.15625 75.207031 3.382812 64.34375 -0.15625 C 53.488281 -3.707031 44.03125 -9.03125 35.96875 -16.125 C 27.90625 -23.21875 21.5625 -32.140625 16.9375 -42.890625 C 12.3125 -53.648438 10 -66.234375 10 -80.640625 C 10 -94.828125 12.3125 -107.023438 16.9375 -117.234375 C 21.5625 -127.453125 27.632812 -135.835938 35.15625 -142.390625 C 42.6875 -148.953125 51.285156 -153.789062 60.953125 -156.90625 C 70.628906 -160.03125 80.523438 -161.59375 90.640625 -161.59375 C 102.035156 -161.59375 112.410156 -159.875 121.765625 -156.4375 C 131.117188 -153 139.179688 -148.269531 145.953125 -142.25 C 152.722656 -136.226562 157.988281 -129.019531 161.75 -120.625 C 165.519531 -112.238281 167.40625 -103.101562 167.40625 -93.21875 C 167.40625 -85.90625 165.359375 -80.3125 161.265625 -76.4375 C 157.179688 -72.570312 151.484375 -70.101562 144.171875 -69.03125 L 64.515625 -57.09375 C 66.878906 -50 71.710938 -44.675781 79.015625 -41.125 C 86.328125 -37.570312 94.71875 -35.796875 104.1875 -35.796875 C 113 -35.796875 121.328125 -36.925781 129.171875 -39.1875 C 137.023438 -41.445312 143.425781 -44.082031 148.375 -47.09375 C 151.8125 -44.9375 154.710938 -41.921875 157.078125 -38.046875 C 159.441406 -34.179688 160.625 -30.097656 160.625 -25.796875 C 160.625 -16.128906 156.109375 -8.925781 147.078125 -4.1875 C 140.203125 -0.53125 132.460938 1.9375 123.859375 3.21875 C 115.253906 4.507812 107.191406 5.15625 99.671875 5.15625 Z M 90.640625 -121.59375 C 85.472656 -121.59375 81.007812 -120.734375 77.25 -119.015625 C 73.488281 -117.296875 70.425781 -115.09375 68.0625 -112.40625 C 65.695312 -109.71875 63.921875 -106.707031 62.734375 -103.375 C 61.554688 -100.039062 60.859375 -96.65625 60.640625 -93.21875 L 115.796875 -102.25 C 115.148438 -106.550781 112.78125 -110.847656 108.6875 -115.140625 C 104.601562 -119.441406 98.585938 -121.59375 90.640625 -121.59375 Z M 90.640625 -121.59375 "/></g></g></g><g fill="#373636" fill-opacity="1"><g transform="translate(889.773958, 441.557196)"><g><path d="M 149.015625 -46.765625 C 149.015625 -30.421875 142.882812 -17.625 130.625 -8.375 C 118.375 0.863281 100.3125 5.484375 76.4375 5.484375 C 67.40625 5.484375 59.019531 4.835938 51.28125 3.546875 C 43.539062 2.253906 36.925781 0.265625 31.4375 -2.421875 C 25.957031 -5.109375 21.660156 -8.492188 18.546875 -12.578125 C 15.429688 -16.660156 13.875 -21.5 13.875 -27.09375 C 13.875 -32.25 14.945312 -36.601562 17.09375 -40.15625 C 19.25 -43.707031 21.832031 -46.664062 24.84375 -49.03125 C 31.070312 -45.582031 38.21875 -42.515625 46.28125 -39.828125 C 54.34375 -37.140625 63.644531 -35.796875 74.1875 -35.796875 C 80.851562 -35.796875 85.957031 -36.765625 89.5 -38.703125 C 93.050781 -40.640625 94.828125 -43.222656 94.828125 -46.453125 C 94.828125 -49.460938 93.535156 -51.828125 90.953125 -53.546875 C 88.378906 -55.265625 84.082031 -56.660156 78.0625 -57.734375 L 68.375 -59.671875 C 49.664062 -63.328125 35.742188 -69.078125 26.609375 -76.921875 C 17.472656 -84.773438 12.90625 -96.015625 12.90625 -110.640625 C 12.90625 -118.585938 14.625 -125.785156 18.0625 -132.234375 C 21.5 -138.691406 26.335938 -144.070312 32.578125 -148.375 C 38.816406 -152.675781 46.289062 -156.007812 55 -158.375 C 63.707031 -160.738281 73.328125 -161.921875 83.859375 -161.921875 C 91.816406 -161.921875 99.289062 -161.328125 106.28125 -160.140625 C 113.269531 -158.960938 119.34375 -157.191406 124.5 -154.828125 C 129.664062 -152.460938 133.753906 -149.394531 136.765625 -145.625 C 139.773438 -141.863281 141.28125 -137.40625 141.28125 -132.25 C 141.28125 -127.300781 140.363281 -123.050781 138.53125 -119.5 C 136.707031 -115.957031 134.394531 -113.003906 131.59375 -110.640625 C 129.875 -111.710938 127.296875 -112.835938 123.859375 -114.015625 C 120.421875 -115.203125 116.65625 -116.28125 112.5625 -117.25 C 108.476562 -118.21875 104.335938 -119.019531 100.140625 -119.65625 C 95.953125 -120.300781 92.140625 -120.625 88.703125 -120.625 C 81.609375 -120.625 76.125 -119.816406 72.25 -118.203125 C 68.375 -116.597656 66.4375 -114.078125 66.4375 -110.640625 C 66.4375 -108.265625 67.507812 -106.320312 69.65625 -104.8125 C 71.8125 -103.3125 75.898438 -101.921875 81.921875 -100.640625 L 91.921875 -98.375 C 112.566406 -93.644531 127.242188 -87.140625 135.953125 -78.859375 C 144.660156 -70.578125 149.015625 -59.878906 149.015625 -46.765625 Z M 149.015625 -46.765625 "/></g></g></g><g fill="#373636" fill-opacity="1"><g transform="translate(1048.457599, 441.557196)"><g><path d="M 149.015625 -46.765625 C 149.015625 -30.421875 142.882812 -17.625 130.625 -8.375 C 118.375 0.863281 100.3125 5.484375 76.4375 5.484375 C 67.40625 5.484375 59.019531 4.835938 51.28125 3.546875 C 43.539062 2.253906 36.925781 0.265625 31.4375 -2.421875 C 25.957031 -5.109375 21.660156 -8.492188 18.546875 -12.578125 C 15.429688 -16.660156 13.875 -21.5 13.875 -27.09375 C 13.875 -32.25 14.945312 -36.601562 17.09375 -40.15625 C 19.25 -43.707031 21.832031 -46.664062 24.84375 -49.03125 C 31.070312 -45.582031 38.21875 -42.515625 46.28125 -39.828125 C 54.34375 -37.140625 63.644531 -35.796875 74.1875 -35.796875 C 80.851562 -35.796875 85.957031 -36.765625 89.5 -38.703125 C 93.050781 -40.640625 94.828125 -43.222656 94.828125 -46.453125 C 94.828125 -49.460938 93.535156 -51.828125 90.953125 -53.546875 C 88.378906 -55.265625 84.082031 -56.660156 78.0625 -57.734375 L 68.375 -59.671875 C 49.664062 -63.328125 35.742188 -69.078125 26.609375 -76.921875 C 17.472656 -84.773438 12.90625 -96.015625 12.90625 -110.640625 C 12.90625 -118.585938 14.625 -125.785156 18.0625 -132.234375 C 21.5 -138.691406 26.335938 -144.070312 32.578125 -148.375 C 38.816406 -152.675781 46.289062 -156.007812 55 -158.375 C 63.707031 -160.738281 73.328125 -161.921875 83.859375 -161.921875 C 91.816406 -161.921875 99.289062 -161.328125 106.28125 -160.140625 C 113.269531 -158.960938 119.34375 -157.191406 124.5 -154.828125 C 129.664062 -152.460938 133.753906 -149.394531 136.765625 -145.625 C 139.773438 -141.863281 141.28125 -137.40625 141.28125 -132.25 C 141.28125 -127.300781 140.363281 -123.050781 138.53125 -119.5 C 136.707031 -115.957031 134.394531 -113.003906 131.59375 -110.640625 C 129.875 -111.710938 127.296875 -112.835938 123.859375 -114.015625 C 120.421875 -115.203125 116.65625 -116.28125 112.5625 -117.25 C 108.476562 -118.21875 104.335938 -119.019531 100.140625 -119.65625 C 95.953125 -120.300781 92.140625 -120.625 88.703125 -120.625 C 81.609375 -120.625 76.125 -119.816406 72.25 -118.203125 C 68.375 -116.597656 66.4375 -114.078125 66.4375 -110.640625 C 66.4375 -108.265625 67.507812 -106.320312 69.65625 -104.8125 C 71.8125 -103.3125 75.898438 -101.921875 81.921875 -100.640625 L 91.921875 -98.375 C 112.566406 -93.644531 127.242188 -87.140625 135.953125 -78.859375 C 144.660156 -70.578125 149.015625 -59.878906 149.015625 -46.765625 Z M 149.015625 -46.765625 "/></g></g></g></svg>