<svg xmlns="http://www.w3.org/2000/svg" xmlns:xlink="http://www.w3.org/1999/xlink" width="500" zoomAndPan="magnify" viewBox="0 0 375 374.999991" height="500" preserveAspectRatio="xMidYMid meet" version="1.0"><defs><g/><clipPath id="782d3c4134"><path d="M 37.5 45.785156 L 335.355469 45.785156 L 335.355469 343.636719 L 37.5 343.636719 Z M 37.5 45.785156 " clip-rule="nonzero"/></clipPath><clipPath id="4706463546"><path d="M 186.425781 45.785156 C 104.175781 45.785156 37.5 112.460938 37.5 194.710938 C 37.5 276.960938 104.175781 343.636719 186.425781 343.636719 C 268.675781 343.636719 335.355469 276.960938 335.355469 194.710938 C 335.355469 112.460938 268.675781 45.785156 186.425781 45.785156 Z M 186.425781 45.785156 " clip-rule="nonzero"/></clipPath><clipPath id="2a5103800a"><path d="M 51.042969 24.75 L 348.898438 24.75 L 348.898438 322.605469 L 51.042969 322.605469 Z M 51.042969 24.75 " clip-rule="nonzero"/></clipPath><clipPath id="111f09d145"><path d="M 199.96875 24.75 C 117.71875 24.75 51.042969 91.425781 51.042969 173.675781 C 51.042969 255.925781 117.71875 322.605469 199.96875 322.605469 C 282.21875 322.605469 348.898438 255.925781 348.898438 173.675781 C 348.898438 91.425781 282.21875 24.75 199.96875 24.75 Z M 199.96875 24.75 " clip-rule="nonzero"/></clipPath></defs><g clip-path="url(#782d3c4134)"><g clip-path="url(#4706463546)"><path fill="#787df1" d="M 37.5 45.785156 L 335.355469 45.785156 L 335.355469 343.636719 L 37.5 343.636719 Z M 37.5 45.785156 " fill-opacity="1" fill-rule="nonzero"/></g></g><g clip-path="url(#2a5103800a)"><g clip-path="url(#111f09d145)"><path fill="#99d1ff" d="M 51.042969 24.75 L 348.898438 24.75 L 348.898438 322.605469 L 51.042969 322.605469 Z M 51.042969 24.75 " fill-opacity="1" fill-rule="nonzero"/></g></g><g fill="#ffffff" fill-opacity="1"><g transform="translate(80.077492, 344.858769)"><g><path d="M 153.140625 -170.453125 C 167.828125 -170.453125 179.101562 -173.859375 186.96875 -180.671875 C 194.832031 -187.492188 198.765625 -197.894531 198.765625 -211.875 C 198.765625 -225.164062 194.65625 -235.394531 186.4375 -242.5625 C 178.226562 -249.726562 166.253906 -253.3125 150.515625 -253.3125 C 144.921875 -253.3125 140.285156 -253.222656 136.609375 -253.046875 C 132.941406 -252.867188 129.1875 -252.429688 125.34375 -251.734375 L 125.34375 -170.453125 Z M 125.875 -2.09375 C 122.019531 -1.050781 115.984375 -0.00390625 107.765625 1.046875 C 99.554688 2.097656 91.429688 2.625 83.390625 2.625 C 75.347656 2.625 68.265625 2.007812 62.140625 0.78125 C 56.023438 -0.4375 50.867188 -2.617188 46.671875 -5.765625 C 42.484375 -8.910156 39.335938 -13.28125 37.234375 -18.875 C 35.140625 -24.46875 34.09375 -31.8125 34.09375 -40.90625 L 34.09375 -287.921875 C 34.09375 -295.265625 36.101562 -300.945312 40.125 -304.96875 C 44.144531 -308.988281 49.648438 -312.222656 56.640625 -314.671875 C 68.523438 -318.867188 82.070312 -321.925781 97.28125 -323.84375 C 112.488281 -325.769531 127.785156 -326.734375 143.171875 -326.734375 C 191.421875 -326.734375 228.304688 -316.414062 253.828125 -295.78125 C 279.359375 -275.15625 292.125 -247.1875 292.125 -211.875 C 292.125 -194.75 289.410156 -179.28125 283.984375 -165.46875 C 278.566406 -151.65625 270.523438 -139.765625 259.859375 -129.796875 C 249.203125 -119.835938 235.742188 -112.144531 219.484375 -106.71875 C 203.222656 -101.300781 184.429688 -98.59375 163.109375 -98.59375 L 125.875 -98.59375 Z M 125.875 -2.09375 "/></g></g></g></svg>