<svg xmlns="http://www.w3.org/2000/svg" xmlns:xlink="http://www.w3.org/1999/xlink" width="1600" zoomAndPan="magnify" viewBox="0 0 1200 675.000002" height="900" preserveAspectRatio="xMidYMid meet" version="1.0"><defs><g/></defs><g fill="#141414" fill-opacity="1"><g transform="translate(0.887572, 453.272155)"><g><path d="M 33.125 0 C 30.914062 0 29.207031 -0.648438 28 -1.953125 C 26.800781 -3.265625 26.203125 -4.921875 26.203125 -6.921875 L 26.203125 -203.59375 C 26.203125 -205.800781 26.800781 -207.554688 28 -208.859375 C 29.207031 -210.160156 30.914062 -210.8125 33.125 -210.8125 L 109.625 -210.8125 C 124.476562 -210.8125 137.375 -208.398438 148.3125 -203.578125 C 159.257812 -198.765625 167.742188 -191.585938 173.765625 -182.046875 C 179.796875 -172.515625 182.8125 -160.625 182.8125 -146.375 C 182.8125 -132.113281 179.796875 -120.265625 173.765625 -110.828125 C 167.742188 -101.390625 159.257812 -94.257812 148.3125 -89.4375 C 137.375 -84.625 124.476562 -82.21875 109.625 -82.21875 L 56.3125 -82.21875 L 56.3125 -6.921875 C 56.3125 -4.921875 55.660156 -3.265625 54.359375 -1.953125 C 53.054688 -0.648438 51.300781 0 49.09375 0 Z M 56.015625 -107.515625 L 108.125 -107.515625 C 122.976562 -107.515625 134.117188 -110.828125 141.546875 -117.453125 C 148.972656 -124.078125 152.6875 -133.71875 152.6875 -146.375 C 152.6875 -158.820312 149.070312 -168.457031 141.84375 -175.28125 C 134.625 -182.101562 123.382812 -185.515625 108.125 -185.515625 L 56.015625 -185.515625 Z M 56.015625 -107.515625 "/></g></g></g><g fill="#141414" fill-opacity="1"><g transform="translate(194.237045, 453.272155)"><g><path d="M 76.5 3.015625 C 65.25 3.015625 55.609375 1.609375 47.578125 -1.203125 C 39.546875 -4.015625 33.019531 -7.425781 28 -11.4375 C 22.988281 -15.457031 19.226562 -19.472656 16.71875 -23.484375 C 14.207031 -27.503906 12.851562 -30.71875 12.65625 -33.125 C 12.445312 -35.332031 13.144531 -37.039062 14.75 -38.25 C 16.363281 -39.457031 17.972656 -40.0625 19.578125 -40.0625 L 33.125 -40.0625 C 34.132812 -40.0625 34.988281 -39.910156 35.6875 -39.609375 C 36.394531 -39.304688 37.347656 -38.453125 38.546875 -37.046875 C 41.160156 -34.234375 44.070312 -31.421875 47.28125 -28.609375 C 50.5 -25.796875 54.460938 -23.484375 59.171875 -21.671875 C 63.890625 -19.867188 69.765625 -18.96875 76.796875 -18.96875 C 87.035156 -18.96875 95.46875 -20.925781 102.09375 -24.84375 C 108.71875 -28.757812 112.03125 -34.53125 112.03125 -42.15625 C 112.03125 -47.175781 110.675781 -51.191406 107.96875 -54.203125 C 105.257812 -57.222656 100.441406 -59.9375 93.515625 -62.34375 C 86.585938 -64.75 77.097656 -67.257812 65.046875 -69.875 C 53.003906 -72.6875 43.46875 -76.148438 36.4375 -80.265625 C 29.414062 -84.378906 24.394531 -89.296875 21.375 -95.015625 C 18.363281 -100.742188 16.859375 -107.21875 16.859375 -114.4375 C 16.859375 -121.875 19.066406 -129.054688 23.484375 -135.984375 C 27.898438 -142.910156 34.375 -148.582031 42.90625 -153 C 51.445312 -157.414062 62.140625 -159.625 74.984375 -159.625 C 85.429688 -159.625 94.367188 -158.316406 101.796875 -155.703125 C 109.222656 -153.097656 115.34375 -149.835938 120.15625 -145.921875 C 124.976562 -142.003906 128.59375 -138.132812 131 -134.3125 C 133.414062 -130.5 134.722656 -127.289062 134.921875 -124.6875 C 135.117188 -122.675781 134.515625 -121.019531 133.109375 -119.71875 C 131.710938 -118.414062 130.109375 -117.765625 128.296875 -117.765625 L 115.65625 -117.765625 C 114.25 -117.765625 113.09375 -118.0625 112.1875 -118.65625 C 111.28125 -119.257812 110.425781 -119.960938 109.625 -120.765625 C 107.613281 -123.378906 105.253906 -125.988281 102.546875 -128.59375 C 99.835938 -131.207031 96.320312 -133.367188 92 -135.078125 C 87.6875 -136.785156 82.015625 -137.640625 74.984375 -137.640625 C 64.953125 -137.640625 57.425781 -135.53125 52.40625 -131.3125 C 47.382812 -127.09375 44.875 -121.769531 44.875 -115.34375 C 44.875 -111.53125 45.976562 -108.117188 48.1875 -105.109375 C 50.394531 -102.097656 54.609375 -99.382812 60.828125 -96.96875 C 67.054688 -94.5625 76.296875 -91.953125 88.546875 -89.140625 C 101.796875 -86.535156 112.234375 -83.023438 119.859375 -78.609375 C 127.492188 -74.191406 132.914062 -69.070312 136.125 -63.25 C 139.34375 -57.425781 140.953125 -50.695312 140.953125 -43.0625 C 140.953125 -34.632812 138.539062 -26.90625 133.71875 -19.875 C 128.894531 -12.851562 121.664062 -7.28125 112.03125 -3.15625 C 102.394531 0.957031 90.550781 3.015625 76.5 3.015625 Z M 76.5 3.015625 "/></g></g></g><g fill="#141414" fill-opacity="1"><g transform="translate(347.832344, 453.272155)"><g><path d="M 49.6875 57.21875 C 48.082031 57.21875 46.675781 56.613281 45.46875 55.40625 C 44.269531 54.207031 43.671875 52.804688 43.671875 51.203125 C 43.671875 50.398438 43.769531 49.59375 43.96875 48.78125 C 44.164062 47.976562 44.566406 46.976562 45.171875 45.78125 L 68.359375 -9.34375 L 10.84375 -145.171875 C 9.84375 -147.578125 9.34375 -149.28125 9.34375 -150.28125 C 9.34375 -152.09375 9.941406 -153.597656 11.140625 -154.796875 C 12.347656 -156.003906 13.851562 -156.609375 15.65625 -156.609375 L 30.421875 -156.609375 C 32.628906 -156.609375 34.234375 -156.101562 35.234375 -155.09375 C 36.242188 -154.09375 37.046875 -152.890625 37.640625 -151.484375 L 83.421875 -41.859375 L 130.40625 -151.484375 C 131.007812 -152.890625 131.863281 -154.09375 132.96875 -155.09375 C 134.070312 -156.101562 135.726562 -156.609375 137.9375 -156.609375 L 152.09375 -156.609375 C 153.894531 -156.609375 155.398438 -156.003906 156.609375 -154.796875 C 157.816406 -153.597656 158.421875 -152.191406 158.421875 -150.578125 C 158.421875 -149.578125 157.914062 -147.773438 156.90625 -145.171875 L 71.375 52.109375 C 70.769531 53.503906 69.914062 54.703125 68.8125 55.703125 C 67.707031 56.710938 66.050781 57.21875 63.84375 57.21875 Z M 49.6875 57.21875 "/></g></g></g><g fill="#141414" fill-opacity="1"><g transform="translate(514.076704, 453.272155)"><g><path d="M 29.21875 0 C 27.207031 0 25.546875 -0.648438 24.234375 -1.953125 C 22.929688 -3.265625 22.28125 -4.921875 22.28125 -6.921875 L 22.28125 -149.6875 C 22.28125 -151.6875 22.929688 -153.335938 24.234375 -154.640625 C 25.546875 -155.953125 27.207031 -156.609375 29.21875 -156.609375 L 43.375 -156.609375 C 45.375 -156.609375 47.023438 -155.953125 48.328125 -154.640625 C 49.640625 -153.335938 50.296875 -151.6875 50.296875 -149.6875 L 50.296875 -136.4375 C 55.515625 -143.257812 62.085938 -148.828125 70.015625 -153.140625 C 77.953125 -157.460938 88.144531 -159.625 100.59375 -159.625 C 113.644531 -159.625 124.738281 -156.757812 133.875 -151.03125 C 143.007812 -145.3125 149.9375 -137.378906 154.65625 -127.234375 C 159.375 -117.097656 161.734375 -105.304688 161.734375 -91.859375 L 161.734375 -6.921875 C 161.734375 -4.921875 161.078125 -3.265625 159.765625 -1.953125 C 158.460938 -0.648438 156.804688 0 154.796875 0 L 139.75 0 C 137.738281 0 136.078125 -0.648438 134.765625 -1.953125 C 133.460938 -3.265625 132.8125 -4.921875 132.8125 -6.921875 L 132.8125 -90.34375 C 132.8125 -104.40625 129.398438 -115.398438 122.578125 -123.328125 C 115.753906 -131.253906 105.710938 -135.21875 92.453125 -135.21875 C 80.003906 -135.21875 70.015625 -131.253906 62.484375 -123.328125 C 54.960938 -115.398438 51.203125 -104.40625 51.203125 -90.34375 L 51.203125 -6.921875 C 51.203125 -4.921875 50.546875 -3.265625 49.234375 -1.953125 C 47.929688 -0.648438 46.273438 0 44.265625 0 Z M 29.21875 0 "/></g></g></g><g fill="#141414" fill-opacity="1"><g transform="translate(696.584123, 453.272155)"><g><path d="M 84.9375 3.015625 C 64.050781 3.015625 47.484375 -3.359375 35.234375 -16.109375 C 22.984375 -28.859375 16.257812 -46.273438 15.0625 -68.359375 C 14.851562 -70.972656 14.75 -74.335938 14.75 -78.453125 C 14.75 -82.566406 14.851562 -85.929688 15.0625 -88.546875 C 15.863281 -102.796875 19.175781 -115.289062 25 -126.03125 C 30.820312 -136.78125 38.800781 -145.066406 48.9375 -150.890625 C 59.082031 -156.710938 70.976562 -159.625 84.625 -159.625 C 99.882812 -159.625 112.679688 -156.410156 123.015625 -149.984375 C 133.359375 -143.554688 141.238281 -134.421875 146.65625 -122.578125 C 152.082031 -110.734375 154.796875 -96.878906 154.796875 -81.015625 L 154.796875 -75.890625 C 154.796875 -73.679688 154.144531 -71.972656 152.84375 -70.765625 C 151.539062 -69.566406 149.882812 -68.96875 147.875 -68.96875 L 43.671875 -68.96875 C 43.671875 -68.769531 43.671875 -68.367188 43.671875 -67.765625 C 43.671875 -67.160156 43.671875 -66.65625 43.671875 -66.25 C 44.066406 -58.019531 45.867188 -50.34375 49.078125 -43.21875 C 52.296875 -36.09375 56.96875 -30.320312 63.09375 -25.90625 C 69.21875 -21.488281 76.394531 -19.28125 84.625 -19.28125 C 91.851562 -19.28125 97.875 -20.382812 102.6875 -22.59375 C 107.507812 -24.800781 111.425781 -27.257812 114.4375 -29.96875 C 117.457031 -32.675781 119.46875 -34.832031 120.46875 -36.4375 C 122.269531 -38.851562 123.671875 -40.3125 124.671875 -40.8125 C 125.679688 -41.3125 127.289062 -41.5625 129.5 -41.5625 L 144.265625 -41.5625 C 146.066406 -41.5625 147.617188 -41.007812 148.921875 -39.90625 C 150.234375 -38.800781 150.785156 -37.242188 150.578125 -35.234375 C 150.378906 -32.222656 148.773438 -28.554688 145.765625 -24.234375 C 142.753906 -19.921875 138.488281 -15.65625 132.96875 -11.4375 C 127.445312 -7.226562 120.617188 -3.765625 112.484375 -1.046875 C 104.359375 1.660156 95.175781 3.015625 84.9375 3.015625 Z M 43.671875 -89.75 L 126.1875 -89.75 L 126.1875 -90.65625 C 126.1875 -99.6875 124.53125 -107.710938 121.21875 -114.734375 C 117.90625 -121.765625 113.132812 -127.335938 106.90625 -131.453125 C 100.6875 -135.578125 93.257812 -137.640625 84.625 -137.640625 C 75.988281 -137.640625 68.609375 -135.578125 62.484375 -131.453125 C 56.367188 -127.335938 51.703125 -121.765625 48.484375 -114.734375 C 45.273438 -107.710938 43.671875 -99.6875 43.671875 -90.65625 Z M 43.671875 -89.75 "/></g></g></g><g fill="#141414" fill-opacity="1"><g transform="translate(865.237802, 453.272155)"><g><path d="M 76.5 3.015625 C 65.25 3.015625 55.609375 1.609375 47.578125 -1.203125 C 39.546875 -4.015625 33.019531 -7.425781 28 -11.4375 C 22.988281 -15.457031 19.226562 -19.472656 16.71875 -23.484375 C 14.207031 -27.503906 12.851562 -30.71875 12.65625 -33.125 C 12.445312 -35.332031 13.144531 -37.039062 14.75 -38.25 C 16.363281 -39.457031 17.972656 -40.0625 19.578125 -40.0625 L 33.125 -40.0625 C 34.132812 -40.0625 34.988281 -39.910156 35.6875 -39.609375 C 36.394531 -39.304688 37.347656 -38.453125 38.546875 -37.046875 C 41.160156 -34.234375 44.070312 -31.421875 47.28125 -28.609375 C 50.5 -25.796875 54.460938 -23.484375 59.171875 -21.671875 C 63.890625 -19.867188 69.765625 -18.96875 76.796875 -18.96875 C 87.035156 -18.96875 95.46875 -20.925781 102.09375 -24.84375 C 108.71875 -28.757812 112.03125 -34.53125 112.03125 -42.15625 C 112.03125 -47.175781 110.675781 -51.191406 107.96875 -54.203125 C 105.257812 -57.222656 100.441406 -59.9375 93.515625 -62.34375 C 86.585938 -64.75 77.097656 -67.257812 65.046875 -69.875 C 53.003906 -72.6875 43.46875 -76.148438 36.4375 -80.265625 C 29.414062 -84.378906 24.394531 -89.296875 21.375 -95.015625 C 18.363281 -100.742188 16.859375 -107.21875 16.859375 -114.4375 C 16.859375 -121.875 19.066406 -129.054688 23.484375 -135.984375 C 27.898438 -142.910156 34.375 -148.582031 42.90625 -153 C 51.445312 -157.414062 62.140625 -159.625 74.984375 -159.625 C 85.429688 -159.625 94.367188 -158.316406 101.796875 -155.703125 C 109.222656 -153.097656 115.34375 -149.835938 120.15625 -145.921875 C 124.976562 -142.003906 128.59375 -138.132812 131 -134.3125 C 133.414062 -130.5 134.722656 -127.289062 134.921875 -124.6875 C 135.117188 -122.675781 134.515625 -121.019531 133.109375 -119.71875 C 131.710938 -118.414062 130.109375 -117.765625 128.296875 -117.765625 L 115.65625 -117.765625 C 114.25 -117.765625 113.09375 -118.0625 112.1875 -118.65625 C 111.28125 -119.257812 110.425781 -119.960938 109.625 -120.765625 C 107.613281 -123.378906 105.253906 -125.988281 102.546875 -128.59375 C 99.835938 -131.207031 96.320312 -133.367188 92 -135.078125 C 87.6875 -136.785156 82.015625 -137.640625 74.984375 -137.640625 C 64.953125 -137.640625 57.425781 -135.53125 52.40625 -131.3125 C 47.382812 -127.09375 44.875 -121.769531 44.875 -115.34375 C 44.875 -111.53125 45.976562 -108.117188 48.1875 -105.109375 C 50.394531 -102.097656 54.609375 -99.382812 60.828125 -96.96875 C 67.054688 -94.5625 76.296875 -91.953125 88.546875 -89.140625 C 101.796875 -86.535156 112.234375 -83.023438 119.859375 -78.609375 C 127.492188 -74.191406 132.914062 -69.070312 136.125 -63.25 C 139.34375 -57.425781 140.953125 -50.695312 140.953125 -43.0625 C 140.953125 -34.632812 138.539062 -26.90625 133.71875 -19.875 C 128.894531 -12.851562 121.664062 -7.28125 112.03125 -3.15625 C 102.394531 0.957031 90.550781 3.015625 76.5 3.015625 Z M 76.5 3.015625 "/></g></g></g><g fill="#141414" fill-opacity="1"><g transform="translate(1018.833119, 453.272155)"><g><path d="M 76.5 3.015625 C 65.25 3.015625 55.609375 1.609375 47.578125 -1.203125 C 39.546875 -4.015625 33.019531 -7.425781 28 -11.4375 C 22.988281 -15.457031 19.226562 -19.472656 16.71875 -23.484375 C 14.207031 -27.503906 12.851562 -30.71875 12.65625 -33.125 C 12.445312 -35.332031 13.144531 -37.039062 14.75 -38.25 C 16.363281 -39.457031 17.972656 -40.0625 19.578125 -40.0625 L 33.125 -40.0625 C 34.132812 -40.0625 34.988281 -39.910156 35.6875 -39.609375 C 36.394531 -39.304688 37.347656 -38.453125 38.546875 -37.046875 C 41.160156 -34.234375 44.070312 -31.421875 47.28125 -28.609375 C 50.5 -25.796875 54.460938 -23.484375 59.171875 -21.671875 C 63.890625 -19.867188 69.765625 -18.96875 76.796875 -18.96875 C 87.035156 -18.96875 95.46875 -20.925781 102.09375 -24.84375 C 108.71875 -28.757812 112.03125 -34.53125 112.03125 -42.15625 C 112.03125 -47.175781 110.675781 -51.191406 107.96875 -54.203125 C 105.257812 -57.222656 100.441406 -59.9375 93.515625 -62.34375 C 86.585938 -64.75 77.097656 -67.257812 65.046875 -69.875 C 53.003906 -72.6875 43.46875 -76.148438 36.4375 -80.265625 C 29.414062 -84.378906 24.394531 -89.296875 21.375 -95.015625 C 18.363281 -100.742188 16.859375 -107.21875 16.859375 -114.4375 C 16.859375 -121.875 19.066406 -129.054688 23.484375 -135.984375 C 27.898438 -142.910156 34.375 -148.582031 42.90625 -153 C 51.445312 -157.414062 62.140625 -159.625 74.984375 -159.625 C 85.429688 -159.625 94.367188 -158.316406 101.796875 -155.703125 C 109.222656 -153.097656 115.34375 -149.835938 120.15625 -145.921875 C 124.976562 -142.003906 128.59375 -138.132812 131 -134.3125 C 133.414062 -130.5 134.722656 -127.289062 134.921875 -124.6875 C 135.117188 -122.675781 134.515625 -121.019531 133.109375 -119.71875 C 131.710938 -118.414062 130.109375 -117.765625 128.296875 -117.765625 L 115.65625 -117.765625 C 114.25 -117.765625 113.09375 -118.0625 112.1875 -118.65625 C 111.28125 -119.257812 110.425781 -119.960938 109.625 -120.765625 C 107.613281 -123.378906 105.253906 -125.988281 102.546875 -128.59375 C 99.835938 -131.207031 96.320312 -133.367188 92 -135.078125 C 87.6875 -136.785156 82.015625 -137.640625 74.984375 -137.640625 C 64.953125 -137.640625 57.425781 -135.53125 52.40625 -131.3125 C 47.382812 -127.09375 44.875 -121.769531 44.875 -115.34375 C 44.875 -111.53125 45.976562 -108.117188 48.1875 -105.109375 C 50.394531 -102.097656 54.609375 -99.382812 60.828125 -96.96875 C 67.054688 -94.5625 76.296875 -91.953125 88.546875 -89.140625 C 101.796875 -86.535156 112.234375 -83.023438 119.859375 -78.609375 C 127.492188 -74.191406 132.914062 -69.070312 136.125 -63.25 C 139.34375 -57.425781 140.953125 -50.695312 140.953125 -43.0625 C 140.953125 -34.632812 138.539062 -26.90625 133.71875 -19.875 C 128.894531 -12.851562 121.664062 -7.28125 112.03125 -3.15625 C 102.394531 0.957031 90.550781 3.015625 76.5 3.015625 Z M 76.5 3.015625 "/></g></g></g></svg>