<svg xmlns="http://www.w3.org/2000/svg" xmlns:xlink="http://www.w3.org/1999/xlink" width="1600" zoomAndPan="magnify" viewBox="0 0 1200 675.000002" height="900" preserveAspectRatio="xMidYMid meet" version="1.0"><defs><g/><clipPath id="78d60d2074"><path d="M 8.746094 133.335938 L 456.101562 133.335938 L 456.101562 580.6875 L 8.746094 580.6875 Z M 8.746094 133.335938 " clip-rule="nonzero"/></clipPath><clipPath id="266a72b110"><path d="M 232.425781 133.335938 C 108.890625 133.335938 8.746094 233.480469 8.746094 357.011719 C 8.746094 480.546875 108.890625 580.6875 232.425781 580.6875 C 355.957031 580.6875 456.101562 480.546875 456.101562 357.011719 C 456.101562 233.480469 355.957031 133.335938 232.425781 133.335938 Z M 232.425781 133.335938 " clip-rule="nonzero"/></clipPath><clipPath id="285cbb40e8"><path d="M 29.089844 101.746094 L 476.441406 101.746094 L 476.441406 549.097656 L 29.089844 549.097656 Z M 29.089844 101.746094 " clip-rule="nonzero"/></clipPath><clipPath id="be7a1e0438"><path d="M 252.765625 101.746094 C 129.230469 101.746094 29.089844 201.886719 29.089844 325.421875 C 29.089844 448.953125 129.230469 549.097656 252.765625 549.097656 C 376.296875 549.097656 476.441406 448.953125 476.441406 325.421875 C 476.441406 201.886719 376.296875 101.746094 252.765625 101.746094 Z M 252.765625 101.746094 " clip-rule="nonzero"/></clipPath></defs><g clip-path="url(#78d60d2074)"><g clip-path="url(#266a72b110)"><path fill="#787df1" d="M 8.746094 133.335938 L 456.101562 133.335938 L 456.101562 580.6875 L 8.746094 580.6875 Z M 8.746094 133.335938 " fill-opacity="1" fill-rule="nonzero"/></g></g><g clip-path="url(#285cbb40e8)"><g clip-path="url(#be7a1e0438)"><path fill="#99d1ff" d="M 29.089844 101.746094 L 476.441406 101.746094 L 476.441406 549.097656 L 29.089844 549.097656 Z M 29.089844 101.746094 " fill-opacity="1" fill-rule="nonzero"/></g></g><g fill="#ffffff" fill-opacity="1"><g transform="translate(72.695824, 582.521661)"><g><path d="M 230 -256 C 252.0625 -256 269 -261.117188 280.8125 -271.359375 C 292.625 -281.597656 298.53125 -297.21875 298.53125 -318.21875 C 298.53125 -338.175781 292.359375 -353.535156 280.015625 -364.296875 C 267.679688 -375.066406 249.695312 -380.453125 226.0625 -380.453125 C 217.664062 -380.453125 210.707031 -380.320312 205.1875 -380.0625 C 199.675781 -379.800781 194.03125 -379.144531 188.25 -378.09375 L 188.25 -256 Z M 189.046875 -3.15625 C 183.265625 -1.570312 174.203125 0.00390625 161.859375 1.578125 C 149.523438 3.148438 137.320312 3.9375 125.25 3.9375 C 113.164062 3.9375 102.53125 3.015625 93.34375 1.171875 C 84.15625 -0.660156 76.410156 -3.9375 70.109375 -8.65625 C 63.804688 -13.382812 59.078125 -19.945312 55.921875 -28.34375 C 52.773438 -36.75 51.203125 -47.78125 51.203125 -61.4375 L 51.203125 -432.4375 C 51.203125 -443.46875 54.21875 -452 60.25 -458.03125 C 66.289062 -464.070312 74.5625 -468.929688 85.0625 -472.609375 C 102.925781 -478.910156 123.273438 -483.503906 146.109375 -486.390625 C 168.953125 -489.285156 191.925781 -490.734375 215.03125 -490.734375 C 287.5 -490.734375 342.898438 -475.238281 381.234375 -444.25 C 419.566406 -413.269531 438.734375 -371.257812 438.734375 -318.21875 C 438.734375 -292.488281 434.664062 -269.253906 426.53125 -248.515625 C 418.394531 -227.773438 406.316406 -209.921875 390.296875 -194.953125 C 374.285156 -179.984375 354.066406 -168.425781 329.640625 -160.28125 C 305.222656 -152.144531 277 -148.078125 244.96875 -148.078125 L 189.046875 -148.078125 Z M 189.046875 -3.15625 "/></g></g></g><g fill="#373636" fill-opacity="1"><g transform="translate(530.402597, 408.379407)"><g><path d="M 97.59375 -30.625 C 97.59375 -19.925781 93.578125 -11.546875 85.546875 -5.484375 C 77.523438 0.566406 65.695312 3.59375 50.0625 3.59375 C 44.144531 3.59375 38.648438 3.171875 33.578125 2.328125 C 28.515625 1.484375 24.1875 0.179688 20.59375 -1.578125 C 17 -3.335938 14.179688 -5.554688 12.140625 -8.234375 C 10.097656 -10.910156 9.078125 -14.082031 9.078125 -17.75 C 9.078125 -21.125 9.78125 -23.972656 11.1875 -26.296875 C 12.601562 -28.617188 14.296875 -30.554688 16.265625 -32.109375 C 20.347656 -29.859375 25.03125 -27.851562 30.3125 -26.09375 C 35.59375 -24.332031 41.679688 -23.453125 48.578125 -23.453125 C 52.941406 -23.453125 56.285156 -24.082031 58.609375 -25.34375 C 60.941406 -26.613281 62.109375 -28.304688 62.109375 -30.421875 C 62.109375 -32.390625 61.257812 -33.9375 59.5625 -35.0625 C 57.875 -36.1875 55.0625 -37.101562 51.125 -37.8125 L 44.78125 -39.078125 C 32.53125 -41.472656 23.410156 -45.238281 17.421875 -50.375 C 11.441406 -55.519531 8.453125 -62.878906 8.453125 -72.453125 C 8.453125 -77.660156 9.578125 -82.375 11.828125 -86.59375 C 14.078125 -90.820312 17.242188 -94.34375 21.328125 -97.15625 C 25.410156 -99.976562 30.304688 -102.164062 36.015625 -103.71875 C 41.722656 -105.269531 48.023438 -106.046875 54.921875 -106.046875 C 60.128906 -106.046875 65.019531 -105.65625 69.59375 -104.875 C 74.175781 -104.101562 78.15625 -102.941406 81.53125 -101.390625 C 84.914062 -99.835938 87.59375 -97.828125 89.5625 -95.359375 C 91.53125 -92.898438 92.515625 -89.984375 92.515625 -86.609375 C 92.515625 -83.367188 91.914062 -80.585938 90.71875 -78.265625 C 89.519531 -75.941406 88.007812 -74.003906 86.1875 -72.453125 C 85.0625 -73.160156 83.367188 -73.898438 81.109375 -74.671875 C 78.859375 -75.441406 76.394531 -76.144531 73.71875 -76.78125 C 71.039062 -77.414062 68.328125 -77.941406 65.578125 -78.359375 C 62.835938 -78.785156 60.34375 -79 58.09375 -79 C 53.445312 -79 49.851562 -78.46875 47.3125 -77.40625 C 44.78125 -76.351562 43.515625 -74.703125 43.515625 -72.453125 C 43.515625 -70.898438 44.21875 -69.628906 45.625 -68.640625 C 47.03125 -67.660156 49.707031 -66.75 53.65625 -65.90625 L 60.203125 -64.421875 C 73.722656 -61.328125 83.332031 -57.066406 89.03125 -51.640625 C 94.738281 -46.222656 97.59375 -39.21875 97.59375 -30.625 Z M 97.59375 -30.625 "/></g></g></g><g fill="#373636" fill-opacity="1"><g transform="translate(634.325829, 408.379407)"><g><path d="M 27.03125 -26.1875 C 25.488281 -29.707031 23.835938 -33.648438 22.078125 -38.015625 C 20.316406 -42.390625 18.484375 -47.390625 16.578125 -53.015625 C 14.679688 -58.648438 12.710938 -65.09375 10.671875 -72.34375 C 8.628906 -79.59375 6.476562 -87.9375 4.21875 -97.375 C 6.195312 -99.351562 8.835938 -101.078125 12.140625 -102.546875 C 15.453125 -104.023438 19.082031 -104.765625 23.03125 -104.765625 C 27.957031 -104.765625 32.039062 -103.742188 35.28125 -101.703125 C 38.519531 -99.660156 40.910156 -95.828125 42.453125 -90.203125 L 59.140625 -32.109375 L 59.984375 -32.109375 C 61.679688 -36.898438 63.335938 -42.109375 64.953125 -47.734375 C 66.578125 -53.367188 68.160156 -59.175781 69.703125 -65.15625 C 71.253906 -71.144531 72.695312 -77.128906 74.03125 -83.109375 C 75.375 -89.097656 76.535156 -94.984375 77.515625 -100.765625 C 82.585938 -103.429688 88.148438 -104.765625 94.203125 -104.765625 C 99.140625 -104.765625 103.226562 -103.707031 106.46875 -101.59375 C 109.707031 -99.488281 111.328125 -95.832031 111.328125 -90.625 C 111.328125 -86.820312 110.832031 -82.421875 109.84375 -77.421875 C 108.851562 -72.421875 107.546875 -67.101562 105.921875 -61.46875 C 104.304688 -55.832031 102.40625 -50.019531 100.21875 -44.03125 C 98.039062 -38.050781 95.753906 -32.175781 93.359375 -26.40625 C 90.972656 -20.632812 88.507812 -15.175781 85.96875 -10.03125 C 83.4375 -4.894531 80.972656 -0.285156 78.578125 3.796875 C 74.640625 10.703125 70.976562 16.335938 67.59375 20.703125 C 64.21875 25.066406 60.976562 28.476562 57.875 30.9375 C 54.78125 33.40625 51.679688 35.097656 48.578125 36.015625 C 45.484375 36.929688 42.242188 37.390625 38.859375 37.390625 C 32.953125 37.390625 28.164062 35.628906 24.5 32.109375 C 20.84375 28.585938 18.660156 24.007812 17.953125 18.375 C 22.460938 14.851562 26.96875 10.945312 31.46875 6.65625 C 35.976562 2.363281 40.0625 -2.035156 43.71875 -6.546875 C 41.332031 -7.253906 38.765625 -8.910156 36.015625 -11.515625 C 33.265625 -14.117188 30.269531 -19.007812 27.03125 -26.1875 Z M 27.03125 -26.1875 "/></g></g></g><g fill="#373636" fill-opacity="1"><g transform="translate(750.711402, 408.379407)"><g><path d="M 76.046875 -65.0625 C 76.046875 -69.425781 74.8125 -72.628906 72.34375 -74.671875 C 69.882812 -76.710938 66.539062 -77.734375 62.3125 -77.734375 C 59.5 -77.734375 56.71875 -77.378906 53.96875 -76.671875 C 51.21875 -75.972656 48.859375 -74.921875 46.890625 -73.515625 L 46.890625 -0.21875 C 45.484375 0.207031 43.265625 0.628906 40.234375 1.046875 C 37.210938 1.472656 34.082031 1.6875 30.84375 1.6875 C 27.738281 1.6875 24.953125 1.472656 22.484375 1.046875 C 20.023438 0.628906 17.953125 -0.207031 16.265625 -1.46875 C 14.578125 -2.738281 13.273438 -4.460938 12.359375 -6.640625 C 11.441406 -8.828125 10.984375 -11.679688 10.984375 -15.203125 L 10.984375 -78.578125 C 10.984375 -82.378906 11.789062 -85.476562 13.40625 -87.875 C 15.03125 -90.269531 17.25 -92.453125 20.0625 -94.421875 C 24.851562 -97.796875 30.875 -100.539062 38.125 -102.65625 C 45.375 -104.769531 53.4375 -105.828125 62.3125 -105.828125 C 78.226562 -105.828125 90.476562 -102.34375 99.0625 -95.375 C 107.65625 -88.40625 111.953125 -78.722656 111.953125 -66.328125 L 111.953125 -0.21875 C 110.546875 0.207031 108.328125 0.628906 105.296875 1.046875 C 102.273438 1.472656 99.144531 1.6875 95.90625 1.6875 C 92.800781 1.6875 90.015625 1.472656 87.546875 1.046875 C 85.085938 0.628906 83.015625 -0.207031 81.328125 -1.46875 C 79.640625 -2.738281 78.335938 -4.460938 77.421875 -6.640625 C 76.503906 -8.828125 76.046875 -11.679688 76.046875 -15.203125 Z M 76.046875 -65.0625 "/></g></g></g><g fill="#373636" fill-opacity="1"><g transform="translate(873.856208, 408.379407)"><g><path d="M 65.265625 3.375 C 56.960938 3.375 49.253906 2.210938 42.140625 -0.109375 C 35.023438 -2.429688 28.828125 -5.914062 23.546875 -10.5625 C 18.265625 -15.207031 14.109375 -21.050781 11.078125 -28.09375 C 8.054688 -35.132812 6.546875 -43.375 6.546875 -52.8125 C 6.546875 -62.101562 8.054688 -70.09375 11.078125 -76.78125 C 14.109375 -83.46875 18.085938 -88.957031 23.015625 -93.25 C 27.953125 -97.550781 33.585938 -100.722656 39.921875 -102.765625 C 46.253906 -104.804688 52.734375 -105.828125 59.359375 -105.828125 C 66.816406 -105.828125 73.609375 -104.695312 79.734375 -102.4375 C 85.859375 -100.1875 91.140625 -97.085938 95.578125 -93.140625 C 100.015625 -89.203125 103.460938 -84.488281 105.921875 -79 C 108.390625 -73.507812 109.625 -67.523438 109.625 -61.046875 C 109.625 -56.253906 108.285156 -52.59375 105.609375 -50.0625 C 102.941406 -47.53125 99.210938 -45.910156 94.421875 -45.203125 L 42.25 -37.390625 C 43.800781 -32.742188 46.96875 -29.257812 51.75 -26.9375 C 56.539062 -24.613281 62.035156 -23.453125 68.234375 -23.453125 C 74.003906 -23.453125 79.457031 -24.191406 84.59375 -25.671875 C 89.738281 -27.148438 93.929688 -28.875 97.171875 -30.84375 C 99.421875 -29.4375 101.316406 -27.460938 102.859375 -24.921875 C 104.410156 -22.390625 105.1875 -19.71875 105.1875 -16.90625 C 105.1875 -10.5625 102.234375 -5.84375 96.328125 -2.75 C 91.816406 -0.351562 86.742188 1.265625 81.109375 2.109375 C 75.484375 2.953125 70.203125 3.375 65.265625 3.375 Z M 59.359375 -79.640625 C 55.972656 -79.640625 53.046875 -79.070312 50.578125 -77.9375 C 48.117188 -76.8125 46.113281 -75.367188 44.5625 -73.609375 C 43.019531 -71.847656 41.859375 -69.875 41.078125 -67.6875 C 40.304688 -65.507812 39.851562 -63.296875 39.71875 -61.046875 L 75.828125 -66.96875 C 75.410156 -69.78125 73.863281 -72.59375 71.1875 -75.40625 C 68.507812 -78.226562 64.566406 -79.640625 59.359375 -79.640625 Z M 59.359375 -79.640625 "/></g></g></g><g fill="#373636" fill-opacity="1"><g transform="translate(989.819315, 408.379407)"><g><path d="M 97.59375 -30.625 C 97.59375 -19.925781 93.578125 -11.546875 85.546875 -5.484375 C 77.523438 0.566406 65.695312 3.59375 50.0625 3.59375 C 44.144531 3.59375 38.648438 3.171875 33.578125 2.328125 C 28.515625 1.484375 24.1875 0.179688 20.59375 -1.578125 C 17 -3.335938 14.179688 -5.554688 12.140625 -8.234375 C 10.097656 -10.910156 9.078125 -14.082031 9.078125 -17.75 C 9.078125 -21.125 9.78125 -23.972656 11.1875 -26.296875 C 12.601562 -28.617188 14.296875 -30.554688 16.265625 -32.109375 C 20.347656 -29.859375 25.03125 -27.851562 30.3125 -26.09375 C 35.59375 -24.332031 41.679688 -23.453125 48.578125 -23.453125 C 52.941406 -23.453125 56.285156 -24.082031 58.609375 -25.34375 C 60.941406 -26.613281 62.109375 -28.304688 62.109375 -30.421875 C 62.109375 -32.390625 61.257812 -33.9375 59.5625 -35.0625 C 57.875 -36.1875 55.0625 -37.101562 51.125 -37.8125 L 44.78125 -39.078125 C 32.53125 -41.472656 23.410156 -45.238281 17.421875 -50.375 C 11.441406 -55.519531 8.453125 -62.878906 8.453125 -72.453125 C 8.453125 -77.660156 9.578125 -82.375 11.828125 -86.59375 C 14.078125 -90.820312 17.242188 -94.34375 21.328125 -97.15625 C 25.410156 -99.976562 30.304688 -102.164062 36.015625 -103.71875 C 41.722656 -105.269531 48.023438 -106.046875 54.921875 -106.046875 C 60.128906 -106.046875 65.019531 -105.65625 69.59375 -104.875 C 74.175781 -104.101562 78.15625 -102.941406 81.53125 -101.390625 C 84.914062 -99.835938 87.59375 -97.828125 89.5625 -95.359375 C 91.53125 -92.898438 92.515625 -89.984375 92.515625 -86.609375 C 92.515625 -83.367188 91.914062 -80.585938 90.71875 -78.265625 C 89.519531 -75.941406 88.007812 -74.003906 86.1875 -72.453125 C 85.0625 -73.160156 83.367188 -73.898438 81.109375 -74.671875 C 78.859375 -75.441406 76.394531 -76.144531 73.71875 -76.78125 C 71.039062 -77.414062 68.328125 -77.941406 65.578125 -78.359375 C 62.835938 -78.785156 60.34375 -79 58.09375 -79 C 53.445312 -79 49.851562 -78.46875 47.3125 -77.40625 C 44.78125 -76.351562 43.515625 -74.703125 43.515625 -72.453125 C 43.515625 -70.898438 44.21875 -69.628906 45.625 -68.640625 C 47.03125 -67.660156 49.707031 -66.75 53.65625 -65.90625 L 60.203125 -64.421875 C 73.722656 -61.328125 83.332031 -57.066406 89.03125 -51.640625 C 94.738281 -46.222656 97.59375 -39.21875 97.59375 -30.625 Z M 97.59375 -30.625 "/></g></g></g><g fill="#373636" fill-opacity="1"><g transform="translate(1093.742547, 408.379407)"><g><path d="M 97.59375 -30.625 C 97.59375 -19.925781 93.578125 -11.546875 85.546875 -5.484375 C 77.523438 0.566406 65.695312 3.59375 50.0625 3.59375 C 44.144531 3.59375 38.648438 3.171875 33.578125 2.328125 C 28.515625 1.484375 24.1875 0.179688 20.59375 -1.578125 C 17 -3.335938 14.179688 -5.554688 12.140625 -8.234375 C 10.097656 -10.910156 9.078125 -14.082031 9.078125 -17.75 C 9.078125 -21.125 9.78125 -23.972656 11.1875 -26.296875 C 12.601562 -28.617188 14.296875 -30.554688 16.265625 -32.109375 C 20.347656 -29.859375 25.03125 -27.851562 30.3125 -26.09375 C 35.59375 -24.332031 41.679688 -23.453125 48.578125 -23.453125 C 52.941406 -23.453125 56.285156 -24.082031 58.609375 -25.34375 C 60.941406 -26.613281 62.109375 -28.304688 62.109375 -30.421875 C 62.109375 -32.390625 61.257812 -33.9375 59.5625 -35.0625 C 57.875 -36.1875 55.0625 -37.101562 51.125 -37.8125 L 44.78125 -39.078125 C 32.53125 -41.472656 23.410156 -45.238281 17.421875 -50.375 C 11.441406 -55.519531 8.453125 -62.878906 8.453125 -72.453125 C 8.453125 -77.660156 9.578125 -82.375 11.828125 -86.59375 C 14.078125 -90.820312 17.242188 -94.34375 21.328125 -97.15625 C 25.410156 -99.976562 30.304688 -102.164062 36.015625 -103.71875 C 41.722656 -105.269531 48.023438 -106.046875 54.921875 -106.046875 C 60.128906 -106.046875 65.019531 -105.65625 69.59375 -104.875 C 74.175781 -104.101562 78.15625 -102.941406 81.53125 -101.390625 C 84.914062 -99.835938 87.59375 -97.828125 89.5625 -95.359375 C 91.53125 -92.898438 92.515625 -89.984375 92.515625 -86.609375 C 92.515625 -83.367188 91.914062 -80.585938 90.71875 -78.265625 C 89.519531 -75.941406 88.007812 -74.003906 86.1875 -72.453125 C 85.0625 -73.160156 83.367188 -73.898438 81.109375 -74.671875 C 78.859375 -75.441406 76.394531 -76.144531 73.71875 -76.78125 C 71.039062 -77.414062 68.328125 -77.941406 65.578125 -78.359375 C 62.835938 -78.785156 60.34375 -79 58.09375 -79 C 53.445312 -79 49.851562 -78.46875 47.3125 -77.40625 C 44.78125 -76.351562 43.515625 -74.703125 43.515625 -72.453125 C 43.515625 -70.898438 44.21875 -69.628906 45.625 -68.640625 C 47.03125 -67.660156 49.707031 -66.75 53.65625 -65.90625 L 60.203125 -64.421875 C 73.722656 -61.328125 83.332031 -57.066406 89.03125 -51.640625 C 94.738281 -46.222656 97.59375 -39.21875 97.59375 -30.625 Z M 97.59375 -30.625 "/></g></g></g></svg>