<svg version="1.1" id="Layer_1" xmlns="http://www.w3.org/2000/svg" xmlns:xlink="http://www.w3.org/1999/xlink" x="0px" y="0px"
	 width="100%" viewBox="0 0 719 537" enable-background="new 0 0 719 537" xml:space="preserve">
<path fill="#FFFEFE" opacity="1.000000" stroke="none" 
	d="
M442.000000,538.000000 
	C294.666687,538.000000 147.833389,538.000000 1.000059,538.000000 
	C1.000039,359.000061 1.000039,180.000122 1.000020,1.000131 
	C240.666565,1.000087 480.333130,1.000087 719.999756,1.000044 
	C719.999878,179.999863 719.999878,358.999725 719.999939,537.999756 
	C627.500000,538.000000 535.000000,538.000000 442.000000,538.000000 
M408.437195,218.948212 
	C408.270264,219.028809 408.103302,219.109406 407.291840,218.905457 
	C406.287903,218.335312 405.335419,217.635422 404.272583,217.213684 
	C356.723846,198.345505 307.860687,194.178238 257.842804,204.667160 
	C229.900803,210.526688 203.770599,220.975174 179.573914,236.896896 
	C176.956711,227.630142 171.369232,221.279358 162.129349,217.908783 
	C160.227951,217.215195 158.198700,214.264908 157.926147,212.137314 
	C156.186371,198.556168 150.612915,186.830017 142.687714,175.786621 
	C138.211594,169.549362 135.671265,162.273880 137.611725,154.084854 
	C138.984421,148.291794 139.617126,142.326675 140.685471,136.457535 
	C142.929688,124.128456 142.527618,112.221313 134.758499,101.665474 
	C128.039932,92.537010 111.373222,88.009399 102.187973,102.034203 
	C99.354301,106.360886 96.715782,111.656784 96.435051,116.646584 
	C95.759315,128.657059 91.336357,139.126602 86.391968,149.739792 
	C81.890892,159.401382 78.222885,169.607559 81.092415,180.555817 
	C82.513931,185.979385 86.232803,191.033234 86.664101,196.433884 
	C87.475784,206.597473 86.874115,216.900085 86.456245,227.128387 
	C86.035461,237.428253 84.562103,247.801163 89.295303,257.546051 
	C95.778145,270.893158 100.737160,285.262024 114.423561,294.778839 
	C107.507965,294.478699 102.855927,292.356598 98.902519,287.658813 
	C93.830696,281.631897 87.048325,280.365021 80.951385,283.238678 
	C75.283867,285.909912 71.053123,293.651855 72.223259,300.393250 
	C76.336639,324.091248 85.095192,345.398315 104.387321,361.096710 
	C104.647598,361.308533 104.551056,361.958801 104.620552,362.401276 
	C91.299103,364.848724 86.947433,372.498322 91.987480,385.155090 
	C96.247993,395.854187 103.034012,404.974945 111.983513,412.128845 
	C117.583054,416.604889 123.130798,421.834656 131.592178,422.435669 
	C132.915741,424.520142 134.192062,426.636475 135.571274,428.683441 
	C140.851746,436.520386 146.432556,444.170563 151.380249,452.211090 
	C155.206390,458.428986 157.905426,465.338928 161.712662,471.570251 
	C175.024963,493.358551 194.131897,507.648651 219.867462,508.582581 
	C239.254211,509.286133 258.710968,505.738007 276.263519,495.872498 
	C278.114807,494.832001 280.654144,494.314117 282.766083,494.544739 
	C311.681244,497.701630 340.282562,495.884033 368.695007,489.824341 
	C370.710144,489.394531 373.905548,490.048645 375.210297,491.449036 
	C384.820587,501.763336 397.397034,505.357544 410.567261,507.137268 
	C425.298523,509.127930 438.951599,506.597992 448.841919,494.105682 
	C450.942749,491.452148 452.892242,491.042389 456.022736,491.587311 
	C491.091644,497.691742 525.400085,494.922577 558.629700,481.881012 
	C573.636719,475.991211 587.367920,467.850800 598.332886,455.760925 
	C601.636780,452.118164 604.305481,447.899353 607.190002,444.044739 
	C610.371399,446.197876 613.188904,448.722260 616.478333,450.186584 
	C621.431885,452.391754 626.641235,455.052795 631.874634,455.377197 
	C641.769531,455.990540 649.596680,444.491699 647.433228,433.637756 
	C644.889771,420.877472 638.949646,409.857605 629.664429,400.739197 
	C623.140747,394.332672 615.533081,390.282776 606.031677,390.702423 
	C605.027405,390.746735 603.680420,390.330383 603.018250,389.630402 
	C598.945068,385.324921 595.023132,380.876434 591.371216,376.830444 
	C595.754272,373.358154 600.474670,370.388397 604.237183,366.493378 
	C615.475952,354.858704 623.827576,341.497345 624.280884,324.779022 
	C624.641846,311.469177 613.426697,302.606628 600.803528,306.796906 
	C586.961121,311.391998 576.419800,320.828644 571.668945,334.906738 
	C568.847778,343.266541 568.072510,352.316681 566.344727,361.225037 
	C547.624146,352.173615 526.810547,347.481598 505.084656,345.796936 
	C504.913544,343.652954 504.770630,341.862335 504.909332,339.467102 
	C505.002655,339.031281 505.095978,338.595428 505.880341,338.050995 
	C518.507385,331.141785 527.562988,321.297272 531.830017,307.263916 
	C533.903259,300.445251 536.409790,293.747620 538.961914,287.087769 
	C542.508240,277.833252 545.195068,268.619690 543.058533,258.456879 
	C539.956299,243.700195 525.584412,235.322937 511.536957,240.854111 
	C507.337524,242.507629 503.607300,245.352768 498.628021,248.254623 
	C498.975067,245.693100 498.834106,243.597778 499.564301,241.870834 
	C503.315582,232.999161 507.320435,224.235138 511.181458,215.409332 
	C518.302429,199.131760 521.416565,182.758087 512.561584,165.985840 
	C511.595245,164.155426 511.016785,161.802811 511.161377,159.756210 
	C511.948730,148.612808 509.800659,137.845779 506.730194,127.324791 
	C502.533142,112.943741 494.027252,101.735168 479.941956,95.646515 
	C467.482056,90.260445 455.045715,93.672668 447.210938,104.450027 
	C442.481079,110.956352 441.780731,118.599266 441.992432,126.349983 
	C442.155548,132.320847 442.957275,138.314941 442.613159,144.248734 
	C442.179535,151.725830 438.752594,158.240448 434.317871,164.232681 
	C426.307831,175.055847 422.924255,186.950867 425.744812,200.424072 
	C426.041809,201.842819 424.695221,204.051193 423.481445,205.261810 
	C418.789368,209.941498 413.842010,214.365265 408.437195,218.948212 
M233.810791,104.758278 
	C247.014923,109.281563 260.224884,113.787910 273.420074,118.337196 
	C278.131195,119.961441 282.431915,117.924492 284.673218,112.859329 
	C286.422424,108.906197 288.164551,104.949341 289.853485,100.970245 
	C294.466034,90.103500 299.269592,79.298683 300.292847,67.310242 
	C301.098785,57.867970 296.213318,49.475586 287.288513,45.136326 
	C279.754211,41.473133 270.464966,43.068550 263.878113,49.602306 
	C261.102783,52.355267 258.976593,55.762646 256.443512,59.016117 
	C255.937286,58.789227 255.323517,58.575008 254.769501,58.256763 
	C245.464691,52.911819 235.881531,52.917572 226.728531,58.014427 
	C217.305817,63.261475 214.121262,72.316002 214.601410,82.611427 
	C215.154068,94.461746 223.334137,100.225266 233.810791,104.758278 
M386.205719,79.263626 
	C386.945892,80.161285 387.792816,80.991661 388.408234,81.967957 
	C391.473389,86.830261 395.429962,88.126831 400.699921,85.478310 
	C407.353760,82.134293 414.420746,79.490204 420.716644,75.587685 
	C428.227844,70.931862 433.897125,64.403481 435.267120,55.119507 
	C435.980347,50.286419 434.934418,45.633911 430.370575,43.628151 
	C425.780518,41.610874 420.560303,41.027378 414.784729,39.611786 
	C413.986420,38.438198 412.777405,35.736362 410.776306,33.895626 
	C405.185577,28.752975 392.583069,27.606197 385.718140,31.226982 
	C378.600922,34.980824 374.582916,43.465996 375.591400,52.400082 
	C376.682495,62.065594 380.986084,70.463356 386.205719,79.263626 
M411.753357,129.825073 
	C405.031921,125.290161 402.176483,125.983910 392.267151,134.643234 
	C391.631500,134.199112 390.902008,133.796387 390.301147,133.251740 
	C387.099243,130.349289 383.600189,128.887100 379.377258,130.943207 
	C374.778839,133.182129 373.004364,137.044632 373.213562,141.972488 
	C373.494141,148.580368 377.079498,153.461243 381.475525,157.988098 
	C385.116272,161.737244 391.405975,162.571487 395.280914,159.195923 
	C400.174957,154.932632 405.096680,150.623062 409.422211,145.808533 
	C413.306030,141.485657 415.934845,136.369339 411.753357,129.825073 
z"/>
<path fill="#81333A" opacity="1.000000" stroke="none" 
	d="
M180.196442,237.352097 
	C203.770599,220.975174 229.900803,210.526688 257.842804,204.667160 
	C307.860687,194.178238 356.723846,198.345505 404.272583,217.213684 
	C405.335419,217.635422 406.287903,218.335312 407.471710,219.339661 
	C404.443207,223.221191 401.234833,226.668549 397.653992,230.083405 
	C396.538269,230.021530 395.795013,229.992157 394.730042,229.786560 
	C388.617737,227.514465 382.938660,225.012253 377.018799,223.387329 
	C332.129395,211.065659 287.247284,210.622299 242.500427,224.146408 
	C203.831497,235.833572 171.507584,256.552124 148.745071,290.678894 
	C136.938766,308.379578 131.195160,328.003082 131.341019,349.176178 
	C131.474915,368.612183 137.445984,386.466675 147.413467,403.109039 
	C150.104736,407.602631 153.052536,410.964386 158.453735,412.318817 
	C162.419479,413.313293 166.417328,415.147369 169.748642,417.522217 
	C179.602539,424.546844 189.547791,431.546814 198.673615,439.460236 
	C207.876755,447.440674 216.746811,455.661377 227.553085,461.559753 
	C230.511246,463.174438 234.643433,465.742249 231.878494,470.160919 
	C229.394760,474.130188 226.051025,471.406555 223.115662,469.949890 
	C210.857758,463.867035 201.034744,454.674347 190.977615,445.619568 
	C183.112610,438.538422 174.538757,432.108398 165.674911,426.314575 
	C158.131226,421.383667 149.739502,417.699524 139.618378,421.037079 
	C152.531967,430.522156 159.586319,443.996643 166.836594,457.270264 
	C174.891052,472.016235 185.846802,483.665955 201.204437,490.889404 
	C208.532043,494.335938 216.114304,496.920776 224.323792,495.938599 
	C242.201019,493.799835 259.963257,491.252594 275.926422,481.834015 
	C278.551392,480.285278 282.178864,479.886047 285.341370,479.891693 
	C300.317932,479.918396 315.329407,481.002350 330.259064,480.278320 
	C342.622498,479.678741 354.889160,477.082947 366.565582,475.459595 
	C367.505188,470.583771 368.104645,466.986908 368.899506,463.433777 
	C372.021851,449.476837 381.117004,439.764465 391.720032,430.994141 
	C405.886993,419.275818 422.204132,413.373169 440.402496,412.929535 
	C452.570953,412.632904 460.860321,421.299408 460.575348,433.393555 
	C460.470154,437.856598 459.591217,442.297791 459.149139,446.757263 
	C458.270111,455.624329 457.449280,464.497131 456.617004,473.235229 
	C483.122681,479.331757 519.354065,476.996765 543.688965,468.275391 
	C558.257996,463.054047 572.091248,456.632507 583.244019,445.644318 
	C597.291199,431.804504 598.828796,410.706421 585.989197,397.597473 
	C579.331726,390.800476 571.403320,384.860535 563.145935,380.099854 
	C546.469177,370.485168 527.962402,366.163818 508.552948,364.145569 
	C506.504272,364.292023 504.270599,364.005798 503.159210,364.988586 
	C500.194977,367.609863 497.282867,367.453857 493.731995,365.794434 
	C492.912201,361.703552 492.405090,357.862915 491.976166,353.695923 
	C492.076172,352.922791 492.097992,352.476074 492.412994,351.867493 
	C494.392456,349.349731 495.808533,346.719116 497.843292,344.717438 
	C499.766754,342.825287 502.340179,341.593811 504.627716,340.071747 
	C504.770630,341.862335 504.913544,343.652954 505.084656,345.796936 
	C526.810547,347.481598 547.624146,352.173615 566.344727,361.225037 
	C568.072510,352.316681 568.847778,343.266541 571.668945,334.906738 
	C576.419800,320.828644 586.961121,311.391998 600.803528,306.796906 
	C613.426697,302.606628 624.641846,311.469177 624.280884,324.779022 
	C623.827576,341.497345 615.475952,354.858704 604.237183,366.493378 
	C600.474670,370.388397 595.754272,373.358154 591.371216,376.830444 
	C595.023132,380.876434 598.945068,385.324921 603.018250,389.630402 
	C603.680420,390.330383 605.027405,390.746735 606.031677,390.702423 
	C615.533081,390.282776 623.140747,394.332672 629.664429,400.739197 
	C638.949646,409.857605 644.889771,420.877472 647.433228,433.637756 
	C649.596680,444.491699 641.769531,455.990540 631.874634,455.377197 
	C626.641235,455.052795 621.431885,452.391754 616.478333,450.186584 
	C613.188904,448.722260 610.371399,446.197876 607.190002,444.044739 
	C604.305481,447.899353 601.636780,452.118164 598.332886,455.760925 
	C587.367920,467.850800 573.636719,475.991211 558.629700,481.881012 
	C525.400085,494.922577 491.091644,497.691742 456.022736,491.587311 
	C452.892242,491.042389 450.942749,491.452148 448.841919,494.105682 
	C438.951599,506.597992 425.298523,509.127930 410.567261,507.137268 
	C397.397034,505.357544 384.820587,501.763336 375.210297,491.449036 
	C373.905548,490.048645 370.710144,489.394531 368.695007,489.824341 
	C340.282562,495.884033 311.681244,497.701630 282.766083,494.544739 
	C280.654144,494.314117 278.114807,494.832001 276.263519,495.872498 
	C258.710968,505.738007 239.254211,509.286133 219.867462,508.582581 
	C194.131897,507.648651 175.024963,493.358551 161.712662,471.570251 
	C157.905426,465.338928 155.206390,458.428986 151.380249,452.211090 
	C146.432556,444.170563 140.851746,436.520386 135.571274,428.683441 
	C134.192062,426.636475 132.915741,424.520142 131.393768,421.783508 
	C131.950165,418.644928 132.835632,416.188171 133.409256,413.660614 
	C133.737503,412.214203 134.080383,410.409729 133.511551,409.187866 
	C131.699188,405.294922 129.462814,401.599426 127.316315,397.458893 
	C125.617729,393.043121 123.993057,388.996124 122.307640,384.553497 
	C121.425621,380.943756 120.428253,377.762604 119.818665,374.508820 
	C118.421967,367.053680 117.214584,359.563080 116.001495,351.640320 
	C116.375237,346.123108 116.677795,341.052521 116.999641,335.557373 
	C117.770927,330.431549 118.522919,325.730225 119.495895,320.741608 
	C120.864029,316.361145 122.011177,312.267944 123.371490,307.889038 
	C124.634735,305.044983 125.635330,302.464966 126.745659,299.933075 
	C128.787933,295.276062 130.894775,290.647400 133.272919,285.851196 
	C136.112213,282.207336 138.653290,278.719116 141.437622,274.995911 
	C149.874023,265.897217 158.067184,257.033508 166.545609,248.001526 
	C170.281174,245.022537 173.731476,242.211838 177.474731,239.287628 
	C178.577240,238.566772 179.386841,237.959427 180.196442,237.352097 
M436.757599,492.363342 
	C443.606293,486.986267 447.322510,480.133606 446.988190,471.235413 
	C446.888641,468.586273 447.048462,465.877563 447.499298,463.266876 
	C448.900665,455.152161 450.067749,446.959534 452.131470,439.006226 
	C454.617340,429.426239 449.016785,421.501160 439.066315,422.182556 
	C433.799072,422.543243 428.490784,423.627441 423.406494,425.096283 
	C406.099152,430.096161 392.250763,440.255524 382.601440,455.352417 
	C373.343842,469.836334 375.714600,482.184418 389.224121,490.166077 
	C399.698242,496.354370 411.415161,499.390808 423.728302,497.346985 
	C428.012115,496.635925 432.036865,494.364288 436.757599,492.363342 
M605.384033,341.762085 
	C607.006470,336.741211 609.251404,331.820831 610.082458,326.672211 
	C610.978088,321.124420 607.190308,318.686798 602.426208,321.616730 
	C592.162292,327.929047 584.297058,336.212219 582.983643,348.979004 
	C582.456055,354.107574 580.789307,359.395599 584.554321,364.391113 
	C594.316101,359.570953 600.128479,351.427979 605.384033,341.762085 
M610.505005,421.749908 
	C614.293213,431.993744 621.524109,438.288788 631.997375,440.986664 
	C637.493225,431.100555 622.054871,407.473724 607.761658,404.234894 
	C608.593384,409.990662 609.389954,415.503052 610.505005,421.749908 
z"/>
<path fill="#FCA2A8" opacity="1.000000" stroke="none" 
	d="
M408.989746,218.884369 
	C413.842010,214.365265 418.789368,209.941498 423.481445,205.261810 
	C424.695221,204.051193 426.041809,201.842819 425.744812,200.424072 
	C422.924255,186.950867 426.307831,175.055847 434.317871,164.232681 
	C438.752594,158.240448 442.179535,151.725830 442.613159,144.248734 
	C442.957275,138.314941 442.155548,132.320847 441.992432,126.349983 
	C441.780731,118.599266 442.481079,110.956352 447.210938,104.450027 
	C455.045715,93.672668 467.482056,90.260445 479.941956,95.646515 
	C494.027252,101.735168 502.533142,112.943741 506.730194,127.324791 
	C509.800659,137.845779 511.948730,148.612808 511.161377,159.756210 
	C511.016785,161.802811 511.595245,164.155426 512.561584,165.985840 
	C521.416565,182.758087 518.302429,199.131760 511.181458,215.409332 
	C507.320435,224.235138 503.315582,232.999161 499.564301,241.870834 
	C498.834106,243.597778 498.975067,245.693100 498.628021,248.254623 
	C503.607300,245.352768 507.337524,242.507629 511.536957,240.854111 
	C525.584412,235.322937 539.956299,243.700195 543.058533,258.456879 
	C545.195068,268.619690 542.508240,277.833252 538.961914,287.087769 
	C536.409790,293.747620 533.903259,300.445251 531.830017,307.263916 
	C527.562988,321.297272 518.507385,331.141785 505.440308,337.674438 
	C505.872681,334.417084 506.071320,331.057068 507.725128,328.732086 
	C519.976562,311.508331 528.320496,292.736877 530.703064,271.636444 
	C531.251160,266.781982 530.954712,261.630585 529.929016,256.855988 
	C528.875183,251.950836 524.258850,250.770233 520.290649,253.887772 
	C518.649536,255.177078 517.402283,257.024384 516.153625,258.746796 
	C510.616150,266.384979 505.257599,274.155945 499.592010,281.696808 
	C497.244873,284.820831 494.290375,287.488525 491.430573,290.558624 
	C488.587097,286.399841 486.362976,283.146912 484.081970,279.583801 
	C483.386047,278.478058 482.746979,277.682556 482.035217,276.549927 
	C480.620514,274.322205 479.586456,272.067108 477.871338,270.618073 
	C474.481293,267.753998 475.610779,265.455719 477.372345,262.120361 
	C482.322540,252.747818 487.900116,243.445496 491.036621,233.428604 
	C498.368073,210.014404 499.255219,185.704071 496.710724,161.466888 
	C494.929382,144.499496 488.841278,128.833801 476.941864,116.066589 
	C474.538483,113.487968 471.508026,111.170631 468.318695,109.713142 
	C461.045746,106.389511 459.604858,107.513153 459.981598,115.672478 
	C461.107422,140.054688 457.301697,163.648895 449.029053,186.576340 
	C446.943787,192.355606 445.478333,198.387589 443.033813,204.001099 
	C439.668396,211.729385 435.756958,219.231308 431.776520,226.668060 
	C431.183472,227.776047 428.496429,228.934189 427.524323,228.478195 
	C421.230804,225.526123 415.144165,222.132965 408.989746,218.884369 
z"/>
<path fill="#FCA0A4" opacity="1.000000" stroke="none" 
	d="
M132.974701,286.006897 
	C130.894775,290.647400 128.787933,295.276062 126.745659,299.933075 
	C125.635330,302.464966 124.634735,305.044983 122.946228,307.850159 
	C119.149460,307.204102 115.773643,306.752075 112.879044,305.324402 
	C107.236862,302.541595 101.881996,299.180359 96.373497,296.121063 
	C92.729233,294.097168 89.614532,295.583313 87.923180,298.682495 
	C86.678833,300.962585 86.037163,304.181458 86.536087,306.703156 
	C89.546204,321.916870 97.363922,334.713196 107.690872,346.010468 
	C109.949783,348.481628 113.158821,350.084290 115.930313,352.086884 
	C117.214584,359.563080 118.421967,367.053680 119.818665,374.508820 
	C120.428253,377.762604 121.425621,380.943756 121.889877,384.566528 
	C119.538551,386.372650 117.193169,387.490143 115.736702,389.316528 
	C115.213264,389.972900 116.390945,393.105347 117.556137,393.771301 
	C120.609512,395.516479 124.083748,396.525330 127.390244,397.827637 
	C129.462814,401.599426 131.699188,405.294922 133.511551,409.187866 
	C134.080383,410.409729 133.737503,412.214203 133.409256,413.660614 
	C132.835632,416.188171 131.950165,418.644928 131.157074,421.529968 
	C123.130798,421.834656 117.583054,416.604889 111.983513,412.128845 
	C103.034012,404.974945 96.247993,395.854187 91.987480,385.155090 
	C86.947433,372.498322 91.299103,364.848724 104.620552,362.401276 
	C104.551056,361.958801 104.647598,361.308533 104.387321,361.096710 
	C85.095192,345.398315 76.336639,324.091248 72.223259,300.393250 
	C71.053123,293.651855 75.283867,285.909912 80.951385,283.238678 
	C87.048325,280.365021 93.830696,281.631897 98.902519,287.658813 
	C102.855927,292.356598 107.507965,294.478699 114.423561,294.778839 
	C100.737160,285.262024 95.778145,270.893158 89.295303,257.546051 
	C84.562103,247.801163 86.035461,237.428253 86.456245,227.128387 
	C86.874115,216.900085 87.475784,206.597473 86.664101,196.433884 
	C86.232803,191.033234 82.513931,185.979385 81.092415,180.555817 
	C78.222885,169.607559 81.890892,159.401382 86.391968,149.739792 
	C91.336357,139.126602 95.759315,128.657059 96.435051,116.646584 
	C96.715782,111.656784 99.354301,106.360886 102.187973,102.034203 
	C111.373222,88.009399 128.039932,92.537010 134.758499,101.665474 
	C142.527618,112.221313 142.929688,124.128456 140.685471,136.457535 
	C139.617126,142.326675 138.984421,148.291794 137.611725,154.084854 
	C135.671265,162.273880 138.211594,169.549362 142.687714,175.786621 
	C150.612915,186.830017 156.186371,198.556168 157.926147,212.137314 
	C158.198700,214.264908 160.227951,217.215195 162.129349,217.908783 
	C171.369232,221.279358 176.956711,227.630142 179.885178,237.124496 
	C179.386841,237.959427 178.577240,238.566772 177.096161,239.182556 
	C166.279526,234.525986 156.466995,229.415619 149.238510,220.472931 
	C139.519806,208.449524 133.681503,194.471771 130.182846,179.720001 
	C127.251892,167.361862 125.613945,154.642380 124.232140,141.992371 
	C123.425369,134.606628 123.882523,127.013695 124.485481,119.571869 
	C124.793152,115.774490 125.255730,112.369049 121.220116,110.739677 
	C117.323929,109.166611 113.324387,109.084305 110.478729,113.043564 
	C108.450356,115.865707 106.394783,118.693718 104.660355,121.697540 
	C94.407570,139.454224 93.342026,159.347733 92.219986,179.019974 
	C91.658066,188.872086 92.887321,198.899887 94.046532,208.761246 
	C96.428970,229.028702 101.795158,248.545105 111.838150,266.407318 
	C116.668121,274.997772 123.624939,281.960358 132.974701,286.006897 
z"/>
<path fill="#D76168" opacity="1.000000" stroke="none" 
	d="
M408.713470,218.916290 
	C415.144165,222.132965 421.230804,225.526123 427.524323,228.478195 
	C428.496429,228.934189 431.183472,227.776047 431.776520,226.668060 
	C435.756958,219.231308 439.668396,211.729385 443.033813,204.001099 
	C445.478333,198.387589 446.943787,192.355606 449.029053,186.576340 
	C457.301697,163.648895 461.107422,140.054688 459.981598,115.672478 
	C459.604858,107.513153 461.045746,106.389511 468.318695,109.713142 
	C471.508026,111.170631 474.538483,113.487968 476.941864,116.066589 
	C488.841278,128.833801 494.929382,144.499496 496.710724,161.466888 
	C499.255219,185.704071 498.368073,210.014404 491.036621,233.428604 
	C487.900116,243.445496 482.322540,252.747818 477.372345,262.120361 
	C475.610779,265.455719 474.481293,267.753998 477.871338,270.618073 
	C479.586456,272.067108 480.620514,274.322205 481.945190,276.919922 
	C477.600891,279.110382 473.273895,280.593719 468.657776,281.916626 
	C466.690033,279.876373 465.194427,279.918121 463.535248,281.923279 
	C459.881439,286.338989 456.217438,290.756866 452.337646,294.971375 
	C449.408051,298.153748 446.137482,301.022156 442.632202,304.022461 
	C437.493042,306.353790 432.740326,308.693024 427.623871,311.069458 
	C426.100525,311.523529 424.940948,311.940399 423.403748,312.320404 
	C422.014130,312.265381 421.002106,312.247284 419.809021,311.904785 
	C417.462616,310.776276 415.294189,309.980225 413.132416,309.166412 
	C405.139771,306.157684 398.483734,301.274323 396.931488,292.587799 
	C395.557709,284.900146 395.309387,276.878632 395.660614,269.053741 
	C395.995331,261.595398 399.237030,255.187668 405.732941,250.567078 
	C409.719574,247.731369 413.055725,243.981201 417.042877,240.311340 
	C410.470856,236.787842 404.248657,233.451874 398.026428,230.115906 
	C401.234833,226.668549 404.443207,223.221191 407.793945,219.481934 
	C408.103302,219.109406 408.270264,219.028809 408.713470,218.916290 
M483.012695,228.370728 
	C484.374237,219.878448 486.180878,211.429276 487.008301,202.885269 
	C488.968018,182.649063 489.566193,162.440582 483.006958,142.723785 
	C480.301605,134.591614 475.458282,127.911133 469.479065,121.722809 
	C468.930298,127.970024 469.725922,134.186142 468.784790,140.127136 
	C465.646759,159.936432 461.652191,179.503311 454.870605,198.564240 
	C447.219360,220.069397 437.399384,239.096313 416.654266,251.190201 
	C402.545807,259.415070 402.427856,273.954834 404.386505,288.039307 
	C405.580872,296.627838 414.883942,302.711334 424.991486,303.039978 
	C429.478302,303.185822 433.872498,304.281738 437.268738,299.354614 
	C441.393280,293.370911 446.496887,288.067505 451.098541,282.406128 
	C464.267548,266.204376 475.748932,248.989319 483.012695,228.370728 
z"/>
<path fill="#D44753" opacity="1.000000" stroke="none" 
	d="
M233.448639,104.624519 
	C223.334137,100.225266 215.154068,94.461746 214.601410,82.611427 
	C214.121262,72.316002 217.305817,63.261475 226.728531,58.014427 
	C235.881531,52.917572 245.464691,52.911819 254.769501,58.256763 
	C255.323517,58.575008 255.937286,58.789227 256.443512,59.016117 
	C258.976593,55.762646 261.102783,52.355267 263.878113,49.602306 
	C270.464966,43.068550 279.754211,41.473133 287.288513,45.136326 
	C296.213318,49.475586 301.098785,57.867970 300.292847,67.310242 
	C299.269592,79.298683 294.466034,90.103500 289.853485,100.970245 
	C288.164551,104.949341 286.422424,108.906197 284.673218,112.859329 
	C282.431915,117.924492 278.131195,119.961441 273.420074,118.337196 
	C260.224884,113.787910 247.014923,109.281563 233.448639,104.624519 
z"/>
<path fill="#D76167" opacity="1.000000" stroke="none" 
	d="
M484.138855,279.894012 
	C486.362976,283.146912 488.587097,286.399841 491.430573,290.558624 
	C494.290375,287.488525 497.244873,284.820831 499.592010,281.696808 
	C505.257599,274.155945 510.616150,266.384979 516.153625,258.746796 
	C517.402283,257.024384 518.649536,255.177078 520.290649,253.887772 
	C524.258850,250.770233 528.875183,251.950836 529.929016,256.855988 
	C530.954712,261.630585 531.251160,266.781982 530.703064,271.636444 
	C528.320496,292.736877 519.976562,311.508331 507.725128,328.732086 
	C506.071320,331.057068 505.872681,334.417084 505.094788,337.728729 
	C505.095978,338.595428 505.002655,339.031281 504.768524,339.769409 
	C502.340179,341.593811 499.766754,342.825287 497.843292,344.717438 
	C495.808533,346.719116 494.392456,349.349731 492.123352,351.654724 
	C490.775818,350.036774 490.011047,348.469696 489.242371,346.894592 
	C485.189484,348.789276 481.643524,350.545746 478.016632,352.115326 
	C474.204865,353.765015 470.417389,355.615051 466.433136,356.683350 
	C462.019745,357.866699 457.372559,358.992615 452.867981,358.850525 
	C443.749207,358.562897 435.116272,351.709503 433.663147,344.859497 
	C431.164703,333.082214 433.220764,325.299561 442.403015,319.918243 
	C451.121887,314.808502 460.279297,310.444550 469.266998,305.797333 
	C472.472839,304.139740 475.746521,302.613281 479.850342,300.605743 
	C476.971375,296.256104 474.543304,292.587646 472.088989,288.602875 
	C472.059235,287.862091 472.055725,287.437592 472.403839,286.977112 
	C476.549957,284.592102 480.344391,282.243042 484.138855,279.894012 
M449.729828,349.110229 
	C457.288574,352.398773 463.615936,347.238281 470.239777,345.541595 
	C478.686523,343.377991 485.121674,337.618744 491.615936,331.227081 
	C502.980804,320.041626 511.379181,307.527313 516.480103,292.727905 
	C518.888184,285.741364 520.036926,278.320740 521.756287,271.096802 
	C521.195740,270.924133 520.635132,270.751465 520.074524,270.578796 
	C517.539612,273.988037 515.015808,277.405579 512.468018,280.805145 
	C496.619110,301.952301 476.075714,316.423279 450.814026,324.215363 
	C445.791321,325.764679 441.261688,331.204071 441.005066,335.727905 
	C440.603302,342.810883 442.419281,345.827423 449.729828,349.110229 
z"/>
<path fill="#D44855" opacity="1.000000" stroke="none" 
	d="
M385.997406,78.970444 
	C380.986084,70.463356 376.682495,62.065594 375.591400,52.400082 
	C374.582916,43.465996 378.600922,34.980824 385.718140,31.226982 
	C392.583069,27.606197 405.185577,28.752975 410.776306,33.895626 
	C412.777405,35.736362 413.986420,38.438198 414.784729,39.611786 
	C420.560303,41.027378 425.780518,41.610874 430.370575,43.628151 
	C434.934418,45.633911 435.980347,50.286419 435.267120,55.119507 
	C433.897125,64.403481 428.227844,70.931862 420.716644,75.587685 
	C414.420746,79.490204 407.353760,82.134293 400.699921,85.478310 
	C395.429962,88.126831 391.473389,86.830261 388.408234,81.967957 
	C387.792816,80.991661 386.945892,80.161285 385.997406,78.970444 
z"/>
<path fill="#D34C58" opacity="1.000000" stroke="none" 
	d="
M412.023071,130.103043 
	C415.934845,136.369339 413.306030,141.485657 409.422211,145.808533 
	C405.096680,150.623062 400.174957,154.932632 395.280914,159.195923 
	C391.405975,162.571487 385.116272,161.737244 381.475525,157.988098 
	C377.079498,153.461243 373.494141,148.580368 373.213562,141.972488 
	C373.004364,137.044632 374.778839,133.182129 379.377258,130.943207 
	C383.600189,128.887100 387.099243,130.349289 390.301147,133.251740 
	C390.902008,133.796387 391.631500,134.199112 392.267151,134.643234 
	C402.176483,125.983910 405.031921,125.290161 412.023071,130.103043 
z"/>
<path fill="#FECCCB" opacity="1.000000" stroke="none" 
	d="
M419.990051,312.229156 
	C421.002106,312.247284 422.014130,312.265381 423.529358,312.607117 
	C426.429932,314.505463 425.142426,316.026306 424.239441,317.899536 
	C418.131348,330.570068 420.133972,343.235931 430.590698,352.841339 
	C435.592499,357.435913 441.800568,360.717346 447.601532,364.688843 
	C446.948212,365.392517 446.087311,366.386047 445.157715,367.310516 
	C438.525055,373.906372 437.102509,381.331787 440.469666,390.084961 
	C444.424622,400.366241 452.968781,404.248077 462.772217,404.770294 
	C469.363861,405.121399 476.061310,402.439941 482.755066,402.160431 
	C493.418915,401.715240 501.920990,397.022919 509.327362,390.038849 
	C519.464172,380.479980 519.309143,374.766632 509.301971,365.186401 
	C509.079498,364.973419 509.016846,364.593475 508.879639,364.291443 
	C527.962402,366.163818 546.469177,370.485168 563.145935,380.099854 
	C571.403320,384.860535 579.331726,390.800476 585.989197,397.597473 
	C598.828796,410.706421 597.291199,431.804504 583.244019,445.644318 
	C572.091248,456.632507 558.257996,463.054047 543.688965,468.275391 
	C519.354065,476.996765 483.122681,479.331757 456.617004,473.235229 
	C457.449280,464.497131 458.270111,455.624329 459.149139,446.757263 
	C459.591217,442.297791 460.470154,437.856598 460.575348,433.393555 
	C460.860321,421.299408 452.570953,412.632904 440.402496,412.929535 
	C422.204132,413.373169 405.886993,419.275818 391.720032,430.994141 
	C381.117004,439.764465 372.021851,449.476837 368.899506,463.433777 
	C368.104645,466.986908 367.505188,470.583771 366.565582,475.459595 
	C354.889160,477.082947 342.622498,479.678741 330.259064,480.278320 
	C315.329407,481.002350 300.317932,479.918396 285.341370,479.891693 
	C282.178864,479.886047 278.551392,480.285278 275.926422,481.834015 
	C259.963257,491.252594 242.201019,493.799835 224.323792,495.938599 
	C216.114304,496.920776 208.532043,494.335938 201.204437,490.889404 
	C185.846802,483.665955 174.891052,472.016235 166.836594,457.270264 
	C159.586319,443.996643 152.531967,430.522156 139.618378,421.037079 
	C149.739502,417.699524 158.131226,421.383667 165.674911,426.314575 
	C174.538757,432.108398 183.112610,438.538422 190.977615,445.619568 
	C201.034744,454.674347 210.857758,463.867035 223.115662,469.949890 
	C226.051025,471.406555 229.394760,474.130188 231.878494,470.160919 
	C234.643433,465.742249 230.511246,463.174438 227.553085,461.559753 
	C216.746811,455.661377 207.876755,447.440674 198.673615,439.460236 
	C189.547791,431.546814 179.602539,424.546844 169.748642,417.522217 
	C166.417328,415.147369 162.419479,413.313293 158.453735,412.318817 
	C153.052536,410.964386 150.104736,407.602631 147.413467,403.109039 
	C137.445984,386.466675 131.474915,368.612183 131.341019,349.176178 
	C131.195160,328.003082 136.938766,308.379578 148.745071,290.678894 
	C171.507584,256.552124 203.831497,235.833572 242.500427,224.146408 
	C287.247284,210.622299 332.129395,211.065659 377.018799,223.387329 
	C382.938660,225.012253 388.617737,227.514465 394.694550,230.134766 
	C392.556824,233.364166 390.097534,236.038498 387.716248,238.780548 
	C382.716431,244.537903 378.773407,251.054596 378.137939,258.671936 
	C376.418091,279.287323 384.542694,295.610596 401.326477,307.459717 
	C406.763336,311.298065 413.212708,312.811005 419.990051,312.229156 
M181.710709,387.062500 
	C188.055878,388.791412 194.401031,390.520325 201.211349,392.748413 
	C208.594864,397.218140 215.978363,401.687866 223.914963,406.492432 
	C225.327499,404.690979 226.934769,402.850037 228.311066,400.850159 
	C234.675812,391.601685 235.304871,380.985016 235.628265,370.257507 
	C235.743912,366.421448 233.331100,366.971069 230.078369,367.037903 
	C220.208923,367.380280 210.338104,367.690430 200.471680,368.104645 
	C199.197342,368.158142 197.945633,368.750793 195.787292,369.062317 
	C188.774475,369.329285 181.761642,369.596222 174.218048,369.883392 
	C174.709442,374.685120 175.193695,378.572662 175.480957,382.474731 
	C175.740341,385.997955 177.414078,387.515015 181.710709,387.062500 
M357.803314,380.773590 
	C362.826508,380.379669 364.546844,377.570465 363.834473,372.777435 
	C363.396057,369.827545 363.102753,366.843842 362.963409,363.865082 
	C362.816162,360.718140 361.165405,360.103699 358.354584,360.304626 
	C352.900940,360.694458 347.427063,360.800537 341.082123,361.083221 
	C330.307465,361.740265 319.532776,362.397308 307.932892,363.131531 
	C303.261383,362.335144 301.167999,364.371033 301.224152,369.038361 
	C301.280029,373.680725 300.808014,378.355072 301.197113,382.962219 
	C301.928131,391.617706 304.253662,399.820007 309.348572,406.878448 
	C314.845825,402.840363 319.896698,398.859650 325.229065,395.300751 
	C329.332611,392.562012 333.790192,390.353760 338.817566,387.934265 
	C344.894714,385.557404 350.971863,383.180573 357.803314,380.773590 
M284.078308,437.358063 
	C284.629700,434.937347 285.453857,432.542389 285.685211,430.091461 
	C286.682495,419.525909 286.611389,419.395630 276.254242,420.050385 
	C267.539886,420.601318 258.846619,421.485931 250.283051,422.211029 
	C248.854492,434.589417 254.662582,445.057861 264.234924,448.133026 
	C271.530396,450.476776 278.686584,446.789978 284.078308,437.358063 
z"/>
<path fill="#D9636A" opacity="1.000000" stroke="none" 
	d="
M133.272903,285.851196 
	C123.624939,281.960358 116.668121,274.997772 111.838150,266.407318 
	C101.795158,248.545105 96.428970,229.028702 94.046532,208.761246 
	C92.887321,198.899887 91.658066,188.872086 92.219986,179.019974 
	C93.342026,159.347733 94.407570,139.454224 104.660355,121.697540 
	C106.394783,118.693718 108.450356,115.865707 110.478729,113.043564 
	C113.324387,109.084305 117.323929,109.166611 121.220116,110.739677 
	C125.255730,112.369049 124.793152,115.774490 124.485481,119.571869 
	C123.882523,127.013695 123.425369,134.606628 124.232140,141.992371 
	C125.613945,154.642380 127.251892,167.361862 130.182846,179.720001 
	C133.681503,194.471771 139.519806,208.449524 149.238510,220.472931 
	C156.466995,229.415619 166.279526,234.525986 176.803238,239.296051 
	C173.731476,242.211838 170.281174,245.022537 166.315704,247.706482 
	C164.627167,246.958740 163.504227,246.204742 162.272522,245.737488 
	C151.299500,241.574844 143.177368,233.934479 136.367477,224.662994 
	C126.548225,211.294342 120.846977,195.992081 117.246559,180.115265 
	C114.133835,166.389023 112.879768,152.241302 110.912018,139.005875 
	C110.520515,140.192810 109.514587,142.300766 109.144760,144.514984 
	C106.524734,160.201462 105.088760,175.939819 105.871162,191.910217 
	C106.990227,214.752747 112.255295,236.471909 122.196877,257.024994 
	C126.230171,265.363373 132.933090,271.173737 141.194382,275.230927 
	C138.653290,278.719116 136.112213,282.207336 133.272903,285.851196 
z"/>
<path fill="#FECBCA" opacity="1.000000" stroke="none" 
	d="
M436.468750,492.584351 
	C432.036865,494.364288 428.012115,496.635925 423.728302,497.346985 
	C411.415161,499.390808 399.698242,496.354370 389.224121,490.166077 
	C375.714600,482.184418 373.343842,469.836334 382.601440,455.352417 
	C392.250763,440.255524 406.099152,430.096161 423.406494,425.096283 
	C428.490784,423.627441 433.799072,422.543243 439.066315,422.182556 
	C449.016785,421.501160 454.617340,429.426239 452.131470,439.006226 
	C450.067749,446.959534 448.900665,455.152161 447.499298,463.266876 
	C447.048462,465.877563 446.888641,468.586273 446.988190,471.235413 
	C447.322510,480.133606 443.606293,486.986267 436.468750,492.584351 
z"/>
<path fill="#FE8F95" opacity="1.000000" stroke="none" 
	d="
M141.437622,274.995911 
	C132.933090,271.173737 126.230171,265.363373 122.196877,257.024994 
	C112.255295,236.471909 106.990227,214.752747 105.871162,191.910217 
	C105.088760,175.939819 106.524734,160.201462 109.144760,144.514984 
	C109.514587,142.300766 110.520515,140.192810 110.912018,139.005875 
	C112.879768,152.241302 114.133835,166.389023 117.246559,180.115265 
	C120.846977,195.992081 126.548225,211.294342 136.367477,224.662994 
	C143.177368,233.934479 151.299500,241.574844 162.272522,245.737488 
	C163.504227,246.204742 164.627167,246.958740 166.030457,247.874771 
	C158.067184,257.033508 149.874023,265.897217 141.437622,274.995911 
z"/>
<path fill="#FC9297" opacity="1.000000" stroke="none" 
	d="
M508.552948,364.145569 
	C509.016846,364.593475 509.079498,364.973419 509.301971,365.186401 
	C519.309143,374.766632 519.464172,380.479980 509.327362,390.038849 
	C501.920990,397.022919 493.418915,401.715240 482.755066,402.160431 
	C476.061310,402.439941 469.363861,405.121399 462.772217,404.770294 
	C452.968781,404.248077 444.424622,400.366241 440.469666,390.084961 
	C437.102509,381.331787 438.525055,373.906372 445.157715,367.310516 
	C446.087311,366.386047 446.948212,365.392517 447.601532,364.688843 
	C441.800568,360.717346 435.592499,357.435913 430.590698,352.841339 
	C420.133972,343.235931 418.131348,330.570068 424.239441,317.899536 
	C425.142426,316.026306 426.429932,314.505463 423.906921,312.644043 
	C424.940948,311.940399 426.100525,311.523529 427.817749,311.393799 
	C431.575806,311.776978 434.776276,311.872955 438.360229,311.972473 
	C447.316406,309.937561 453.383423,304.508514 459.177002,298.122131 
	C462.650543,294.293182 467.747742,291.937195 472.115204,288.919189 
	C474.543304,292.587646 476.971375,296.256104 479.850342,300.605743 
	C475.746521,302.613281 472.472839,304.139740 469.266998,305.797333 
	C460.279297,310.444550 451.121887,314.808502 442.403015,319.918243 
	C433.220764,325.299561 431.164703,333.082214 433.663147,344.859497 
	C435.116272,351.709503 443.749207,358.562897 452.867981,358.850525 
	C457.372559,358.992615 462.019745,357.866699 466.433136,356.683350 
	C470.417389,355.615051 474.204865,353.765015 478.016632,352.115326 
	C481.643524,350.545746 485.189484,348.789276 489.242371,346.894592 
	C490.011047,348.469696 490.775818,350.036774 491.830200,351.816589 
	C492.097992,352.476074 492.076172,352.922791 491.628052,353.723816 
	C482.824982,357.976807 474.448181,361.875519 466.980499,365.351074 
	C472.348175,366.131287 478.498535,367.378723 484.703369,367.776520 
	C487.757538,367.972290 491.587799,369.953217 494.044647,366.044708 
	C497.282867,367.453857 500.194977,367.609863 503.159210,364.988586 
	C504.270599,364.005798 506.504272,364.292023 508.552948,364.145569 
M501.009521,387.459167 
	C503.018677,384.628082 505.614899,382.025787 506.837921,378.888275 
	C507.704529,376.665009 507.681396,372.630646 506.288635,371.393219 
	C504.827423,370.095001 500.778107,370.264740 498.698242,371.370209 
	C491.560577,375.164093 484.123077,375.324493 476.448181,374.648590 
	C470.019562,374.082458 463.595062,373.273315 457.154419,373.098083 
	C451.362030,372.940491 448.227203,376.066833 446.730103,382.388184 
	C445.391907,388.038605 447.503021,392.788269 451.995728,395.558075 
	C465.540100,403.908234 491.123535,400.656311 501.009521,387.459167 
z"/>
<path fill="#FC9297" opacity="1.000000" stroke="none" 
	d="
M419.809021,311.904785 
	C413.212708,312.811005 406.763336,311.298065 401.326477,307.459717 
	C384.542694,295.610596 376.418091,279.287323 378.137939,258.671936 
	C378.773407,251.054596 382.716431,244.537903 387.716248,238.780548 
	C390.097534,236.038498 392.556824,233.364166 395.016235,230.310974 
	C395.795013,229.992157 396.538269,230.021530 397.653992,230.083405 
	C404.248657,233.451874 410.470856,236.787842 417.042877,240.311340 
	C413.055725,243.981201 409.719574,247.731369 405.732941,250.567078 
	C399.237030,255.187668 395.995331,261.595398 395.660614,269.053741 
	C395.309387,276.878632 395.557709,284.900146 396.931488,292.587799 
	C398.483734,301.274323 405.139771,306.157684 413.132416,309.166412 
	C415.294189,309.980225 417.462616,310.776276 419.809021,311.904785 
z"/>
<path fill="#D8636A" opacity="1.000000" stroke="none" 
	d="
M116.001495,351.640320 
	C113.158821,350.084290 109.949783,348.481628 107.690872,346.010468 
	C97.363922,334.713196 89.546204,321.916870 86.536087,306.703156 
	C86.037163,304.181458 86.678833,300.962585 87.923180,298.682495 
	C89.614532,295.583313 92.729233,294.097168 96.373497,296.121063 
	C101.881996,299.180359 107.236862,302.541595 112.879044,305.324402 
	C115.773643,306.752075 119.149460,307.204102 122.733070,308.135925 
	C122.011177,312.267944 120.864029,316.361145 119.067230,320.731689 
	C114.079247,319.836578 109.740913,318.664124 104.466812,317.238739 
	C107.726891,324.774170 111.161682,331.138367 116.980347,335.981903 
	C116.677795,341.052521 116.375237,346.123108 116.001495,351.640320 
z"/>
<path fill="#FCC8C8" opacity="1.000000" stroke="none" 
	d="
M605.200195,342.088196 
	C600.128479,351.427979 594.316101,359.570953 584.554321,364.391113 
	C580.789307,359.395599 582.456055,354.107574 582.983643,348.979004 
	C584.297058,336.212219 592.162292,327.929047 602.426208,321.616730 
	C607.190308,318.686798 610.978088,321.124420 610.082458,326.672211 
	C609.251404,331.820831 607.006470,336.741211 605.200195,342.088196 
z"/>
<path fill="#FAC7C6" opacity="1.000000" stroke="none" 
	d="
M610.345703,421.382690 
	C609.389954,415.503052 608.593384,409.990662 607.761658,404.234894 
	C622.054871,407.473724 637.493225,431.100555 631.997375,440.986664 
	C621.524109,438.288788 614.293213,431.993744 610.345703,421.382690 
z"/>
<path fill="#FEC6C6" opacity="1.000000" stroke="none" 
	d="
M493.731995,365.794434 
	C491.587799,369.953217 487.757538,367.972290 484.703369,367.776520 
	C478.498535,367.378723 472.348175,366.131287 466.980499,365.351074 
	C474.448181,361.875519 482.824982,357.976807 491.549866,354.050201 
	C492.405090,357.862915 492.912201,361.703552 493.731995,365.794434 
z"/>
<path fill="#FB8D92" opacity="1.000000" stroke="none" 
	d="
M116.999649,335.557373 
	C111.161682,331.138367 107.726891,324.774170 104.466812,317.238739 
	C109.740913,318.664124 114.079247,319.836578 118.846252,321.018982 
	C118.522919,325.730225 117.770927,330.431549 116.999649,335.557373 
z"/>
<path fill="#F78D93" opacity="1.000000" stroke="none" 
	d="
M127.316315,397.458893 
	C124.083748,396.525330 120.609512,395.516479 117.556137,393.771301 
	C116.390945,393.105347 115.213264,389.972900 115.736702,389.316528 
	C117.193169,387.490143 119.538551,386.372650 121.950630,384.962158 
	C123.993057,388.996124 125.617729,393.043121 127.316315,397.458893 
z"/>
<path fill="#ED7077" opacity="1.000000" stroke="none" 
	d="
M484.081970,279.583801 
	C480.344391,282.243042 476.549957,284.592102 472.088898,286.828918 
	C470.597168,285.170166 469.772034,283.623627 468.946899,282.077057 
	C473.273895,280.593719 477.600891,279.110382 482.017883,277.257019 
	C482.746979,277.682556 483.386047,278.478058 484.081970,279.583801 
z"/>
<path fill="#FE9196" opacity="1.000000" stroke="none" 
	d="
M482.914764,228.760406 
	C475.748932,248.989319 464.267548,266.204376 451.098541,282.406128 
	C446.496887,288.067505 441.393280,293.370911 437.268738,299.354614 
	C433.872498,304.281738 429.478302,303.185822 424.991486,303.039978 
	C414.883942,302.711334 405.580872,296.627838 404.386505,288.039307 
	C402.427856,273.954834 402.545807,259.415070 416.654266,251.190201 
	C437.399384,239.096313 447.219360,220.069397 454.870605,198.564240 
	C461.652191,179.503311 465.646759,159.936432 468.784790,140.127136 
	C469.725922,134.186142 468.930298,127.970024 469.479065,121.722809 
	C475.458282,127.911133 480.301605,134.591614 483.006958,142.723785 
	C489.566193,162.440582 488.968018,182.649063 487.008301,202.885269 
	C486.180878,211.429276 484.374237,219.878448 482.914764,228.760406 
z"/>
<path fill="#FD7F85" opacity="1.000000" stroke="none" 
	d="
M468.657776,281.916626 
	C469.772034,283.623627 470.597168,285.170166 471.737244,286.864929 
	C472.055725,287.437592 472.059235,287.862091 472.088989,288.602875 
	C467.747742,291.937195 462.650543,294.293182 459.177002,298.122131 
	C453.383423,304.508514 447.316406,309.937561 438.401611,311.631042 
	C439.712555,308.867462 441.365601,306.448883 443.018616,304.030304 
	C446.137482,301.022156 449.408051,298.153748 452.337646,294.971375 
	C456.217438,290.756866 459.881439,286.338989 463.535248,281.923279 
	C465.194427,279.918121 466.690033,279.876373 468.657776,281.916626 
z"/>
<path fill="#F37278" opacity="1.000000" stroke="none" 
	d="
M442.632202,304.022461 
	C441.365601,306.448883 439.712555,308.867462 438.018127,311.627502 
	C434.776276,311.872955 431.575806,311.776978 428.181458,311.356628 
	C432.740326,308.693024 437.493042,306.353790 442.632202,304.022461 
z"/>
<path fill="#FE9196" opacity="1.000000" stroke="none" 
	d="
M449.337524,349.013733 
	C442.419281,345.827423 440.603302,342.810883 441.005066,335.727905 
	C441.261688,331.204071 445.791321,325.764679 450.814026,324.215363 
	C476.075714,316.423279 496.619110,301.952301 512.468018,280.805145 
	C515.015808,277.405579 517.539612,273.988037 520.074524,270.578796 
	C520.635132,270.751465 521.195740,270.924133 521.756287,271.096802 
	C520.036926,278.320740 518.888184,285.741364 516.480103,292.727905 
	C511.379181,307.527313 502.980804,320.041626 491.615936,331.227081 
	C485.121674,337.618744 478.686523,343.377991 470.239777,345.541595 
	C463.615936,347.238281 457.288574,352.398773 449.337524,349.013733 
z"/>
<path fill="#974C52" opacity="1.000000" stroke="none" 
	d="
M338.090363,387.909637 
	C333.790192,390.353760 329.332611,392.562012 325.229065,395.300751 
	C319.896698,398.859650 314.845825,402.840363 309.348572,406.878448 
	C304.253662,399.820007 301.928131,391.617706 301.197113,382.962219 
	C300.808014,378.355072 301.280029,373.680725 301.224152,369.038361 
	C301.167999,364.371033 303.261383,362.335144 308.355774,363.495850 
	C308.281769,367.963776 307.499664,372.057373 307.354858,376.173401 
	C307.138916,382.310883 309.526337,384.591278 315.604034,384.780426 
	C329.052673,385.198975 339.888489,375.432556 341.961548,361.024231 
	C347.427063,360.800537 352.900940,360.694458 358.354584,360.304626 
	C361.165405,360.103699 362.816162,360.718140 362.963409,363.865082 
	C363.102753,366.843842 363.396057,369.827545 363.834473,372.777435 
	C364.546844,377.570465 362.826508,380.379669 357.402649,380.351379 
	C357.000122,378.939362 357.005646,377.949463 356.995117,376.959747 
	C356.942963,372.065460 355.864624,371.189789 351.107819,372.171356 
	C342.188660,374.011749 337.851654,379.255310 338.090363,387.909637 
z"/>
<path fill="#954A50" opacity="1.000000" stroke="none" 
	d="
M283.929535,437.710693 
	C278.686584,446.789978 271.530396,450.476776 264.234924,448.133026 
	C254.662582,445.057861 248.854492,434.589417 250.283051,422.211029 
	C258.846619,421.485931 267.539886,420.601318 276.254242,420.050385 
	C286.611389,419.395630 286.682495,419.525909 285.685211,430.091461 
	C285.453857,432.542389 284.629700,434.937347 283.929535,437.710693 
z"/>
<path fill="#984C53" opacity="1.000000" stroke="none" 
	d="
M231.010681,367.015442 
	C233.331100,366.971069 235.743912,366.421448 235.628265,370.257507 
	C235.304871,380.985016 234.675812,391.601685 228.311066,400.850159 
	C226.934769,402.850037 225.327499,404.690979 223.914963,406.492432 
	C215.978363,401.687866 208.594864,397.218140 201.041306,392.077057 
	C200.698792,382.909363 193.117432,375.198059 184.773697,375.021362 
	C180.977188,374.941010 178.542679,375.937744 179.870346,380.533264 
	C180.459137,382.571228 180.594925,384.740051 180.936340,386.849487 
	C177.414078,387.515015 175.740341,385.997955 175.480957,382.474731 
	C175.193695,378.572662 174.709442,374.685120 174.218048,369.883392 
	C181.761642,369.596222 188.774475,369.329285 196.292526,369.454773 
	C199.448654,383.770538 213.041458,388.459595 223.659561,387.630737 
	C229.339844,387.187347 230.416809,385.560455 230.645599,379.131348 
	C230.815643,377.191956 230.802460,375.607605 230.833344,373.685913 
	C230.850098,372.896637 230.822815,372.444763 230.884613,371.625580 
	C230.914612,370.509918 230.855530,369.761505 230.846024,368.681702 
	C230.933960,367.905365 230.972321,367.460388 231.010681,367.015442 
z"/>
<path fill="#FBFAF5" opacity="1.000000" stroke="none" 
	d="
M341.521851,361.053711 
	C339.888489,375.432556 329.052673,385.198975 315.604034,384.780426 
	C309.526337,384.591278 307.138916,382.310883 307.354858,376.173401 
	C307.499664,372.057373 308.281769,367.963776 308.768402,363.457245 
	C319.532776,362.397308 330.307465,361.740265 341.521851,361.053711 
z"/>
<path fill="#FCFBF7" opacity="1.000000" stroke="none" 
	d="
M230.544525,367.026672 
	C230.972321,367.460388 230.933960,367.905365 230.641815,368.882294 
	C230.523865,370.273804 230.659698,371.133331 230.795532,371.992859 
	C230.822815,372.444763 230.850098,372.896637 230.594696,373.999207 
	C230.362106,376.262054 230.412247,377.874207 230.462372,379.486359 
	C230.416809,385.560455 229.339844,387.187347 223.659561,387.630737 
	C213.041458,388.459595 199.448654,383.770538 196.740601,369.470459 
	C197.945633,368.750793 199.197342,368.158142 200.471680,368.104645 
	C210.338104,367.690430 220.208923,367.380280 230.544525,367.026672 
z"/>
<path fill="#F4496F" opacity="1.000000" stroke="none" 
	d="
M181.323517,386.955994 
	C180.594925,384.740051 180.459137,382.571228 179.870346,380.533264 
	C178.542679,375.937744 180.977188,374.941010 184.773697,375.021362 
	C193.117432,375.198059 200.698792,382.909363 200.808716,391.827454 
	C194.401031,390.520325 188.055878,388.791412 181.323517,386.955994 
z"/>
<path fill="#F4486E" opacity="1.000000" stroke="none" 
	d="
M338.453979,387.921936 
	C337.851654,379.255310 342.188660,374.011749 351.107819,372.171356 
	C355.864624,371.189789 356.942963,372.065460 356.995117,376.959747 
	C357.005646,377.949463 357.000122,378.939362 357.025513,380.366455 
	C350.971863,383.180573 344.894714,385.557404 338.453979,387.921936 
z"/>
<path fill="#D76167" opacity="1.000000" stroke="none" 
	d="
M500.765320,387.718323 
	C491.123535,400.656311 465.540100,403.908234 451.995728,395.558075 
	C447.503021,392.788269 445.391907,388.038605 446.730103,382.388184 
	C448.227203,376.066833 451.362030,372.940491 457.154419,373.098083 
	C463.595062,373.273315 470.019562,374.082458 476.448181,374.648590 
	C484.123077,375.324493 491.560577,375.164093 498.698242,371.370209 
	C500.778107,370.264740 504.827423,370.095001 506.288635,371.393219 
	C507.681396,372.630646 507.704529,376.665009 506.837921,378.888275 
	C505.614899,382.025787 503.018677,384.628082 500.765320,387.718323 
M490.070343,383.959137 
	C478.554657,383.522125 467.038971,383.085114 455.485718,382.646698 
	C453.899536,386.298950 455.465240,388.934631 458.906219,389.275757 
	C465.887878,389.967834 473.029541,390.623260 479.939819,389.837982 
	C483.795563,389.399780 487.319031,386.038177 491.282349,383.896881 
	C491.190399,383.933960 491.098450,383.971008 490.070343,383.959137 
z"/>
<path fill="#FECCCB" opacity="1.000000" stroke="none" 
	d="
M230.645599,379.131348 
	C230.412247,377.874207 230.362106,376.262054 230.550629,374.336578 
	C230.802460,375.607605 230.815643,377.191956 230.645599,379.131348 
z"/>
<path fill="#FECCCB" opacity="1.000000" stroke="none" 
	d="
M230.884613,371.625580 
	C230.659698,371.133331 230.523865,370.273804 230.592239,369.213684 
	C230.855530,369.761505 230.914612,370.509918 230.884613,371.625580 
z"/>
<path fill="#FC8E94" opacity="1.000000" stroke="none" 
	d="
M490.992249,383.993958 
	C487.319031,386.038177 483.795563,389.399780 479.939819,389.837982 
	C473.029541,390.623260 465.887878,389.967834 458.906219,389.275757 
	C455.465240,388.934631 453.899536,386.298950 455.485718,382.646698 
	C467.038971,383.085114 478.554657,383.522125 490.535156,383.979553 
	C491.000000,384.000000 490.992249,383.993958 490.992249,383.993958 
z"/>
<path fill="#FC8E94" opacity="1.000000" stroke="none" 
	d="
M491.003235,384.004028 
	C491.098450,383.971008 491.190399,383.933960 491.137299,383.945435 
	C490.992249,383.993958 491.000000,384.000000 491.003235,384.004028 
z"/>
</svg>